<?xml version="1.0" encoding="utf-8" standalone="no"?>
<!DOCTYPE svg PUBLIC "-//W3C//DTD SVG 1.1//EN"
  "http://www.w3.org/Graphics/SVG/1.1/DTD/svg11.dtd">
<!-- Created with matplotlib (https://matplotlib.org/) -->
<svg height="1440pt" version="1.1" viewBox="0 0 1440 1440" width="1440pt" xmlns="http://www.w3.org/2000/svg" xmlns:xlink="http://www.w3.org/1999/xlink">
 <defs>
  <style type="text/css">
*{stroke-linecap:butt;stroke-linejoin:round;}
  </style>
 </defs>
 <g id="figure_1">
  <g id="patch_1">
   <path d="M 0 1440 
L 1440 1440 
L 1440 0 
L 0 0 
z
" style="fill:#ffffff;"/>
  </g>
  <g id="axes_1">
   <g id="patch_2">
    <path d="M 180 288.459574 
L 1296 288.459574 
L 1296 172.8 
L 180 172.8 
z
" style="fill:#ffffff;"/>
   </g>
   <g id="matplotlib.axis_1">
    <g id="xtick_1">
     <g id="line2d_1">
      <defs>
       <path d="M 0 0 
L 0 3.5 
" id="m51767ff0ce" style="stroke:#000000;stroke-width:0.8;"/>
      </defs>
      <g>
       <use style="stroke:#000000;stroke-width:0.8;" x="230.574203" xlink:href="#m51767ff0ce" y="288.459574"/>
      </g>
     </g>
    </g>
    <g id="xtick_2">
     <g id="line2d_2">
      <g>
       <use style="stroke:#000000;stroke-width:0.8;" x="383.643825" xlink:href="#m51767ff0ce" y="288.459574"/>
      </g>
     </g>
    </g>
    <g id="xtick_3">
     <g id="line2d_3">
      <g>
       <use style="stroke:#000000;stroke-width:0.8;" x="536.713447" xlink:href="#m51767ff0ce" y="288.459574"/>
      </g>
     </g>
    </g>
    <g id="xtick_4">
     <g id="line2d_4">
      <g>
       <use style="stroke:#000000;stroke-width:0.8;" x="689.783069" xlink:href="#m51767ff0ce" y="288.459574"/>
      </g>
     </g>
    </g>
    <g id="xtick_5">
     <g id="line2d_5">
      <g>
       <use style="stroke:#000000;stroke-width:0.8;" x="842.852691" xlink:href="#m51767ff0ce" y="288.459574"/>
      </g>
     </g>
    </g>
    <g id="xtick_6">
     <g id="line2d_6">
      <g>
       <use style="stroke:#000000;stroke-width:0.8;" x="995.922313" xlink:href="#m51767ff0ce" y="288.459574"/>
      </g>
     </g>
    </g>
    <g id="xtick_7">
     <g id="line2d_7">
      <g>
       <use style="stroke:#000000;stroke-width:0.8;" x="1148.991935" xlink:href="#m51767ff0ce" y="288.459574"/>
      </g>
     </g>
    </g>
   </g>
   <g id="matplotlib.axis_2">
    <g id="ytick_1">
     <g id="line2d_8">
      <defs>
       <path d="M 0 0 
L -3.5 0 
" id="madd923904c" style="stroke:#000000;stroke-width:0.8;"/>
      </defs>
      <g>
       <use style="stroke:#000000;stroke-width:0.8;" x="180" xlink:href="#madd923904c" y="283.204945"/>
      </g>
     </g>
     <g id="text_1">
      <!-- 0 -->
      <defs>
       <path d="M 31.78125 66.40625 
Q 24.171875 66.40625 20.328125 58.90625 
Q 16.5 51.421875 16.5 36.375 
Q 16.5 21.390625 20.328125 13.890625 
Q 24.171875 6.390625 31.78125 6.390625 
Q 39.453125 6.390625 43.28125 13.890625 
Q 47.125 21.390625 47.125 36.375 
Q 47.125 51.421875 43.28125 58.90625 
Q 39.453125 66.40625 31.78125 66.40625 
z
M 31.78125 74.21875 
Q 44.046875 74.21875 50.515625 64.515625 
Q 56.984375 54.828125 56.984375 36.375 
Q 56.984375 17.96875 50.515625 8.265625 
Q 44.046875 -1.421875 31.78125 -1.421875 
Q 19.53125 -1.421875 13.0625 8.265625 
Q 6.59375 17.96875 6.59375 36.375 
Q 6.59375 54.828125 13.0625 64.515625 
Q 19.53125 74.21875 31.78125 74.21875 
z
" id="DejaVuSans-48"/>
      </defs>
      <g transform="translate(166.6375 287.004163)scale(0.1 -0.1)">
       <use xlink:href="#DejaVuSans-48"/>
      </g>
     </g>
    </g>
    <g id="ytick_2">
     <g id="line2d_9">
      <g>
       <use style="stroke:#000000;stroke-width:0.8;" x="180" xlink:href="#madd923904c" y="262.004812"/>
      </g>
     </g>
     <g id="text_2">
      <!-- 20 -->
      <defs>
       <path d="M 19.1875 8.296875 
L 53.609375 8.296875 
L 53.609375 0 
L 7.328125 0 
L 7.328125 8.296875 
Q 12.9375 14.109375 22.625 23.890625 
Q 32.328125 33.6875 34.8125 36.53125 
Q 39.546875 41.84375 41.421875 45.53125 
Q 43.3125 49.21875 43.3125 52.78125 
Q 43.3125 58.59375 39.234375 62.25 
Q 35.15625 65.921875 28.609375 65.921875 
Q 23.96875 65.921875 18.8125 64.3125 
Q 13.671875 62.703125 7.8125 59.421875 
L 7.8125 69.390625 
Q 13.765625 71.78125 18.9375 73 
Q 24.125 74.21875 28.421875 74.21875 
Q 39.75 74.21875 46.484375 68.546875 
Q 53.21875 62.890625 53.21875 53.421875 
Q 53.21875 48.921875 51.53125 44.890625 
Q 49.859375 40.875 45.40625 35.40625 
Q 44.1875 33.984375 37.640625 27.21875 
Q 31.109375 20.453125 19.1875 8.296875 
z
" id="DejaVuSans-50"/>
      </defs>
      <g transform="translate(160.275 265.804031)scale(0.1 -0.1)">
       <use xlink:href="#DejaVuSans-50"/>
       <use x="63.623047" xlink:href="#DejaVuSans-48"/>
      </g>
     </g>
    </g>
    <g id="ytick_3">
     <g id="line2d_10">
      <g>
       <use style="stroke:#000000;stroke-width:0.8;" x="180" xlink:href="#madd923904c" y="240.804679"/>
      </g>
     </g>
     <g id="text_3">
      <!-- 40 -->
      <defs>
       <path d="M 37.796875 64.3125 
L 12.890625 25.390625 
L 37.796875 25.390625 
z
M 35.203125 72.90625 
L 47.609375 72.90625 
L 47.609375 25.390625 
L 58.015625 25.390625 
L 58.015625 17.1875 
L 47.609375 17.1875 
L 47.609375 0 
L 37.796875 0 
L 37.796875 17.1875 
L 4.890625 17.1875 
L 4.890625 26.703125 
z
" id="DejaVuSans-52"/>
      </defs>
      <g transform="translate(160.275 244.603898)scale(0.1 -0.1)">
       <use xlink:href="#DejaVuSans-52"/>
       <use x="63.623047" xlink:href="#DejaVuSans-48"/>
      </g>
     </g>
    </g>
    <g id="ytick_4">
     <g id="line2d_11">
      <g>
       <use style="stroke:#000000;stroke-width:0.8;" x="180" xlink:href="#madd923904c" y="219.604547"/>
      </g>
     </g>
     <g id="text_4">
      <!-- 60 -->
      <defs>
       <path d="M 33.015625 40.375 
Q 26.375 40.375 22.484375 35.828125 
Q 18.609375 31.296875 18.609375 23.390625 
Q 18.609375 15.53125 22.484375 10.953125 
Q 26.375 6.390625 33.015625 6.390625 
Q 39.65625 6.390625 43.53125 10.953125 
Q 47.40625 15.53125 47.40625 23.390625 
Q 47.40625 31.296875 43.53125 35.828125 
Q 39.65625 40.375 33.015625 40.375 
z
M 52.59375 71.296875 
L 52.59375 62.3125 
Q 48.875 64.0625 45.09375 64.984375 
Q 41.3125 65.921875 37.59375 65.921875 
Q 27.828125 65.921875 22.671875 59.328125 
Q 17.53125 52.734375 16.796875 39.40625 
Q 19.671875 43.65625 24.015625 45.921875 
Q 28.375 48.1875 33.59375 48.1875 
Q 44.578125 48.1875 50.953125 41.515625 
Q 57.328125 34.859375 57.328125 23.390625 
Q 57.328125 12.15625 50.6875 5.359375 
Q 44.046875 -1.421875 33.015625 -1.421875 
Q 20.359375 -1.421875 13.671875 8.265625 
Q 6.984375 17.96875 6.984375 36.375 
Q 6.984375 53.65625 15.1875 63.9375 
Q 23.390625 74.21875 37.203125 74.21875 
Q 40.921875 74.21875 44.703125 73.484375 
Q 48.484375 72.75 52.59375 71.296875 
z
" id="DejaVuSans-54"/>
      </defs>
      <g transform="translate(160.275 223.403765)scale(0.1 -0.1)">
       <use xlink:href="#DejaVuSans-54"/>
       <use x="63.623047" xlink:href="#DejaVuSans-48"/>
      </g>
     </g>
    </g>
    <g id="ytick_5">
     <g id="line2d_12">
      <g>
       <use style="stroke:#000000;stroke-width:0.8;" x="180" xlink:href="#madd923904c" y="198.404414"/>
      </g>
     </g>
     <g id="text_5">
      <!-- 80 -->
      <defs>
       <path d="M 31.78125 34.625 
Q 24.75 34.625 20.71875 30.859375 
Q 16.703125 27.09375 16.703125 20.515625 
Q 16.703125 13.921875 20.71875 10.15625 
Q 24.75 6.390625 31.78125 6.390625 
Q 38.8125 6.390625 42.859375 10.171875 
Q 46.921875 13.96875 46.921875 20.515625 
Q 46.921875 27.09375 42.890625 30.859375 
Q 38.875 34.625 31.78125 34.625 
z
M 21.921875 38.8125 
Q 15.578125 40.375 12.03125 44.71875 
Q 8.5 49.078125 8.5 55.328125 
Q 8.5 64.0625 14.71875 69.140625 
Q 20.953125 74.21875 31.78125 74.21875 
Q 42.671875 74.21875 48.875 69.140625 
Q 55.078125 64.0625 55.078125 55.328125 
Q 55.078125 49.078125 51.53125 44.71875 
Q 48 40.375 41.703125 38.8125 
Q 48.828125 37.15625 52.796875 32.3125 
Q 56.78125 27.484375 56.78125 20.515625 
Q 56.78125 9.90625 50.3125 4.234375 
Q 43.84375 -1.421875 31.78125 -1.421875 
Q 19.734375 -1.421875 13.25 4.234375 
Q 6.78125 9.90625 6.78125 20.515625 
Q 6.78125 27.484375 10.78125 32.3125 
Q 14.796875 37.15625 21.921875 38.8125 
z
M 18.3125 54.390625 
Q 18.3125 48.734375 21.84375 45.5625 
Q 25.390625 42.390625 31.78125 42.390625 
Q 38.140625 42.390625 41.71875 45.5625 
Q 45.3125 48.734375 45.3125 54.390625 
Q 45.3125 60.0625 41.71875 63.234375 
Q 38.140625 66.40625 31.78125 66.40625 
Q 25.390625 66.40625 21.84375 63.234375 
Q 18.3125 60.0625 18.3125 54.390625 
z
" id="DejaVuSans-56"/>
      </defs>
      <g transform="translate(160.275 202.203633)scale(0.1 -0.1)">
       <use xlink:href="#DejaVuSans-56"/>
       <use x="63.623047" xlink:href="#DejaVuSans-48"/>
      </g>
     </g>
    </g>
    <g id="ytick_6">
     <g id="line2d_13">
      <g>
       <use style="stroke:#000000;stroke-width:0.8;" x="180" xlink:href="#madd923904c" y="177.204281"/>
      </g>
     </g>
     <g id="text_6">
      <!-- 100 -->
      <defs>
       <path d="M 12.40625 8.296875 
L 28.515625 8.296875 
L 28.515625 63.921875 
L 10.984375 60.40625 
L 10.984375 69.390625 
L 28.421875 72.90625 
L 38.28125 72.90625 
L 38.28125 8.296875 
L 54.390625 8.296875 
L 54.390625 0 
L 12.40625 0 
z
" id="DejaVuSans-49"/>
      </defs>
      <g transform="translate(153.9125 181.0035)scale(0.1 -0.1)">
       <use xlink:href="#DejaVuSans-49"/>
       <use x="63.623047" xlink:href="#DejaVuSans-48"/>
       <use x="127.246094" xlink:href="#DejaVuSans-48"/>
      </g>
     </g>
    </g>
    <g id="text_7">
     <!-- Altitude (km) -->
     <defs>
      <path d="M 34.1875 63.1875 
L 20.796875 26.90625 
L 47.609375 26.90625 
z
M 28.609375 72.90625 
L 39.796875 72.90625 
L 67.578125 0 
L 57.328125 0 
L 50.6875 18.703125 
L 17.828125 18.703125 
L 11.1875 0 
L 0.78125 0 
z
" id="DejaVuSans-65"/>
      <path d="M 9.421875 75.984375 
L 18.40625 75.984375 
L 18.40625 0 
L 9.421875 0 
z
" id="DejaVuSans-108"/>
      <path d="M 18.3125 70.21875 
L 18.3125 54.6875 
L 36.8125 54.6875 
L 36.8125 47.703125 
L 18.3125 47.703125 
L 18.3125 18.015625 
Q 18.3125 11.328125 20.140625 9.421875 
Q 21.96875 7.515625 27.59375 7.515625 
L 36.8125 7.515625 
L 36.8125 0 
L 27.59375 0 
Q 17.1875 0 13.234375 3.875 
Q 9.28125 7.765625 9.28125 18.015625 
L 9.28125 47.703125 
L 2.6875 47.703125 
L 2.6875 54.6875 
L 9.28125 54.6875 
L 9.28125 70.21875 
z
" id="DejaVuSans-116"/>
      <path d="M 9.421875 54.6875 
L 18.40625 54.6875 
L 18.40625 0 
L 9.421875 0 
z
M 9.421875 75.984375 
L 18.40625 75.984375 
L 18.40625 64.59375 
L 9.421875 64.59375 
z
" id="DejaVuSans-105"/>
      <path d="M 8.5 21.578125 
L 8.5 54.6875 
L 17.484375 54.6875 
L 17.484375 21.921875 
Q 17.484375 14.15625 20.5 10.265625 
Q 23.53125 6.390625 29.59375 6.390625 
Q 36.859375 6.390625 41.078125 11.03125 
Q 45.3125 15.671875 45.3125 23.6875 
L 45.3125 54.6875 
L 54.296875 54.6875 
L 54.296875 0 
L 45.3125 0 
L 45.3125 8.40625 
Q 42.046875 3.421875 37.71875 1 
Q 33.40625 -1.421875 27.6875 -1.421875 
Q 18.265625 -1.421875 13.375 4.4375 
Q 8.5 10.296875 8.5 21.578125 
z
M 31.109375 56 
z
" id="DejaVuSans-117"/>
      <path d="M 45.40625 46.390625 
L 45.40625 75.984375 
L 54.390625 75.984375 
L 54.390625 0 
L 45.40625 0 
L 45.40625 8.203125 
Q 42.578125 3.328125 38.25 0.953125 
Q 33.9375 -1.421875 27.875 -1.421875 
Q 17.96875 -1.421875 11.734375 6.484375 
Q 5.515625 14.40625 5.515625 27.296875 
Q 5.515625 40.1875 11.734375 48.09375 
Q 17.96875 56 27.875 56 
Q 33.9375 56 38.25 53.625 
Q 42.578125 51.265625 45.40625 46.390625 
z
M 14.796875 27.296875 
Q 14.796875 17.390625 18.875 11.75 
Q 22.953125 6.109375 30.078125 6.109375 
Q 37.203125 6.109375 41.296875 11.75 
Q 45.40625 17.390625 45.40625 27.296875 
Q 45.40625 37.203125 41.296875 42.84375 
Q 37.203125 48.484375 30.078125 48.484375 
Q 22.953125 48.484375 18.875 42.84375 
Q 14.796875 37.203125 14.796875 27.296875 
z
" id="DejaVuSans-100"/>
      <path d="M 56.203125 29.59375 
L 56.203125 25.203125 
L 14.890625 25.203125 
Q 15.484375 15.921875 20.484375 11.0625 
Q 25.484375 6.203125 34.421875 6.203125 
Q 39.59375 6.203125 44.453125 7.46875 
Q 49.3125 8.734375 54.109375 11.28125 
L 54.109375 2.78125 
Q 49.265625 0.734375 44.1875 -0.34375 
Q 39.109375 -1.421875 33.890625 -1.421875 
Q 20.796875 -1.421875 13.15625 6.1875 
Q 5.515625 13.8125 5.515625 26.8125 
Q 5.515625 40.234375 12.765625 48.109375 
Q 20.015625 56 32.328125 56 
Q 43.359375 56 49.78125 48.890625 
Q 56.203125 41.796875 56.203125 29.59375 
z
M 47.21875 32.234375 
Q 47.125 39.59375 43.09375 43.984375 
Q 39.0625 48.390625 32.421875 48.390625 
Q 24.90625 48.390625 20.390625 44.140625 
Q 15.875 39.890625 15.1875 32.171875 
z
" id="DejaVuSans-101"/>
      <path id="DejaVuSans-32"/>
      <path d="M 31 75.875 
Q 24.46875 64.65625 21.28125 53.65625 
Q 18.109375 42.671875 18.109375 31.390625 
Q 18.109375 20.125 21.3125 9.0625 
Q 24.515625 -2 31 -13.1875 
L 23.1875 -13.1875 
Q 15.875 -1.703125 12.234375 9.375 
Q 8.59375 20.453125 8.59375 31.390625 
Q 8.59375 42.28125 12.203125 53.3125 
Q 15.828125 64.359375 23.1875 75.875 
z
" id="DejaVuSans-40"/>
      <path d="M 9.078125 75.984375 
L 18.109375 75.984375 
L 18.109375 31.109375 
L 44.921875 54.6875 
L 56.390625 54.6875 
L 27.390625 29.109375 
L 57.625 0 
L 45.90625 0 
L 18.109375 26.703125 
L 18.109375 0 
L 9.078125 0 
z
" id="DejaVuSans-107"/>
      <path d="M 52 44.1875 
Q 55.375 50.25 60.0625 53.125 
Q 64.75 56 71.09375 56 
Q 79.640625 56 84.28125 50.015625 
Q 88.921875 44.046875 88.921875 33.015625 
L 88.921875 0 
L 79.890625 0 
L 79.890625 32.71875 
Q 79.890625 40.578125 77.09375 44.375 
Q 74.3125 48.1875 68.609375 48.1875 
Q 61.625 48.1875 57.5625 43.546875 
Q 53.515625 38.921875 53.515625 30.90625 
L 53.515625 0 
L 44.484375 0 
L 44.484375 32.71875 
Q 44.484375 40.625 41.703125 44.40625 
Q 38.921875 48.1875 33.109375 48.1875 
Q 26.21875 48.1875 22.15625 43.53125 
Q 18.109375 38.875 18.109375 30.90625 
L 18.109375 0 
L 9.078125 0 
L 9.078125 54.6875 
L 18.109375 54.6875 
L 18.109375 46.1875 
Q 21.1875 51.21875 25.484375 53.609375 
Q 29.78125 56 35.6875 56 
Q 41.65625 56 45.828125 52.96875 
Q 50 49.953125 52 44.1875 
z
" id="DejaVuSans-109"/>
      <path d="M 8.015625 75.875 
L 15.828125 75.875 
Q 23.140625 64.359375 26.78125 53.3125 
Q 30.421875 42.28125 30.421875 31.390625 
Q 30.421875 20.453125 26.78125 9.375 
Q 23.140625 -1.703125 15.828125 -13.1875 
L 8.015625 -13.1875 
Q 14.5 -2 17.703125 9.0625 
Q 20.90625 20.125 20.90625 31.390625 
Q 20.90625 42.671875 17.703125 53.65625 
Q 14.5 64.65625 8.015625 75.875 
z
" id="DejaVuSans-41"/>
     </defs>
     <g transform="translate(147.832812 263.424318)rotate(-90)scale(0.1 -0.1)">
      <use xlink:href="#DejaVuSans-65"/>
      <use x="68.408203" xlink:href="#DejaVuSans-108"/>
      <use x="96.191406" xlink:href="#DejaVuSans-116"/>
      <use x="135.400391" xlink:href="#DejaVuSans-105"/>
      <use x="163.183594" xlink:href="#DejaVuSans-116"/>
      <use x="202.392578" xlink:href="#DejaVuSans-117"/>
      <use x="265.771484" xlink:href="#DejaVuSans-100"/>
      <use x="329.248047" xlink:href="#DejaVuSans-101"/>
      <use x="390.771484" xlink:href="#DejaVuSans-32"/>
      <use x="422.558594" xlink:href="#DejaVuSans-40"/>
      <use x="461.572266" xlink:href="#DejaVuSans-107"/>
      <use x="519.482422" xlink:href="#DejaVuSans-109"/>
      <use x="616.894531" xlink:href="#DejaVuSans-41"/>
     </g>
    </g>
   </g>
   <g id="line2d_14">
    <path clip-path="url(#pb1b7da2325)" d="M 230.727273 283.202321 
L 247.411862 283.089753 
L 263.943381 282.756879 
L 280.4749 282.201135 
L 297.159489 281.418069 
L 314.303286 280.391369 
L 331.600154 279.132206 
L 348.590882 277.67362 
L 365.122401 276.034315 
L 381.041642 274.235287 
L 396.195534 272.30132 
L 410.431009 270.26347 
L 423.748066 268.136591 
L 436.299775 265.909112 
L 448.086136 263.593344 
L 459.719427 261.077632 
L 480.843035 256.524825 
L 505.028035 251.542531 
L 531.35601 246.347256 
L 558.908542 241.137647 
L 587.073353 236.038778 
L 615.544302 231.110485 
L 644.168322 226.381233 
L 672.945411 221.852582 
L 701.7225 217.549129 
L 730.499589 213.470025 
L 759.276677 209.61468 
L 788.053766 205.982648 
L 816.830855 202.573569 
L 845.607944 199.387176 
L 874.385033 196.423209 
L 903.315192 193.667448 
L 932.24535 191.136054 
L 961.175509 188.828851 
L 990.105667 186.745684 
L 1019.035826 184.886412 
L 1047.965985 183.250914 
L 1076.896143 181.839081 
L 1105.826302 180.65082 
L 1134.75646 179.686056 
L 1163.686619 178.944723 
L 1192.616777 178.426775 
L 1221.546936 178.132176 
L 1245.272727 178.057253 
L 1245.272727 178.057253 
" style="fill:none;stroke:#000000;stroke-linecap:square;stroke-width:1.5;"/>
   </g>
   <g id="patch_3">
    <path d="M 180 288.459574 
L 180 172.8 
" style="fill:none;stroke:#000000;stroke-linecap:square;stroke-linejoin:miter;stroke-width:0.8;"/>
   </g>
   <g id="patch_4">
    <path d="M 1296 288.459574 
L 1296 172.8 
" style="fill:none;stroke:#000000;stroke-linecap:square;stroke-linejoin:miter;stroke-width:0.8;"/>
   </g>
   <g id="patch_5">
    <path d="M 180 288.459574 
L 1296 288.459574 
" style="fill:none;stroke:#000000;stroke-linecap:square;stroke-linejoin:miter;stroke-width:0.8;"/>
   </g>
   <g id="patch_6">
    <path d="M 180 172.8 
L 1296 172.8 
" style="fill:none;stroke:#000000;stroke-linecap:square;stroke-linejoin:miter;stroke-width:0.8;"/>
   </g>
   <g id="text_8">
    <!-- LV4 Trajectory -->
    <defs>
     <path d="M 9.8125 72.90625 
L 19.671875 72.90625 
L 19.671875 8.296875 
L 55.171875 8.296875 
L 55.171875 0 
L 9.8125 0 
z
" id="DejaVuSans-76"/>
     <path d="M 28.609375 0 
L 0.78125 72.90625 
L 11.078125 72.90625 
L 34.1875 11.53125 
L 57.328125 72.90625 
L 67.578125 72.90625 
L 39.796875 0 
z
" id="DejaVuSans-86"/>
     <path d="M -0.296875 72.90625 
L 61.375 72.90625 
L 61.375 64.59375 
L 35.5 64.59375 
L 35.5 0 
L 25.59375 0 
L 25.59375 64.59375 
L -0.296875 64.59375 
z
" id="DejaVuSans-84"/>
     <path d="M 41.109375 46.296875 
Q 39.59375 47.171875 37.8125 47.578125 
Q 36.03125 48 33.890625 48 
Q 26.265625 48 22.1875 43.046875 
Q 18.109375 38.09375 18.109375 28.8125 
L 18.109375 0 
L 9.078125 0 
L 9.078125 54.6875 
L 18.109375 54.6875 
L 18.109375 46.1875 
Q 20.953125 51.171875 25.484375 53.578125 
Q 30.03125 56 36.53125 56 
Q 37.453125 56 38.578125 55.875 
Q 39.703125 55.765625 41.0625 55.515625 
z
" id="DejaVuSans-114"/>
     <path d="M 34.28125 27.484375 
Q 23.390625 27.484375 19.1875 25 
Q 14.984375 22.515625 14.984375 16.5 
Q 14.984375 11.71875 18.140625 8.90625 
Q 21.296875 6.109375 26.703125 6.109375 
Q 34.1875 6.109375 38.703125 11.40625 
Q 43.21875 16.703125 43.21875 25.484375 
L 43.21875 27.484375 
z
M 52.203125 31.203125 
L 52.203125 0 
L 43.21875 0 
L 43.21875 8.296875 
Q 40.140625 3.328125 35.546875 0.953125 
Q 30.953125 -1.421875 24.3125 -1.421875 
Q 15.921875 -1.421875 10.953125 3.296875 
Q 6 8.015625 6 15.921875 
Q 6 25.140625 12.171875 29.828125 
Q 18.359375 34.515625 30.609375 34.515625 
L 43.21875 34.515625 
L 43.21875 35.40625 
Q 43.21875 41.609375 39.140625 45 
Q 35.0625 48.390625 27.6875 48.390625 
Q 23 48.390625 18.546875 47.265625 
Q 14.109375 46.140625 10.015625 43.890625 
L 10.015625 52.203125 
Q 14.9375 54.109375 19.578125 55.046875 
Q 24.21875 56 28.609375 56 
Q 40.484375 56 46.34375 49.84375 
Q 52.203125 43.703125 52.203125 31.203125 
z
" id="DejaVuSans-97"/>
     <path d="M 9.421875 54.6875 
L 18.40625 54.6875 
L 18.40625 -0.984375 
Q 18.40625 -11.421875 14.421875 -16.109375 
Q 10.453125 -20.796875 1.609375 -20.796875 
L -1.8125 -20.796875 
L -1.8125 -13.1875 
L 0.59375 -13.1875 
Q 5.71875 -13.1875 7.5625 -10.8125 
Q 9.421875 -8.453125 9.421875 -0.984375 
z
M 9.421875 75.984375 
L 18.40625 75.984375 
L 18.40625 64.59375 
L 9.421875 64.59375 
z
" id="DejaVuSans-106"/>
     <path d="M 48.78125 52.59375 
L 48.78125 44.1875 
Q 44.96875 46.296875 41.140625 47.34375 
Q 37.3125 48.390625 33.40625 48.390625 
Q 24.65625 48.390625 19.8125 42.84375 
Q 14.984375 37.3125 14.984375 27.296875 
Q 14.984375 17.28125 19.8125 11.734375 
Q 24.65625 6.203125 33.40625 6.203125 
Q 37.3125 6.203125 41.140625 7.25 
Q 44.96875 8.296875 48.78125 10.40625 
L 48.78125 2.09375 
Q 45.015625 0.34375 40.984375 -0.53125 
Q 36.96875 -1.421875 32.421875 -1.421875 
Q 20.0625 -1.421875 12.78125 6.34375 
Q 5.515625 14.109375 5.515625 27.296875 
Q 5.515625 40.671875 12.859375 48.328125 
Q 20.21875 56 33.015625 56 
Q 37.15625 56 41.109375 55.140625 
Q 45.0625 54.296875 48.78125 52.59375 
z
" id="DejaVuSans-99"/>
     <path d="M 30.609375 48.390625 
Q 23.390625 48.390625 19.1875 42.75 
Q 14.984375 37.109375 14.984375 27.296875 
Q 14.984375 17.484375 19.15625 11.84375 
Q 23.34375 6.203125 30.609375 6.203125 
Q 37.796875 6.203125 41.984375 11.859375 
Q 46.1875 17.53125 46.1875 27.296875 
Q 46.1875 37.015625 41.984375 42.703125 
Q 37.796875 48.390625 30.609375 48.390625 
z
M 30.609375 56 
Q 42.328125 56 49.015625 48.375 
Q 55.71875 40.765625 55.71875 27.296875 
Q 55.71875 13.875 49.015625 6.21875 
Q 42.328125 -1.421875 30.609375 -1.421875 
Q 18.84375 -1.421875 12.171875 6.21875 
Q 5.515625 13.875 5.515625 27.296875 
Q 5.515625 40.765625 12.171875 48.375 
Q 18.84375 56 30.609375 56 
z
" id="DejaVuSans-111"/>
     <path d="M 32.171875 -5.078125 
Q 28.375 -14.84375 24.75 -17.8125 
Q 21.140625 -20.796875 15.09375 -20.796875 
L 7.90625 -20.796875 
L 7.90625 -13.28125 
L 13.1875 -13.28125 
Q 16.890625 -13.28125 18.9375 -11.515625 
Q 21 -9.765625 23.484375 -3.21875 
L 25.09375 0.875 
L 2.984375 54.6875 
L 12.5 54.6875 
L 29.59375 11.921875 
L 46.6875 54.6875 
L 56.203125 54.6875 
z
" id="DejaVuSans-121"/>
    </defs>
    <g transform="translate(694.344375 166.8)scale(0.12 -0.12)">
     <use xlink:href="#DejaVuSans-76"/>
     <use x="55.541016" xlink:href="#DejaVuSans-86"/>
     <use x="123.949219" xlink:href="#DejaVuSans-52"/>
     <use x="187.572266" xlink:href="#DejaVuSans-32"/>
     <use x="219.359375" xlink:href="#DejaVuSans-84"/>
     <use x="280.224609" xlink:href="#DejaVuSans-114"/>
     <use x="321.337891" xlink:href="#DejaVuSans-97"/>
     <use x="382.617188" xlink:href="#DejaVuSans-106"/>
     <use x="410.400391" xlink:href="#DejaVuSans-101"/>
     <use x="471.923828" xlink:href="#DejaVuSans-99"/>
     <use x="526.904297" xlink:href="#DejaVuSans-116"/>
     <use x="566.113281" xlink:href="#DejaVuSans-111"/>
     <use x="627.294922" xlink:href="#DejaVuSans-114"/>
     <use x="668.408203" xlink:href="#DejaVuSans-121"/>
    </g>
   </g>
  </g>
  <g id="axes_2">
   <g id="patch_7">
    <path d="M 180 427.251064 
L 1296 427.251064 
L 1296 311.591489 
L 180 311.591489 
z
" style="fill:#ffffff;"/>
   </g>
   <g id="matplotlib.axis_3">
    <g id="xtick_8">
     <g id="line2d_15">
      <g>
       <use style="stroke:#000000;stroke-width:0.8;" x="230.574203" xlink:href="#m51767ff0ce" y="427.251064"/>
      </g>
     </g>
    </g>
    <g id="xtick_9">
     <g id="line2d_16">
      <g>
       <use style="stroke:#000000;stroke-width:0.8;" x="383.643825" xlink:href="#m51767ff0ce" y="427.251064"/>
      </g>
     </g>
    </g>
    <g id="xtick_10">
     <g id="line2d_17">
      <g>
       <use style="stroke:#000000;stroke-width:0.8;" x="536.713447" xlink:href="#m51767ff0ce" y="427.251064"/>
      </g>
     </g>
    </g>
    <g id="xtick_11">
     <g id="line2d_18">
      <g>
       <use style="stroke:#000000;stroke-width:0.8;" x="689.783069" xlink:href="#m51767ff0ce" y="427.251064"/>
      </g>
     </g>
    </g>
    <g id="xtick_12">
     <g id="line2d_19">
      <g>
       <use style="stroke:#000000;stroke-width:0.8;" x="842.852691" xlink:href="#m51767ff0ce" y="427.251064"/>
      </g>
     </g>
    </g>
    <g id="xtick_13">
     <g id="line2d_20">
      <g>
       <use style="stroke:#000000;stroke-width:0.8;" x="995.922313" xlink:href="#m51767ff0ce" y="427.251064"/>
      </g>
     </g>
    </g>
    <g id="xtick_14">
     <g id="line2d_21">
      <g>
       <use style="stroke:#000000;stroke-width:0.8;" x="1148.991935" xlink:href="#m51767ff0ce" y="427.251064"/>
      </g>
     </g>
    </g>
   </g>
   <g id="matplotlib.axis_4">
    <g id="ytick_7">
     <g id="line2d_22">
      <g>
       <use style="stroke:#000000;stroke-width:0.8;" x="180" xlink:href="#madd923904c" y="421.990258"/>
      </g>
     </g>
     <g id="text_9">
      <!-- 0 -->
      <g transform="translate(166.6375 425.789477)scale(0.1 -0.1)">
       <use xlink:href="#DejaVuSans-48"/>
      </g>
     </g>
    </g>
    <g id="ytick_8">
     <g id="line2d_23">
      <g>
       <use style="stroke:#000000;stroke-width:0.8;" x="180" xlink:href="#madd923904c" y="405.635422"/>
      </g>
     </g>
     <g id="text_10">
      <!-- 200 -->
      <g transform="translate(153.9125 409.434641)scale(0.1 -0.1)">
       <use xlink:href="#DejaVuSans-50"/>
       <use x="63.623047" xlink:href="#DejaVuSans-48"/>
       <use x="127.246094" xlink:href="#DejaVuSans-48"/>
      </g>
     </g>
    </g>
    <g id="ytick_9">
     <g id="line2d_24">
      <g>
       <use style="stroke:#000000;stroke-width:0.8;" x="180" xlink:href="#madd923904c" y="389.280587"/>
      </g>
     </g>
     <g id="text_11">
      <!-- 400 -->
      <g transform="translate(153.9125 393.079806)scale(0.1 -0.1)">
       <use xlink:href="#DejaVuSans-52"/>
       <use x="63.623047" xlink:href="#DejaVuSans-48"/>
       <use x="127.246094" xlink:href="#DejaVuSans-48"/>
      </g>
     </g>
    </g>
    <g id="ytick_10">
     <g id="line2d_25">
      <g>
       <use style="stroke:#000000;stroke-width:0.8;" x="180" xlink:href="#madd923904c" y="372.925751"/>
      </g>
     </g>
     <g id="text_12">
      <!-- 600 -->
      <g transform="translate(153.9125 376.72497)scale(0.1 -0.1)">
       <use xlink:href="#DejaVuSans-54"/>
       <use x="63.623047" xlink:href="#DejaVuSans-48"/>
       <use x="127.246094" xlink:href="#DejaVuSans-48"/>
      </g>
     </g>
    </g>
    <g id="ytick_11">
     <g id="line2d_26">
      <g>
       <use style="stroke:#000000;stroke-width:0.8;" x="180" xlink:href="#madd923904c" y="356.570916"/>
      </g>
     </g>
     <g id="text_13">
      <!-- 800 -->
      <g transform="translate(153.9125 360.370134)scale(0.1 -0.1)">
       <use xlink:href="#DejaVuSans-56"/>
       <use x="63.623047" xlink:href="#DejaVuSans-48"/>
       <use x="127.246094" xlink:href="#DejaVuSans-48"/>
      </g>
     </g>
    </g>
    <g id="ytick_12">
     <g id="line2d_27">
      <g>
       <use style="stroke:#000000;stroke-width:0.8;" x="180" xlink:href="#madd923904c" y="340.21608"/>
      </g>
     </g>
     <g id="text_14">
      <!-- 1000 -->
      <g transform="translate(147.55 344.015299)scale(0.1 -0.1)">
       <use xlink:href="#DejaVuSans-49"/>
       <use x="63.623047" xlink:href="#DejaVuSans-48"/>
       <use x="127.246094" xlink:href="#DejaVuSans-48"/>
       <use x="190.869141" xlink:href="#DejaVuSans-48"/>
      </g>
     </g>
    </g>
    <g id="ytick_13">
     <g id="line2d_28">
      <g>
       <use style="stroke:#000000;stroke-width:0.8;" x="180" xlink:href="#madd923904c" y="323.861245"/>
      </g>
     </g>
     <g id="text_15">
      <!-- 1200 -->
      <g transform="translate(147.55 327.660463)scale(0.1 -0.1)">
       <use xlink:href="#DejaVuSans-49"/>
       <use x="63.623047" xlink:href="#DejaVuSans-50"/>
       <use x="127.246094" xlink:href="#DejaVuSans-48"/>
       <use x="190.869141" xlink:href="#DejaVuSans-48"/>
      </g>
     </g>
    </g>
    <g id="text_16">
     <!-- Velocity (m/s) -->
     <defs>
      <path d="M 25.390625 72.90625 
L 33.6875 72.90625 
L 8.296875 -9.28125 
L 0 -9.28125 
z
" id="DejaVuSans-47"/>
      <path d="M 44.28125 53.078125 
L 44.28125 44.578125 
Q 40.484375 46.53125 36.375 47.5 
Q 32.28125 48.484375 27.875 48.484375 
Q 21.1875 48.484375 17.84375 46.4375 
Q 14.5 44.390625 14.5 40.28125 
Q 14.5 37.15625 16.890625 35.375 
Q 19.28125 33.59375 26.515625 31.984375 
L 29.59375 31.296875 
Q 39.15625 29.25 43.1875 25.515625 
Q 47.21875 21.78125 47.21875 15.09375 
Q 47.21875 7.46875 41.1875 3.015625 
Q 35.15625 -1.421875 24.609375 -1.421875 
Q 20.21875 -1.421875 15.453125 -0.5625 
Q 10.6875 0.296875 5.421875 2 
L 5.421875 11.28125 
Q 10.40625 8.6875 15.234375 7.390625 
Q 20.0625 6.109375 24.8125 6.109375 
Q 31.15625 6.109375 34.5625 8.28125 
Q 37.984375 10.453125 37.984375 14.40625 
Q 37.984375 18.0625 35.515625 20.015625 
Q 33.0625 21.96875 24.703125 23.78125 
L 21.578125 24.515625 
Q 13.234375 26.265625 9.515625 29.90625 
Q 5.8125 33.546875 5.8125 39.890625 
Q 5.8125 47.609375 11.28125 51.796875 
Q 16.75 56 26.8125 56 
Q 31.78125 56 36.171875 55.265625 
Q 40.578125 54.546875 44.28125 53.078125 
z
" id="DejaVuSans-115"/>
     </defs>
     <g transform="translate(141.470313 404.068933)rotate(-90)scale(0.1 -0.1)">
      <use xlink:href="#DejaVuSans-86"/>
      <use x="68.298828" xlink:href="#DejaVuSans-101"/>
      <use x="129.822266" xlink:href="#DejaVuSans-108"/>
      <use x="157.605469" xlink:href="#DejaVuSans-111"/>
      <use x="218.787109" xlink:href="#DejaVuSans-99"/>
      <use x="273.767578" xlink:href="#DejaVuSans-105"/>
      <use x="301.550781" xlink:href="#DejaVuSans-116"/>
      <use x="340.759766" xlink:href="#DejaVuSans-121"/>
      <use x="399.939453" xlink:href="#DejaVuSans-32"/>
      <use x="431.726562" xlink:href="#DejaVuSans-40"/>
      <use x="470.740234" xlink:href="#DejaVuSans-109"/>
      <use x="568.152344" xlink:href="#DejaVuSans-47"/>
      <use x="601.84375" xlink:href="#DejaVuSans-115"/>
      <use x="653.943359" xlink:href="#DejaVuSans-41"/>
     </g>
    </g>
   </g>
   <g id="line2d_29">
    <path clip-path="url(#p9f57a66335)" d="M 230.727273 421.933606 
L 249.095627 415.014887 
L 291.036704 398.984932 
L 305.119109 393.91653 
L 341.702749 380.864739 
L 355.785154 375.584183 
L 367.265376 371.045521 
L 377.214901 366.875527 
L 386.092939 362.917701 
L 394.205629 359.063343 
L 401.85911 355.181535 
L 409.053382 351.281622 
L 415.788446 347.380772 
L 422.21737 343.405824 
L 428.493224 339.265111 
L 434.616009 334.957049 
L 440.585724 330.484208 
L 446.40237 325.852552 
L 452.219016 320.937602 
L 456.964174 316.89212 
L 463.699237 318.682911 
L 471.505788 320.520981 
L 480.536896 322.412179 
L 491.251769 324.421868 
L 504.262687 326.628021 
L 520.641137 329.169725 
L 542.377023 332.30443 
L 573.603226 336.565218 
L 623.656992 343.146815 
L 711.518955 354.450083 
L 881.426236 376.056613 
L 1166.441872 412.057591 
L 1245.272727 421.99381 
L 1245.272727 421.99381 
" style="fill:none;stroke:#000000;stroke-linecap:square;stroke-width:1.5;"/>
   </g>
   <g id="patch_8">
    <path d="M 180 427.251064 
L 180 311.591489 
" style="fill:none;stroke:#000000;stroke-linecap:square;stroke-linejoin:miter;stroke-width:0.8;"/>
   </g>
   <g id="patch_9">
    <path d="M 1296 427.251064 
L 1296 311.591489 
" style="fill:none;stroke:#000000;stroke-linecap:square;stroke-linejoin:miter;stroke-width:0.8;"/>
   </g>
   <g id="patch_10">
    <path d="M 180 427.251064 
L 1296 427.251064 
" style="fill:none;stroke:#000000;stroke-linecap:square;stroke-linejoin:miter;stroke-width:0.8;"/>
   </g>
   <g id="patch_11">
    <path d="M 180 311.591489 
L 1296 311.591489 
" style="fill:none;stroke:#000000;stroke-linecap:square;stroke-linejoin:miter;stroke-width:0.8;"/>
   </g>
  </g>
  <g id="axes_3">
   <g id="patch_12">
    <path d="M 180 566.042553 
L 1296 566.042553 
L 1296 450.382979 
L 180 450.382979 
z
" style="fill:#ffffff;"/>
   </g>
   <g id="matplotlib.axis_5">
    <g id="xtick_15">
     <g id="line2d_30">
      <g>
       <use style="stroke:#000000;stroke-width:0.8;" x="230.574203" xlink:href="#m51767ff0ce" y="566.042553"/>
      </g>
     </g>
    </g>
    <g id="xtick_16">
     <g id="line2d_31">
      <g>
       <use style="stroke:#000000;stroke-width:0.8;" x="383.643825" xlink:href="#m51767ff0ce" y="566.042553"/>
      </g>
     </g>
    </g>
    <g id="xtick_17">
     <g id="line2d_32">
      <g>
       <use style="stroke:#000000;stroke-width:0.8;" x="536.713447" xlink:href="#m51767ff0ce" y="566.042553"/>
      </g>
     </g>
    </g>
    <g id="xtick_18">
     <g id="line2d_33">
      <g>
       <use style="stroke:#000000;stroke-width:0.8;" x="689.783069" xlink:href="#m51767ff0ce" y="566.042553"/>
      </g>
     </g>
    </g>
    <g id="xtick_19">
     <g id="line2d_34">
      <g>
       <use style="stroke:#000000;stroke-width:0.8;" x="842.852691" xlink:href="#m51767ff0ce" y="566.042553"/>
      </g>
     </g>
    </g>
    <g id="xtick_20">
     <g id="line2d_35">
      <g>
       <use style="stroke:#000000;stroke-width:0.8;" x="995.922313" xlink:href="#m51767ff0ce" y="566.042553"/>
      </g>
     </g>
    </g>
    <g id="xtick_21">
     <g id="line2d_36">
      <g>
       <use style="stroke:#000000;stroke-width:0.8;" x="1148.991935" xlink:href="#m51767ff0ce" y="566.042553"/>
      </g>
     </g>
    </g>
   </g>
   <g id="matplotlib.axis_6">
    <g id="ytick_14">
     <g id="line2d_37">
      <g>
       <use style="stroke:#000000;stroke-width:0.8;" x="180" xlink:href="#madd923904c" y="558.858198"/>
      </g>
     </g>
     <g id="text_17">
      <!-- −2 -->
      <defs>
       <path d="M 10.59375 35.5 
L 73.1875 35.5 
L 73.1875 27.203125 
L 10.59375 27.203125 
z
" id="DejaVuSans-8722"/>
      </defs>
      <g transform="translate(158.257812 562.657417)scale(0.1 -0.1)">
       <use xlink:href="#DejaVuSans-8722"/>
       <use x="83.789062" xlink:href="#DejaVuSans-50"/>
      </g>
     </g>
    </g>
    <g id="ytick_15">
     <g id="line2d_38">
      <g>
       <use style="stroke:#000000;stroke-width:0.8;" x="180" xlink:href="#madd923904c" y="535.784619"/>
      </g>
     </g>
     <g id="text_18">
      <!-- 0 -->
      <g transform="translate(166.6375 539.583838)scale(0.1 -0.1)">
       <use xlink:href="#DejaVuSans-48"/>
      </g>
     </g>
    </g>
    <g id="ytick_16">
     <g id="line2d_39">
      <g>
       <use style="stroke:#000000;stroke-width:0.8;" x="180" xlink:href="#madd923904c" y="512.711041"/>
      </g>
     </g>
     <g id="text_19">
      <!-- 2 -->
      <g transform="translate(166.6375 516.51026)scale(0.1 -0.1)">
       <use xlink:href="#DejaVuSans-50"/>
      </g>
     </g>
    </g>
    <g id="ytick_17">
     <g id="line2d_40">
      <g>
       <use style="stroke:#000000;stroke-width:0.8;" x="180" xlink:href="#madd923904c" y="489.637463"/>
      </g>
     </g>
     <g id="text_20">
      <!-- 4 -->
      <g transform="translate(166.6375 493.436682)scale(0.1 -0.1)">
       <use xlink:href="#DejaVuSans-52"/>
      </g>
     </g>
    </g>
    <g id="ytick_18">
     <g id="line2d_41">
      <g>
       <use style="stroke:#000000;stroke-width:0.8;" x="180" xlink:href="#madd923904c" y="466.563884"/>
      </g>
     </g>
     <g id="text_21">
      <!-- 6 -->
      <g transform="translate(166.6375 470.363103)scale(0.1 -0.1)">
       <use xlink:href="#DejaVuSans-54"/>
      </g>
     </g>
    </g>
    <g id="text_22">
     <!-- Acceleration/g_n -->
     <defs>
      <path d="M 54.890625 33.015625 
L 54.890625 0 
L 45.90625 0 
L 45.90625 32.71875 
Q 45.90625 40.484375 42.875 44.328125 
Q 39.84375 48.1875 33.796875 48.1875 
Q 26.515625 48.1875 22.3125 43.546875 
Q 18.109375 38.921875 18.109375 30.90625 
L 18.109375 0 
L 9.078125 0 
L 9.078125 54.6875 
L 18.109375 54.6875 
L 18.109375 46.1875 
Q 21.34375 51.125 25.703125 53.5625 
Q 30.078125 56 35.796875 56 
Q 45.21875 56 50.046875 50.171875 
Q 54.890625 44.34375 54.890625 33.015625 
z
" id="DejaVuSans-110"/>
      <path d="M 45.40625 27.984375 
Q 45.40625 37.75 41.375 43.109375 
Q 37.359375 48.484375 30.078125 48.484375 
Q 22.859375 48.484375 18.828125 43.109375 
Q 14.796875 37.75 14.796875 27.984375 
Q 14.796875 18.265625 18.828125 12.890625 
Q 22.859375 7.515625 30.078125 7.515625 
Q 37.359375 7.515625 41.375 12.890625 
Q 45.40625 18.265625 45.40625 27.984375 
z
M 54.390625 6.78125 
Q 54.390625 -7.171875 48.1875 -13.984375 
Q 42 -20.796875 29.203125 -20.796875 
Q 24.46875 -20.796875 20.265625 -20.09375 
Q 16.0625 -19.390625 12.109375 -17.921875 
L 12.109375 -9.1875 
Q 16.0625 -11.328125 19.921875 -12.34375 
Q 23.78125 -13.375 27.78125 -13.375 
Q 36.625 -13.375 41.015625 -8.765625 
Q 45.40625 -4.15625 45.40625 5.171875 
L 45.40625 9.625 
Q 42.625 4.78125 38.28125 2.390625 
Q 33.9375 0 27.875 0 
Q 17.828125 0 11.671875 7.65625 
Q 5.515625 15.328125 5.515625 27.984375 
Q 5.515625 40.671875 11.671875 48.328125 
Q 17.828125 56 27.875 56 
Q 33.9375 56 38.28125 53.609375 
Q 42.625 51.21875 45.40625 46.390625 
L 45.40625 54.6875 
L 54.390625 54.6875 
z
" id="DejaVuSans-103"/>
      <path d="M 50.984375 -16.609375 
L 50.984375 -23.578125 
L -0.984375 -23.578125 
L -0.984375 -16.609375 
z
" id="DejaVuSans-95"/>
     </defs>
     <g transform="translate(151.9 549.897141)rotate(-90)scale(0.1 -0.1)">
      <use xlink:href="#DejaVuSans-65"/>
      <use x="68.392578" xlink:href="#DejaVuSans-99"/>
      <use x="123.373047" xlink:href="#DejaVuSans-99"/>
      <use x="178.353516" xlink:href="#DejaVuSans-101"/>
      <use x="239.876953" xlink:href="#DejaVuSans-108"/>
      <use x="267.660156" xlink:href="#DejaVuSans-101"/>
      <use x="329.183594" xlink:href="#DejaVuSans-114"/>
      <use x="370.296875" xlink:href="#DejaVuSans-97"/>
      <use x="431.576172" xlink:href="#DejaVuSans-116"/>
      <use x="470.785156" xlink:href="#DejaVuSans-105"/>
      <use x="498.568359" xlink:href="#DejaVuSans-111"/>
      <use x="559.75" xlink:href="#DejaVuSans-110"/>
      <use x="623.128906" xlink:href="#DejaVuSans-47"/>
      <use x="656.820312" xlink:href="#DejaVuSans-103"/>
      <use x="720.296875" xlink:href="#DejaVuSans-95"/>
      <use x="770.296875" xlink:href="#DejaVuSans-110"/>
     </g>
    </g>
   </g>
   <g id="line2d_42">
    <path clip-path="url(#pcc680a70d1)" d="M 230.727273 503.184333 
L 238.993032 502.382432 
L 241.136007 502.507818 
L 244.503539 502.755739 
L 246.034235 502.595026 
L 248.483349 502.025233 
L 250.320184 501.728639 
L 251.850881 501.716176 
L 253.381577 501.946761 
L 255.065343 502.207227 
L 256.13683 502.119756 
L 259.504362 501.535725 
L 260.575849 501.713939 
L 262.412684 502.064676 
L 263.331102 501.942294 
L 265.321007 501.536645 
L 266.239425 501.644631 
L 268.22933 502.06901 
L 269.147748 501.913807 
L 270.525374 501.651814 
L 271.290723 501.742794 
L 273.280628 502.159195 
L 274.352115 501.940601 
L 275.270533 501.841272 
L 276.035881 501.989818 
L 277.413507 502.328424 
L 278.178856 502.241787 
L 279.403413 502.081247 
L 280.168761 502.242631 
L 281.393318 502.542444 
L 282.311735 502.43543 
L 283.230153 502.366996 
L 284.148571 502.599668 
L 285.066989 502.800078 
L 285.985406 502.710009 
L 286.750754 502.685223 
L 287.669172 502.926182 
L 288.58759 503.098424 
L 290.577495 503.15829 
L 291.802052 503.432115 
L 293.638887 503.532195 
L 294.863444 503.788659 
L 296.394141 503.856695 
L 297.771767 504.150158 
L 299.302463 504.278506 
L 300.52702 504.530841 
L 301.904647 504.48434 
L 303.282274 504.576819 
L 304.506831 504.557512 
L 305.884457 504.626328 
L 307.109014 504.63108 
L 308.180501 504.675303 
L 309.711198 504.666819 
L 310.935755 504.654414 
L 312.160312 504.675948 
L 313.537938 504.640953 
L 330.681736 504.244739 
L 344.151863 503.282969 
L 352.570692 502.336789 
L 359.305755 501.368948 
L 366.500027 500.106775 
L 373.235091 498.689662 
L 379.510945 497.146447 
L 385.63373 495.417001 
L 391.603445 493.502109 
L 397.420091 491.403533 
L 403.083667 489.125966 
L 408.747243 486.606029 
L 414.257749 483.912665 
L 419.768256 480.975237 
L 425.431832 477.701807 
L 431.401547 473.990288 
L 437.677402 469.823625 
L 444.259395 465.186646 
L 451.147528 460.062057 
L 456.811104 455.640232 
L 456.964174 560.7853 
L 460.484775 559.178639 
L 464.311516 557.67675 
L 468.444396 556.291075 
L 473.036484 554.989625 
L 478.087782 553.794474 
L 483.751358 552.690825 
L 490.027212 551.700227 
L 497.068415 550.815466 
L 505.181105 550.023467 
L 514.671422 549.326482 
L 525.845504 548.73448 
L 539.62177 548.235885 
L 557.224776 547.833961 
L 581.409777 547.519961 
L 617.993416 547.287069 
L 683.966423 547.113392 
L 831.2194 546.999633 
L 1219.097822 546.919359 
L 1245.272727 546.919001 
L 1245.272727 546.919001 
" style="fill:none;stroke:#000000;stroke-linecap:square;stroke-width:1.5;"/>
   </g>
   <g id="patch_13">
    <path d="M 180 566.042553 
L 180 450.382979 
" style="fill:none;stroke:#000000;stroke-linecap:square;stroke-linejoin:miter;stroke-width:0.8;"/>
   </g>
   <g id="patch_14">
    <path d="M 1296 566.042553 
L 1296 450.382979 
" style="fill:none;stroke:#000000;stroke-linecap:square;stroke-linejoin:miter;stroke-width:0.8;"/>
   </g>
   <g id="patch_15">
    <path d="M 180 566.042553 
L 1296 566.042553 
" style="fill:none;stroke:#000000;stroke-linecap:square;stroke-linejoin:miter;stroke-width:0.8;"/>
   </g>
   <g id="patch_16">
    <path d="M 180 450.382979 
L 1296 450.382979 
" style="fill:none;stroke:#000000;stroke-linecap:square;stroke-linejoin:miter;stroke-width:0.8;"/>
   </g>
  </g>
  <g id="axes_4">
   <g id="patch_17">
    <path d="M 180 704.834043 
L 1296 704.834043 
L 1296 589.174468 
L 180 589.174468 
z
" style="fill:#ffffff;"/>
   </g>
   <g id="matplotlib.axis_7">
    <g id="xtick_22">
     <g id="line2d_43">
      <g>
       <use style="stroke:#000000;stroke-width:0.8;" x="230.574203" xlink:href="#m51767ff0ce" y="704.834043"/>
      </g>
     </g>
    </g>
    <g id="xtick_23">
     <g id="line2d_44">
      <g>
       <use style="stroke:#000000;stroke-width:0.8;" x="383.643825" xlink:href="#m51767ff0ce" y="704.834043"/>
      </g>
     </g>
    </g>
    <g id="xtick_24">
     <g id="line2d_45">
      <g>
       <use style="stroke:#000000;stroke-width:0.8;" x="536.713447" xlink:href="#m51767ff0ce" y="704.834043"/>
      </g>
     </g>
    </g>
    <g id="xtick_25">
     <g id="line2d_46">
      <g>
       <use style="stroke:#000000;stroke-width:0.8;" x="689.783069" xlink:href="#m51767ff0ce" y="704.834043"/>
      </g>
     </g>
    </g>
    <g id="xtick_26">
     <g id="line2d_47">
      <g>
       <use style="stroke:#000000;stroke-width:0.8;" x="842.852691" xlink:href="#m51767ff0ce" y="704.834043"/>
      </g>
     </g>
    </g>
    <g id="xtick_27">
     <g id="line2d_48">
      <g>
       <use style="stroke:#000000;stroke-width:0.8;" x="995.922313" xlink:href="#m51767ff0ce" y="704.834043"/>
      </g>
     </g>
    </g>
    <g id="xtick_28">
     <g id="line2d_49">
      <g>
       <use style="stroke:#000000;stroke-width:0.8;" x="1148.991935" xlink:href="#m51767ff0ce" y="704.834043"/>
      </g>
     </g>
    </g>
   </g>
   <g id="matplotlib.axis_8">
    <g id="ytick_19">
     <g id="line2d_50">
      <g>
       <use style="stroke:#000000;stroke-width:0.8;" x="180" xlink:href="#madd923904c" y="699.576789"/>
      </g>
     </g>
     <g id="text_23">
      <!-- 0 -->
      <g transform="translate(166.6375 703.376008)scale(0.1 -0.1)">
       <use xlink:href="#DejaVuSans-48"/>
      </g>
     </g>
    </g>
    <g id="ytick_20">
     <g id="line2d_51">
      <g>
       <use style="stroke:#000000;stroke-width:0.8;" x="180" xlink:href="#madd923904c" y="680.320645"/>
      </g>
     </g>
     <g id="text_24">
      <!-- 2 -->
      <g transform="translate(166.6375 684.119864)scale(0.1 -0.1)">
       <use xlink:href="#DejaVuSans-50"/>
      </g>
     </g>
    </g>
    <g id="ytick_21">
     <g id="line2d_52">
      <g>
       <use style="stroke:#000000;stroke-width:0.8;" x="180" xlink:href="#madd923904c" y="661.064501"/>
      </g>
     </g>
     <g id="text_25">
      <!-- 4 -->
      <g transform="translate(166.6375 664.86372)scale(0.1 -0.1)">
       <use xlink:href="#DejaVuSans-52"/>
      </g>
     </g>
    </g>
    <g id="ytick_22">
     <g id="line2d_53">
      <g>
       <use style="stroke:#000000;stroke-width:0.8;" x="180" xlink:href="#madd923904c" y="641.808358"/>
      </g>
     </g>
     <g id="text_26">
      <!-- 6 -->
      <g transform="translate(166.6375 645.607576)scale(0.1 -0.1)">
       <use xlink:href="#DejaVuSans-54"/>
      </g>
     </g>
    </g>
    <g id="ytick_23">
     <g id="line2d_54">
      <g>
       <use style="stroke:#000000;stroke-width:0.8;" x="180" xlink:href="#madd923904c" y="622.552214"/>
      </g>
     </g>
     <g id="text_27">
      <!-- 8 -->
      <g transform="translate(166.6375 626.351433)scale(0.1 -0.1)">
       <use xlink:href="#DejaVuSans-56"/>
      </g>
     </g>
    </g>
    <g id="ytick_24">
     <g id="line2d_55">
      <g>
       <use style="stroke:#000000;stroke-width:0.8;" x="180" xlink:href="#madd923904c" y="603.29607"/>
      </g>
     </g>
     <g id="text_28">
      <!-- 10 -->
      <g transform="translate(160.275 607.095289)scale(0.1 -0.1)">
       <use xlink:href="#DejaVuSans-49"/>
       <use x="63.623047" xlink:href="#DejaVuSans-48"/>
      </g>
     </g>
    </g>
    <g id="text_29">
     <!-- Thrust (kN) -->
     <defs>
      <path d="M 54.890625 33.015625 
L 54.890625 0 
L 45.90625 0 
L 45.90625 32.71875 
Q 45.90625 40.484375 42.875 44.328125 
Q 39.84375 48.1875 33.796875 48.1875 
Q 26.515625 48.1875 22.3125 43.546875 
Q 18.109375 38.921875 18.109375 30.90625 
L 18.109375 0 
L 9.078125 0 
L 9.078125 75.984375 
L 18.109375 75.984375 
L 18.109375 46.1875 
Q 21.34375 51.125 25.703125 53.5625 
Q 30.078125 56 35.796875 56 
Q 45.21875 56 50.046875 50.171875 
Q 54.890625 44.34375 54.890625 33.015625 
z
" id="DejaVuSans-104"/>
      <path d="M 9.8125 72.90625 
L 23.09375 72.90625 
L 55.421875 11.921875 
L 55.421875 72.90625 
L 64.984375 72.90625 
L 64.984375 0 
L 51.703125 0 
L 19.390625 60.984375 
L 19.390625 0 
L 9.8125 0 
z
" id="DejaVuSans-78"/>
     </defs>
     <g transform="translate(154.195312 675.142537)rotate(-90)scale(0.1 -0.1)">
      <use xlink:href="#DejaVuSans-84"/>
      <use x="61.083984" xlink:href="#DejaVuSans-104"/>
      <use x="124.462891" xlink:href="#DejaVuSans-114"/>
      <use x="165.576172" xlink:href="#DejaVuSans-117"/>
      <use x="228.955078" xlink:href="#DejaVuSans-115"/>
      <use x="281.054688" xlink:href="#DejaVuSans-116"/>
      <use x="320.263672" xlink:href="#DejaVuSans-32"/>
      <use x="352.050781" xlink:href="#DejaVuSans-40"/>
      <use x="391.064453" xlink:href="#DejaVuSans-107"/>
      <use x="448.974609" xlink:href="#DejaVuSans-78"/>
      <use x="523.779297" xlink:href="#DejaVuSans-41"/>
     </g>
    </g>
   </g>
   <g id="line2d_56">
    <path clip-path="url(#pe624177d2a)" d="M 230.727273 604.349298 
L 246.187305 604.237216 
L 261.800406 603.901979 
L 278.331925 603.32138 
L 296.853349 602.442149 
L 320.426071 601.086946 
L 401.552971 596.23062 
L 421.605091 595.369535 
L 440.585724 594.776464 
L 456.811104 594.431721 
L 456.964174 699.576789 
L 1245.272727 699.576789 
L 1245.272727 699.576789 
" style="fill:none;stroke:#000000;stroke-linecap:square;stroke-width:1.5;"/>
   </g>
   <g id="patch_18">
    <path d="M 180 704.834043 
L 180 589.174468 
" style="fill:none;stroke:#000000;stroke-linecap:square;stroke-linejoin:miter;stroke-width:0.8;"/>
   </g>
   <g id="patch_19">
    <path d="M 1296 704.834043 
L 1296 589.174468 
" style="fill:none;stroke:#000000;stroke-linecap:square;stroke-linejoin:miter;stroke-width:0.8;"/>
   </g>
   <g id="patch_20">
    <path d="M 180 704.834043 
L 1296 704.834043 
" style="fill:none;stroke:#000000;stroke-linecap:square;stroke-linejoin:miter;stroke-width:0.8;"/>
   </g>
   <g id="patch_21">
    <path d="M 180 589.174468 
L 1296 589.174468 
" style="fill:none;stroke:#000000;stroke-linecap:square;stroke-linejoin:miter;stroke-width:0.8;"/>
   </g>
  </g>
  <g id="axes_5">
   <g id="patch_22">
    <path d="M 180 843.625532 
L 1296 843.625532 
L 1296 727.965957 
L 180 727.965957 
z
" style="fill:#ffffff;"/>
   </g>
   <g id="matplotlib.axis_9">
    <g id="xtick_29">
     <g id="line2d_57">
      <g>
       <use style="stroke:#000000;stroke-width:0.8;" x="230.574203" xlink:href="#m51767ff0ce" y="843.625532"/>
      </g>
     </g>
    </g>
    <g id="xtick_30">
     <g id="line2d_58">
      <g>
       <use style="stroke:#000000;stroke-width:0.8;" x="383.643825" xlink:href="#m51767ff0ce" y="843.625532"/>
      </g>
     </g>
    </g>
    <g id="xtick_31">
     <g id="line2d_59">
      <g>
       <use style="stroke:#000000;stroke-width:0.8;" x="536.713447" xlink:href="#m51767ff0ce" y="843.625532"/>
      </g>
     </g>
    </g>
    <g id="xtick_32">
     <g id="line2d_60">
      <g>
       <use style="stroke:#000000;stroke-width:0.8;" x="689.783069" xlink:href="#m51767ff0ce" y="843.625532"/>
      </g>
     </g>
    </g>
    <g id="xtick_33">
     <g id="line2d_61">
      <g>
       <use style="stroke:#000000;stroke-width:0.8;" x="842.852691" xlink:href="#m51767ff0ce" y="843.625532"/>
      </g>
     </g>
    </g>
    <g id="xtick_34">
     <g id="line2d_62">
      <g>
       <use style="stroke:#000000;stroke-width:0.8;" x="995.922313" xlink:href="#m51767ff0ce" y="843.625532"/>
      </g>
     </g>
    </g>
    <g id="xtick_35">
     <g id="line2d_63">
      <g>
       <use style="stroke:#000000;stroke-width:0.8;" x="1148.991935" xlink:href="#m51767ff0ce" y="843.625532"/>
      </g>
     </g>
    </g>
   </g>
   <g id="matplotlib.axis_10">
    <g id="ytick_25">
     <g id="line2d_64">
      <g>
       <use style="stroke:#000000;stroke-width:0.8;" x="180" xlink:href="#madd923904c" y="838.368315"/>
      </g>
     </g>
     <g id="text_30">
      <!-- 0 -->
      <g transform="translate(166.6375 842.167534)scale(0.1 -0.1)">
       <use xlink:href="#DejaVuSans-48"/>
      </g>
     </g>
    </g>
    <g id="ytick_26">
     <g id="line2d_65">
      <g>
       <use style="stroke:#000000;stroke-width:0.8;" x="180" xlink:href="#madd923904c" y="820.15945"/>
      </g>
     </g>
     <g id="text_31">
      <!-- 20 -->
      <g transform="translate(160.275 823.958669)scale(0.1 -0.1)">
       <use xlink:href="#DejaVuSans-50"/>
       <use x="63.623047" xlink:href="#DejaVuSans-48"/>
      </g>
     </g>
    </g>
    <g id="ytick_27">
     <g id="line2d_66">
      <g>
       <use style="stroke:#000000;stroke-width:0.8;" x="180" xlink:href="#madd923904c" y="801.950586"/>
      </g>
     </g>
     <g id="text_32">
      <!-- 40 -->
      <g transform="translate(160.275 805.749804)scale(0.1 -0.1)">
       <use xlink:href="#DejaVuSans-52"/>
       <use x="63.623047" xlink:href="#DejaVuSans-48"/>
      </g>
     </g>
    </g>
    <g id="ytick_28">
     <g id="line2d_67">
      <g>
       <use style="stroke:#000000;stroke-width:0.8;" x="180" xlink:href="#madd923904c" y="783.741721"/>
      </g>
     </g>
     <g id="text_33">
      <!-- 60 -->
      <g transform="translate(160.275 787.54094)scale(0.1 -0.1)">
       <use xlink:href="#DejaVuSans-54"/>
       <use x="63.623047" xlink:href="#DejaVuSans-48"/>
      </g>
     </g>
    </g>
    <g id="ytick_29">
     <g id="line2d_68">
      <g>
       <use style="stroke:#000000;stroke-width:0.8;" x="180" xlink:href="#madd923904c" y="765.532857"/>
      </g>
     </g>
     <g id="text_34">
      <!-- 80 -->
      <g transform="translate(160.275 769.332075)scale(0.1 -0.1)">
       <use xlink:href="#DejaVuSans-56"/>
       <use x="63.623047" xlink:href="#DejaVuSans-48"/>
      </g>
     </g>
    </g>
    <g id="ytick_30">
     <g id="line2d_69">
      <g>
       <use style="stroke:#000000;stroke-width:0.8;" x="180" xlink:href="#madd923904c" y="747.323992"/>
      </g>
     </g>
     <g id="text_35">
      <!-- 100 -->
      <g transform="translate(153.9125 751.123211)scale(0.1 -0.1)">
       <use xlink:href="#DejaVuSans-49"/>
       <use x="63.623047" xlink:href="#DejaVuSans-48"/>
       <use x="127.246094" xlink:href="#DejaVuSans-48"/>
      </g>
     </g>
    </g>
    <g id="ytick_31">
     <g id="line2d_70">
      <g>
       <use style="stroke:#000000;stroke-width:0.8;" x="180" xlink:href="#madd923904c" y="729.115127"/>
      </g>
     </g>
     <g id="text_36">
      <!-- 120 -->
      <g transform="translate(153.9125 732.914346)scale(0.1 -0.1)">
       <use xlink:href="#DejaVuSans-49"/>
       <use x="63.623047" xlink:href="#DejaVuSans-50"/>
       <use x="127.246094" xlink:href="#DejaVuSans-48"/>
      </g>
     </g>
    </g>
    <g id="text_37">
     <!-- Dynamic Pressure (kPa) -->
     <defs>
      <path d="M 19.671875 64.796875 
L 19.671875 8.109375 
L 31.59375 8.109375 
Q 46.6875 8.109375 53.6875 14.9375 
Q 60.6875 21.78125 60.6875 36.53125 
Q 60.6875 51.171875 53.6875 57.984375 
Q 46.6875 64.796875 31.59375 64.796875 
z
M 9.8125 72.90625 
L 30.078125 72.90625 
Q 51.265625 72.90625 61.171875 64.09375 
Q 71.09375 55.28125 71.09375 36.53125 
Q 71.09375 17.671875 61.125 8.828125 
Q 51.171875 0 30.078125 0 
L 9.8125 0 
z
" id="DejaVuSans-68"/>
      <path d="M 19.671875 64.796875 
L 19.671875 37.40625 
L 32.078125 37.40625 
Q 38.96875 37.40625 42.71875 40.96875 
Q 46.484375 44.53125 46.484375 51.125 
Q 46.484375 57.671875 42.71875 61.234375 
Q 38.96875 64.796875 32.078125 64.796875 
z
M 9.8125 72.90625 
L 32.078125 72.90625 
Q 44.34375 72.90625 50.609375 67.359375 
Q 56.890625 61.8125 56.890625 51.125 
Q 56.890625 40.328125 50.609375 34.8125 
Q 44.34375 29.296875 32.078125 29.296875 
L 19.671875 29.296875 
L 19.671875 0 
L 9.8125 0 
z
" id="DejaVuSans-80"/>
     </defs>
     <g transform="translate(147.832812 845.550432)rotate(-90)scale(0.1 -0.1)">
      <use xlink:href="#DejaVuSans-68"/>
      <use x="77.001953" xlink:href="#DejaVuSans-121"/>
      <use x="136.181641" xlink:href="#DejaVuSans-110"/>
      <use x="199.560547" xlink:href="#DejaVuSans-97"/>
      <use x="260.839844" xlink:href="#DejaVuSans-109"/>
      <use x="358.251953" xlink:href="#DejaVuSans-105"/>
      <use x="386.035156" xlink:href="#DejaVuSans-99"/>
      <use x="441.015625" xlink:href="#DejaVuSans-32"/>
      <use x="472.802734" xlink:href="#DejaVuSans-80"/>
      <use x="533.089844" xlink:href="#DejaVuSans-114"/>
      <use x="574.171875" xlink:href="#DejaVuSans-101"/>
      <use x="635.695312" xlink:href="#DejaVuSans-115"/>
      <use x="687.794922" xlink:href="#DejaVuSans-115"/>
      <use x="739.894531" xlink:href="#DejaVuSans-117"/>
      <use x="803.273438" xlink:href="#DejaVuSans-114"/>
      <use x="844.355469" xlink:href="#DejaVuSans-101"/>
      <use x="905.878906" xlink:href="#DejaVuSans-32"/>
      <use x="937.666016" xlink:href="#DejaVuSans-40"/>
      <use x="976.679688" xlink:href="#DejaVuSans-107"/>
      <use x="1034.589844" xlink:href="#DejaVuSans-80"/>
      <use x="1094.830078" xlink:href="#DejaVuSans-97"/>
      <use x="1156.109375" xlink:href="#DejaVuSans-41"/>
     </g>
    </g>
   </g>
   <g id="line2d_71">
    <path clip-path="url(#p776393324a)" d="M 230.727273 838.366841 
L 234.094804 838.250536 
L 237.462336 837.903554 
L 240.676798 837.350005 
L 243.89126 836.578871 
L 247.105722 835.587598 
L 250.473254 834.311871 
L 253.840786 832.799152 
L 257.361387 830.969281 
L 261.035058 828.798491 
L 264.861798 826.267911 
L 268.841609 823.364821 
L 273.127558 819.957413 
L 277.872716 815.889048 
L 283.230153 810.991632 
L 289.965216 804.515251 
L 323.181324 772.132786 
L 330.375597 765.567483 
L 336.651451 760.131752 
L 342.315027 755.510901 
L 347.519394 751.539363 
L 352.417622 748.071931 
L 357.009711 745.084587 
L 361.44873 742.461305 
L 365.58161 740.271674 
L 369.56142 738.410397 
L 373.38816 736.864286 
L 377.061831 735.617902 
L 380.582433 734.653778 
L 383.949964 733.952731 
L 387.317496 733.479265 
L 390.531958 733.251465 
L 393.593351 733.248299 
L 396.654743 733.462958 
L 399.716135 733.903938 
L 402.777528 734.578926 
L 405.685851 735.442991 
L 408.594173 736.528919 
L 411.655566 737.915448 
L 414.716958 739.553939 
L 417.778351 741.444779 
L 420.992813 743.699601 
L 424.360345 746.340856 
L 428.187085 749.64102 
L 432.473035 753.643367 
L 437.677402 758.819742 
L 445.943161 767.405165 
L 456.658035 778.465282 
L 456.964174 778.878577 
L 459.260218 784.02302 
L 461.709332 788.955523 
L 464.158446 793.383224 
L 466.60756 797.365878 
L 469.209744 801.167283 
L 471.811927 804.577548 
L 474.567181 807.812913 
L 477.322434 810.707881 
L 480.230757 813.438787 
L 483.292149 815.996827 
L 486.353541 818.270197 
L 489.568004 820.389093 
L 492.935535 822.351439 
L 496.609206 824.231125 
L 500.435947 825.938838 
L 504.568826 827.537252 
L 509.007846 829.012025 
L 513.753004 830.354613 
L 518.957371 831.594059 
L 524.620947 832.712297 
L 530.896801 833.72204 
L 537.938004 834.625202 
L 545.897624 835.418305 
L 555.234871 836.116895 
L 566.255884 836.709758 
L 579.726011 837.203172 
L 597.175948 837.606985 
L 621.360948 837.929191 
L 657.17924 838.166879 
L 716.264114 838.311951 
L 850.353103 838.364803 
L 1245.272727 838.368279 
L 1245.272727 838.368279 
" style="fill:none;stroke:#000000;stroke-linecap:square;stroke-width:1.5;"/>
   </g>
   <g id="patch_23">
    <path d="M 180 843.625532 
L 180 727.965957 
" style="fill:none;stroke:#000000;stroke-linecap:square;stroke-linejoin:miter;stroke-width:0.8;"/>
   </g>
   <g id="patch_24">
    <path d="M 1296 843.625532 
L 1296 727.965957 
" style="fill:none;stroke:#000000;stroke-linecap:square;stroke-linejoin:miter;stroke-width:0.8;"/>
   </g>
   <g id="patch_25">
    <path d="M 180 843.625532 
L 1296 843.625532 
" style="fill:none;stroke:#000000;stroke-linecap:square;stroke-linejoin:miter;stroke-width:0.8;"/>
   </g>
   <g id="patch_26">
    <path d="M 180 727.965957 
L 1296 727.965957 
" style="fill:none;stroke:#000000;stroke-linecap:square;stroke-linejoin:miter;stroke-width:0.8;"/>
   </g>
  </g>
  <g id="axes_6">
   <g id="patch_27">
    <path d="M 180 982.417021 
L 1296 982.417021 
L 1296 866.757447 
L 180 866.757447 
z
" style="fill:#ffffff;"/>
   </g>
   <g id="matplotlib.axis_11">
    <g id="xtick_36">
     <g id="line2d_72">
      <g>
       <use style="stroke:#000000;stroke-width:0.8;" x="230.574203" xlink:href="#m51767ff0ce" y="982.417021"/>
      </g>
     </g>
    </g>
    <g id="xtick_37">
     <g id="line2d_73">
      <g>
       <use style="stroke:#000000;stroke-width:0.8;" x="383.643825" xlink:href="#m51767ff0ce" y="982.417021"/>
      </g>
     </g>
    </g>
    <g id="xtick_38">
     <g id="line2d_74">
      <g>
       <use style="stroke:#000000;stroke-width:0.8;" x="536.713447" xlink:href="#m51767ff0ce" y="982.417021"/>
      </g>
     </g>
    </g>
    <g id="xtick_39">
     <g id="line2d_75">
      <g>
       <use style="stroke:#000000;stroke-width:0.8;" x="689.783069" xlink:href="#m51767ff0ce" y="982.417021"/>
      </g>
     </g>
    </g>
    <g id="xtick_40">
     <g id="line2d_76">
      <g>
       <use style="stroke:#000000;stroke-width:0.8;" x="842.852691" xlink:href="#m51767ff0ce" y="982.417021"/>
      </g>
     </g>
    </g>
    <g id="xtick_41">
     <g id="line2d_77">
      <g>
       <use style="stroke:#000000;stroke-width:0.8;" x="995.922313" xlink:href="#m51767ff0ce" y="982.417021"/>
      </g>
     </g>
    </g>
    <g id="xtick_42">
     <g id="line2d_78">
      <g>
       <use style="stroke:#000000;stroke-width:0.8;" x="1148.991935" xlink:href="#m51767ff0ce" y="982.417021"/>
      </g>
     </g>
    </g>
    <g id="text_38">
     <!-- t (s) -->
     <g transform="translate(727.944531 994.015459)scale(0.1 -0.1)">
      <use xlink:href="#DejaVuSans-116"/>
      <use x="39.208984" xlink:href="#DejaVuSans-32"/>
      <use x="70.996094" xlink:href="#DejaVuSans-40"/>
      <use x="110.009766" xlink:href="#DejaVuSans-115"/>
      <use x="162.109375" xlink:href="#DejaVuSans-41"/>
     </g>
    </g>
   </g>
   <g id="matplotlib.axis_12">
    <g id="ytick_32">
     <g id="line2d_79">
      <g>
       <use style="stroke:#000000;stroke-width:0.8;" x="180" xlink:href="#madd923904c" y="977.276187"/>
      </g>
     </g>
     <g id="text_39">
      <!-- 0 -->
      <g transform="translate(166.6375 981.075405)scale(0.1 -0.1)">
       <use xlink:href="#DejaVuSans-48"/>
      </g>
     </g>
    </g>
    <g id="ytick_33">
     <g id="line2d_80">
      <g>
       <use style="stroke:#000000;stroke-width:0.8;" x="180" xlink:href="#madd923904c" y="954.721332"/>
      </g>
     </g>
     <g id="text_40">
      <!-- 1 -->
      <g transform="translate(166.6375 958.520551)scale(0.1 -0.1)">
       <use xlink:href="#DejaVuSans-49"/>
      </g>
     </g>
    </g>
    <g id="ytick_34">
     <g id="line2d_81">
      <g>
       <use style="stroke:#000000;stroke-width:0.8;" x="180" xlink:href="#madd923904c" y="932.166478"/>
      </g>
     </g>
     <g id="text_41">
      <!-- 2 -->
      <g transform="translate(166.6375 935.965697)scale(0.1 -0.1)">
       <use xlink:href="#DejaVuSans-50"/>
      </g>
     </g>
    </g>
    <g id="ytick_35">
     <g id="line2d_82">
      <g>
       <use style="stroke:#000000;stroke-width:0.8;" x="180" xlink:href="#madd923904c" y="909.611624"/>
      </g>
     </g>
     <g id="text_42">
      <!-- 3 -->
      <defs>
       <path d="M 40.578125 39.3125 
Q 47.65625 37.796875 51.625 33 
Q 55.609375 28.21875 55.609375 21.1875 
Q 55.609375 10.40625 48.1875 4.484375 
Q 40.765625 -1.421875 27.09375 -1.421875 
Q 22.515625 -1.421875 17.65625 -0.515625 
Q 12.796875 0.390625 7.625 2.203125 
L 7.625 11.71875 
Q 11.71875 9.328125 16.59375 8.109375 
Q 21.484375 6.890625 26.8125 6.890625 
Q 36.078125 6.890625 40.9375 10.546875 
Q 45.796875 14.203125 45.796875 21.1875 
Q 45.796875 27.640625 41.28125 31.265625 
Q 36.765625 34.90625 28.71875 34.90625 
L 20.21875 34.90625 
L 20.21875 43.015625 
L 29.109375 43.015625 
Q 36.375 43.015625 40.234375 45.921875 
Q 44.09375 48.828125 44.09375 54.296875 
Q 44.09375 59.90625 40.109375 62.90625 
Q 36.140625 65.921875 28.71875 65.921875 
Q 24.65625 65.921875 20.015625 65.03125 
Q 15.375 64.15625 9.8125 62.3125 
L 9.8125 71.09375 
Q 15.4375 72.65625 20.34375 73.4375 
Q 25.25 74.21875 29.59375 74.21875 
Q 40.828125 74.21875 47.359375 69.109375 
Q 53.90625 64.015625 53.90625 55.328125 
Q 53.90625 49.265625 50.4375 45.09375 
Q 46.96875 40.921875 40.578125 39.3125 
z
" id="DejaVuSans-51"/>
      </defs>
      <g transform="translate(166.6375 913.410843)scale(0.1 -0.1)">
       <use xlink:href="#DejaVuSans-51"/>
      </g>
     </g>
    </g>
    <g id="ytick_36">
     <g id="line2d_83">
      <g>
       <use style="stroke:#000000;stroke-width:0.8;" x="180" xlink:href="#madd923904c" y="887.05677"/>
      </g>
     </g>
     <g id="text_43">
      <!-- 4 -->
      <g transform="translate(166.6375 890.855988)scale(0.1 -0.1)">
       <use xlink:href="#DejaVuSans-52"/>
      </g>
     </g>
    </g>
    <g id="text_44">
     <!-- Mach number -->
     <defs>
      <path d="M 9.8125 72.90625 
L 24.515625 72.90625 
L 43.109375 23.296875 
L 61.8125 72.90625 
L 76.515625 72.90625 
L 76.515625 0 
L 66.890625 0 
L 66.890625 64.015625 
L 48.09375 14.015625 
L 38.1875 14.015625 
L 19.390625 64.015625 
L 19.390625 0 
L 9.8125 0 
z
" id="DejaVuSans-77"/>
      <path d="M 48.6875 27.296875 
Q 48.6875 37.203125 44.609375 42.84375 
Q 40.53125 48.484375 33.40625 48.484375 
Q 26.265625 48.484375 22.1875 42.84375 
Q 18.109375 37.203125 18.109375 27.296875 
Q 18.109375 17.390625 22.1875 11.75 
Q 26.265625 6.109375 33.40625 6.109375 
Q 40.53125 6.109375 44.609375 11.75 
Q 48.6875 17.390625 48.6875 27.296875 
z
M 18.109375 46.390625 
Q 20.953125 51.265625 25.265625 53.625 
Q 29.59375 56 35.59375 56 
Q 45.5625 56 51.78125 48.09375 
Q 58.015625 40.1875 58.015625 27.296875 
Q 58.015625 14.40625 51.78125 6.484375 
Q 45.5625 -1.421875 35.59375 -1.421875 
Q 29.59375 -1.421875 25.265625 0.953125 
Q 20.953125 3.328125 18.109375 8.203125 
L 18.109375 0 
L 9.078125 0 
L 9.078125 75.984375 
L 18.109375 75.984375 
z
" id="DejaVuSans-98"/>
     </defs>
     <g transform="translate(160.557812 958.986453)rotate(-90)scale(0.1 -0.1)">
      <use xlink:href="#DejaVuSans-77"/>
      <use x="86.279297" xlink:href="#DejaVuSans-97"/>
      <use x="147.558594" xlink:href="#DejaVuSans-99"/>
      <use x="202.539062" xlink:href="#DejaVuSans-104"/>
      <use x="265.917969" xlink:href="#DejaVuSans-32"/>
      <use x="297.705078" xlink:href="#DejaVuSans-110"/>
      <use x="361.083984" xlink:href="#DejaVuSans-117"/>
      <use x="424.462891" xlink:href="#DejaVuSans-109"/>
      <use x="521.875" xlink:href="#DejaVuSans-98"/>
      <use x="585.351562" xlink:href="#DejaVuSans-101"/>
      <use x="646.875" xlink:href="#DejaVuSans-114"/>
     </g>
    </g>
   </g>
   <g id="line2d_84">
    <path clip-path="url(#p9a80be0c27)" d="M 230.727273 977.159768 
L 231.492621 977.00585 
L 236.543918 975.488525 
L 251.238602 970.869118 
L 271.290723 964.325829 
L 327.773413 945.547557 
L 339.253635 941.387914 
L 349.35623 937.49318 
L 358.387337 933.777768 
L 366.806167 930.076241 
L 374.612717 926.406211 
L 382.113129 922.63605 
L 389.307401 918.771982 
L 396.501673 914.654025 
L 403.849015 910.187036 
L 411.655566 905.171261 
L 420.839743 898.989874 
L 431.860756 891.313139 
L 440.738794 884.87363 
L 447.779997 879.500278 
L 453.596642 874.78457 
L 456.964174 872.0147 
L 462.933889 873.883277 
L 469.975092 875.845088 
L 478.393921 877.949715 
L 489.414934 880.460839 
L 554.622593 894.678139 
L 565.490536 896.748291 
L 574.980853 898.334249 
L 583.858891 899.593761 
L 592.889998 900.646037 
L 603.145663 901.612558 
L 615.238163 902.521828 
L 630.392056 903.428555 
L 651.668733 904.457027 
L 707.845284 907.080039 
L 727.285126 908.274324 
L 747.490317 909.743314 
L 769.226203 911.548732 
L 805.656773 914.643591 
L 840.403577 917.291515 
L 918.316015 923.198198 
L 971.584243 927.216011 
L 1054.241839 933.356976 
L 1100.009656 936.701263 
L 1128.480606 938.558859 
L 1152.818676 939.927924 
L 1175.16684 940.963835 
L 1196.137379 941.715625 
L 1216.342569 942.219976 
L 1236.24162 942.493993 
L 1245.272727 942.543453 
L 1245.272727 942.543453 
" style="fill:none;stroke:#000000;stroke-linecap:square;stroke-width:1.5;"/>
   </g>
   <g id="patch_28">
    <path d="M 180 982.417021 
L 180 866.757447 
" style="fill:none;stroke:#000000;stroke-linecap:square;stroke-linejoin:miter;stroke-width:0.8;"/>
   </g>
   <g id="patch_29">
    <path d="M 1296 982.417021 
L 1296 866.757447 
" style="fill:none;stroke:#000000;stroke-linecap:square;stroke-linejoin:miter;stroke-width:0.8;"/>
   </g>
   <g id="patch_30">
    <path d="M 180 982.417021 
L 1296 982.417021 
" style="fill:none;stroke:#000000;stroke-linecap:square;stroke-linejoin:miter;stroke-width:0.8;"/>
   </g>
   <g id="patch_31">
    <path d="M 180 866.757447 
L 1296 866.757447 
" style="fill:none;stroke:#000000;stroke-linecap:square;stroke-linejoin:miter;stroke-width:0.8;"/>
   </g>
  </g>
  <g id="axes_7">
   <g id="patch_32">
    <path d="M 180 1121.208511 
L 1296 1121.208511 
L 1296 1005.548936 
L 180 1005.548936 
z
" style="fill:#ffffff;"/>
   </g>
   <g id="matplotlib.axis_13">
    <g id="xtick_43">
     <g id="line2d_85">
      <g>
       <use style="stroke:#000000;stroke-width:0.8;" x="230.574203" xlink:href="#m51767ff0ce" y="1121.208511"/>
      </g>
     </g>
    </g>
    <g id="xtick_44">
     <g id="line2d_86">
      <g>
       <use style="stroke:#000000;stroke-width:0.8;" x="383.643825" xlink:href="#m51767ff0ce" y="1121.208511"/>
      </g>
     </g>
    </g>
    <g id="xtick_45">
     <g id="line2d_87">
      <g>
       <use style="stroke:#000000;stroke-width:0.8;" x="536.713447" xlink:href="#m51767ff0ce" y="1121.208511"/>
      </g>
     </g>
    </g>
    <g id="xtick_46">
     <g id="line2d_88">
      <g>
       <use style="stroke:#000000;stroke-width:0.8;" x="689.783069" xlink:href="#m51767ff0ce" y="1121.208511"/>
      </g>
     </g>
    </g>
    <g id="xtick_47">
     <g id="line2d_89">
      <g>
       <use style="stroke:#000000;stroke-width:0.8;" x="842.852691" xlink:href="#m51767ff0ce" y="1121.208511"/>
      </g>
     </g>
    </g>
    <g id="xtick_48">
     <g id="line2d_90">
      <g>
       <use style="stroke:#000000;stroke-width:0.8;" x="995.922313" xlink:href="#m51767ff0ce" y="1121.208511"/>
      </g>
     </g>
    </g>
    <g id="xtick_49">
     <g id="line2d_91">
      <g>
       <use style="stroke:#000000;stroke-width:0.8;" x="1148.991935" xlink:href="#m51767ff0ce" y="1121.208511"/>
      </g>
     </g>
    </g>
   </g>
   <g id="matplotlib.axis_14">
    <g id="ytick_37">
     <g id="line2d_92">
      <g>
       <use style="stroke:#000000;stroke-width:0.8;" x="180" xlink:href="#madd923904c" y="1115.951402"/>
      </g>
     </g>
     <g id="text_45">
      <!-- 0 -->
      <g transform="translate(166.6375 1119.750621)scale(0.1 -0.1)">
       <use xlink:href="#DejaVuSans-48"/>
      </g>
     </g>
    </g>
    <g id="ytick_38">
     <g id="line2d_93">
      <g>
       <use style="stroke:#000000;stroke-width:0.8;" x="180" xlink:href="#madd923904c" y="1099.722935"/>
      </g>
     </g>
     <g id="text_46">
      <!-- 500 -->
      <defs>
       <path d="M 10.796875 72.90625 
L 49.515625 72.90625 
L 49.515625 64.59375 
L 19.828125 64.59375 
L 19.828125 46.734375 
Q 21.96875 47.46875 24.109375 47.828125 
Q 26.265625 48.1875 28.421875 48.1875 
Q 40.625 48.1875 47.75 41.5 
Q 54.890625 34.8125 54.890625 23.390625 
Q 54.890625 11.625 47.5625 5.09375 
Q 40.234375 -1.421875 26.90625 -1.421875 
Q 22.3125 -1.421875 17.546875 -0.640625 
Q 12.796875 0.140625 7.71875 1.703125 
L 7.71875 11.625 
Q 12.109375 9.234375 16.796875 8.0625 
Q 21.484375 6.890625 26.703125 6.890625 
Q 35.15625 6.890625 40.078125 11.328125 
Q 45.015625 15.765625 45.015625 23.390625 
Q 45.015625 31 40.078125 35.4375 
Q 35.15625 39.890625 26.703125 39.890625 
Q 22.75 39.890625 18.8125 39.015625 
Q 14.890625 38.140625 10.796875 36.28125 
z
" id="DejaVuSans-53"/>
      </defs>
      <g transform="translate(153.9125 1103.522154)scale(0.1 -0.1)">
       <use xlink:href="#DejaVuSans-53"/>
       <use x="63.623047" xlink:href="#DejaVuSans-48"/>
       <use x="127.246094" xlink:href="#DejaVuSans-48"/>
      </g>
     </g>
    </g>
    <g id="ytick_39">
     <g id="line2d_94">
      <g>
       <use style="stroke:#000000;stroke-width:0.8;" x="180" xlink:href="#madd923904c" y="1083.494469"/>
      </g>
     </g>
     <g id="text_47">
      <!-- 1000 -->
      <g transform="translate(147.55 1087.293687)scale(0.1 -0.1)">
       <use xlink:href="#DejaVuSans-49"/>
       <use x="63.623047" xlink:href="#DejaVuSans-48"/>
       <use x="127.246094" xlink:href="#DejaVuSans-48"/>
       <use x="190.869141" xlink:href="#DejaVuSans-48"/>
      </g>
     </g>
    </g>
    <g id="ytick_40">
     <g id="line2d_95">
      <g>
       <use style="stroke:#000000;stroke-width:0.8;" x="180" xlink:href="#madd923904c" y="1067.266002"/>
      </g>
     </g>
     <g id="text_48">
      <!-- 1500 -->
      <g transform="translate(147.55 1071.06522)scale(0.1 -0.1)">
       <use xlink:href="#DejaVuSans-49"/>
       <use x="63.623047" xlink:href="#DejaVuSans-53"/>
       <use x="127.246094" xlink:href="#DejaVuSans-48"/>
       <use x="190.869141" xlink:href="#DejaVuSans-48"/>
      </g>
     </g>
    </g>
    <g id="ytick_41">
     <g id="line2d_96">
      <g>
       <use style="stroke:#000000;stroke-width:0.8;" x="180" xlink:href="#madd923904c" y="1051.037535"/>
      </g>
     </g>
     <g id="text_49">
      <!-- 2000 -->
      <g transform="translate(147.55 1054.836754)scale(0.1 -0.1)">
       <use xlink:href="#DejaVuSans-50"/>
       <use x="63.623047" xlink:href="#DejaVuSans-48"/>
       <use x="127.246094" xlink:href="#DejaVuSans-48"/>
       <use x="190.869141" xlink:href="#DejaVuSans-48"/>
      </g>
     </g>
    </g>
    <g id="ytick_42">
     <g id="line2d_97">
      <g>
       <use style="stroke:#000000;stroke-width:0.8;" x="180" xlink:href="#madd923904c" y="1034.809068"/>
      </g>
     </g>
     <g id="text_50">
      <!-- 2500 -->
      <g transform="translate(147.55 1038.608287)scale(0.1 -0.1)">
       <use xlink:href="#DejaVuSans-50"/>
       <use x="63.623047" xlink:href="#DejaVuSans-53"/>
       <use x="127.246094" xlink:href="#DejaVuSans-48"/>
       <use x="190.869141" xlink:href="#DejaVuSans-48"/>
      </g>
     </g>
    </g>
    <g id="ytick_43">
     <g id="line2d_98">
      <g>
       <use style="stroke:#000000;stroke-width:0.8;" x="180" xlink:href="#madd923904c" y="1018.580601"/>
      </g>
     </g>
     <g id="text_51">
      <!-- 3000 -->
      <g transform="translate(147.55 1022.37982)scale(0.1 -0.1)">
       <use xlink:href="#DejaVuSans-51"/>
       <use x="63.623047" xlink:href="#DejaVuSans-48"/>
       <use x="127.246094" xlink:href="#DejaVuSans-48"/>
       <use x="190.869141" xlink:href="#DejaVuSans-48"/>
      </g>
     </g>
    </g>
    <g id="text_52">
     <!-- Drag (N) -->
     <g transform="translate(141.470313 1084.753723)rotate(-90)scale(0.1 -0.1)">
      <use xlink:href="#DejaVuSans-68"/>
      <use x="77.001953" xlink:href="#DejaVuSans-114"/>
      <use x="118.115234" xlink:href="#DejaVuSans-97"/>
      <use x="179.394531" xlink:href="#DejaVuSans-103"/>
      <use x="242.871094" xlink:href="#DejaVuSans-32"/>
      <use x="274.658203" xlink:href="#DejaVuSans-40"/>
      <use x="313.671875" xlink:href="#DejaVuSans-78"/>
      <use x="388.476562" xlink:href="#DejaVuSans-41"/>
     </g>
    </g>
   </g>
   <g id="line2d_99">
    <path clip-path="url(#p04fbcc41d1)" d="M 230.727273 1115.951257 
L 233.482526 1115.820881 
L 236.543918 1115.469073 
L 239.75838 1114.872786 
L 242.360564 1114.157614 
L 246.646513 1112.700831 
L 248.942558 1111.729885 
L 253.228507 1109.565854 
L 256.596039 1107.519124 
L 258.892083 1105.942784 
L 262.259615 1103.407549 
L 265.627147 1100.567559 
L 268.535469 1097.865052 
L 271.443792 1094.929159 
L 274.505185 1091.575422 
L 278.331925 1087.009649 
L 281.852526 1082.434549 
L 285.220058 1077.721243 
L 288.740659 1072.431907 
L 292.108191 1066.998572 
L 298.230976 1056.520209 
L 300.83316 1052.060355 
L 309.864267 1042.677832 
L 315.680913 1037.28525 
L 321.03835 1032.650014 
L 325.936578 1028.699732 
L 329.763318 1025.872273 
L 334.202337 1022.880531 
L 338.335217 1020.356618 
L 342.008888 1018.35697 
L 345.988698 1016.452305 
L 349.815439 1014.870456 
L 353.48911 1013.588858 
L 357.16278 1012.545315 
L 360.683382 1011.773542 
L 364.357053 1011.203508 
L 367.877654 1010.889064 
L 371.245186 1010.807848 
L 374.612717 1010.943655 
L 377.980249 1011.298253 
L 381.347781 1011.872807 
L 384.715312 1012.667951 
L 388.082844 1013.685032 
L 391.603445 1014.986974 
L 395.124047 1016.532899 
L 398.644648 1018.321264 
L 402.318319 1020.442195 
L 405.99199 1022.817223 
L 409.81873 1025.551851 
L 413.95161 1028.788762 
L 418.23756 1032.43419 
L 422.982718 1036.775575 
L 428.799364 1042.424639 
L 438.595819 1052.31566 
L 448.086136 1061.77958 
L 454.51506 1067.87459 
L 457.117244 1070.420869 
L 459.719427 1074.44976 
L 462.321611 1078.069469 
L 465.076864 1081.510079 
L 467.832117 1084.595892 
L 470.74044 1087.514917 
L 473.648763 1090.128398 
L 476.710155 1092.589437 
L 479.924617 1094.892576 
L 483.292149 1097.035343 
L 486.81275 1099.017849 
L 490.639491 1100.913494 
L 494.619301 1102.637526 
L 498.90525 1104.252042 
L 503.497339 1105.744259 
L 508.548637 1107.146048 
L 514.059143 1108.436171 
L 520.028858 1109.600796 
L 526.610852 1110.654935 
L 533.958194 1111.602979 
L 542.377023 1112.457147 
L 552.020409 1113.204613 
L 563.347561 1113.853123 
L 577.123827 1114.410409 
L 594.420695 1114.877725 
L 617.534207 1115.267939 
L 649.831898 1115.576584 
L 697.58962 1115.792121 
L 779.328798 1115.910658 
L 1022.709497 1115.950339 
L 1245.272727 1115.95116 
L 1245.272727 1115.95116 
" style="fill:none;stroke:#000000;stroke-linecap:square;stroke-width:1.5;"/>
   </g>
   <g id="patch_33">
    <path d="M 180 1121.208511 
L 180 1005.548936 
" style="fill:none;stroke:#000000;stroke-linecap:square;stroke-linejoin:miter;stroke-width:0.8;"/>
   </g>
   <g id="patch_34">
    <path d="M 1296 1121.208511 
L 1296 1005.548936 
" style="fill:none;stroke:#000000;stroke-linecap:square;stroke-linejoin:miter;stroke-width:0.8;"/>
   </g>
   <g id="patch_35">
    <path d="M 180 1121.208511 
L 1296 1121.208511 
" style="fill:none;stroke:#000000;stroke-linecap:square;stroke-linejoin:miter;stroke-width:0.8;"/>
   </g>
   <g id="patch_36">
    <path d="M 180 1005.548936 
L 1296 1005.548936 
" style="fill:none;stroke:#000000;stroke-linecap:square;stroke-linejoin:miter;stroke-width:0.8;"/>
   </g>
  </g>
  <g id="axes_8">
   <g id="patch_37">
    <path d="M 180 1260 
L 1296 1260 
L 1296 1144.340426 
L 180 1144.340426 
z
" style="fill:#ffffff;"/>
   </g>
   <g id="matplotlib.axis_15">
    <g id="xtick_50">
     <g id="line2d_100">
      <g>
       <use style="stroke:#000000;stroke-width:0.8;" x="230.574203" xlink:href="#m51767ff0ce" y="1260"/>
      </g>
     </g>
     <g id="text_53">
      <!-- 0 -->
      <g transform="translate(227.392953 1274.598437)scale(0.1 -0.1)">
       <use xlink:href="#DejaVuSans-48"/>
      </g>
     </g>
    </g>
    <g id="xtick_51">
     <g id="line2d_101">
      <g>
       <use style="stroke:#000000;stroke-width:0.8;" x="383.643825" xlink:href="#m51767ff0ce" y="1260"/>
      </g>
     </g>
     <g id="text_54">
      <!-- 25 -->
      <g transform="translate(377.281325 1274.598437)scale(0.1 -0.1)">
       <use xlink:href="#DejaVuSans-50"/>
       <use x="63.623047" xlink:href="#DejaVuSans-53"/>
      </g>
     </g>
    </g>
    <g id="xtick_52">
     <g id="line2d_102">
      <g>
       <use style="stroke:#000000;stroke-width:0.8;" x="536.713447" xlink:href="#m51767ff0ce" y="1260"/>
      </g>
     </g>
     <g id="text_55">
      <!-- 50 -->
      <g transform="translate(530.350947 1274.598437)scale(0.1 -0.1)">
       <use xlink:href="#DejaVuSans-53"/>
       <use x="63.623047" xlink:href="#DejaVuSans-48"/>
      </g>
     </g>
    </g>
    <g id="xtick_53">
     <g id="line2d_103">
      <g>
       <use style="stroke:#000000;stroke-width:0.8;" x="689.783069" xlink:href="#m51767ff0ce" y="1260"/>
      </g>
     </g>
     <g id="text_56">
      <!-- 75 -->
      <defs>
       <path d="M 8.203125 72.90625 
L 55.078125 72.90625 
L 55.078125 68.703125 
L 28.609375 0 
L 18.3125 0 
L 43.21875 64.59375 
L 8.203125 64.59375 
z
" id="DejaVuSans-55"/>
      </defs>
      <g transform="translate(683.420569 1274.598437)scale(0.1 -0.1)">
       <use xlink:href="#DejaVuSans-55"/>
       <use x="63.623047" xlink:href="#DejaVuSans-53"/>
      </g>
     </g>
    </g>
    <g id="xtick_54">
     <g id="line2d_104">
      <g>
       <use style="stroke:#000000;stroke-width:0.8;" x="842.852691" xlink:href="#m51767ff0ce" y="1260"/>
      </g>
     </g>
     <g id="text_57">
      <!-- 100 -->
      <g transform="translate(833.308941 1274.598437)scale(0.1 -0.1)">
       <use xlink:href="#DejaVuSans-49"/>
       <use x="63.623047" xlink:href="#DejaVuSans-48"/>
       <use x="127.246094" xlink:href="#DejaVuSans-48"/>
      </g>
     </g>
    </g>
    <g id="xtick_55">
     <g id="line2d_105">
      <g>
       <use style="stroke:#000000;stroke-width:0.8;" x="995.922313" xlink:href="#m51767ff0ce" y="1260"/>
      </g>
     </g>
     <g id="text_58">
      <!-- 125 -->
      <g transform="translate(986.378563 1274.598437)scale(0.1 -0.1)">
       <use xlink:href="#DejaVuSans-49"/>
       <use x="63.623047" xlink:href="#DejaVuSans-50"/>
       <use x="127.246094" xlink:href="#DejaVuSans-53"/>
      </g>
     </g>
    </g>
    <g id="xtick_56">
     <g id="line2d_106">
      <g>
       <use style="stroke:#000000;stroke-width:0.8;" x="1148.991935" xlink:href="#m51767ff0ce" y="1260"/>
      </g>
     </g>
     <g id="text_59">
      <!-- 150 -->
      <g transform="translate(1139.448185 1274.598437)scale(0.1 -0.1)">
       <use xlink:href="#DejaVuSans-49"/>
       <use x="63.623047" xlink:href="#DejaVuSans-53"/>
       <use x="127.246094" xlink:href="#DejaVuSans-48"/>
      </g>
     </g>
    </g>
   </g>
   <g id="matplotlib.axis_16">
    <g id="ytick_44">
     <g id="line2d_107">
      <g>
       <use style="stroke:#000000;stroke-width:0.8;" x="180" xlink:href="#madd923904c" y="1254.742776"/>
      </g>
     </g>
     <g id="text_60">
      <!-- 0 -->
      <g transform="translate(166.6375 1258.541994)scale(0.1 -0.1)">
       <use xlink:href="#DejaVuSans-48"/>
      </g>
     </g>
    </g>
    <g id="ytick_45">
     <g id="line2d_108">
      <g>
       <use style="stroke:#000000;stroke-width:0.8;" x="180" xlink:href="#madd923904c" y="1230.513113"/>
      </g>
     </g>
     <g id="text_61">
      <!-- 20 -->
      <g transform="translate(160.275 1234.312332)scale(0.1 -0.1)">
       <use xlink:href="#DejaVuSans-50"/>
       <use x="63.623047" xlink:href="#DejaVuSans-48"/>
      </g>
     </g>
    </g>
    <g id="ytick_46">
     <g id="line2d_109">
      <g>
       <use style="stroke:#000000;stroke-width:0.8;" x="180" xlink:href="#madd923904c" y="1206.283451"/>
      </g>
     </g>
     <g id="text_62">
      <!-- 40 -->
      <g transform="translate(160.275 1210.082669)scale(0.1 -0.1)">
       <use xlink:href="#DejaVuSans-52"/>
       <use x="63.623047" xlink:href="#DejaVuSans-48"/>
      </g>
     </g>
    </g>
    <g id="ytick_47">
     <g id="line2d_110">
      <g>
       <use style="stroke:#000000;stroke-width:0.8;" x="180" xlink:href="#madd923904c" y="1182.053788"/>
      </g>
     </g>
     <g id="text_63">
      <!-- 60 -->
      <g transform="translate(160.275 1185.853007)scale(0.1 -0.1)">
       <use xlink:href="#DejaVuSans-54"/>
       <use x="63.623047" xlink:href="#DejaVuSans-48"/>
      </g>
     </g>
    </g>
    <g id="ytick_48">
     <g id="line2d_111">
      <g>
       <use style="stroke:#000000;stroke-width:0.8;" x="180" xlink:href="#madd923904c" y="1157.824126"/>
      </g>
     </g>
     <g id="text_64">
      <!-- 80 -->
      <g transform="translate(160.275 1161.623345)scale(0.1 -0.1)">
       <use xlink:href="#DejaVuSans-56"/>
       <use x="63.623047" xlink:href="#DejaVuSans-48"/>
      </g>
     </g>
    </g>
    <g id="text_65">
     <!-- Air Pressure (kPa) -->
     <g transform="translate(154.195312 1246.738963)rotate(-90)scale(0.1 -0.1)">
      <use xlink:href="#DejaVuSans-65"/>
      <use x="68.408203" xlink:href="#DejaVuSans-105"/>
      <use x="96.191406" xlink:href="#DejaVuSans-114"/>
      <use x="137.304688" xlink:href="#DejaVuSans-32"/>
      <use x="169.091797" xlink:href="#DejaVuSans-80"/>
      <use x="229.378906" xlink:href="#DejaVuSans-114"/>
      <use x="270.460938" xlink:href="#DejaVuSans-101"/>
      <use x="331.984375" xlink:href="#DejaVuSans-115"/>
      <use x="384.083984" xlink:href="#DejaVuSans-115"/>
      <use x="436.183594" xlink:href="#DejaVuSans-117"/>
      <use x="499.5625" xlink:href="#DejaVuSans-114"/>
      <use x="540.644531" xlink:href="#DejaVuSans-101"/>
      <use x="602.167969" xlink:href="#DejaVuSans-32"/>
      <use x="633.955078" xlink:href="#DejaVuSans-40"/>
      <use x="672.96875" xlink:href="#DejaVuSans-107"/>
      <use x="730.878906" xlink:href="#DejaVuSans-80"/>
      <use x="791.119141" xlink:href="#DejaVuSans-97"/>
      <use x="852.398438" xlink:href="#DejaVuSans-41"/>
     </g>
    </g>
   </g>
   <g id="line2d_112">
    <path clip-path="url(#p3b7519ad37)" d="M 230.727273 1149.597679 
L 235.625501 1149.712992 
L 240.523729 1150.053583 
L 245.421956 1150.618703 
L 250.320184 1151.405102 
L 255.218412 1152.41271 
L 260.26971 1153.677104 
L 265.474077 1155.212707 
L 270.831514 1157.030293 
L 276.34202 1159.137459 
L 282.158666 1161.605821 
L 288.281451 1164.452277 
L 294.863444 1167.765493 
L 302.057717 1171.644828 
L 310.017337 1176.195784 
L 319.048445 1181.620794 
L 330.222527 1188.605679 
L 350.427717 1201.562085 
L 365.42854 1211.049008 
L 375.837274 1217.374608 
L 384.715312 1222.515007 
L 392.674933 1226.872028 
L 400.022275 1230.64569 
L 406.910408 1233.939202 
L 413.492401 1236.844231 
L 419.921326 1239.437258 
L 426.19718 1241.724585 
L 432.319965 1243.71982 
L 438.44275 1245.485241 
L 444.718604 1247.066653 
L 451.300598 1248.494444 
L 458.188731 1249.757906 
L 464.464586 1250.685545 
L 471.658858 1251.520885 
L 480.077687 1252.266029 
L 489.874143 1252.903484 
L 501.660504 1253.441848 
L 516.355187 1253.882365 
L 535.64196 1254.22586 
L 563.194492 1254.47669 
L 608.809239 1254.643301 
L 704.171614 1254.728479 
L 1140.420036 1254.742738 
L 1245.272727 1254.742747 
L 1245.272727 1254.742747 
" style="fill:none;stroke:#000000;stroke-linecap:square;stroke-width:1.5;"/>
   </g>
   <g id="patch_38">
    <path d="M 180 1260 
L 180 1144.340426 
" style="fill:none;stroke:#000000;stroke-linecap:square;stroke-linejoin:miter;stroke-width:0.8;"/>
   </g>
   <g id="patch_39">
    <path d="M 1296 1260 
L 1296 1144.340426 
" style="fill:none;stroke:#000000;stroke-linecap:square;stroke-linejoin:miter;stroke-width:0.8;"/>
   </g>
   <g id="patch_40">
    <path d="M 180 1260 
L 1296 1260 
" style="fill:none;stroke:#000000;stroke-linecap:square;stroke-linejoin:miter;stroke-width:0.8;"/>
   </g>
   <g id="patch_41">
    <path d="M 180 1144.340426 
L 1296 1144.340426 
" style="fill:none;stroke:#000000;stroke-linecap:square;stroke-linejoin:miter;stroke-width:0.8;"/>
   </g>
  </g>
 </g>
 <defs>
  <clipPath id="pb1b7da2325">
   <rect height="115.659574" width="1116" x="180" y="172.8"/>
  </clipPath>
  <clipPath id="p9f57a66335">
   <rect height="115.659574" width="1116" x="180" y="311.591489"/>
  </clipPath>
  <clipPath id="pcc680a70d1">
   <rect height="115.659574" width="1116" x="180" y="450.382979"/>
  </clipPath>
  <clipPath id="pe624177d2a">
   <rect height="115.659574" width="1116" x="180" y="589.174468"/>
  </clipPath>
  <clipPath id="p776393324a">
   <rect height="115.659574" width="1116" x="180" y="727.965957"/>
  </clipPath>
  <clipPath id="p9a80be0c27">
   <rect height="115.659574" width="1116" x="180" y="866.757447"/>
  </clipPath>
  <clipPath id="p04fbcc41d1">
   <rect height="115.659574" width="1116" x="180" y="1005.548936"/>
  </clipPath>
  <clipPath id="p3b7519ad37">
   <rect height="115.659574" width="1116" x="180" y="1144.340426"/>
  </clipPath>
 </defs>
</svg>
