<?xml version="1.0" encoding="utf-8" standalone="no"?>
<!DOCTYPE svg PUBLIC "-//W3C//DTD SVG 1.1//EN"
  "http://www.w3.org/Graphics/SVG/1.1/DTD/svg11.dtd">
<!-- Created with matplotlib (https://matplotlib.org/) -->
<svg height="1440pt" version="1.1" viewBox="0 0 1440 1440" width="1440pt" xmlns="http://www.w3.org/2000/svg" xmlns:xlink="http://www.w3.org/1999/xlink">
 <defs>
  <style type="text/css">
*{stroke-linecap:butt;stroke-linejoin:round;}
  </style>
 </defs>
 <g id="figure_1">
  <g id="patch_1">
   <path d="M 0 1440 
L 1440 1440 
L 1440 0 
L 0 0 
z
" style="fill:#ffffff;"/>
  </g>
  <g id="axes_1">
   <g id="patch_2">
    <path d="M 180 288.459574 
L 1296 288.459574 
L 1296 172.8 
L 180 172.8 
z
" style="fill:#ffffff;"/>
   </g>
   <g id="matplotlib.axis_1">
    <g id="xtick_1">
     <g id="line2d_1">
      <defs>
       <path d="M 0 0 
L 0 3.5 
" id="mc7762f65b0" style="stroke:#000000;stroke-width:0.8;"/>
      </defs>
      <g>
       <use style="stroke:#000000;stroke-width:0.8;" x="230.57748" xlink:href="#mc7762f65b0" y="288.459574"/>
      </g>
     </g>
    </g>
    <g id="xtick_2">
     <g id="line2d_2">
      <g>
       <use style="stroke:#000000;stroke-width:0.8;" x="380.370106" xlink:href="#mc7762f65b0" y="288.459574"/>
      </g>
     </g>
    </g>
    <g id="xtick_3">
     <g id="line2d_3">
      <g>
       <use style="stroke:#000000;stroke-width:0.8;" x="530.162732" xlink:href="#mc7762f65b0" y="288.459574"/>
      </g>
     </g>
    </g>
    <g id="xtick_4">
     <g id="line2d_4">
      <g>
       <use style="stroke:#000000;stroke-width:0.8;" x="679.955358" xlink:href="#mc7762f65b0" y="288.459574"/>
      </g>
     </g>
    </g>
    <g id="xtick_5">
     <g id="line2d_5">
      <g>
       <use style="stroke:#000000;stroke-width:0.8;" x="829.747983" xlink:href="#mc7762f65b0" y="288.459574"/>
      </g>
     </g>
    </g>
    <g id="xtick_6">
     <g id="line2d_6">
      <g>
       <use style="stroke:#000000;stroke-width:0.8;" x="979.540609" xlink:href="#mc7762f65b0" y="288.459574"/>
      </g>
     </g>
    </g>
    <g id="xtick_7">
     <g id="line2d_7">
      <g>
       <use style="stroke:#000000;stroke-width:0.8;" x="1129.333235" xlink:href="#mc7762f65b0" y="288.459574"/>
      </g>
     </g>
    </g>
    <g id="xtick_8">
     <g id="line2d_8">
      <g>
       <use style="stroke:#000000;stroke-width:0.8;" x="1279.125861" xlink:href="#mc7762f65b0" y="288.459574"/>
      </g>
     </g>
    </g>
   </g>
   <g id="matplotlib.axis_2">
    <g id="ytick_1">
     <g id="line2d_9">
      <defs>
       <path d="M 0 0 
L -3.5 0 
" id="m00f718b606" style="stroke:#000000;stroke-width:0.8;"/>
      </defs>
      <g>
       <use style="stroke:#000000;stroke-width:0.8;" x="180" xlink:href="#m00f718b606" y="283.204952"/>
      </g>
     </g>
     <g id="text_1">
      <!-- 0 -->
      <defs>
       <path d="M 31.78125 66.40625 
Q 24.171875 66.40625 20.328125 58.90625 
Q 16.5 51.421875 16.5 36.375 
Q 16.5 21.390625 20.328125 13.890625 
Q 24.171875 6.390625 31.78125 6.390625 
Q 39.453125 6.390625 43.28125 13.890625 
Q 47.125 21.390625 47.125 36.375 
Q 47.125 51.421875 43.28125 58.90625 
Q 39.453125 66.40625 31.78125 66.40625 
z
M 31.78125 74.21875 
Q 44.046875 74.21875 50.515625 64.515625 
Q 56.984375 54.828125 56.984375 36.375 
Q 56.984375 17.96875 50.515625 8.265625 
Q 44.046875 -1.421875 31.78125 -1.421875 
Q 19.53125 -1.421875 13.0625 8.265625 
Q 6.59375 17.96875 6.59375 36.375 
Q 6.59375 54.828125 13.0625 64.515625 
Q 19.53125 74.21875 31.78125 74.21875 
z
" id="DejaVuSans-48"/>
      </defs>
      <g transform="translate(166.6375 287.00417)scale(0.1 -0.1)">
       <use xlink:href="#DejaVuSans-48"/>
      </g>
     </g>
    </g>
    <g id="ytick_2">
     <g id="line2d_10">
      <g>
       <use style="stroke:#000000;stroke-width:0.8;" x="180" xlink:href="#m00f718b606" y="262.531918"/>
      </g>
     </g>
     <g id="text_2">
      <!-- 20 -->
      <defs>
       <path d="M 19.1875 8.296875 
L 53.609375 8.296875 
L 53.609375 0 
L 7.328125 0 
L 7.328125 8.296875 
Q 12.9375 14.109375 22.625 23.890625 
Q 32.328125 33.6875 34.8125 36.53125 
Q 39.546875 41.84375 41.421875 45.53125 
Q 43.3125 49.21875 43.3125 52.78125 
Q 43.3125 58.59375 39.234375 62.25 
Q 35.15625 65.921875 28.609375 65.921875 
Q 23.96875 65.921875 18.8125 64.3125 
Q 13.671875 62.703125 7.8125 59.421875 
L 7.8125 69.390625 
Q 13.765625 71.78125 18.9375 73 
Q 24.125 74.21875 28.421875 74.21875 
Q 39.75 74.21875 46.484375 68.546875 
Q 53.21875 62.890625 53.21875 53.421875 
Q 53.21875 48.921875 51.53125 44.890625 
Q 49.859375 40.875 45.40625 35.40625 
Q 44.1875 33.984375 37.640625 27.21875 
Q 31.109375 20.453125 19.1875 8.296875 
z
" id="DejaVuSans-50"/>
      </defs>
      <g transform="translate(160.275 266.331137)scale(0.1 -0.1)">
       <use xlink:href="#DejaVuSans-50"/>
       <use x="63.623047" xlink:href="#DejaVuSans-48"/>
      </g>
     </g>
    </g>
    <g id="ytick_3">
     <g id="line2d_11">
      <g>
       <use style="stroke:#000000;stroke-width:0.8;" x="180" xlink:href="#m00f718b606" y="241.858885"/>
      </g>
     </g>
     <g id="text_3">
      <!-- 40 -->
      <defs>
       <path d="M 37.796875 64.3125 
L 12.890625 25.390625 
L 37.796875 25.390625 
z
M 35.203125 72.90625 
L 47.609375 72.90625 
L 47.609375 25.390625 
L 58.015625 25.390625 
L 58.015625 17.1875 
L 47.609375 17.1875 
L 47.609375 0 
L 37.796875 0 
L 37.796875 17.1875 
L 4.890625 17.1875 
L 4.890625 26.703125 
z
" id="DejaVuSans-52"/>
      </defs>
      <g transform="translate(160.275 245.658104)scale(0.1 -0.1)">
       <use xlink:href="#DejaVuSans-52"/>
       <use x="63.623047" xlink:href="#DejaVuSans-48"/>
      </g>
     </g>
    </g>
    <g id="ytick_4">
     <g id="line2d_12">
      <g>
       <use style="stroke:#000000;stroke-width:0.8;" x="180" xlink:href="#m00f718b606" y="221.185852"/>
      </g>
     </g>
     <g id="text_4">
      <!-- 60 -->
      <defs>
       <path d="M 33.015625 40.375 
Q 26.375 40.375 22.484375 35.828125 
Q 18.609375 31.296875 18.609375 23.390625 
Q 18.609375 15.53125 22.484375 10.953125 
Q 26.375 6.390625 33.015625 6.390625 
Q 39.65625 6.390625 43.53125 10.953125 
Q 47.40625 15.53125 47.40625 23.390625 
Q 47.40625 31.296875 43.53125 35.828125 
Q 39.65625 40.375 33.015625 40.375 
z
M 52.59375 71.296875 
L 52.59375 62.3125 
Q 48.875 64.0625 45.09375 64.984375 
Q 41.3125 65.921875 37.59375 65.921875 
Q 27.828125 65.921875 22.671875 59.328125 
Q 17.53125 52.734375 16.796875 39.40625 
Q 19.671875 43.65625 24.015625 45.921875 
Q 28.375 48.1875 33.59375 48.1875 
Q 44.578125 48.1875 50.953125 41.515625 
Q 57.328125 34.859375 57.328125 23.390625 
Q 57.328125 12.15625 50.6875 5.359375 
Q 44.046875 -1.421875 33.015625 -1.421875 
Q 20.359375 -1.421875 13.671875 8.265625 
Q 6.984375 17.96875 6.984375 36.375 
Q 6.984375 53.65625 15.1875 63.9375 
Q 23.390625 74.21875 37.203125 74.21875 
Q 40.921875 74.21875 44.703125 73.484375 
Q 48.484375 72.75 52.59375 71.296875 
z
" id="DejaVuSans-54"/>
      </defs>
      <g transform="translate(160.275 224.98507)scale(0.1 -0.1)">
       <use xlink:href="#DejaVuSans-54"/>
       <use x="63.623047" xlink:href="#DejaVuSans-48"/>
      </g>
     </g>
    </g>
    <g id="ytick_5">
     <g id="line2d_13">
      <g>
       <use style="stroke:#000000;stroke-width:0.8;" x="180" xlink:href="#m00f718b606" y="200.512818"/>
      </g>
     </g>
     <g id="text_5">
      <!-- 80 -->
      <defs>
       <path d="M 31.78125 34.625 
Q 24.75 34.625 20.71875 30.859375 
Q 16.703125 27.09375 16.703125 20.515625 
Q 16.703125 13.921875 20.71875 10.15625 
Q 24.75 6.390625 31.78125 6.390625 
Q 38.8125 6.390625 42.859375 10.171875 
Q 46.921875 13.96875 46.921875 20.515625 
Q 46.921875 27.09375 42.890625 30.859375 
Q 38.875 34.625 31.78125 34.625 
z
M 21.921875 38.8125 
Q 15.578125 40.375 12.03125 44.71875 
Q 8.5 49.078125 8.5 55.328125 
Q 8.5 64.0625 14.71875 69.140625 
Q 20.953125 74.21875 31.78125 74.21875 
Q 42.671875 74.21875 48.875 69.140625 
Q 55.078125 64.0625 55.078125 55.328125 
Q 55.078125 49.078125 51.53125 44.71875 
Q 48 40.375 41.703125 38.8125 
Q 48.828125 37.15625 52.796875 32.3125 
Q 56.78125 27.484375 56.78125 20.515625 
Q 56.78125 9.90625 50.3125 4.234375 
Q 43.84375 -1.421875 31.78125 -1.421875 
Q 19.734375 -1.421875 13.25 4.234375 
Q 6.78125 9.90625 6.78125 20.515625 
Q 6.78125 27.484375 10.78125 32.3125 
Q 14.796875 37.15625 21.921875 38.8125 
z
M 18.3125 54.390625 
Q 18.3125 48.734375 21.84375 45.5625 
Q 25.390625 42.390625 31.78125 42.390625 
Q 38.140625 42.390625 41.71875 45.5625 
Q 45.3125 48.734375 45.3125 54.390625 
Q 45.3125 60.0625 41.71875 63.234375 
Q 38.140625 66.40625 31.78125 66.40625 
Q 25.390625 66.40625 21.84375 63.234375 
Q 18.3125 60.0625 18.3125 54.390625 
z
" id="DejaVuSans-56"/>
      </defs>
      <g transform="translate(160.275 204.312037)scale(0.1 -0.1)">
       <use xlink:href="#DejaVuSans-56"/>
       <use x="63.623047" xlink:href="#DejaVuSans-48"/>
      </g>
     </g>
    </g>
    <g id="ytick_6">
     <g id="line2d_14">
      <g>
       <use style="stroke:#000000;stroke-width:0.8;" x="180" xlink:href="#m00f718b606" y="179.839785"/>
      </g>
     </g>
     <g id="text_6">
      <!-- 100 -->
      <defs>
       <path d="M 12.40625 8.296875 
L 28.515625 8.296875 
L 28.515625 63.921875 
L 10.984375 60.40625 
L 10.984375 69.390625 
L 28.421875 72.90625 
L 38.28125 72.90625 
L 38.28125 8.296875 
L 54.390625 8.296875 
L 54.390625 0 
L 12.40625 0 
z
" id="DejaVuSans-49"/>
      </defs>
      <g transform="translate(153.9125 183.639004)scale(0.1 -0.1)">
       <use xlink:href="#DejaVuSans-49"/>
       <use x="63.623047" xlink:href="#DejaVuSans-48"/>
       <use x="127.246094" xlink:href="#DejaVuSans-48"/>
      </g>
     </g>
    </g>
    <g id="text_7">
     <!-- Altitude (km) -->
     <defs>
      <path d="M 34.1875 63.1875 
L 20.796875 26.90625 
L 47.609375 26.90625 
z
M 28.609375 72.90625 
L 39.796875 72.90625 
L 67.578125 0 
L 57.328125 0 
L 50.6875 18.703125 
L 17.828125 18.703125 
L 11.1875 0 
L 0.78125 0 
z
" id="DejaVuSans-65"/>
      <path d="M 9.421875 75.984375 
L 18.40625 75.984375 
L 18.40625 0 
L 9.421875 0 
z
" id="DejaVuSans-108"/>
      <path d="M 18.3125 70.21875 
L 18.3125 54.6875 
L 36.8125 54.6875 
L 36.8125 47.703125 
L 18.3125 47.703125 
L 18.3125 18.015625 
Q 18.3125 11.328125 20.140625 9.421875 
Q 21.96875 7.515625 27.59375 7.515625 
L 36.8125 7.515625 
L 36.8125 0 
L 27.59375 0 
Q 17.1875 0 13.234375 3.875 
Q 9.28125 7.765625 9.28125 18.015625 
L 9.28125 47.703125 
L 2.6875 47.703125 
L 2.6875 54.6875 
L 9.28125 54.6875 
L 9.28125 70.21875 
z
" id="DejaVuSans-116"/>
      <path d="M 9.421875 54.6875 
L 18.40625 54.6875 
L 18.40625 0 
L 9.421875 0 
z
M 9.421875 75.984375 
L 18.40625 75.984375 
L 18.40625 64.59375 
L 9.421875 64.59375 
z
" id="DejaVuSans-105"/>
      <path d="M 8.5 21.578125 
L 8.5 54.6875 
L 17.484375 54.6875 
L 17.484375 21.921875 
Q 17.484375 14.15625 20.5 10.265625 
Q 23.53125 6.390625 29.59375 6.390625 
Q 36.859375 6.390625 41.078125 11.03125 
Q 45.3125 15.671875 45.3125 23.6875 
L 45.3125 54.6875 
L 54.296875 54.6875 
L 54.296875 0 
L 45.3125 0 
L 45.3125 8.40625 
Q 42.046875 3.421875 37.71875 1 
Q 33.40625 -1.421875 27.6875 -1.421875 
Q 18.265625 -1.421875 13.375 4.4375 
Q 8.5 10.296875 8.5 21.578125 
z
M 31.109375 56 
z
" id="DejaVuSans-117"/>
      <path d="M 45.40625 46.390625 
L 45.40625 75.984375 
L 54.390625 75.984375 
L 54.390625 0 
L 45.40625 0 
L 45.40625 8.203125 
Q 42.578125 3.328125 38.25 0.953125 
Q 33.9375 -1.421875 27.875 -1.421875 
Q 17.96875 -1.421875 11.734375 6.484375 
Q 5.515625 14.40625 5.515625 27.296875 
Q 5.515625 40.1875 11.734375 48.09375 
Q 17.96875 56 27.875 56 
Q 33.9375 56 38.25 53.625 
Q 42.578125 51.265625 45.40625 46.390625 
z
M 14.796875 27.296875 
Q 14.796875 17.390625 18.875 11.75 
Q 22.953125 6.109375 30.078125 6.109375 
Q 37.203125 6.109375 41.296875 11.75 
Q 45.40625 17.390625 45.40625 27.296875 
Q 45.40625 37.203125 41.296875 42.84375 
Q 37.203125 48.484375 30.078125 48.484375 
Q 22.953125 48.484375 18.875 42.84375 
Q 14.796875 37.203125 14.796875 27.296875 
z
" id="DejaVuSans-100"/>
      <path d="M 56.203125 29.59375 
L 56.203125 25.203125 
L 14.890625 25.203125 
Q 15.484375 15.921875 20.484375 11.0625 
Q 25.484375 6.203125 34.421875 6.203125 
Q 39.59375 6.203125 44.453125 7.46875 
Q 49.3125 8.734375 54.109375 11.28125 
L 54.109375 2.78125 
Q 49.265625 0.734375 44.1875 -0.34375 
Q 39.109375 -1.421875 33.890625 -1.421875 
Q 20.796875 -1.421875 13.15625 6.1875 
Q 5.515625 13.8125 5.515625 26.8125 
Q 5.515625 40.234375 12.765625 48.109375 
Q 20.015625 56 32.328125 56 
Q 43.359375 56 49.78125 48.890625 
Q 56.203125 41.796875 56.203125 29.59375 
z
M 47.21875 32.234375 
Q 47.125 39.59375 43.09375 43.984375 
Q 39.0625 48.390625 32.421875 48.390625 
Q 24.90625 48.390625 20.390625 44.140625 
Q 15.875 39.890625 15.1875 32.171875 
z
" id="DejaVuSans-101"/>
      <path id="DejaVuSans-32"/>
      <path d="M 31 75.875 
Q 24.46875 64.65625 21.28125 53.65625 
Q 18.109375 42.671875 18.109375 31.390625 
Q 18.109375 20.125 21.3125 9.0625 
Q 24.515625 -2 31 -13.1875 
L 23.1875 -13.1875 
Q 15.875 -1.703125 12.234375 9.375 
Q 8.59375 20.453125 8.59375 31.390625 
Q 8.59375 42.28125 12.203125 53.3125 
Q 15.828125 64.359375 23.1875 75.875 
z
" id="DejaVuSans-40"/>
      <path d="M 9.078125 75.984375 
L 18.109375 75.984375 
L 18.109375 31.109375 
L 44.921875 54.6875 
L 56.390625 54.6875 
L 27.390625 29.109375 
L 57.625 0 
L 45.90625 0 
L 18.109375 26.703125 
L 18.109375 0 
L 9.078125 0 
z
" id="DejaVuSans-107"/>
      <path d="M 52 44.1875 
Q 55.375 50.25 60.0625 53.125 
Q 64.75 56 71.09375 56 
Q 79.640625 56 84.28125 50.015625 
Q 88.921875 44.046875 88.921875 33.015625 
L 88.921875 0 
L 79.890625 0 
L 79.890625 32.71875 
Q 79.890625 40.578125 77.09375 44.375 
Q 74.3125 48.1875 68.609375 48.1875 
Q 61.625 48.1875 57.5625 43.546875 
Q 53.515625 38.921875 53.515625 30.90625 
L 53.515625 0 
L 44.484375 0 
L 44.484375 32.71875 
Q 44.484375 40.625 41.703125 44.40625 
Q 38.921875 48.1875 33.109375 48.1875 
Q 26.21875 48.1875 22.15625 43.53125 
Q 18.109375 38.875 18.109375 30.90625 
L 18.109375 0 
L 9.078125 0 
L 9.078125 54.6875 
L 18.109375 54.6875 
L 18.109375 46.1875 
Q 21.1875 51.21875 25.484375 53.609375 
Q 29.78125 56 35.6875 56 
Q 41.65625 56 45.828125 52.96875 
Q 50 49.953125 52 44.1875 
z
" id="DejaVuSans-109"/>
      <path d="M 8.015625 75.875 
L 15.828125 75.875 
Q 23.140625 64.359375 26.78125 53.3125 
Q 30.421875 42.28125 30.421875 31.390625 
Q 30.421875 20.453125 26.78125 9.375 
Q 23.140625 -1.703125 15.828125 -13.1875 
L 8.015625 -13.1875 
Q 14.5 -2 17.703125 9.0625 
Q 20.90625 20.125 20.90625 31.390625 
Q 20.90625 42.671875 17.703125 53.65625 
Q 14.5 64.65625 8.015625 75.875 
z
" id="DejaVuSans-41"/>
     </defs>
     <g transform="translate(147.832812 263.424318)rotate(-90)scale(0.1 -0.1)">
      <use xlink:href="#DejaVuSans-65"/>
      <use x="68.408203" xlink:href="#DejaVuSans-108"/>
      <use x="96.191406" xlink:href="#DejaVuSans-116"/>
      <use x="135.400391" xlink:href="#DejaVuSans-105"/>
      <use x="163.183594" xlink:href="#DejaVuSans-116"/>
      <use x="202.392578" xlink:href="#DejaVuSans-117"/>
      <use x="265.771484" xlink:href="#DejaVuSans-100"/>
      <use x="329.248047" xlink:href="#DejaVuSans-101"/>
      <use x="390.771484" xlink:href="#DejaVuSans-32"/>
      <use x="422.558594" xlink:href="#DejaVuSans-40"/>
      <use x="461.572266" xlink:href="#DejaVuSans-107"/>
      <use x="519.482422" xlink:href="#DejaVuSans-109"/>
      <use x="616.894531" xlink:href="#DejaVuSans-41"/>
     </g>
    </g>
   </g>
   <g id="line2d_15">
    <path clip-path="url(#pbcd6112f02)" d="M 230.727273 283.202321 
L 247.953425 283.089626 
L 265.029784 282.755842 
L 282.106143 282.198029 
L 299.332295 281.411525 
L 317.007825 280.380653 
L 334.683355 279.12805 
L 352.209092 277.663421 
L 369.285452 276.013359 
L 385.612848 274.214163 
L 401.191281 272.274699 
L 415.721166 270.245282 
L 429.352295 268.121463 
L 442.23446 265.89123 
L 454.367663 263.56555 
L 465.751903 261.160012 
L 487.621626 256.424702 
L 512.187617 251.338814 
L 538.700911 246.079138 
L 566.262755 240.839345 
L 594.273976 235.740417 
L 622.584782 230.813058 
L 651.045381 226.085731 
L 679.50598 221.583306 
L 708.116371 217.282736 
L 736.726763 213.207559 
L 765.337154 209.35724 
L 793.947546 205.731357 
L 822.557937 202.329581 
L 851.168329 199.151647 
L 879.77872 196.197291 
L 908.389112 193.466291 
L 936.999503 190.958452 
L 965.609895 188.673599 
L 994.220286 186.611577 
L 1022.830678 184.772247 
L 1051.441069 183.155485 
L 1080.051461 181.761184 
L 1108.661853 180.589251 
L 1137.272244 179.639609 
L 1165.882636 178.912194 
L 1194.493027 178.406958 
L 1223.103419 178.123867 
L 1245.272727 178.057253 
L 1245.272727 178.057253 
" style="fill:none;stroke:#000000;stroke-linecap:square;stroke-width:1.5;"/>
   </g>
   <g id="patch_3">
    <path d="M 180 288.459574 
L 180 172.8 
" style="fill:none;stroke:#000000;stroke-linecap:square;stroke-linejoin:miter;stroke-width:0.8;"/>
   </g>
   <g id="patch_4">
    <path d="M 1296 288.459574 
L 1296 172.8 
" style="fill:none;stroke:#000000;stroke-linecap:square;stroke-linejoin:miter;stroke-width:0.8;"/>
   </g>
   <g id="patch_5">
    <path d="M 180 288.459574 
L 1296 288.459574 
" style="fill:none;stroke:#000000;stroke-linecap:square;stroke-linejoin:miter;stroke-width:0.8;"/>
   </g>
   <g id="patch_6">
    <path d="M 180 172.8 
L 1296 172.8 
" style="fill:none;stroke:#000000;stroke-linecap:square;stroke-linejoin:miter;stroke-width:0.8;"/>
   </g>
   <g id="text_8">
    <!-- LV4 Trajectory -->
    <defs>
     <path d="M 9.8125 72.90625 
L 19.671875 72.90625 
L 19.671875 8.296875 
L 55.171875 8.296875 
L 55.171875 0 
L 9.8125 0 
z
" id="DejaVuSans-76"/>
     <path d="M 28.609375 0 
L 0.78125 72.90625 
L 11.078125 72.90625 
L 34.1875 11.53125 
L 57.328125 72.90625 
L 67.578125 72.90625 
L 39.796875 0 
z
" id="DejaVuSans-86"/>
     <path d="M -0.296875 72.90625 
L 61.375 72.90625 
L 61.375 64.59375 
L 35.5 64.59375 
L 35.5 0 
L 25.59375 0 
L 25.59375 64.59375 
L -0.296875 64.59375 
z
" id="DejaVuSans-84"/>
     <path d="M 41.109375 46.296875 
Q 39.59375 47.171875 37.8125 47.578125 
Q 36.03125 48 33.890625 48 
Q 26.265625 48 22.1875 43.046875 
Q 18.109375 38.09375 18.109375 28.8125 
L 18.109375 0 
L 9.078125 0 
L 9.078125 54.6875 
L 18.109375 54.6875 
L 18.109375 46.1875 
Q 20.953125 51.171875 25.484375 53.578125 
Q 30.03125 56 36.53125 56 
Q 37.453125 56 38.578125 55.875 
Q 39.703125 55.765625 41.0625 55.515625 
z
" id="DejaVuSans-114"/>
     <path d="M 34.28125 27.484375 
Q 23.390625 27.484375 19.1875 25 
Q 14.984375 22.515625 14.984375 16.5 
Q 14.984375 11.71875 18.140625 8.90625 
Q 21.296875 6.109375 26.703125 6.109375 
Q 34.1875 6.109375 38.703125 11.40625 
Q 43.21875 16.703125 43.21875 25.484375 
L 43.21875 27.484375 
z
M 52.203125 31.203125 
L 52.203125 0 
L 43.21875 0 
L 43.21875 8.296875 
Q 40.140625 3.328125 35.546875 0.953125 
Q 30.953125 -1.421875 24.3125 -1.421875 
Q 15.921875 -1.421875 10.953125 3.296875 
Q 6 8.015625 6 15.921875 
Q 6 25.140625 12.171875 29.828125 
Q 18.359375 34.515625 30.609375 34.515625 
L 43.21875 34.515625 
L 43.21875 35.40625 
Q 43.21875 41.609375 39.140625 45 
Q 35.0625 48.390625 27.6875 48.390625 
Q 23 48.390625 18.546875 47.265625 
Q 14.109375 46.140625 10.015625 43.890625 
L 10.015625 52.203125 
Q 14.9375 54.109375 19.578125 55.046875 
Q 24.21875 56 28.609375 56 
Q 40.484375 56 46.34375 49.84375 
Q 52.203125 43.703125 52.203125 31.203125 
z
" id="DejaVuSans-97"/>
     <path d="M 9.421875 54.6875 
L 18.40625 54.6875 
L 18.40625 -0.984375 
Q 18.40625 -11.421875 14.421875 -16.109375 
Q 10.453125 -20.796875 1.609375 -20.796875 
L -1.8125 -20.796875 
L -1.8125 -13.1875 
L 0.59375 -13.1875 
Q 5.71875 -13.1875 7.5625 -10.8125 
Q 9.421875 -8.453125 9.421875 -0.984375 
z
M 9.421875 75.984375 
L 18.40625 75.984375 
L 18.40625 64.59375 
L 9.421875 64.59375 
z
" id="DejaVuSans-106"/>
     <path d="M 48.78125 52.59375 
L 48.78125 44.1875 
Q 44.96875 46.296875 41.140625 47.34375 
Q 37.3125 48.390625 33.40625 48.390625 
Q 24.65625 48.390625 19.8125 42.84375 
Q 14.984375 37.3125 14.984375 27.296875 
Q 14.984375 17.28125 19.8125 11.734375 
Q 24.65625 6.203125 33.40625 6.203125 
Q 37.3125 6.203125 41.140625 7.25 
Q 44.96875 8.296875 48.78125 10.40625 
L 48.78125 2.09375 
Q 45.015625 0.34375 40.984375 -0.53125 
Q 36.96875 -1.421875 32.421875 -1.421875 
Q 20.0625 -1.421875 12.78125 6.34375 
Q 5.515625 14.109375 5.515625 27.296875 
Q 5.515625 40.671875 12.859375 48.328125 
Q 20.21875 56 33.015625 56 
Q 37.15625 56 41.109375 55.140625 
Q 45.0625 54.296875 48.78125 52.59375 
z
" id="DejaVuSans-99"/>
     <path d="M 30.609375 48.390625 
Q 23.390625 48.390625 19.1875 42.75 
Q 14.984375 37.109375 14.984375 27.296875 
Q 14.984375 17.484375 19.15625 11.84375 
Q 23.34375 6.203125 30.609375 6.203125 
Q 37.796875 6.203125 41.984375 11.859375 
Q 46.1875 17.53125 46.1875 27.296875 
Q 46.1875 37.015625 41.984375 42.703125 
Q 37.796875 48.390625 30.609375 48.390625 
z
M 30.609375 56 
Q 42.328125 56 49.015625 48.375 
Q 55.71875 40.765625 55.71875 27.296875 
Q 55.71875 13.875 49.015625 6.21875 
Q 42.328125 -1.421875 30.609375 -1.421875 
Q 18.84375 -1.421875 12.171875 6.21875 
Q 5.515625 13.875 5.515625 27.296875 
Q 5.515625 40.765625 12.171875 48.375 
Q 18.84375 56 30.609375 56 
z
" id="DejaVuSans-111"/>
     <path d="M 32.171875 -5.078125 
Q 28.375 -14.84375 24.75 -17.8125 
Q 21.140625 -20.796875 15.09375 -20.796875 
L 7.90625 -20.796875 
L 7.90625 -13.28125 
L 13.1875 -13.28125 
Q 16.890625 -13.28125 18.9375 -11.515625 
Q 21 -9.765625 23.484375 -3.21875 
L 25.09375 0.875 
L 2.984375 54.6875 
L 12.5 54.6875 
L 29.59375 11.921875 
L 46.6875 54.6875 
L 56.203125 54.6875 
z
" id="DejaVuSans-121"/>
    </defs>
    <g transform="translate(694.344375 166.8)scale(0.12 -0.12)">
     <use xlink:href="#DejaVuSans-76"/>
     <use x="55.541016" xlink:href="#DejaVuSans-86"/>
     <use x="123.949219" xlink:href="#DejaVuSans-52"/>
     <use x="187.572266" xlink:href="#DejaVuSans-32"/>
     <use x="219.359375" xlink:href="#DejaVuSans-84"/>
     <use x="280.224609" xlink:href="#DejaVuSans-114"/>
     <use x="321.337891" xlink:href="#DejaVuSans-97"/>
     <use x="382.617188" xlink:href="#DejaVuSans-106"/>
     <use x="410.400391" xlink:href="#DejaVuSans-101"/>
     <use x="471.923828" xlink:href="#DejaVuSans-99"/>
     <use x="526.904297" xlink:href="#DejaVuSans-116"/>
     <use x="566.113281" xlink:href="#DejaVuSans-111"/>
     <use x="627.294922" xlink:href="#DejaVuSans-114"/>
     <use x="668.408203" xlink:href="#DejaVuSans-121"/>
    </g>
   </g>
  </g>
  <g id="axes_2">
   <g id="patch_7">
    <path d="M 180 427.251064 
L 1296 427.251064 
L 1296 311.591489 
L 180 311.591489 
z
" style="fill:#ffffff;"/>
   </g>
   <g id="matplotlib.axis_3">
    <g id="xtick_9">
     <g id="line2d_16">
      <g>
       <use style="stroke:#000000;stroke-width:0.8;" x="230.57748" xlink:href="#mc7762f65b0" y="427.251064"/>
      </g>
     </g>
    </g>
    <g id="xtick_10">
     <g id="line2d_17">
      <g>
       <use style="stroke:#000000;stroke-width:0.8;" x="380.370106" xlink:href="#mc7762f65b0" y="427.251064"/>
      </g>
     </g>
    </g>
    <g id="xtick_11">
     <g id="line2d_18">
      <g>
       <use style="stroke:#000000;stroke-width:0.8;" x="530.162732" xlink:href="#mc7762f65b0" y="427.251064"/>
      </g>
     </g>
    </g>
    <g id="xtick_12">
     <g id="line2d_19">
      <g>
       <use style="stroke:#000000;stroke-width:0.8;" x="679.955358" xlink:href="#mc7762f65b0" y="427.251064"/>
      </g>
     </g>
    </g>
    <g id="xtick_13">
     <g id="line2d_20">
      <g>
       <use style="stroke:#000000;stroke-width:0.8;" x="829.747983" xlink:href="#mc7762f65b0" y="427.251064"/>
      </g>
     </g>
    </g>
    <g id="xtick_14">
     <g id="line2d_21">
      <g>
       <use style="stroke:#000000;stroke-width:0.8;" x="979.540609" xlink:href="#mc7762f65b0" y="427.251064"/>
      </g>
     </g>
    </g>
    <g id="xtick_15">
     <g id="line2d_22">
      <g>
       <use style="stroke:#000000;stroke-width:0.8;" x="1129.333235" xlink:href="#mc7762f65b0" y="427.251064"/>
      </g>
     </g>
    </g>
    <g id="xtick_16">
     <g id="line2d_23">
      <g>
       <use style="stroke:#000000;stroke-width:0.8;" x="1279.125861" xlink:href="#mc7762f65b0" y="427.251064"/>
      </g>
     </g>
    </g>
   </g>
   <g id="matplotlib.axis_4">
    <g id="ytick_7">
     <g id="line2d_24">
      <g>
       <use style="stroke:#000000;stroke-width:0.8;" x="180" xlink:href="#m00f718b606" y="421.992331"/>
      </g>
     </g>
     <g id="text_9">
      <!-- 0 -->
      <g transform="translate(166.6375 425.79155)scale(0.1 -0.1)">
       <use xlink:href="#DejaVuSans-48"/>
      </g>
     </g>
    </g>
    <g id="ytick_8">
     <g id="line2d_25">
      <g>
       <use style="stroke:#000000;stroke-width:0.8;" x="180" xlink:href="#m00f718b606" y="405.637334"/>
      </g>
     </g>
     <g id="text_10">
      <!-- 200 -->
      <g transform="translate(153.9125 409.436553)scale(0.1 -0.1)">
       <use xlink:href="#DejaVuSans-50"/>
       <use x="63.623047" xlink:href="#DejaVuSans-48"/>
       <use x="127.246094" xlink:href="#DejaVuSans-48"/>
      </g>
     </g>
    </g>
    <g id="ytick_9">
     <g id="line2d_26">
      <g>
       <use style="stroke:#000000;stroke-width:0.8;" x="180" xlink:href="#m00f718b606" y="389.282337"/>
      </g>
     </g>
     <g id="text_11">
      <!-- 400 -->
      <g transform="translate(153.9125 393.081556)scale(0.1 -0.1)">
       <use xlink:href="#DejaVuSans-52"/>
       <use x="63.623047" xlink:href="#DejaVuSans-48"/>
       <use x="127.246094" xlink:href="#DejaVuSans-48"/>
      </g>
     </g>
    </g>
    <g id="ytick_10">
     <g id="line2d_27">
      <g>
       <use style="stroke:#000000;stroke-width:0.8;" x="180" xlink:href="#m00f718b606" y="372.92734"/>
      </g>
     </g>
     <g id="text_12">
      <!-- 600 -->
      <g transform="translate(153.9125 376.726558)scale(0.1 -0.1)">
       <use xlink:href="#DejaVuSans-54"/>
       <use x="63.623047" xlink:href="#DejaVuSans-48"/>
       <use x="127.246094" xlink:href="#DejaVuSans-48"/>
      </g>
     </g>
    </g>
    <g id="ytick_11">
     <g id="line2d_28">
      <g>
       <use style="stroke:#000000;stroke-width:0.8;" x="180" xlink:href="#m00f718b606" y="356.572342"/>
      </g>
     </g>
     <g id="text_13">
      <!-- 800 -->
      <g transform="translate(153.9125 360.371561)scale(0.1 -0.1)">
       <use xlink:href="#DejaVuSans-56"/>
       <use x="63.623047" xlink:href="#DejaVuSans-48"/>
       <use x="127.246094" xlink:href="#DejaVuSans-48"/>
      </g>
     </g>
    </g>
    <g id="ytick_12">
     <g id="line2d_29">
      <g>
       <use style="stroke:#000000;stroke-width:0.8;" x="180" xlink:href="#m00f718b606" y="340.217345"/>
      </g>
     </g>
     <g id="text_14">
      <!-- 1000 -->
      <g transform="translate(147.55 344.016564)scale(0.1 -0.1)">
       <use xlink:href="#DejaVuSans-49"/>
       <use x="63.623047" xlink:href="#DejaVuSans-48"/>
       <use x="127.246094" xlink:href="#DejaVuSans-48"/>
       <use x="190.869141" xlink:href="#DejaVuSans-48"/>
      </g>
     </g>
    </g>
    <g id="ytick_13">
     <g id="line2d_30">
      <g>
       <use style="stroke:#000000;stroke-width:0.8;" x="180" xlink:href="#m00f718b606" y="323.862348"/>
      </g>
     </g>
     <g id="text_15">
      <!-- 1200 -->
      <g transform="translate(147.55 327.661566)scale(0.1 -0.1)">
       <use xlink:href="#DejaVuSans-49"/>
       <use x="63.623047" xlink:href="#DejaVuSans-50"/>
       <use x="127.246094" xlink:href="#DejaVuSans-48"/>
       <use x="190.869141" xlink:href="#DejaVuSans-48"/>
      </g>
     </g>
    </g>
    <g id="text_16">
     <!-- Velocity (m/s) -->
     <defs>
      <path d="M 25.390625 72.90625 
L 33.6875 72.90625 
L 8.296875 -9.28125 
L 0 -9.28125 
z
" id="DejaVuSans-47"/>
      <path d="M 44.28125 53.078125 
L 44.28125 44.578125 
Q 40.484375 46.53125 36.375 47.5 
Q 32.28125 48.484375 27.875 48.484375 
Q 21.1875 48.484375 17.84375 46.4375 
Q 14.5 44.390625 14.5 40.28125 
Q 14.5 37.15625 16.890625 35.375 
Q 19.28125 33.59375 26.515625 31.984375 
L 29.59375 31.296875 
Q 39.15625 29.25 43.1875 25.515625 
Q 47.21875 21.78125 47.21875 15.09375 
Q 47.21875 7.46875 41.1875 3.015625 
Q 35.15625 -1.421875 24.609375 -1.421875 
Q 20.21875 -1.421875 15.453125 -0.5625 
Q 10.6875 0.296875 5.421875 2 
L 5.421875 11.28125 
Q 10.40625 8.6875 15.234375 7.390625 
Q 20.0625 6.109375 24.8125 6.109375 
Q 31.15625 6.109375 34.5625 8.28125 
Q 37.984375 10.453125 37.984375 14.40625 
Q 37.984375 18.0625 35.515625 20.015625 
Q 33.0625 21.96875 24.703125 23.78125 
L 21.578125 24.515625 
Q 13.234375 26.265625 9.515625 29.90625 
Q 5.8125 33.546875 5.8125 39.890625 
Q 5.8125 47.609375 11.28125 51.796875 
Q 16.75 56 26.8125 56 
Q 31.78125 56 36.171875 55.265625 
Q 40.578125 54.546875 44.28125 53.078125 
z
" id="DejaVuSans-115"/>
     </defs>
     <g transform="translate(141.470313 404.068933)rotate(-90)scale(0.1 -0.1)">
      <use xlink:href="#DejaVuSans-86"/>
      <use x="68.298828" xlink:href="#DejaVuSans-101"/>
      <use x="129.822266" xlink:href="#DejaVuSans-108"/>
      <use x="157.605469" xlink:href="#DejaVuSans-111"/>
      <use x="218.787109" xlink:href="#DejaVuSans-99"/>
      <use x="273.767578" xlink:href="#DejaVuSans-105"/>
      <use x="301.550781" xlink:href="#DejaVuSans-116"/>
      <use x="340.759766" xlink:href="#DejaVuSans-121"/>
      <use x="399.939453" xlink:href="#DejaVuSans-32"/>
      <use x="431.726562" xlink:href="#DejaVuSans-40"/>
      <use x="470.740234" xlink:href="#DejaVuSans-109"/>
      <use x="568.152344" xlink:href="#DejaVuSans-47"/>
      <use x="601.84375" xlink:href="#DejaVuSans-115"/>
      <use x="653.943359" xlink:href="#DejaVuSans-41"/>
     </g>
    </g>
   </g>
   <g id="line2d_31">
    <path clip-path="url(#pea2d51371f)" d="M 230.727273 421.940042 
L 249.750936 415.180222 
L 296.486235 398.317026 
L 311.165913 393.337221 
L 342.172986 382.831703 
L 357.302042 377.470003 
L 369.285452 372.994353 
L 379.770935 368.843697 
L 389.058078 364.932467 
L 397.596258 361.098529 
L 405.535267 357.291467 
L 413.024898 353.452695 
L 420.065152 349.596309 
L 426.80582 345.653115 
L 433.396695 341.537196 
L 439.687986 337.349481 
L 445.979276 332.892856 
L 452.120774 328.269289 
L 458.262271 323.363552 
L 464.253976 318.293718 
L 465.901695 316.848743 
L 473.391327 318.676048 
L 482.079299 320.557386 
L 492.265197 322.529532 
L 504.697985 324.701953 
L 520.276418 327.188183 
L 540.947801 330.24782 
L 570.456948 334.372608 
L 617.491833 340.699588 
L 699.877777 351.533206 
L 859.706508 372.298051 
L 1121.09464 406.017603 
L 1245.272727 421.99381 
L 1245.272727 421.99381 
" style="fill:none;stroke:#000000;stroke-linecap:square;stroke-width:1.5;"/>
   </g>
   <g id="patch_8">
    <path d="M 180 427.251064 
L 180 311.591489 
" style="fill:none;stroke:#000000;stroke-linecap:square;stroke-linejoin:miter;stroke-width:0.8;"/>
   </g>
   <g id="patch_9">
    <path d="M 1296 427.251064 
L 1296 311.591489 
" style="fill:none;stroke:#000000;stroke-linecap:square;stroke-linejoin:miter;stroke-width:0.8;"/>
   </g>
   <g id="patch_10">
    <path d="M 180 427.251064 
L 1296 427.251064 
" style="fill:none;stroke:#000000;stroke-linecap:square;stroke-linejoin:miter;stroke-width:0.8;"/>
   </g>
   <g id="patch_11">
    <path d="M 180 311.591489 
L 1296 311.591489 
" style="fill:none;stroke:#000000;stroke-linecap:square;stroke-linejoin:miter;stroke-width:0.8;"/>
   </g>
  </g>
  <g id="axes_3">
   <g id="patch_12">
    <path d="M 180 566.042553 
L 1296 566.042553 
L 1296 450.382979 
L 180 450.382979 
z
" style="fill:#ffffff;"/>
   </g>
   <g id="matplotlib.axis_5">
    <g id="xtick_17">
     <g id="line2d_32">
      <g>
       <use style="stroke:#000000;stroke-width:0.8;" x="230.57748" xlink:href="#mc7762f65b0" y="566.042553"/>
      </g>
     </g>
    </g>
    <g id="xtick_18">
     <g id="line2d_33">
      <g>
       <use style="stroke:#000000;stroke-width:0.8;" x="380.370106" xlink:href="#mc7762f65b0" y="566.042553"/>
      </g>
     </g>
    </g>
    <g id="xtick_19">
     <g id="line2d_34">
      <g>
       <use style="stroke:#000000;stroke-width:0.8;" x="530.162732" xlink:href="#mc7762f65b0" y="566.042553"/>
      </g>
     </g>
    </g>
    <g id="xtick_20">
     <g id="line2d_35">
      <g>
       <use style="stroke:#000000;stroke-width:0.8;" x="679.955358" xlink:href="#mc7762f65b0" y="566.042553"/>
      </g>
     </g>
    </g>
    <g id="xtick_21">
     <g id="line2d_36">
      <g>
       <use style="stroke:#000000;stroke-width:0.8;" x="829.747983" xlink:href="#mc7762f65b0" y="566.042553"/>
      </g>
     </g>
    </g>
    <g id="xtick_22">
     <g id="line2d_37">
      <g>
       <use style="stroke:#000000;stroke-width:0.8;" x="979.540609" xlink:href="#mc7762f65b0" y="566.042553"/>
      </g>
     </g>
    </g>
    <g id="xtick_23">
     <g id="line2d_38">
      <g>
       <use style="stroke:#000000;stroke-width:0.8;" x="1129.333235" xlink:href="#mc7762f65b0" y="566.042553"/>
      </g>
     </g>
    </g>
    <g id="xtick_24">
     <g id="line2d_39">
      <g>
       <use style="stroke:#000000;stroke-width:0.8;" x="1279.125861" xlink:href="#mc7762f65b0" y="566.042553"/>
      </g>
     </g>
    </g>
   </g>
   <g id="matplotlib.axis_6">
    <g id="ytick_14">
     <g id="line2d_40">
      <g>
       <use style="stroke:#000000;stroke-width:0.8;" x="180" xlink:href="#m00f718b606" y="561.513347"/>
      </g>
     </g>
     <g id="text_17">
      <!-- −2 -->
      <defs>
       <path d="M 10.59375 35.5 
L 73.1875 35.5 
L 73.1875 27.203125 
L 10.59375 27.203125 
z
" id="DejaVuSans-8722"/>
      </defs>
      <g transform="translate(158.257812 565.312565)scale(0.1 -0.1)">
       <use xlink:href="#DejaVuSans-8722"/>
       <use x="83.789062" xlink:href="#DejaVuSans-50"/>
      </g>
     </g>
    </g>
    <g id="ytick_15">
     <g id="line2d_41">
      <g>
       <use style="stroke:#000000;stroke-width:0.8;" x="180" xlink:href="#m00f718b606" y="549.194688"/>
      </g>
     </g>
     <g id="text_18">
      <!-- −1 -->
      <g transform="translate(158.257812 552.993906)scale(0.1 -0.1)">
       <use xlink:href="#DejaVuSans-8722"/>
       <use x="83.789062" xlink:href="#DejaVuSans-49"/>
      </g>
     </g>
    </g>
    <g id="ytick_16">
     <g id="line2d_42">
      <g>
       <use style="stroke:#000000;stroke-width:0.8;" x="180" xlink:href="#m00f718b606" y="536.876029"/>
      </g>
     </g>
     <g id="text_19">
      <!-- 0 -->
      <g transform="translate(166.6375 540.675248)scale(0.1 -0.1)">
       <use xlink:href="#DejaVuSans-48"/>
      </g>
     </g>
    </g>
    <g id="ytick_17">
     <g id="line2d_43">
      <g>
       <use style="stroke:#000000;stroke-width:0.8;" x="180" xlink:href="#m00f718b606" y="524.55737"/>
      </g>
     </g>
     <g id="text_20">
      <!-- 1 -->
      <g transform="translate(166.6375 528.356589)scale(0.1 -0.1)">
       <use xlink:href="#DejaVuSans-49"/>
      </g>
     </g>
    </g>
    <g id="ytick_18">
     <g id="line2d_44">
      <g>
       <use style="stroke:#000000;stroke-width:0.8;" x="180" xlink:href="#m00f718b606" y="512.238711"/>
      </g>
     </g>
     <g id="text_21">
      <!-- 2 -->
      <g transform="translate(166.6375 516.03793)scale(0.1 -0.1)">
       <use xlink:href="#DejaVuSans-50"/>
      </g>
     </g>
    </g>
    <g id="ytick_19">
     <g id="line2d_45">
      <g>
       <use style="stroke:#000000;stroke-width:0.8;" x="180" xlink:href="#m00f718b606" y="499.920052"/>
      </g>
     </g>
     <g id="text_22">
      <!-- 3 -->
      <defs>
       <path d="M 40.578125 39.3125 
Q 47.65625 37.796875 51.625 33 
Q 55.609375 28.21875 55.609375 21.1875 
Q 55.609375 10.40625 48.1875 4.484375 
Q 40.765625 -1.421875 27.09375 -1.421875 
Q 22.515625 -1.421875 17.65625 -0.515625 
Q 12.796875 0.390625 7.625 2.203125 
L 7.625 11.71875 
Q 11.71875 9.328125 16.59375 8.109375 
Q 21.484375 6.890625 26.8125 6.890625 
Q 36.078125 6.890625 40.9375 10.546875 
Q 45.796875 14.203125 45.796875 21.1875 
Q 45.796875 27.640625 41.28125 31.265625 
Q 36.765625 34.90625 28.71875 34.90625 
L 20.21875 34.90625 
L 20.21875 43.015625 
L 29.109375 43.015625 
Q 36.375 43.015625 40.234375 45.921875 
Q 44.09375 48.828125 44.09375 54.296875 
Q 44.09375 59.90625 40.109375 62.90625 
Q 36.140625 65.921875 28.71875 65.921875 
Q 24.65625 65.921875 20.015625 65.03125 
Q 15.375 64.15625 9.8125 62.3125 
L 9.8125 71.09375 
Q 15.4375 72.65625 20.34375 73.4375 
Q 25.25 74.21875 29.59375 74.21875 
Q 40.828125 74.21875 47.359375 69.109375 
Q 53.90625 64.015625 53.90625 55.328125 
Q 53.90625 49.265625 50.4375 45.09375 
Q 46.96875 40.921875 40.578125 39.3125 
z
" id="DejaVuSans-51"/>
      </defs>
      <g transform="translate(166.6375 503.719271)scale(0.1 -0.1)">
       <use xlink:href="#DejaVuSans-51"/>
      </g>
     </g>
    </g>
    <g id="ytick_20">
     <g id="line2d_46">
      <g>
       <use style="stroke:#000000;stroke-width:0.8;" x="180" xlink:href="#m00f718b606" y="487.601393"/>
      </g>
     </g>
     <g id="text_23">
      <!-- 4 -->
      <g transform="translate(166.6375 491.400612)scale(0.1 -0.1)">
       <use xlink:href="#DejaVuSans-52"/>
      </g>
     </g>
    </g>
    <g id="ytick_21">
     <g id="line2d_47">
      <g>
       <use style="stroke:#000000;stroke-width:0.8;" x="180" xlink:href="#m00f718b606" y="475.282734"/>
      </g>
     </g>
     <g id="text_24">
      <!-- 5 -->
      <defs>
       <path d="M 10.796875 72.90625 
L 49.515625 72.90625 
L 49.515625 64.59375 
L 19.828125 64.59375 
L 19.828125 46.734375 
Q 21.96875 47.46875 24.109375 47.828125 
Q 26.265625 48.1875 28.421875 48.1875 
Q 40.625 48.1875 47.75 41.5 
Q 54.890625 34.8125 54.890625 23.390625 
Q 54.890625 11.625 47.5625 5.09375 
Q 40.234375 -1.421875 26.90625 -1.421875 
Q 22.3125 -1.421875 17.546875 -0.640625 
Q 12.796875 0.140625 7.71875 1.703125 
L 7.71875 11.625 
Q 12.109375 9.234375 16.796875 8.0625 
Q 21.484375 6.890625 26.703125 6.890625 
Q 35.15625 6.890625 40.078125 11.328125 
Q 45.015625 15.765625 45.015625 23.390625 
Q 45.015625 31 40.078125 35.4375 
Q 35.15625 39.890625 26.703125 39.890625 
Q 22.75 39.890625 18.8125 39.015625 
Q 14.890625 38.140625 10.796875 36.28125 
z
" id="DejaVuSans-53"/>
      </defs>
      <g transform="translate(166.6375 479.081953)scale(0.1 -0.1)">
       <use xlink:href="#DejaVuSans-53"/>
      </g>
     </g>
    </g>
    <g id="ytick_22">
     <g id="line2d_48">
      <g>
       <use style="stroke:#000000;stroke-width:0.8;" x="180" xlink:href="#m00f718b606" y="462.964076"/>
      </g>
     </g>
     <g id="text_25">
      <!-- 6 -->
      <g transform="translate(166.6375 466.763294)scale(0.1 -0.1)">
       <use xlink:href="#DejaVuSans-54"/>
      </g>
     </g>
    </g>
    <g id="ytick_23">
     <g id="line2d_49">
      <g>
       <use style="stroke:#000000;stroke-width:0.8;" x="180" xlink:href="#m00f718b606" y="450.645417"/>
      </g>
     </g>
     <g id="text_26">
      <!-- 7 -->
      <defs>
       <path d="M 8.203125 72.90625 
L 55.078125 72.90625 
L 55.078125 68.703125 
L 28.609375 0 
L 18.3125 0 
L 43.21875 64.59375 
L 8.203125 64.59375 
z
" id="DejaVuSans-55"/>
      </defs>
      <g transform="translate(166.6375 454.444635)scale(0.1 -0.1)">
       <use xlink:href="#DejaVuSans-55"/>
      </g>
     </g>
    </g>
    <g id="text_27">
     <!-- Acceleration/g_n -->
     <defs>
      <path d="M 54.890625 33.015625 
L 54.890625 0 
L 45.90625 0 
L 45.90625 32.71875 
Q 45.90625 40.484375 42.875 44.328125 
Q 39.84375 48.1875 33.796875 48.1875 
Q 26.515625 48.1875 22.3125 43.546875 
Q 18.109375 38.921875 18.109375 30.90625 
L 18.109375 0 
L 9.078125 0 
L 9.078125 54.6875 
L 18.109375 54.6875 
L 18.109375 46.1875 
Q 21.34375 51.125 25.703125 53.5625 
Q 30.078125 56 35.796875 56 
Q 45.21875 56 50.046875 50.171875 
Q 54.890625 44.34375 54.890625 33.015625 
z
" id="DejaVuSans-110"/>
      <path d="M 45.40625 27.984375 
Q 45.40625 37.75 41.375 43.109375 
Q 37.359375 48.484375 30.078125 48.484375 
Q 22.859375 48.484375 18.828125 43.109375 
Q 14.796875 37.75 14.796875 27.984375 
Q 14.796875 18.265625 18.828125 12.890625 
Q 22.859375 7.515625 30.078125 7.515625 
Q 37.359375 7.515625 41.375 12.890625 
Q 45.40625 18.265625 45.40625 27.984375 
z
M 54.390625 6.78125 
Q 54.390625 -7.171875 48.1875 -13.984375 
Q 42 -20.796875 29.203125 -20.796875 
Q 24.46875 -20.796875 20.265625 -20.09375 
Q 16.0625 -19.390625 12.109375 -17.921875 
L 12.109375 -9.1875 
Q 16.0625 -11.328125 19.921875 -12.34375 
Q 23.78125 -13.375 27.78125 -13.375 
Q 36.625 -13.375 41.015625 -8.765625 
Q 45.40625 -4.15625 45.40625 5.171875 
L 45.40625 9.625 
Q 42.625 4.78125 38.28125 2.390625 
Q 33.9375 0 27.875 0 
Q 17.828125 0 11.671875 7.65625 
Q 5.515625 15.328125 5.515625 27.984375 
Q 5.515625 40.671875 11.671875 48.328125 
Q 17.828125 56 27.875 56 
Q 33.9375 56 38.28125 53.609375 
Q 42.625 51.21875 45.40625 46.390625 
L 45.40625 54.6875 
L 54.390625 54.6875 
z
" id="DejaVuSans-103"/>
      <path d="M 50.984375 -16.609375 
L 50.984375 -23.578125 
L -0.984375 -23.578125 
L -0.984375 -16.609375 
z
" id="DejaVuSans-95"/>
     </defs>
     <g transform="translate(151.9 549.897141)rotate(-90)scale(0.1 -0.1)">
      <use xlink:href="#DejaVuSans-65"/>
      <use x="68.392578" xlink:href="#DejaVuSans-99"/>
      <use x="123.373047" xlink:href="#DejaVuSans-99"/>
      <use x="178.353516" xlink:href="#DejaVuSans-101"/>
      <use x="239.876953" xlink:href="#DejaVuSans-108"/>
      <use x="267.660156" xlink:href="#DejaVuSans-101"/>
      <use x="329.183594" xlink:href="#DejaVuSans-114"/>
      <use x="370.296875" xlink:href="#DejaVuSans-97"/>
      <use x="431.576172" xlink:href="#DejaVuSans-116"/>
      <use x="470.785156" xlink:href="#DejaVuSans-105"/>
      <use x="498.568359" xlink:href="#DejaVuSans-111"/>
      <use x="559.75" xlink:href="#DejaVuSans-110"/>
      <use x="623.128906" xlink:href="#DejaVuSans-47"/>
      <use x="656.820312" xlink:href="#DejaVuSans-103"/>
      <use x="720.296875" xlink:href="#DejaVuSans-95"/>
      <use x="770.296875" xlink:href="#DejaVuSans-110"/>
     </g>
    </g>
   </g>
   <g id="line2d_50">
    <path clip-path="url(#p31e56c6ec9)" d="M 230.727273 504.746952 
L 239.265452 503.949349 
L 241.512342 504.066899 
L 245.107365 504.31841 
L 246.605291 504.165611 
L 248.85218 503.656487 
L 250.799485 503.298779 
L 252.447203 503.222952 
L 253.94513 503.380988 
L 256.491604 503.740219 
L 257.540153 503.604085 
L 260.386213 503.037414 
L 261.434761 503.114264 
L 264.430614 503.539031 
L 265.778747 503.209705 
L 266.827296 503.038425 
L 267.726051 503.105581 
L 270.272526 503.548444 
L 271.470867 503.271396 
L 272.519415 503.137455 
L 273.418171 503.285064 
L 275.06589 503.653529 
L 275.964646 503.520813 
L 277.162987 503.307792 
L 277.91195 503.394532 
L 279.859254 503.790935 
L 282.255936 503.63215 
L 283.903655 503.994376 
L 285.101996 503.814995 
L 285.850959 503.823405 
L 288.247641 504.181163 
L 289.296189 504.094077 
L 290.194945 504.300135 
L 291.093701 504.502036 
L 291.992457 504.444999 
L 292.891212 504.439505 
L 295.287894 504.779243 
L 296.18665 504.806411 
L 298.283747 505.139144 
L 299.332295 505.180944 
L 301.129807 505.491725 
L 302.328148 505.56366 
L 303.975867 505.856668 
L 306.072964 505.966088 
L 307.271305 505.896165 
L 308.319853 505.96884 
L 309.368401 505.985997 
L 310.566742 505.96951 
L 311.914876 506.018364 
L 313.26301 506.000064 
L 314.461351 506.006063 
L 315.809484 505.996113 
L 317.157618 505.970608 
L 318.805337 505.986552 
L 339.476719 505.182395 
L 348.014899 504.476316 
L 355.204945 503.681472 
L 362.844369 502.614561 
L 370.184207 501.353286 
L 377.074668 499.938446 
L 383.665544 498.357819 
L 389.956834 496.624824 
L 396.098332 494.706291 
L 402.090037 492.604353 
L 407.931949 490.324417 
L 413.773861 487.80714 
L 419.615774 485.046019 
L 425.457686 482.037767 
L 431.599184 478.618636 
L 438.040267 474.776445 
L 444.930728 470.405866 
L 452.270566 465.483784 
L 459.760198 460.193571 
L 465.901695 455.640232 
L 466.051488 560.7853 
L 469.946096 559.259603 
L 474.14029 557.864836 
L 478.634068 556.602944 
L 483.727018 555.411324 
L 489.269345 554.345771 
L 495.560635 553.367563 
L 502.600889 552.500661 
L 510.68969 551.731182 
L 520.276418 551.05016 
L 531.660658 550.4746 
L 545.591372 550.000266 
L 563.866073 549.614895 
L 589.330819 549.317705 
L 629.625035 549.094212 
L 700.926325 548.936634 
L 886.070011 548.816951 
L 1245.272727 548.752887 
L 1245.272727 548.752887 
" style="fill:none;stroke:#000000;stroke-linecap:square;stroke-width:1.5;"/>
   </g>
   <g id="patch_13">
    <path d="M 180 566.042553 
L 180 450.382979 
" style="fill:none;stroke:#000000;stroke-linecap:square;stroke-linejoin:miter;stroke-width:0.8;"/>
   </g>
   <g id="patch_14">
    <path d="M 1296 566.042553 
L 1296 450.382979 
" style="fill:none;stroke:#000000;stroke-linecap:square;stroke-linejoin:miter;stroke-width:0.8;"/>
   </g>
   <g id="patch_15">
    <path d="M 180 566.042553 
L 1296 566.042553 
" style="fill:none;stroke:#000000;stroke-linecap:square;stroke-linejoin:miter;stroke-width:0.8;"/>
   </g>
   <g id="patch_16">
    <path d="M 180 450.382979 
L 1296 450.382979 
" style="fill:none;stroke:#000000;stroke-linecap:square;stroke-linejoin:miter;stroke-width:0.8;"/>
   </g>
  </g>
  <g id="axes_4">
   <g id="patch_17">
    <path d="M 180 704.834043 
L 1296 704.834043 
L 1296 589.174468 
L 180 589.174468 
z
" style="fill:#ffffff;"/>
   </g>
   <g id="matplotlib.axis_7">
    <g id="xtick_25">
     <g id="line2d_51">
      <g>
       <use style="stroke:#000000;stroke-width:0.8;" x="230.57748" xlink:href="#mc7762f65b0" y="704.834043"/>
      </g>
     </g>
    </g>
    <g id="xtick_26">
     <g id="line2d_52">
      <g>
       <use style="stroke:#000000;stroke-width:0.8;" x="380.370106" xlink:href="#mc7762f65b0" y="704.834043"/>
      </g>
     </g>
    </g>
    <g id="xtick_27">
     <g id="line2d_53">
      <g>
       <use style="stroke:#000000;stroke-width:0.8;" x="530.162732" xlink:href="#mc7762f65b0" y="704.834043"/>
      </g>
     </g>
    </g>
    <g id="xtick_28">
     <g id="line2d_54">
      <g>
       <use style="stroke:#000000;stroke-width:0.8;" x="679.955358" xlink:href="#mc7762f65b0" y="704.834043"/>
      </g>
     </g>
    </g>
    <g id="xtick_29">
     <g id="line2d_55">
      <g>
       <use style="stroke:#000000;stroke-width:0.8;" x="829.747983" xlink:href="#mc7762f65b0" y="704.834043"/>
      </g>
     </g>
    </g>
    <g id="xtick_30">
     <g id="line2d_56">
      <g>
       <use style="stroke:#000000;stroke-width:0.8;" x="979.540609" xlink:href="#mc7762f65b0" y="704.834043"/>
      </g>
     </g>
    </g>
    <g id="xtick_31">
     <g id="line2d_57">
      <g>
       <use style="stroke:#000000;stroke-width:0.8;" x="1129.333235" xlink:href="#mc7762f65b0" y="704.834043"/>
      </g>
     </g>
    </g>
    <g id="xtick_32">
     <g id="line2d_58">
      <g>
       <use style="stroke:#000000;stroke-width:0.8;" x="1279.125861" xlink:href="#mc7762f65b0" y="704.834043"/>
      </g>
     </g>
    </g>
   </g>
   <g id="matplotlib.axis_8">
    <g id="ytick_24">
     <g id="line2d_59">
      <g>
       <use style="stroke:#000000;stroke-width:0.8;" x="180" xlink:href="#m00f718b606" y="699.576789"/>
      </g>
     </g>
     <g id="text_28">
      <!-- 0 -->
      <g transform="translate(166.6375 703.376008)scale(0.1 -0.1)">
       <use xlink:href="#DejaVuSans-48"/>
      </g>
     </g>
    </g>
    <g id="ytick_25">
     <g id="line2d_60">
      <g>
       <use style="stroke:#000000;stroke-width:0.8;" x="180" xlink:href="#m00f718b606" y="680.311969"/>
      </g>
     </g>
     <g id="text_29">
      <!-- 2 -->
      <g transform="translate(166.6375 684.111187)scale(0.1 -0.1)">
       <use xlink:href="#DejaVuSans-50"/>
      </g>
     </g>
    </g>
    <g id="ytick_26">
     <g id="line2d_61">
      <g>
       <use style="stroke:#000000;stroke-width:0.8;" x="180" xlink:href="#m00f718b606" y="661.047148"/>
      </g>
     </g>
     <g id="text_30">
      <!-- 4 -->
      <g transform="translate(166.6375 664.846367)scale(0.1 -0.1)">
       <use xlink:href="#DejaVuSans-52"/>
      </g>
     </g>
    </g>
    <g id="ytick_27">
     <g id="line2d_62">
      <g>
       <use style="stroke:#000000;stroke-width:0.8;" x="180" xlink:href="#m00f718b606" y="641.782327"/>
      </g>
     </g>
     <g id="text_31">
      <!-- 6 -->
      <g transform="translate(166.6375 645.581546)scale(0.1 -0.1)">
       <use xlink:href="#DejaVuSans-54"/>
      </g>
     </g>
    </g>
    <g id="ytick_28">
     <g id="line2d_63">
      <g>
       <use style="stroke:#000000;stroke-width:0.8;" x="180" xlink:href="#m00f718b606" y="622.517507"/>
      </g>
     </g>
     <g id="text_32">
      <!-- 8 -->
      <g transform="translate(166.6375 626.316725)scale(0.1 -0.1)">
       <use xlink:href="#DejaVuSans-56"/>
      </g>
     </g>
    </g>
    <g id="ytick_29">
     <g id="line2d_64">
      <g>
       <use style="stroke:#000000;stroke-width:0.8;" x="180" xlink:href="#m00f718b606" y="603.252686"/>
      </g>
     </g>
     <g id="text_33">
      <!-- 10 -->
      <g transform="translate(160.275 607.051905)scale(0.1 -0.1)">
       <use xlink:href="#DejaVuSans-49"/>
       <use x="63.623047" xlink:href="#DejaVuSans-48"/>
      </g>
     </g>
    </g>
    <g id="text_34">
     <!-- Thrust (kN) -->
     <defs>
      <path d="M 54.890625 33.015625 
L 54.890625 0 
L 45.90625 0 
L 45.90625 32.71875 
Q 45.90625 40.484375 42.875 44.328125 
Q 39.84375 48.1875 33.796875 48.1875 
Q 26.515625 48.1875 22.3125 43.546875 
Q 18.109375 38.921875 18.109375 30.90625 
L 18.109375 0 
L 9.078125 0 
L 9.078125 75.984375 
L 18.109375 75.984375 
L 18.109375 46.1875 
Q 21.34375 51.125 25.703125 53.5625 
Q 30.078125 56 35.796875 56 
Q 45.21875 56 50.046875 50.171875 
Q 54.890625 44.34375 54.890625 33.015625 
z
" id="DejaVuSans-104"/>
      <path d="M 9.8125 72.90625 
L 23.09375 72.90625 
L 55.421875 11.921875 
L 55.421875 72.90625 
L 64.984375 72.90625 
L 64.984375 0 
L 51.703125 0 
L 19.390625 60.984375 
L 19.390625 0 
L 9.8125 0 
z
" id="DejaVuSans-78"/>
     </defs>
     <g transform="translate(154.195312 675.142537)rotate(-90)scale(0.1 -0.1)">
      <use xlink:href="#DejaVuSans-84"/>
      <use x="61.083984" xlink:href="#DejaVuSans-104"/>
      <use x="124.462891" xlink:href="#DejaVuSans-114"/>
      <use x="165.576172" xlink:href="#DejaVuSans-117"/>
      <use x="228.955078" xlink:href="#DejaVuSans-115"/>
      <use x="281.054688" xlink:href="#DejaVuSans-116"/>
      <use x="320.263672" xlink:href="#DejaVuSans-32"/>
      <use x="352.050781" xlink:href="#DejaVuSans-40"/>
      <use x="391.064453" xlink:href="#DejaVuSans-107"/>
      <use x="448.974609" xlink:href="#DejaVuSans-78"/>
      <use x="523.779297" xlink:href="#DejaVuSans-41"/>
     </g>
    </g>
   </g>
   <g id="line2d_65">
    <path clip-path="url(#pd8d93c13c2)" d="M 230.727273 603.96982 
L 246.904876 603.857107 
L 263.232273 603.520329 
L 280.458424 602.940462 
L 299.931466 602.056613 
L 325.24642 600.669553 
L 400.142733 596.423711 
L 421.563078 595.520209 
L 441.335705 594.908201 
L 462.456465 594.482512 
L 465.901695 594.431721 
L 466.051488 699.576789 
L 1245.272727 699.576789 
L 1245.272727 699.576789 
" style="fill:none;stroke:#000000;stroke-linecap:square;stroke-width:1.5;"/>
   </g>
   <g id="patch_18">
    <path d="M 180 704.834043 
L 180 589.174468 
" style="fill:none;stroke:#000000;stroke-linecap:square;stroke-linejoin:miter;stroke-width:0.8;"/>
   </g>
   <g id="patch_19">
    <path d="M 1296 704.834043 
L 1296 589.174468 
" style="fill:none;stroke:#000000;stroke-linecap:square;stroke-linejoin:miter;stroke-width:0.8;"/>
   </g>
   <g id="patch_20">
    <path d="M 180 704.834043 
L 1296 704.834043 
" style="fill:none;stroke:#000000;stroke-linecap:square;stroke-linejoin:miter;stroke-width:0.8;"/>
   </g>
   <g id="patch_21">
    <path d="M 180 589.174468 
L 1296 589.174468 
" style="fill:none;stroke:#000000;stroke-linecap:square;stroke-linejoin:miter;stroke-width:0.8;"/>
   </g>
  </g>
  <g id="axes_5">
   <g id="patch_22">
    <path d="M 180 843.625532 
L 1296 843.625532 
L 1296 727.965957 
L 180 727.965957 
z
" style="fill:#ffffff;"/>
   </g>
   <g id="matplotlib.axis_9">
    <g id="xtick_33">
     <g id="line2d_66">
      <g>
       <use style="stroke:#000000;stroke-width:0.8;" x="230.57748" xlink:href="#mc7762f65b0" y="843.625532"/>
      </g>
     </g>
    </g>
    <g id="xtick_34">
     <g id="line2d_67">
      <g>
       <use style="stroke:#000000;stroke-width:0.8;" x="380.370106" xlink:href="#mc7762f65b0" y="843.625532"/>
      </g>
     </g>
    </g>
    <g id="xtick_35">
     <g id="line2d_68">
      <g>
       <use style="stroke:#000000;stroke-width:0.8;" x="530.162732" xlink:href="#mc7762f65b0" y="843.625532"/>
      </g>
     </g>
    </g>
    <g id="xtick_36">
     <g id="line2d_69">
      <g>
       <use style="stroke:#000000;stroke-width:0.8;" x="679.955358" xlink:href="#mc7762f65b0" y="843.625532"/>
      </g>
     </g>
    </g>
    <g id="xtick_37">
     <g id="line2d_70">
      <g>
       <use style="stroke:#000000;stroke-width:0.8;" x="829.747983" xlink:href="#mc7762f65b0" y="843.625532"/>
      </g>
     </g>
    </g>
    <g id="xtick_38">
     <g id="line2d_71">
      <g>
       <use style="stroke:#000000;stroke-width:0.8;" x="979.540609" xlink:href="#mc7762f65b0" y="843.625532"/>
      </g>
     </g>
    </g>
    <g id="xtick_39">
     <g id="line2d_72">
      <g>
       <use style="stroke:#000000;stroke-width:0.8;" x="1129.333235" xlink:href="#mc7762f65b0" y="843.625532"/>
      </g>
     </g>
    </g>
    <g id="xtick_40">
     <g id="line2d_73">
      <g>
       <use style="stroke:#000000;stroke-width:0.8;" x="1279.125861" xlink:href="#mc7762f65b0" y="843.625532"/>
      </g>
     </g>
    </g>
   </g>
   <g id="matplotlib.axis_10">
    <g id="ytick_30">
     <g id="line2d_74">
      <g>
       <use style="stroke:#000000;stroke-width:0.8;" x="180" xlink:href="#m00f718b606" y="838.368304"/>
      </g>
     </g>
     <g id="text_35">
      <!-- 0 -->
      <g transform="translate(166.6375 842.167523)scale(0.1 -0.1)">
       <use xlink:href="#DejaVuSans-48"/>
      </g>
     </g>
    </g>
    <g id="ytick_31">
     <g id="line2d_75">
      <g>
       <use style="stroke:#000000;stroke-width:0.8;" x="180" xlink:href="#m00f718b606" y="818.900307"/>
      </g>
     </g>
     <g id="text_36">
      <!-- 20 -->
      <g transform="translate(160.275 822.699526)scale(0.1 -0.1)">
       <use xlink:href="#DejaVuSans-50"/>
       <use x="63.623047" xlink:href="#DejaVuSans-48"/>
      </g>
     </g>
    </g>
    <g id="ytick_32">
     <g id="line2d_76">
      <g>
       <use style="stroke:#000000;stroke-width:0.8;" x="180" xlink:href="#m00f718b606" y="799.432311"/>
      </g>
     </g>
     <g id="text_37">
      <!-- 40 -->
      <g transform="translate(160.275 803.23153)scale(0.1 -0.1)">
       <use xlink:href="#DejaVuSans-52"/>
       <use x="63.623047" xlink:href="#DejaVuSans-48"/>
      </g>
     </g>
    </g>
    <g id="ytick_33">
     <g id="line2d_77">
      <g>
       <use style="stroke:#000000;stroke-width:0.8;" x="180" xlink:href="#m00f718b606" y="779.964314"/>
      </g>
     </g>
     <g id="text_38">
      <!-- 60 -->
      <g transform="translate(160.275 783.763533)scale(0.1 -0.1)">
       <use xlink:href="#DejaVuSans-54"/>
       <use x="63.623047" xlink:href="#DejaVuSans-48"/>
      </g>
     </g>
    </g>
    <g id="ytick_34">
     <g id="line2d_78">
      <g>
       <use style="stroke:#000000;stroke-width:0.8;" x="180" xlink:href="#m00f718b606" y="760.496318"/>
      </g>
     </g>
     <g id="text_39">
      <!-- 80 -->
      <g transform="translate(160.275 764.295536)scale(0.1 -0.1)">
       <use xlink:href="#DejaVuSans-56"/>
       <use x="63.623047" xlink:href="#DejaVuSans-48"/>
      </g>
     </g>
    </g>
    <g id="ytick_35">
     <g id="line2d_79">
      <g>
       <use style="stroke:#000000;stroke-width:0.8;" x="180" xlink:href="#m00f718b606" y="741.028321"/>
      </g>
     </g>
     <g id="text_40">
      <!-- 100 -->
      <g transform="translate(153.9125 744.82754)scale(0.1 -0.1)">
       <use xlink:href="#DejaVuSans-49"/>
       <use x="63.623047" xlink:href="#DejaVuSans-48"/>
       <use x="127.246094" xlink:href="#DejaVuSans-48"/>
      </g>
     </g>
    </g>
    <g id="text_41">
     <!-- Dynamic Pressure (kPa) -->
     <defs>
      <path d="M 19.671875 64.796875 
L 19.671875 8.109375 
L 31.59375 8.109375 
Q 46.6875 8.109375 53.6875 14.9375 
Q 60.6875 21.78125 60.6875 36.53125 
Q 60.6875 51.171875 53.6875 57.984375 
Q 46.6875 64.796875 31.59375 64.796875 
z
M 9.8125 72.90625 
L 30.078125 72.90625 
Q 51.265625 72.90625 61.171875 64.09375 
Q 71.09375 55.28125 71.09375 36.53125 
Q 71.09375 17.671875 61.125 8.828125 
Q 51.171875 0 30.078125 0 
L 9.8125 0 
z
" id="DejaVuSans-68"/>
      <path d="M 19.671875 64.796875 
L 19.671875 37.40625 
L 32.078125 37.40625 
Q 38.96875 37.40625 42.71875 40.96875 
Q 46.484375 44.53125 46.484375 51.125 
Q 46.484375 57.671875 42.71875 61.234375 
Q 38.96875 64.796875 32.078125 64.796875 
z
M 9.8125 72.90625 
L 32.078125 72.90625 
Q 44.34375 72.90625 50.609375 67.359375 
Q 56.890625 61.8125 56.890625 51.125 
Q 56.890625 40.328125 50.609375 34.8125 
Q 44.34375 29.296875 32.078125 29.296875 
L 19.671875 29.296875 
L 19.671875 0 
L 9.8125 0 
z
" id="DejaVuSans-80"/>
     </defs>
     <g transform="translate(147.832812 845.550432)rotate(-90)scale(0.1 -0.1)">
      <use xlink:href="#DejaVuSans-68"/>
      <use x="77.001953" xlink:href="#DejaVuSans-121"/>
      <use x="136.181641" xlink:href="#DejaVuSans-110"/>
      <use x="199.560547" xlink:href="#DejaVuSans-97"/>
      <use x="260.839844" xlink:href="#DejaVuSans-109"/>
      <use x="358.251953" xlink:href="#DejaVuSans-105"/>
      <use x="386.035156" xlink:href="#DejaVuSans-99"/>
      <use x="441.015625" xlink:href="#DejaVuSans-32"/>
      <use x="472.802734" xlink:href="#DejaVuSans-80"/>
      <use x="533.089844" xlink:href="#DejaVuSans-114"/>
      <use x="574.171875" xlink:href="#DejaVuSans-101"/>
      <use x="635.695312" xlink:href="#DejaVuSans-115"/>
      <use x="687.794922" xlink:href="#DejaVuSans-115"/>
      <use x="739.894531" xlink:href="#DejaVuSans-117"/>
      <use x="803.273438" xlink:href="#DejaVuSans-114"/>
      <use x="844.355469" xlink:href="#DejaVuSans-101"/>
      <use x="905.878906" xlink:href="#DejaVuSans-32"/>
      <use x="937.666016" xlink:href="#DejaVuSans-40"/>
      <use x="976.679688" xlink:href="#DejaVuSans-107"/>
      <use x="1034.589844" xlink:href="#DejaVuSans-80"/>
      <use x="1094.830078" xlink:href="#DejaVuSans-97"/>
      <use x="1156.109375" xlink:href="#DejaVuSans-41"/>
     </g>
    </g>
   </g>
   <g id="line2d_80">
    <path clip-path="url(#pcf6dd0a68d)" d="M 230.727273 838.366761 
L 234.172503 838.250893 
L 237.617734 837.90505 
L 240.913171 837.352295 
L 244.358402 836.541933 
L 247.653839 835.541595 
L 251.09907 834.258208 
L 254.5443 832.738582 
L 258.139323 830.905338 
L 261.884139 828.735549 
L 265.778747 826.211514 
L 269.823148 823.320822 
L 274.167134 819.936865 
L 278.960498 815.908342 
L 284.353033 811.07106 
L 290.943908 804.839399 
L 306.672134 789.510898 
L 321.052226 775.72532 
L 329.141028 768.278792 
L 335.881696 762.368109 
L 341.873401 757.400203 
L 347.415728 753.090172 
L 352.508678 749.40499 
L 357.302042 746.205742 
L 361.79582 743.467131 
L 366.139806 741.08049 
L 370.184207 739.106552 
L 374.078816 737.447673 
L 377.823631 736.090237 
L 381.418654 735.018454 
L 384.863885 734.214639 
L 388.309115 733.639884 
L 391.604553 733.316103 
L 394.750198 733.223815 
L 397.895843 733.352942 
L 401.041488 733.71242 
L 404.037341 734.276389 
L 407.033193 735.062828 
L 410.029046 736.076847 
L 413.024898 737.322316 
L 416.020751 738.801667 
L 419.166396 740.607559 
L 422.312041 742.67097 
L 425.607479 745.102905 
L 429.202502 748.040191 
L 433.246903 751.640938 
L 438.040267 756.222203 
L 444.331557 762.567327 
L 462.007087 780.559433 
L 466.051488 784.596189 
L 468.44817 789.441192 
L 470.844852 793.798022 
L 473.391327 797.955374 
L 475.937801 801.683819 
L 478.484276 805.033665 
L 481.180543 808.216015 
L 483.87681 811.066965 
L 486.72287 813.759192 
L 489.718723 816.283371 
L 492.864368 818.633983 
L 496.159806 820.808874 
L 499.605036 822.808797 
L 503.200059 824.636971 
L 507.094667 826.360605 
L 511.139068 827.90829 
L 515.483054 829.33674 
L 520.276418 830.674955 
L 525.51916 831.898487 
L 531.21128 832.99228 
L 537.50257 833.970701 
L 544.542824 834.837872 
L 552.631626 835.605285 
L 562.068561 836.270696 
L 573.452801 836.840281 
L 587.533307 837.310909 
L 606.107593 837.696198 
L 632.17151 838.00001 
L 671.267385 838.215094 
L 738.674067 838.335081 
L 928.461324 838.367592 
L 1245.272727 838.368279 
L 1245.272727 838.368279 
" style="fill:none;stroke:#000000;stroke-linecap:square;stroke-width:1.5;"/>
   </g>
   <g id="patch_23">
    <path d="M 180 843.625532 
L 180 727.965957 
" style="fill:none;stroke:#000000;stroke-linecap:square;stroke-linejoin:miter;stroke-width:0.8;"/>
   </g>
   <g id="patch_24">
    <path d="M 1296 843.625532 
L 1296 727.965957 
" style="fill:none;stroke:#000000;stroke-linecap:square;stroke-linejoin:miter;stroke-width:0.8;"/>
   </g>
   <g id="patch_25">
    <path d="M 180 843.625532 
L 1296 843.625532 
" style="fill:none;stroke:#000000;stroke-linecap:square;stroke-linejoin:miter;stroke-width:0.8;"/>
   </g>
   <g id="patch_26">
    <path d="M 180 727.965957 
L 1296 727.965957 
" style="fill:none;stroke:#000000;stroke-linecap:square;stroke-linejoin:miter;stroke-width:0.8;"/>
   </g>
  </g>
  <g id="axes_6">
   <g id="patch_27">
    <path d="M 180 982.417021 
L 1296 982.417021 
L 1296 866.757447 
L 180 866.757447 
z
" style="fill:#ffffff;"/>
   </g>
   <g id="matplotlib.axis_11">
    <g id="xtick_41">
     <g id="line2d_81">
      <g>
       <use style="stroke:#000000;stroke-width:0.8;" x="230.57748" xlink:href="#mc7762f65b0" y="982.417021"/>
      </g>
     </g>
    </g>
    <g id="xtick_42">
     <g id="line2d_82">
      <g>
       <use style="stroke:#000000;stroke-width:0.8;" x="380.370106" xlink:href="#mc7762f65b0" y="982.417021"/>
      </g>
     </g>
    </g>
    <g id="xtick_43">
     <g id="line2d_83">
      <g>
       <use style="stroke:#000000;stroke-width:0.8;" x="530.162732" xlink:href="#mc7762f65b0" y="982.417021"/>
      </g>
     </g>
    </g>
    <g id="xtick_44">
     <g id="line2d_84">
      <g>
       <use style="stroke:#000000;stroke-width:0.8;" x="679.955358" xlink:href="#mc7762f65b0" y="982.417021"/>
      </g>
     </g>
    </g>
    <g id="xtick_45">
     <g id="line2d_85">
      <g>
       <use style="stroke:#000000;stroke-width:0.8;" x="829.747983" xlink:href="#mc7762f65b0" y="982.417021"/>
      </g>
     </g>
    </g>
    <g id="xtick_46">
     <g id="line2d_86">
      <g>
       <use style="stroke:#000000;stroke-width:0.8;" x="979.540609" xlink:href="#mc7762f65b0" y="982.417021"/>
      </g>
     </g>
    </g>
    <g id="xtick_47">
     <g id="line2d_87">
      <g>
       <use style="stroke:#000000;stroke-width:0.8;" x="1129.333235" xlink:href="#mc7762f65b0" y="982.417021"/>
      </g>
     </g>
    </g>
    <g id="xtick_48">
     <g id="line2d_88">
      <g>
       <use style="stroke:#000000;stroke-width:0.8;" x="1279.125861" xlink:href="#mc7762f65b0" y="982.417021"/>
      </g>
     </g>
    </g>
    <g id="text_42">
     <!-- t (s) -->
     <g transform="translate(727.944531 994.015459)scale(0.1 -0.1)">
      <use xlink:href="#DejaVuSans-116"/>
      <use x="39.208984" xlink:href="#DejaVuSans-32"/>
      <use x="70.996094" xlink:href="#DejaVuSans-40"/>
      <use x="110.009766" xlink:href="#DejaVuSans-115"/>
      <use x="162.109375" xlink:href="#DejaVuSans-41"/>
     </g>
    </g>
   </g>
   <g id="matplotlib.axis_12">
    <g id="ytick_36">
     <g id="line2d_89">
      <g>
       <use style="stroke:#000000;stroke-width:0.8;" x="180" xlink:href="#m00f718b606" y="977.27472"/>
      </g>
     </g>
     <g id="text_43">
      <!-- 0 -->
      <g transform="translate(166.6375 981.073939)scale(0.1 -0.1)">
       <use xlink:href="#DejaVuSans-48"/>
      </g>
     </g>
    </g>
    <g id="ytick_37">
     <g id="line2d_90">
      <g>
       <use style="stroke:#000000;stroke-width:0.8;" x="180" xlink:href="#m00f718b606" y="954.743837"/>
      </g>
     </g>
     <g id="text_44">
      <!-- 1 -->
      <g transform="translate(166.6375 958.543056)scale(0.1 -0.1)">
       <use xlink:href="#DejaVuSans-49"/>
      </g>
     </g>
    </g>
    <g id="ytick_38">
     <g id="line2d_91">
      <g>
       <use style="stroke:#000000;stroke-width:0.8;" x="180" xlink:href="#m00f718b606" y="932.212954"/>
      </g>
     </g>
     <g id="text_45">
      <!-- 2 -->
      <g transform="translate(166.6375 936.012173)scale(0.1 -0.1)">
       <use xlink:href="#DejaVuSans-50"/>
      </g>
     </g>
    </g>
    <g id="ytick_39">
     <g id="line2d_92">
      <g>
       <use style="stroke:#000000;stroke-width:0.8;" x="180" xlink:href="#m00f718b606" y="909.682071"/>
      </g>
     </g>
     <g id="text_46">
      <!-- 3 -->
      <g transform="translate(166.6375 913.48129)scale(0.1 -0.1)">
       <use xlink:href="#DejaVuSans-51"/>
      </g>
     </g>
    </g>
    <g id="ytick_40">
     <g id="line2d_93">
      <g>
       <use style="stroke:#000000;stroke-width:0.8;" x="180" xlink:href="#m00f718b606" y="887.151188"/>
      </g>
     </g>
     <g id="text_47">
      <!-- 4 -->
      <g transform="translate(166.6375 890.950407)scale(0.1 -0.1)">
       <use xlink:href="#DejaVuSans-52"/>
      </g>
     </g>
    </g>
    <g id="text_48">
     <!-- Mach number -->
     <defs>
      <path d="M 9.8125 72.90625 
L 24.515625 72.90625 
L 43.109375 23.296875 
L 61.8125 72.90625 
L 76.515625 72.90625 
L 76.515625 0 
L 66.890625 0 
L 66.890625 64.015625 
L 48.09375 14.015625 
L 38.1875 14.015625 
L 19.390625 64.015625 
L 19.390625 0 
L 9.8125 0 
z
" id="DejaVuSans-77"/>
      <path d="M 48.6875 27.296875 
Q 48.6875 37.203125 44.609375 42.84375 
Q 40.53125 48.484375 33.40625 48.484375 
Q 26.265625 48.484375 22.1875 42.84375 
Q 18.109375 37.203125 18.109375 27.296875 
Q 18.109375 17.390625 22.1875 11.75 
Q 26.265625 6.109375 33.40625 6.109375 
Q 40.53125 6.109375 44.609375 11.75 
Q 48.6875 17.390625 48.6875 27.296875 
z
M 18.109375 46.390625 
Q 20.953125 51.265625 25.265625 53.625 
Q 29.59375 56 35.59375 56 
Q 45.5625 56 51.78125 48.09375 
Q 58.015625 40.1875 58.015625 27.296875 
Q 58.015625 14.40625 51.78125 6.484375 
Q 45.5625 -1.421875 35.59375 -1.421875 
Q 29.59375 -1.421875 25.265625 0.953125 
Q 20.953125 3.328125 18.109375 8.203125 
L 18.109375 0 
L 9.078125 0 
L 9.078125 75.984375 
L 18.109375 75.984375 
z
" id="DejaVuSans-98"/>
     </defs>
     <g transform="translate(160.557812 958.986453)rotate(-90)scale(0.1 -0.1)">
      <use xlink:href="#DejaVuSans-77"/>
      <use x="86.279297" xlink:href="#DejaVuSans-97"/>
      <use x="147.558594" xlink:href="#DejaVuSans-99"/>
      <use x="202.539062" xlink:href="#DejaVuSans-104"/>
      <use x="265.917969" xlink:href="#DejaVuSans-32"/>
      <use x="297.705078" xlink:href="#DejaVuSans-110"/>
      <use x="361.083984" xlink:href="#DejaVuSans-117"/>
      <use x="424.462891" xlink:href="#DejaVuSans-109"/>
      <use x="521.875" xlink:href="#DejaVuSans-98"/>
      <use x="585.351562" xlink:href="#DejaVuSans-101"/>
      <use x="646.875" xlink:href="#DejaVuSans-114"/>
     </g>
    </g>
   </g>
   <g id="line2d_94">
    <path clip-path="url(#pe29d108ad2)" d="M 230.727273 977.159768 
L 231.626028 976.983253 
L 237.617734 975.280934 
L 253.645544 970.518107 
L 274.766305 963.991381 
L 325.695797 947.928567 
L 338.128585 943.706348 
L 348.763862 939.865515 
L 358.35059 936.17211 
L 367.188355 932.532823 
L 375.426949 928.904483 
L 383.216166 925.236808 
L 390.705797 921.469493 
L 398.195428 917.453856 
L 405.834852 913.102744 
L 413.923654 908.234711 
L 423.660175 902.097806 
L 436.092963 893.999754 
L 445.529898 887.59843 
L 452.570152 882.565212 
L 458.561857 878.009992 
L 464.553562 873.179733 
L 466.051488 872.0147 
L 472.792156 873.945086 
L 480.880958 876.021164 
L 491.516234 878.507487 
L 557.42499 893.25 
L 567.461096 895.164991 
L 576.448653 896.656104 
L 584.83704 897.824473 
L 593.674805 898.82724 
L 603.710911 899.738066 
L 615.694321 900.592611 
L 630.224206 901.398619 
L 649.996832 902.256167 
L 693.137109 904.069813 
L 713.20932 905.179282 
L 731.633813 906.417891 
L 749.459136 907.836896 
L 770.579896 909.760148 
L 794.996094 911.884049 
L 824.055864 914.1688 
L 906.292015 920.290259 
L 1001.709918 927.470492 
L 1043.202475 930.997297 
L 1092.634042 935.154454 
L 1119.596714 937.193067 
L 1142.514986 938.706132 
L 1163.785539 939.890086 
L 1184.157336 940.802477 
L 1203.929963 941.466772 
L 1223.403004 941.899326 
L 1242.726253 942.106099 
L 1245.272727 942.116674 
L 1245.272727 942.116674 
" style="fill:none;stroke:#000000;stroke-linecap:square;stroke-width:1.5;"/>
   </g>
   <g id="patch_28">
    <path d="M 180 982.417021 
L 180 866.757447 
" style="fill:none;stroke:#000000;stroke-linecap:square;stroke-linejoin:miter;stroke-width:0.8;"/>
   </g>
   <g id="patch_29">
    <path d="M 1296 982.417021 
L 1296 866.757447 
" style="fill:none;stroke:#000000;stroke-linecap:square;stroke-linejoin:miter;stroke-width:0.8;"/>
   </g>
   <g id="patch_30">
    <path d="M 180 982.417021 
L 1296 982.417021 
" style="fill:none;stroke:#000000;stroke-linecap:square;stroke-linejoin:miter;stroke-width:0.8;"/>
   </g>
   <g id="patch_31">
    <path d="M 180 866.757447 
L 1296 866.757447 
" style="fill:none;stroke:#000000;stroke-linecap:square;stroke-linejoin:miter;stroke-width:0.8;"/>
   </g>
  </g>
  <g id="axes_7">
   <g id="patch_32">
    <path d="M 180 1121.208511 
L 1296 1121.208511 
L 1296 1005.548936 
L 180 1005.548936 
z
" style="fill:#ffffff;"/>
   </g>
   <g id="matplotlib.axis_13">
    <g id="xtick_49">
     <g id="line2d_95">
      <g>
       <use style="stroke:#000000;stroke-width:0.8;" x="230.57748" xlink:href="#mc7762f65b0" y="1121.208511"/>
      </g>
     </g>
    </g>
    <g id="xtick_50">
     <g id="line2d_96">
      <g>
       <use style="stroke:#000000;stroke-width:0.8;" x="380.370106" xlink:href="#mc7762f65b0" y="1121.208511"/>
      </g>
     </g>
    </g>
    <g id="xtick_51">
     <g id="line2d_97">
      <g>
       <use style="stroke:#000000;stroke-width:0.8;" x="530.162732" xlink:href="#mc7762f65b0" y="1121.208511"/>
      </g>
     </g>
    </g>
    <g id="xtick_52">
     <g id="line2d_98">
      <g>
       <use style="stroke:#000000;stroke-width:0.8;" x="679.955358" xlink:href="#mc7762f65b0" y="1121.208511"/>
      </g>
     </g>
    </g>
    <g id="xtick_53">
     <g id="line2d_99">
      <g>
       <use style="stroke:#000000;stroke-width:0.8;" x="829.747983" xlink:href="#mc7762f65b0" y="1121.208511"/>
      </g>
     </g>
    </g>
    <g id="xtick_54">
     <g id="line2d_100">
      <g>
       <use style="stroke:#000000;stroke-width:0.8;" x="979.540609" xlink:href="#mc7762f65b0" y="1121.208511"/>
      </g>
     </g>
    </g>
    <g id="xtick_55">
     <g id="line2d_101">
      <g>
       <use style="stroke:#000000;stroke-width:0.8;" x="1129.333235" xlink:href="#mc7762f65b0" y="1121.208511"/>
      </g>
     </g>
    </g>
    <g id="xtick_56">
     <g id="line2d_102">
      <g>
       <use style="stroke:#000000;stroke-width:0.8;" x="1279.125861" xlink:href="#mc7762f65b0" y="1121.208511"/>
      </g>
     </g>
    </g>
   </g>
   <g id="matplotlib.axis_14">
    <g id="ytick_41">
     <g id="line2d_103">
      <g>
       <use style="stroke:#000000;stroke-width:0.8;" x="180" xlink:href="#m00f718b606" y="1115.951394"/>
      </g>
     </g>
     <g id="text_49">
      <!-- 0 -->
      <g transform="translate(166.6375 1119.750613)scale(0.1 -0.1)">
       <use xlink:href="#DejaVuSans-48"/>
      </g>
     </g>
    </g>
    <g id="ytick_42">
     <g id="line2d_104">
      <g>
       <use style="stroke:#000000;stroke-width:0.8;" x="180" xlink:href="#m00f718b606" y="1099.10406"/>
      </g>
     </g>
     <g id="text_50">
      <!-- 500 -->
      <g transform="translate(153.9125 1102.903279)scale(0.1 -0.1)">
       <use xlink:href="#DejaVuSans-53"/>
       <use x="63.623047" xlink:href="#DejaVuSans-48"/>
       <use x="127.246094" xlink:href="#DejaVuSans-48"/>
      </g>
     </g>
    </g>
    <g id="ytick_43">
     <g id="line2d_105">
      <g>
       <use style="stroke:#000000;stroke-width:0.8;" x="180" xlink:href="#m00f718b606" y="1082.256726"/>
      </g>
     </g>
     <g id="text_51">
      <!-- 1000 -->
      <g transform="translate(147.55 1086.055945)scale(0.1 -0.1)">
       <use xlink:href="#DejaVuSans-49"/>
       <use x="63.623047" xlink:href="#DejaVuSans-48"/>
       <use x="127.246094" xlink:href="#DejaVuSans-48"/>
       <use x="190.869141" xlink:href="#DejaVuSans-48"/>
      </g>
     </g>
    </g>
    <g id="ytick_44">
     <g id="line2d_106">
      <g>
       <use style="stroke:#000000;stroke-width:0.8;" x="180" xlink:href="#m00f718b606" y="1065.409392"/>
      </g>
     </g>
     <g id="text_52">
      <!-- 1500 -->
      <g transform="translate(147.55 1069.208611)scale(0.1 -0.1)">
       <use xlink:href="#DejaVuSans-49"/>
       <use x="63.623047" xlink:href="#DejaVuSans-53"/>
       <use x="127.246094" xlink:href="#DejaVuSans-48"/>
       <use x="190.869141" xlink:href="#DejaVuSans-48"/>
      </g>
     </g>
    </g>
    <g id="ytick_45">
     <g id="line2d_107">
      <g>
       <use style="stroke:#000000;stroke-width:0.8;" x="180" xlink:href="#m00f718b606" y="1048.562059"/>
      </g>
     </g>
     <g id="text_53">
      <!-- 2000 -->
      <g transform="translate(147.55 1052.361277)scale(0.1 -0.1)">
       <use xlink:href="#DejaVuSans-50"/>
       <use x="63.623047" xlink:href="#DejaVuSans-48"/>
       <use x="127.246094" xlink:href="#DejaVuSans-48"/>
       <use x="190.869141" xlink:href="#DejaVuSans-48"/>
      </g>
     </g>
    </g>
    <g id="ytick_46">
     <g id="line2d_108">
      <g>
       <use style="stroke:#000000;stroke-width:0.8;" x="180" xlink:href="#m00f718b606" y="1031.714725"/>
      </g>
     </g>
     <g id="text_54">
      <!-- 2500 -->
      <g transform="translate(147.55 1035.513944)scale(0.1 -0.1)">
       <use xlink:href="#DejaVuSans-50"/>
       <use x="63.623047" xlink:href="#DejaVuSans-53"/>
       <use x="127.246094" xlink:href="#DejaVuSans-48"/>
       <use x="190.869141" xlink:href="#DejaVuSans-48"/>
      </g>
     </g>
    </g>
    <g id="ytick_47">
     <g id="line2d_109">
      <g>
       <use style="stroke:#000000;stroke-width:0.8;" x="180" xlink:href="#m00f718b606" y="1014.867391"/>
      </g>
     </g>
     <g id="text_55">
      <!-- 3000 -->
      <g transform="translate(147.55 1018.66661)scale(0.1 -0.1)">
       <use xlink:href="#DejaVuSans-51"/>
       <use x="63.623047" xlink:href="#DejaVuSans-48"/>
       <use x="127.246094" xlink:href="#DejaVuSans-48"/>
       <use x="190.869141" xlink:href="#DejaVuSans-48"/>
      </g>
     </g>
    </g>
    <g id="text_56">
     <!-- Drag (N) -->
     <g transform="translate(141.470313 1084.753723)rotate(-90)scale(0.1 -0.1)">
      <use xlink:href="#DejaVuSans-68"/>
      <use x="77.001953" xlink:href="#DejaVuSans-114"/>
      <use x="118.115234" xlink:href="#DejaVuSans-97"/>
      <use x="179.394531" xlink:href="#DejaVuSans-103"/>
      <use x="242.871094" xlink:href="#DejaVuSans-32"/>
      <use x="274.658203" xlink:href="#DejaVuSans-40"/>
      <use x="313.671875" xlink:href="#DejaVuSans-78"/>
      <use x="388.476562" xlink:href="#DejaVuSans-41"/>
     </g>
    </g>
   </g>
   <g id="line2d_110">
    <path clip-path="url(#p280ea1eb58)" d="M 230.727273 1115.951257 
L 233.573333 1115.819512 
L 236.718978 1115.467742 
L 240.014416 1114.875969 
L 242.710683 1114.152647 
L 247.204462 1112.666936 
L 249.601144 1111.689123 
L 254.094922 1109.476826 
L 257.090775 1107.700416 
L 259.63725 1106.050975 
L 263.831443 1102.971391 
L 267.126881 1100.252048 
L 270.272526 1097.40173 
L 273.268378 1094.453187 
L 276.414024 1091.103695 
L 280.308632 1086.597689 
L 283.753862 1082.278961 
L 287.348885 1077.443188 
L 291.093701 1072.03675 
L 294.688724 1066.472952 
L 299.631881 1058.356439 
L 303.676281 1051.390037 
L 304.575037 1049.958531 
L 314.011973 1040.507443 
L 319.704092 1035.456352 
L 324.946834 1031.12474 
L 329.889991 1027.326539 
L 333.934392 1024.477324 
L 338.278378 1021.715897 
L 342.472572 1019.310407 
L 346.36718 1017.329494 
L 350.261788 1015.615293 
L 354.006604 1014.202908 
L 357.751419 1013.028601 
L 361.346442 1012.130962 
L 364.941465 1011.46334 
L 368.536488 1011.028201 
L 371.981719 1010.825375 
L 375.426949 1010.84425 
L 378.87218 1011.087156 
L 382.31741 1011.555788 
L 385.76264 1012.251127 
L 389.207871 1013.174091 
L 392.653101 1014.326168 
L 396.098332 1015.707869 
L 399.693355 1017.393516 
L 403.288378 1019.325464 
L 407.033193 1021.594583 
L 410.927802 1024.223678 
L 414.972202 1027.231256 
L 419.166396 1030.629738 
L 423.660175 1034.558832 
L 428.902917 1039.457379 
L 435.94317 1046.3707 
L 452.270566 1062.503581 
L 458.711649 1068.47706 
L 464.853147 1073.871052 
L 466.20128 1075.155066 
L 468.747755 1078.694748 
L 471.444022 1082.064001 
L 474.14029 1085.089709 
L 476.98635 1087.955239 
L 479.982202 1090.651153 
L 483.127847 1093.171657 
L 486.423285 1095.514254 
L 489.868515 1097.679295 
L 493.463538 1099.669537 
L 497.208354 1101.489716 
L 501.252755 1103.205513 
L 505.596741 1104.800732 
L 510.240312 1106.265132 
L 515.333262 1107.630596 
L 520.875589 1108.877936 
L 526.867294 1109.995183 
L 533.607962 1111.019024 
L 541.097593 1111.926607 
L 549.635773 1112.73297 
L 559.522086 1113.439421 
L 571.355704 1114.055496 
L 585.885588 1114.580643 
L 604.609667 1115.024247 
L 629.92462 1115.389496 
L 665.575265 1115.666408 
L 720.099781 1115.847157 
L 820.161255 1115.923114 
L 1065.371784 1115.950923 
L 1245.272727 1115.951226 
L 1245.272727 1115.951226 
" style="fill:none;stroke:#000000;stroke-linecap:square;stroke-width:1.5;"/>
   </g>
   <g id="patch_33">
    <path d="M 180 1121.208511 
L 180 1005.548936 
" style="fill:none;stroke:#000000;stroke-linecap:square;stroke-linejoin:miter;stroke-width:0.8;"/>
   </g>
   <g id="patch_34">
    <path d="M 1296 1121.208511 
L 1296 1005.548936 
" style="fill:none;stroke:#000000;stroke-linecap:square;stroke-linejoin:miter;stroke-width:0.8;"/>
   </g>
   <g id="patch_35">
    <path d="M 180 1121.208511 
L 1296 1121.208511 
" style="fill:none;stroke:#000000;stroke-linecap:square;stroke-linejoin:miter;stroke-width:0.8;"/>
   </g>
   <g id="patch_36">
    <path d="M 180 1005.548936 
L 1296 1005.548936 
" style="fill:none;stroke:#000000;stroke-linecap:square;stroke-linejoin:miter;stroke-width:0.8;"/>
   </g>
  </g>
  <g id="axes_8">
   <g id="patch_37">
    <path d="M 180 1260 
L 1296 1260 
L 1296 1144.340426 
L 180 1144.340426 
z
" style="fill:#ffffff;"/>
   </g>
   <g id="matplotlib.axis_15">
    <g id="xtick_57">
     <g id="line2d_111">
      <g>
       <use style="stroke:#000000;stroke-width:0.8;" x="230.57748" xlink:href="#mc7762f65b0" y="1260"/>
      </g>
     </g>
     <g id="text_57">
      <!-- 0 -->
      <g transform="translate(227.39623 1274.598437)scale(0.1 -0.1)">
       <use xlink:href="#DejaVuSans-48"/>
      </g>
     </g>
    </g>
    <g id="xtick_58">
     <g id="line2d_112">
      <g>
       <use style="stroke:#000000;stroke-width:0.8;" x="380.370106" xlink:href="#mc7762f65b0" y="1260"/>
      </g>
     </g>
     <g id="text_58">
      <!-- 25 -->
      <g transform="translate(374.007606 1274.598437)scale(0.1 -0.1)">
       <use xlink:href="#DejaVuSans-50"/>
       <use x="63.623047" xlink:href="#DejaVuSans-53"/>
      </g>
     </g>
    </g>
    <g id="xtick_59">
     <g id="line2d_113">
      <g>
       <use style="stroke:#000000;stroke-width:0.8;" x="530.162732" xlink:href="#mc7762f65b0" y="1260"/>
      </g>
     </g>
     <g id="text_59">
      <!-- 50 -->
      <g transform="translate(523.800232 1274.598437)scale(0.1 -0.1)">
       <use xlink:href="#DejaVuSans-53"/>
       <use x="63.623047" xlink:href="#DejaVuSans-48"/>
      </g>
     </g>
    </g>
    <g id="xtick_60">
     <g id="line2d_114">
      <g>
       <use style="stroke:#000000;stroke-width:0.8;" x="679.955358" xlink:href="#mc7762f65b0" y="1260"/>
      </g>
     </g>
     <g id="text_60">
      <!-- 75 -->
      <g transform="translate(673.592858 1274.598437)scale(0.1 -0.1)">
       <use xlink:href="#DejaVuSans-55"/>
       <use x="63.623047" xlink:href="#DejaVuSans-53"/>
      </g>
     </g>
    </g>
    <g id="xtick_61">
     <g id="line2d_115">
      <g>
       <use style="stroke:#000000;stroke-width:0.8;" x="829.747983" xlink:href="#mc7762f65b0" y="1260"/>
      </g>
     </g>
     <g id="text_61">
      <!-- 100 -->
      <g transform="translate(820.204233 1274.598437)scale(0.1 -0.1)">
       <use xlink:href="#DejaVuSans-49"/>
       <use x="63.623047" xlink:href="#DejaVuSans-48"/>
       <use x="127.246094" xlink:href="#DejaVuSans-48"/>
      </g>
     </g>
    </g>
    <g id="xtick_62">
     <g id="line2d_116">
      <g>
       <use style="stroke:#000000;stroke-width:0.8;" x="979.540609" xlink:href="#mc7762f65b0" y="1260"/>
      </g>
     </g>
     <g id="text_62">
      <!-- 125 -->
      <g transform="translate(969.996859 1274.598437)scale(0.1 -0.1)">
       <use xlink:href="#DejaVuSans-49"/>
       <use x="63.623047" xlink:href="#DejaVuSans-50"/>
       <use x="127.246094" xlink:href="#DejaVuSans-53"/>
      </g>
     </g>
    </g>
    <g id="xtick_63">
     <g id="line2d_117">
      <g>
       <use style="stroke:#000000;stroke-width:0.8;" x="1129.333235" xlink:href="#mc7762f65b0" y="1260"/>
      </g>
     </g>
     <g id="text_63">
      <!-- 150 -->
      <g transform="translate(1119.789485 1274.598437)scale(0.1 -0.1)">
       <use xlink:href="#DejaVuSans-49"/>
       <use x="63.623047" xlink:href="#DejaVuSans-53"/>
       <use x="127.246094" xlink:href="#DejaVuSans-48"/>
      </g>
     </g>
    </g>
    <g id="xtick_64">
     <g id="line2d_118">
      <g>
       <use style="stroke:#000000;stroke-width:0.8;" x="1279.125861" xlink:href="#mc7762f65b0" y="1260"/>
      </g>
     </g>
     <g id="text_64">
      <!-- 175 -->
      <g transform="translate(1269.582111 1274.598437)scale(0.1 -0.1)">
       <use xlink:href="#DejaVuSans-49"/>
       <use x="63.623047" xlink:href="#DejaVuSans-55"/>
       <use x="127.246094" xlink:href="#DejaVuSans-53"/>
      </g>
     </g>
    </g>
   </g>
   <g id="matplotlib.axis_16">
    <g id="ytick_48">
     <g id="line2d_119">
      <g>
       <use style="stroke:#000000;stroke-width:0.8;" x="180" xlink:href="#m00f718b606" y="1254.742765"/>
      </g>
     </g>
     <g id="text_65">
      <!-- 0 -->
      <g transform="translate(166.6375 1258.541984)scale(0.1 -0.1)">
       <use xlink:href="#DejaVuSans-48"/>
      </g>
     </g>
    </g>
    <g id="ytick_49">
     <g id="line2d_120">
      <g>
       <use style="stroke:#000000;stroke-width:0.8;" x="180" xlink:href="#m00f718b606" y="1230.571177"/>
      </g>
     </g>
     <g id="text_66">
      <!-- 20 -->
      <g transform="translate(160.275 1234.370396)scale(0.1 -0.1)">
       <use xlink:href="#DejaVuSans-50"/>
       <use x="63.623047" xlink:href="#DejaVuSans-48"/>
      </g>
     </g>
    </g>
    <g id="ytick_50">
     <g id="line2d_121">
      <g>
       <use style="stroke:#000000;stroke-width:0.8;" x="180" xlink:href="#m00f718b606" y="1206.39959"/>
      </g>
     </g>
     <g id="text_67">
      <!-- 40 -->
      <g transform="translate(160.275 1210.198809)scale(0.1 -0.1)">
       <use xlink:href="#DejaVuSans-52"/>
       <use x="63.623047" xlink:href="#DejaVuSans-48"/>
      </g>
     </g>
    </g>
    <g id="ytick_51">
     <g id="line2d_122">
      <g>
       <use style="stroke:#000000;stroke-width:0.8;" x="180" xlink:href="#m00f718b606" y="1182.228002"/>
      </g>
     </g>
     <g id="text_68">
      <!-- 60 -->
      <g transform="translate(160.275 1186.027221)scale(0.1 -0.1)">
       <use xlink:href="#DejaVuSans-54"/>
       <use x="63.623047" xlink:href="#DejaVuSans-48"/>
      </g>
     </g>
    </g>
    <g id="ytick_52">
     <g id="line2d_123">
      <g>
       <use style="stroke:#000000;stroke-width:0.8;" x="180" xlink:href="#m00f718b606" y="1158.056415"/>
      </g>
     </g>
     <g id="text_69">
      <!-- 80 -->
      <g transform="translate(160.275 1161.855633)scale(0.1 -0.1)">
       <use xlink:href="#DejaVuSans-56"/>
       <use x="63.623047" xlink:href="#DejaVuSans-48"/>
      </g>
     </g>
    </g>
    <g id="text_70">
     <!-- Air Pressure (kPa) -->
     <g transform="translate(154.195312 1246.738963)rotate(-90)scale(0.1 -0.1)">
      <use xlink:href="#DejaVuSans-65"/>
      <use x="68.408203" xlink:href="#DejaVuSans-105"/>
      <use x="96.191406" xlink:href="#DejaVuSans-114"/>
      <use x="137.304688" xlink:href="#DejaVuSans-32"/>
      <use x="169.091797" xlink:href="#DejaVuSans-80"/>
      <use x="229.378906" xlink:href="#DejaVuSans-114"/>
      <use x="270.460938" xlink:href="#DejaVuSans-101"/>
      <use x="331.984375" xlink:href="#DejaVuSans-115"/>
      <use x="384.083984" xlink:href="#DejaVuSans-115"/>
      <use x="436.183594" xlink:href="#DejaVuSans-117"/>
      <use x="499.5625" xlink:href="#DejaVuSans-114"/>
      <use x="540.644531" xlink:href="#DejaVuSans-101"/>
      <use x="602.167969" xlink:href="#DejaVuSans-32"/>
      <use x="633.955078" xlink:href="#DejaVuSans-40"/>
      <use x="672.96875" xlink:href="#DejaVuSans-107"/>
      <use x="730.878906" xlink:href="#DejaVuSans-80"/>
      <use x="791.119141" xlink:href="#DejaVuSans-97"/>
      <use x="852.398438" xlink:href="#DejaVuSans-41"/>
     </g>
    </g>
   </g>
   <g id="line2d_124">
    <path clip-path="url(#pf6a2d79dba)" d="M 230.727273 1149.597679 
L 235.670429 1149.710716 
L 240.613586 1150.044788 
L 245.556743 1150.599364 
L 250.649692 1151.397704 
L 255.742641 1152.426554 
L 260.835591 1153.679735 
L 266.078332 1155.198065 
L 271.470867 1156.991643 
L 277.013194 1159.06781 
L 282.855107 1161.495486 
L 288.996604 1164.291122 
L 295.58748 1167.540546 
L 302.777526 1171.340441 
L 310.716535 1175.791756 
L 319.853885 1181.178008 
L 330.938539 1187.983586 
L 349.063447 1199.418895 
L 366.289599 1210.191991 
L 377.074668 1216.677335 
L 386.212018 1221.917279 
L 394.450613 1226.386426 
L 401.940244 1230.200935 
L 408.980497 1233.542276 
L 415.721166 1236.497716 
L 422.162249 1239.08301 
L 428.453539 1241.371867 
L 434.744829 1243.422222 
L 441.036119 1245.236806 
L 447.477202 1246.860281 
L 454.068078 1248.292655 
L 461.108331 1249.590727 
L 468.298377 1250.691896 
L 475.338631 1251.536242 
L 483.427432 1252.275265 
L 493.014161 1252.918502 
L 504.548193 1253.459239 
L 518.928285 1253.899169 
L 537.802156 1254.239757 
L 564.764828 1254.486353 
L 609.852409 1254.649492 
L 705.270311 1254.730599 
L 1184.456921 1254.742745 
L 1245.272727 1254.742747 
L 1245.272727 1254.742747 
" style="fill:none;stroke:#000000;stroke-linecap:square;stroke-width:1.5;"/>
   </g>
   <g id="patch_38">
    <path d="M 180 1260 
L 180 1144.340426 
" style="fill:none;stroke:#000000;stroke-linecap:square;stroke-linejoin:miter;stroke-width:0.8;"/>
   </g>
   <g id="patch_39">
    <path d="M 1296 1260 
L 1296 1144.340426 
" style="fill:none;stroke:#000000;stroke-linecap:square;stroke-linejoin:miter;stroke-width:0.8;"/>
   </g>
   <g id="patch_40">
    <path d="M 180 1260 
L 1296 1260 
" style="fill:none;stroke:#000000;stroke-linecap:square;stroke-linejoin:miter;stroke-width:0.8;"/>
   </g>
   <g id="patch_41">
    <path d="M 180 1144.340426 
L 1296 1144.340426 
" style="fill:none;stroke:#000000;stroke-linecap:square;stroke-linejoin:miter;stroke-width:0.8;"/>
   </g>
  </g>
 </g>
 <defs>
  <clipPath id="pbcd6112f02">
   <rect height="115.659574" width="1116" x="180" y="172.8"/>
  </clipPath>
  <clipPath id="pea2d51371f">
   <rect height="115.659574" width="1116" x="180" y="311.591489"/>
  </clipPath>
  <clipPath id="p31e56c6ec9">
   <rect height="115.659574" width="1116" x="180" y="450.382979"/>
  </clipPath>
  <clipPath id="pd8d93c13c2">
   <rect height="115.659574" width="1116" x="180" y="589.174468"/>
  </clipPath>
  <clipPath id="pcf6dd0a68d">
   <rect height="115.659574" width="1116" x="180" y="727.965957"/>
  </clipPath>
  <clipPath id="pe29d108ad2">
   <rect height="115.659574" width="1116" x="180" y="866.757447"/>
  </clipPath>
  <clipPath id="p280ea1eb58">
   <rect height="115.659574" width="1116" x="180" y="1005.548936"/>
  </clipPath>
  <clipPath id="pf6a2d79dba">
   <rect height="115.659574" width="1116" x="180" y="1144.340426"/>
  </clipPath>
 </defs>
</svg>
