<?xml version="1.0" encoding="utf-8" standalone="no"?>
<!DOCTYPE svg PUBLIC "-//W3C//DTD SVG 1.1//EN"
  "http://www.w3.org/Graphics/SVG/1.1/DTD/svg11.dtd">
<!-- Created with matplotlib (https://matplotlib.org/) -->
<svg height="1440pt" version="1.1" viewBox="0 0 1440 1440" width="1440pt" xmlns="http://www.w3.org/2000/svg" xmlns:xlink="http://www.w3.org/1999/xlink">
 <defs>
  <style type="text/css">
*{stroke-linecap:butt;stroke-linejoin:round;}
  </style>
 </defs>
 <g id="figure_1">
  <g id="patch_1">
   <path d="M 0 1440 
L 1440 1440 
L 1440 0 
L 0 0 
z
" style="fill:#ffffff;"/>
  </g>
  <g id="axes_1">
   <g id="patch_2">
    <path d="M 180 288.459574 
L 1296 288.459574 
L 1296 172.8 
L 180 172.8 
z
" style="fill:#ffffff;"/>
   </g>
   <g id="matplotlib.axis_1">
    <g id="xtick_1">
     <g id="line2d_1">
      <defs>
       <path d="M 0 0 
L 0 3.5 
" id="ma96d7df57c" style="stroke:#000000;stroke-width:0.8;"/>
      </defs>
      <g>
       <use style="stroke:#000000;stroke-width:0.8;" x="230.580471" xlink:href="#ma96d7df57c" y="288.459574"/>
      </g>
     </g>
    </g>
    <g id="xtick_2">
     <g id="line2d_2">
      <g>
       <use style="stroke:#000000;stroke-width:0.8;" x="377.382013" xlink:href="#ma96d7df57c" y="288.459574"/>
      </g>
     </g>
    </g>
    <g id="xtick_3">
     <g id="line2d_3">
      <g>
       <use style="stroke:#000000;stroke-width:0.8;" x="524.183555" xlink:href="#ma96d7df57c" y="288.459574"/>
      </g>
     </g>
    </g>
    <g id="xtick_4">
     <g id="line2d_4">
      <g>
       <use style="stroke:#000000;stroke-width:0.8;" x="670.985096" xlink:href="#ma96d7df57c" y="288.459574"/>
      </g>
     </g>
    </g>
    <g id="xtick_5">
     <g id="line2d_5">
      <g>
       <use style="stroke:#000000;stroke-width:0.8;" x="817.786638" xlink:href="#ma96d7df57c" y="288.459574"/>
      </g>
     </g>
    </g>
    <g id="xtick_6">
     <g id="line2d_6">
      <g>
       <use style="stroke:#000000;stroke-width:0.8;" x="964.58818" xlink:href="#ma96d7df57c" y="288.459574"/>
      </g>
     </g>
    </g>
    <g id="xtick_7">
     <g id="line2d_7">
      <g>
       <use style="stroke:#000000;stroke-width:0.8;" x="1111.389721" xlink:href="#ma96d7df57c" y="288.459574"/>
      </g>
     </g>
    </g>
    <g id="xtick_8">
     <g id="line2d_8">
      <g>
       <use style="stroke:#000000;stroke-width:0.8;" x="1258.191263" xlink:href="#ma96d7df57c" y="288.459574"/>
      </g>
     </g>
    </g>
   </g>
   <g id="matplotlib.axis_2">
    <g id="ytick_1">
     <g id="line2d_9">
      <defs>
       <path d="M 0 0 
L -3.5 0 
" id="md60d0db27b" style="stroke:#000000;stroke-width:0.8;"/>
      </defs>
      <g>
       <use style="stroke:#000000;stroke-width:0.8;" x="180" xlink:href="#md60d0db27b" y="283.205313"/>
      </g>
     </g>
     <g id="text_1">
      <!-- 0 -->
      <defs>
       <path d="M 31.78125 66.40625 
Q 24.171875 66.40625 20.328125 58.90625 
Q 16.5 51.421875 16.5 36.375 
Q 16.5 21.390625 20.328125 13.890625 
Q 24.171875 6.390625 31.78125 6.390625 
Q 39.453125 6.390625 43.28125 13.890625 
Q 47.125 21.390625 47.125 36.375 
Q 47.125 51.421875 43.28125 58.90625 
Q 39.453125 66.40625 31.78125 66.40625 
z
M 31.78125 74.21875 
Q 44.046875 74.21875 50.515625 64.515625 
Q 56.984375 54.828125 56.984375 36.375 
Q 56.984375 17.96875 50.515625 8.265625 
Q 44.046875 -1.421875 31.78125 -1.421875 
Q 19.53125 -1.421875 13.0625 8.265625 
Q 6.59375 17.96875 6.59375 36.375 
Q 6.59375 54.828125 13.0625 64.515625 
Q 19.53125 74.21875 31.78125 74.21875 
z
" id="DejaVuSans-48"/>
      </defs>
      <g transform="translate(166.6375 287.004532)scale(0.1 -0.1)">
       <use xlink:href="#DejaVuSans-48"/>
      </g>
     </g>
    </g>
    <g id="ytick_2">
     <g id="line2d_10">
      <g>
       <use style="stroke:#000000;stroke-width:0.8;" x="180" xlink:href="#md60d0db27b" y="262.517952"/>
      </g>
     </g>
     <g id="text_2">
      <!-- 20 -->
      <defs>
       <path d="M 19.1875 8.296875 
L 53.609375 8.296875 
L 53.609375 0 
L 7.328125 0 
L 7.328125 8.296875 
Q 12.9375 14.109375 22.625 23.890625 
Q 32.328125 33.6875 34.8125 36.53125 
Q 39.546875 41.84375 41.421875 45.53125 
Q 43.3125 49.21875 43.3125 52.78125 
Q 43.3125 58.59375 39.234375 62.25 
Q 35.15625 65.921875 28.609375 65.921875 
Q 23.96875 65.921875 18.8125 64.3125 
Q 13.671875 62.703125 7.8125 59.421875 
L 7.8125 69.390625 
Q 13.765625 71.78125 18.9375 73 
Q 24.125 74.21875 28.421875 74.21875 
Q 39.75 74.21875 46.484375 68.546875 
Q 53.21875 62.890625 53.21875 53.421875 
Q 53.21875 48.921875 51.53125 44.890625 
Q 49.859375 40.875 45.40625 35.40625 
Q 44.1875 33.984375 37.640625 27.21875 
Q 31.109375 20.453125 19.1875 8.296875 
z
" id="DejaVuSans-50"/>
      </defs>
      <g transform="translate(160.275 266.317171)scale(0.1 -0.1)">
       <use xlink:href="#DejaVuSans-50"/>
       <use x="63.623047" xlink:href="#DejaVuSans-48"/>
      </g>
     </g>
    </g>
    <g id="ytick_3">
     <g id="line2d_11">
      <g>
       <use style="stroke:#000000;stroke-width:0.8;" x="180" xlink:href="#md60d0db27b" y="241.83059"/>
      </g>
     </g>
     <g id="text_3">
      <!-- 40 -->
      <defs>
       <path d="M 37.796875 64.3125 
L 12.890625 25.390625 
L 37.796875 25.390625 
z
M 35.203125 72.90625 
L 47.609375 72.90625 
L 47.609375 25.390625 
L 58.015625 25.390625 
L 58.015625 17.1875 
L 47.609375 17.1875 
L 47.609375 0 
L 37.796875 0 
L 37.796875 17.1875 
L 4.890625 17.1875 
L 4.890625 26.703125 
z
" id="DejaVuSans-52"/>
      </defs>
      <g transform="translate(160.275 245.629809)scale(0.1 -0.1)">
       <use xlink:href="#DejaVuSans-52"/>
       <use x="63.623047" xlink:href="#DejaVuSans-48"/>
      </g>
     </g>
    </g>
    <g id="ytick_4">
     <g id="line2d_12">
      <g>
       <use style="stroke:#000000;stroke-width:0.8;" x="180" xlink:href="#md60d0db27b" y="221.143229"/>
      </g>
     </g>
     <g id="text_4">
      <!-- 60 -->
      <defs>
       <path d="M 33.015625 40.375 
Q 26.375 40.375 22.484375 35.828125 
Q 18.609375 31.296875 18.609375 23.390625 
Q 18.609375 15.53125 22.484375 10.953125 
Q 26.375 6.390625 33.015625 6.390625 
Q 39.65625 6.390625 43.53125 10.953125 
Q 47.40625 15.53125 47.40625 23.390625 
Q 47.40625 31.296875 43.53125 35.828125 
Q 39.65625 40.375 33.015625 40.375 
z
M 52.59375 71.296875 
L 52.59375 62.3125 
Q 48.875 64.0625 45.09375 64.984375 
Q 41.3125 65.921875 37.59375 65.921875 
Q 27.828125 65.921875 22.671875 59.328125 
Q 17.53125 52.734375 16.796875 39.40625 
Q 19.671875 43.65625 24.015625 45.921875 
Q 28.375 48.1875 33.59375 48.1875 
Q 44.578125 48.1875 50.953125 41.515625 
Q 57.328125 34.859375 57.328125 23.390625 
Q 57.328125 12.15625 50.6875 5.359375 
Q 44.046875 -1.421875 33.015625 -1.421875 
Q 20.359375 -1.421875 13.671875 8.265625 
Q 6.984375 17.96875 6.984375 36.375 
Q 6.984375 53.65625 15.1875 63.9375 
Q 23.390625 74.21875 37.203125 74.21875 
Q 40.921875 74.21875 44.703125 73.484375 
Q 48.484375 72.75 52.59375 71.296875 
z
" id="DejaVuSans-54"/>
      </defs>
      <g transform="translate(160.275 224.942448)scale(0.1 -0.1)">
       <use xlink:href="#DejaVuSans-54"/>
       <use x="63.623047" xlink:href="#DejaVuSans-48"/>
      </g>
     </g>
    </g>
    <g id="ytick_5">
     <g id="line2d_13">
      <g>
       <use style="stroke:#000000;stroke-width:0.8;" x="180" xlink:href="#md60d0db27b" y="200.455868"/>
      </g>
     </g>
     <g id="text_5">
      <!-- 80 -->
      <defs>
       <path d="M 31.78125 34.625 
Q 24.75 34.625 20.71875 30.859375 
Q 16.703125 27.09375 16.703125 20.515625 
Q 16.703125 13.921875 20.71875 10.15625 
Q 24.75 6.390625 31.78125 6.390625 
Q 38.8125 6.390625 42.859375 10.171875 
Q 46.921875 13.96875 46.921875 20.515625 
Q 46.921875 27.09375 42.890625 30.859375 
Q 38.875 34.625 31.78125 34.625 
z
M 21.921875 38.8125 
Q 15.578125 40.375 12.03125 44.71875 
Q 8.5 49.078125 8.5 55.328125 
Q 8.5 64.0625 14.71875 69.140625 
Q 20.953125 74.21875 31.78125 74.21875 
Q 42.671875 74.21875 48.875 69.140625 
Q 55.078125 64.0625 55.078125 55.328125 
Q 55.078125 49.078125 51.53125 44.71875 
Q 48 40.375 41.703125 38.8125 
Q 48.828125 37.15625 52.796875 32.3125 
Q 56.78125 27.484375 56.78125 20.515625 
Q 56.78125 9.90625 50.3125 4.234375 
Q 43.84375 -1.421875 31.78125 -1.421875 
Q 19.734375 -1.421875 13.25 4.234375 
Q 6.78125 9.90625 6.78125 20.515625 
Q 6.78125 27.484375 10.78125 32.3125 
Q 14.796875 37.15625 21.921875 38.8125 
z
M 18.3125 54.390625 
Q 18.3125 48.734375 21.84375 45.5625 
Q 25.390625 42.390625 31.78125 42.390625 
Q 38.140625 42.390625 41.71875 45.5625 
Q 45.3125 48.734375 45.3125 54.390625 
Q 45.3125 60.0625 41.71875 63.234375 
Q 38.140625 66.40625 31.78125 66.40625 
Q 25.390625 66.40625 21.84375 63.234375 
Q 18.3125 60.0625 18.3125 54.390625 
z
" id="DejaVuSans-56"/>
      </defs>
      <g transform="translate(160.275 204.255086)scale(0.1 -0.1)">
       <use xlink:href="#DejaVuSans-56"/>
       <use x="63.623047" xlink:href="#DejaVuSans-48"/>
      </g>
     </g>
    </g>
    <g id="ytick_6">
     <g id="line2d_14">
      <g>
       <use style="stroke:#000000;stroke-width:0.8;" x="180" xlink:href="#md60d0db27b" y="179.768506"/>
      </g>
     </g>
     <g id="text_6">
      <!-- 100 -->
      <defs>
       <path d="M 12.40625 8.296875 
L 28.515625 8.296875 
L 28.515625 63.921875 
L 10.984375 60.40625 
L 10.984375 69.390625 
L 28.421875 72.90625 
L 38.28125 72.90625 
L 38.28125 8.296875 
L 54.390625 8.296875 
L 54.390625 0 
L 12.40625 0 
z
" id="DejaVuSans-49"/>
      </defs>
      <g transform="translate(153.9125 183.567725)scale(0.1 -0.1)">
       <use xlink:href="#DejaVuSans-49"/>
       <use x="63.623047" xlink:href="#DejaVuSans-48"/>
       <use x="127.246094" xlink:href="#DejaVuSans-48"/>
      </g>
     </g>
    </g>
    <g id="text_7">
     <!-- Altitude (km) -->
     <defs>
      <path d="M 34.1875 63.1875 
L 20.796875 26.90625 
L 47.609375 26.90625 
z
M 28.609375 72.90625 
L 39.796875 72.90625 
L 67.578125 0 
L 57.328125 0 
L 50.6875 18.703125 
L 17.828125 18.703125 
L 11.1875 0 
L 0.78125 0 
z
" id="DejaVuSans-65"/>
      <path d="M 9.421875 75.984375 
L 18.40625 75.984375 
L 18.40625 0 
L 9.421875 0 
z
" id="DejaVuSans-108"/>
      <path d="M 18.3125 70.21875 
L 18.3125 54.6875 
L 36.8125 54.6875 
L 36.8125 47.703125 
L 18.3125 47.703125 
L 18.3125 18.015625 
Q 18.3125 11.328125 20.140625 9.421875 
Q 21.96875 7.515625 27.59375 7.515625 
L 36.8125 7.515625 
L 36.8125 0 
L 27.59375 0 
Q 17.1875 0 13.234375 3.875 
Q 9.28125 7.765625 9.28125 18.015625 
L 9.28125 47.703125 
L 2.6875 47.703125 
L 2.6875 54.6875 
L 9.28125 54.6875 
L 9.28125 70.21875 
z
" id="DejaVuSans-116"/>
      <path d="M 9.421875 54.6875 
L 18.40625 54.6875 
L 18.40625 0 
L 9.421875 0 
z
M 9.421875 75.984375 
L 18.40625 75.984375 
L 18.40625 64.59375 
L 9.421875 64.59375 
z
" id="DejaVuSans-105"/>
      <path d="M 8.5 21.578125 
L 8.5 54.6875 
L 17.484375 54.6875 
L 17.484375 21.921875 
Q 17.484375 14.15625 20.5 10.265625 
Q 23.53125 6.390625 29.59375 6.390625 
Q 36.859375 6.390625 41.078125 11.03125 
Q 45.3125 15.671875 45.3125 23.6875 
L 45.3125 54.6875 
L 54.296875 54.6875 
L 54.296875 0 
L 45.3125 0 
L 45.3125 8.40625 
Q 42.046875 3.421875 37.71875 1 
Q 33.40625 -1.421875 27.6875 -1.421875 
Q 18.265625 -1.421875 13.375 4.4375 
Q 8.5 10.296875 8.5 21.578125 
z
M 31.109375 56 
z
" id="DejaVuSans-117"/>
      <path d="M 45.40625 46.390625 
L 45.40625 75.984375 
L 54.390625 75.984375 
L 54.390625 0 
L 45.40625 0 
L 45.40625 8.203125 
Q 42.578125 3.328125 38.25 0.953125 
Q 33.9375 -1.421875 27.875 -1.421875 
Q 17.96875 -1.421875 11.734375 6.484375 
Q 5.515625 14.40625 5.515625 27.296875 
Q 5.515625 40.1875 11.734375 48.09375 
Q 17.96875 56 27.875 56 
Q 33.9375 56 38.25 53.625 
Q 42.578125 51.265625 45.40625 46.390625 
z
M 14.796875 27.296875 
Q 14.796875 17.390625 18.875 11.75 
Q 22.953125 6.109375 30.078125 6.109375 
Q 37.203125 6.109375 41.296875 11.75 
Q 45.40625 17.390625 45.40625 27.296875 
Q 45.40625 37.203125 41.296875 42.84375 
Q 37.203125 48.484375 30.078125 48.484375 
Q 22.953125 48.484375 18.875 42.84375 
Q 14.796875 37.203125 14.796875 27.296875 
z
" id="DejaVuSans-100"/>
      <path d="M 56.203125 29.59375 
L 56.203125 25.203125 
L 14.890625 25.203125 
Q 15.484375 15.921875 20.484375 11.0625 
Q 25.484375 6.203125 34.421875 6.203125 
Q 39.59375 6.203125 44.453125 7.46875 
Q 49.3125 8.734375 54.109375 11.28125 
L 54.109375 2.78125 
Q 49.265625 0.734375 44.1875 -0.34375 
Q 39.109375 -1.421875 33.890625 -1.421875 
Q 20.796875 -1.421875 13.15625 6.1875 
Q 5.515625 13.8125 5.515625 26.8125 
Q 5.515625 40.234375 12.765625 48.109375 
Q 20.015625 56 32.328125 56 
Q 43.359375 56 49.78125 48.890625 
Q 56.203125 41.796875 56.203125 29.59375 
z
M 47.21875 32.234375 
Q 47.125 39.59375 43.09375 43.984375 
Q 39.0625 48.390625 32.421875 48.390625 
Q 24.90625 48.390625 20.390625 44.140625 
Q 15.875 39.890625 15.1875 32.171875 
z
" id="DejaVuSans-101"/>
      <path id="DejaVuSans-32"/>
      <path d="M 31 75.875 
Q 24.46875 64.65625 21.28125 53.65625 
Q 18.109375 42.671875 18.109375 31.390625 
Q 18.109375 20.125 21.3125 9.0625 
Q 24.515625 -2 31 -13.1875 
L 23.1875 -13.1875 
Q 15.875 -1.703125 12.234375 9.375 
Q 8.59375 20.453125 8.59375 31.390625 
Q 8.59375 42.28125 12.203125 53.3125 
Q 15.828125 64.359375 23.1875 75.875 
z
" id="DejaVuSans-40"/>
      <path d="M 9.078125 75.984375 
L 18.109375 75.984375 
L 18.109375 31.109375 
L 44.921875 54.6875 
L 56.390625 54.6875 
L 27.390625 29.109375 
L 57.625 0 
L 45.90625 0 
L 18.109375 26.703125 
L 18.109375 0 
L 9.078125 0 
z
" id="DejaVuSans-107"/>
      <path d="M 52 44.1875 
Q 55.375 50.25 60.0625 53.125 
Q 64.75 56 71.09375 56 
Q 79.640625 56 84.28125 50.015625 
Q 88.921875 44.046875 88.921875 33.015625 
L 88.921875 0 
L 79.890625 0 
L 79.890625 32.71875 
Q 79.890625 40.578125 77.09375 44.375 
Q 74.3125 48.1875 68.609375 48.1875 
Q 61.625 48.1875 57.5625 43.546875 
Q 53.515625 38.921875 53.515625 30.90625 
L 53.515625 0 
L 44.484375 0 
L 44.484375 32.71875 
Q 44.484375 40.625 41.703125 44.40625 
Q 38.921875 48.1875 33.109375 48.1875 
Q 26.21875 48.1875 22.15625 43.53125 
Q 18.109375 38.875 18.109375 30.90625 
L 18.109375 0 
L 9.078125 0 
L 9.078125 54.6875 
L 18.109375 54.6875 
L 18.109375 46.1875 
Q 21.1875 51.21875 25.484375 53.609375 
Q 29.78125 56 35.6875 56 
Q 41.65625 56 45.828125 52.96875 
Q 50 49.953125 52 44.1875 
z
" id="DejaVuSans-109"/>
      <path d="M 8.015625 75.875 
L 15.828125 75.875 
Q 23.140625 64.359375 26.78125 53.3125 
Q 30.421875 42.28125 30.421875 31.390625 
Q 30.421875 20.453125 26.78125 9.375 
Q 23.140625 -1.703125 15.828125 -13.1875 
L 8.015625 -13.1875 
Q 14.5 -2 17.703125 9.0625 
Q 20.90625 20.125 20.90625 31.390625 
Q 20.90625 42.671875 17.703125 53.65625 
Q 14.5 64.65625 8.015625 75.875 
z
" id="DejaVuSans-41"/>
     </defs>
     <g transform="translate(147.832812 263.424318)rotate(-90)scale(0.1 -0.1)">
      <use xlink:href="#DejaVuSans-65"/>
      <use x="68.408203" xlink:href="#DejaVuSans-108"/>
      <use x="96.191406" xlink:href="#DejaVuSans-116"/>
      <use x="135.400391" xlink:href="#DejaVuSans-105"/>
      <use x="163.183594" xlink:href="#DejaVuSans-116"/>
      <use x="202.392578" xlink:href="#DejaVuSans-117"/>
      <use x="265.771484" xlink:href="#DejaVuSans-100"/>
      <use x="329.248047" xlink:href="#DejaVuSans-101"/>
      <use x="390.771484" xlink:href="#DejaVuSans-32"/>
      <use x="422.558594" xlink:href="#DejaVuSans-40"/>
      <use x="461.572266" xlink:href="#DejaVuSans-107"/>
      <use x="519.482422" xlink:href="#DejaVuSans-109"/>
      <use x="616.894531" xlink:href="#DejaVuSans-41"/>
     </g>
    </g>
   </g>
   <g id="line2d_15">
    <path clip-path="url(#pee0f0b0d61)" d="M 230.727273 283.202321 
L 249.51787 283.089603 
L 268.014864 282.757702 
L 286.365057 282.206211 
L 304.71525 281.432524 
L 323.359046 280.423324 
L 342.002841 279.192339 
L 360.206232 277.769819 
L 377.822417 276.173394 
L 394.704595 274.42306 
L 410.705963 272.542667 
L 425.67972 270.562257 
L 439.772668 268.475248 
L 452.838005 266.318484 
L 465.169335 264.058552 
L 476.766657 261.707274 
L 491.740414 258.403163 
L 514.494653 253.515306 
L 539.744518 248.321577 
L 566.315597 243.083665 
L 593.620684 237.927343 
L 621.366175 232.914653 
L 649.258468 228.101762 
L 677.297563 223.489901 
L 705.336657 219.103538 
L 733.375751 214.941757 
L 761.414846 211.003941 
L 789.45394 207.289616 
L 817.493035 203.798401 
L 845.532129 200.53 
L 873.571224 197.484175 
L 901.75712 194.646484 
L 929.943016 192.033246 
L 958.128912 189.644275 
L 986.314808 187.479406 
L 1014.500704 185.538491 
L 1042.6866 183.821398 
L 1070.872496 182.328012 
L 1099.058392 181.058235 
L 1127.244288 180.01198 
L 1155.430184 179.189179 
L 1183.61608 178.589777 
L 1211.801976 178.213735 
L 1239.987872 178.061025 
L 1245.272727 178.057255 
L 1245.272727 178.057255 
" style="fill:none;stroke:#000000;stroke-linecap:square;stroke-width:1.5;"/>
   </g>
   <g id="patch_3">
    <path d="M 180 288.459574 
L 180 172.8 
" style="fill:none;stroke:#000000;stroke-linecap:square;stroke-linejoin:miter;stroke-width:0.8;"/>
   </g>
   <g id="patch_4">
    <path d="M 1296 288.459574 
L 1296 172.8 
" style="fill:none;stroke:#000000;stroke-linecap:square;stroke-linejoin:miter;stroke-width:0.8;"/>
   </g>
   <g id="patch_5">
    <path d="M 180 288.459574 
L 1296 288.459574 
" style="fill:none;stroke:#000000;stroke-linecap:square;stroke-linejoin:miter;stroke-width:0.8;"/>
   </g>
   <g id="patch_6">
    <path d="M 180 172.8 
L 1296 172.8 
" style="fill:none;stroke:#000000;stroke-linecap:square;stroke-linejoin:miter;stroke-width:0.8;"/>
   </g>
   <g id="text_8">
    <!-- LV4 Trajectory -->
    <defs>
     <path d="M 9.8125 72.90625 
L 19.671875 72.90625 
L 19.671875 8.296875 
L 55.171875 8.296875 
L 55.171875 0 
L 9.8125 0 
z
" id="DejaVuSans-76"/>
     <path d="M 28.609375 0 
L 0.78125 72.90625 
L 11.078125 72.90625 
L 34.1875 11.53125 
L 57.328125 72.90625 
L 67.578125 72.90625 
L 39.796875 0 
z
" id="DejaVuSans-86"/>
     <path d="M -0.296875 72.90625 
L 61.375 72.90625 
L 61.375 64.59375 
L 35.5 64.59375 
L 35.5 0 
L 25.59375 0 
L 25.59375 64.59375 
L -0.296875 64.59375 
z
" id="DejaVuSans-84"/>
     <path d="M 41.109375 46.296875 
Q 39.59375 47.171875 37.8125 47.578125 
Q 36.03125 48 33.890625 48 
Q 26.265625 48 22.1875 43.046875 
Q 18.109375 38.09375 18.109375 28.8125 
L 18.109375 0 
L 9.078125 0 
L 9.078125 54.6875 
L 18.109375 54.6875 
L 18.109375 46.1875 
Q 20.953125 51.171875 25.484375 53.578125 
Q 30.03125 56 36.53125 56 
Q 37.453125 56 38.578125 55.875 
Q 39.703125 55.765625 41.0625 55.515625 
z
" id="DejaVuSans-114"/>
     <path d="M 34.28125 27.484375 
Q 23.390625 27.484375 19.1875 25 
Q 14.984375 22.515625 14.984375 16.5 
Q 14.984375 11.71875 18.140625 8.90625 
Q 21.296875 6.109375 26.703125 6.109375 
Q 34.1875 6.109375 38.703125 11.40625 
Q 43.21875 16.703125 43.21875 25.484375 
L 43.21875 27.484375 
z
M 52.203125 31.203125 
L 52.203125 0 
L 43.21875 0 
L 43.21875 8.296875 
Q 40.140625 3.328125 35.546875 0.953125 
Q 30.953125 -1.421875 24.3125 -1.421875 
Q 15.921875 -1.421875 10.953125 3.296875 
Q 6 8.015625 6 15.921875 
Q 6 25.140625 12.171875 29.828125 
Q 18.359375 34.515625 30.609375 34.515625 
L 43.21875 34.515625 
L 43.21875 35.40625 
Q 43.21875 41.609375 39.140625 45 
Q 35.0625 48.390625 27.6875 48.390625 
Q 23 48.390625 18.546875 47.265625 
Q 14.109375 46.140625 10.015625 43.890625 
L 10.015625 52.203125 
Q 14.9375 54.109375 19.578125 55.046875 
Q 24.21875 56 28.609375 56 
Q 40.484375 56 46.34375 49.84375 
Q 52.203125 43.703125 52.203125 31.203125 
z
" id="DejaVuSans-97"/>
     <path d="M 9.421875 54.6875 
L 18.40625 54.6875 
L 18.40625 -0.984375 
Q 18.40625 -11.421875 14.421875 -16.109375 
Q 10.453125 -20.796875 1.609375 -20.796875 
L -1.8125 -20.796875 
L -1.8125 -13.1875 
L 0.59375 -13.1875 
Q 5.71875 -13.1875 7.5625 -10.8125 
Q 9.421875 -8.453125 9.421875 -0.984375 
z
M 9.421875 75.984375 
L 18.40625 75.984375 
L 18.40625 64.59375 
L 9.421875 64.59375 
z
" id="DejaVuSans-106"/>
     <path d="M 48.78125 52.59375 
L 48.78125 44.1875 
Q 44.96875 46.296875 41.140625 47.34375 
Q 37.3125 48.390625 33.40625 48.390625 
Q 24.65625 48.390625 19.8125 42.84375 
Q 14.984375 37.3125 14.984375 27.296875 
Q 14.984375 17.28125 19.8125 11.734375 
Q 24.65625 6.203125 33.40625 6.203125 
Q 37.3125 6.203125 41.140625 7.25 
Q 44.96875 8.296875 48.78125 10.40625 
L 48.78125 2.09375 
Q 45.015625 0.34375 40.984375 -0.53125 
Q 36.96875 -1.421875 32.421875 -1.421875 
Q 20.0625 -1.421875 12.78125 6.34375 
Q 5.515625 14.109375 5.515625 27.296875 
Q 5.515625 40.671875 12.859375 48.328125 
Q 20.21875 56 33.015625 56 
Q 37.15625 56 41.109375 55.140625 
Q 45.0625 54.296875 48.78125 52.59375 
z
" id="DejaVuSans-99"/>
     <path d="M 30.609375 48.390625 
Q 23.390625 48.390625 19.1875 42.75 
Q 14.984375 37.109375 14.984375 27.296875 
Q 14.984375 17.484375 19.15625 11.84375 
Q 23.34375 6.203125 30.609375 6.203125 
Q 37.796875 6.203125 41.984375 11.859375 
Q 46.1875 17.53125 46.1875 27.296875 
Q 46.1875 37.015625 41.984375 42.703125 
Q 37.796875 48.390625 30.609375 48.390625 
z
M 30.609375 56 
Q 42.328125 56 49.015625 48.375 
Q 55.71875 40.765625 55.71875 27.296875 
Q 55.71875 13.875 49.015625 6.21875 
Q 42.328125 -1.421875 30.609375 -1.421875 
Q 18.84375 -1.421875 12.171875 6.21875 
Q 5.515625 13.875 5.515625 27.296875 
Q 5.515625 40.765625 12.171875 48.375 
Q 18.84375 56 30.609375 56 
z
" id="DejaVuSans-111"/>
     <path d="M 32.171875 -5.078125 
Q 28.375 -14.84375 24.75 -17.8125 
Q 21.140625 -20.796875 15.09375 -20.796875 
L 7.90625 -20.796875 
L 7.90625 -13.28125 
L 13.1875 -13.28125 
Q 16.890625 -13.28125 18.9375 -11.515625 
Q 21 -9.765625 23.484375 -3.21875 
L 25.09375 0.875 
L 2.984375 54.6875 
L 12.5 54.6875 
L 29.59375 11.921875 
L 46.6875 54.6875 
L 56.203125 54.6875 
z
" id="DejaVuSans-121"/>
    </defs>
    <g transform="translate(694.344375 166.8)scale(0.12 -0.12)">
     <use xlink:href="#DejaVuSans-76"/>
     <use x="55.541016" xlink:href="#DejaVuSans-86"/>
     <use x="123.949219" xlink:href="#DejaVuSans-52"/>
     <use x="187.572266" xlink:href="#DejaVuSans-32"/>
     <use x="219.359375" xlink:href="#DejaVuSans-84"/>
     <use x="280.224609" xlink:href="#DejaVuSans-114"/>
     <use x="321.337891" xlink:href="#DejaVuSans-97"/>
     <use x="382.617188" xlink:href="#DejaVuSans-106"/>
     <use x="410.400391" xlink:href="#DejaVuSans-101"/>
     <use x="471.923828" xlink:href="#DejaVuSans-99"/>
     <use x="526.904297" xlink:href="#DejaVuSans-116"/>
     <use x="566.113281" xlink:href="#DejaVuSans-111"/>
     <use x="627.294922" xlink:href="#DejaVuSans-114"/>
     <use x="668.408203" xlink:href="#DejaVuSans-121"/>
    </g>
   </g>
  </g>
  <g id="axes_2">
   <g id="patch_7">
    <path d="M 180 427.251064 
L 1296 427.251064 
L 1296 311.591489 
L 180 311.591489 
z
" style="fill:#ffffff;"/>
   </g>
   <g id="matplotlib.axis_3">
    <g id="xtick_9">
     <g id="line2d_16">
      <g>
       <use style="stroke:#000000;stroke-width:0.8;" x="230.580471" xlink:href="#ma96d7df57c" y="427.251064"/>
      </g>
     </g>
    </g>
    <g id="xtick_10">
     <g id="line2d_17">
      <g>
       <use style="stroke:#000000;stroke-width:0.8;" x="377.382013" xlink:href="#ma96d7df57c" y="427.251064"/>
      </g>
     </g>
    </g>
    <g id="xtick_11">
     <g id="line2d_18">
      <g>
       <use style="stroke:#000000;stroke-width:0.8;" x="524.183555" xlink:href="#ma96d7df57c" y="427.251064"/>
      </g>
     </g>
    </g>
    <g id="xtick_12">
     <g id="line2d_19">
      <g>
       <use style="stroke:#000000;stroke-width:0.8;" x="670.985096" xlink:href="#ma96d7df57c" y="427.251064"/>
      </g>
     </g>
    </g>
    <g id="xtick_13">
     <g id="line2d_20">
      <g>
       <use style="stroke:#000000;stroke-width:0.8;" x="817.786638" xlink:href="#ma96d7df57c" y="427.251064"/>
      </g>
     </g>
    </g>
    <g id="xtick_14">
     <g id="line2d_21">
      <g>
       <use style="stroke:#000000;stroke-width:0.8;" x="964.58818" xlink:href="#ma96d7df57c" y="427.251064"/>
      </g>
     </g>
    </g>
    <g id="xtick_15">
     <g id="line2d_22">
      <g>
       <use style="stroke:#000000;stroke-width:0.8;" x="1111.389721" xlink:href="#ma96d7df57c" y="427.251064"/>
      </g>
     </g>
    </g>
    <g id="xtick_16">
     <g id="line2d_23">
      <g>
       <use style="stroke:#000000;stroke-width:0.8;" x="1258.191263" xlink:href="#ma96d7df57c" y="427.251064"/>
      </g>
     </g>
    </g>
   </g>
   <g id="matplotlib.axis_4">
    <g id="ytick_7">
     <g id="line2d_24">
      <g>
       <use style="stroke:#000000;stroke-width:0.8;" x="180" xlink:href="#md60d0db27b" y="421.980084"/>
      </g>
     </g>
     <g id="text_9">
      <!-- 0 -->
      <g transform="translate(166.6375 425.779303)scale(0.1 -0.1)">
       <use xlink:href="#DejaVuSans-48"/>
      </g>
     </g>
    </g>
    <g id="ytick_8">
     <g id="line2d_25">
      <g>
       <use style="stroke:#000000;stroke-width:0.8;" x="180" xlink:href="#md60d0db27b" y="405.473077"/>
      </g>
     </g>
     <g id="text_10">
      <!-- 200 -->
      <g transform="translate(153.9125 409.272296)scale(0.1 -0.1)">
       <use xlink:href="#DejaVuSans-50"/>
       <use x="63.623047" xlink:href="#DejaVuSans-48"/>
       <use x="127.246094" xlink:href="#DejaVuSans-48"/>
      </g>
     </g>
    </g>
    <g id="ytick_9">
     <g id="line2d_26">
      <g>
       <use style="stroke:#000000;stroke-width:0.8;" x="180" xlink:href="#md60d0db27b" y="388.96607"/>
      </g>
     </g>
     <g id="text_11">
      <!-- 400 -->
      <g transform="translate(153.9125 392.765289)scale(0.1 -0.1)">
       <use xlink:href="#DejaVuSans-52"/>
       <use x="63.623047" xlink:href="#DejaVuSans-48"/>
       <use x="127.246094" xlink:href="#DejaVuSans-48"/>
      </g>
     </g>
    </g>
    <g id="ytick_10">
     <g id="line2d_27">
      <g>
       <use style="stroke:#000000;stroke-width:0.8;" x="180" xlink:href="#md60d0db27b" y="372.459063"/>
      </g>
     </g>
     <g id="text_12">
      <!-- 600 -->
      <g transform="translate(153.9125 376.258282)scale(0.1 -0.1)">
       <use xlink:href="#DejaVuSans-54"/>
       <use x="63.623047" xlink:href="#DejaVuSans-48"/>
       <use x="127.246094" xlink:href="#DejaVuSans-48"/>
      </g>
     </g>
    </g>
    <g id="ytick_11">
     <g id="line2d_28">
      <g>
       <use style="stroke:#000000;stroke-width:0.8;" x="180" xlink:href="#md60d0db27b" y="355.952056"/>
      </g>
     </g>
     <g id="text_13">
      <!-- 800 -->
      <g transform="translate(153.9125 359.751275)scale(0.1 -0.1)">
       <use xlink:href="#DejaVuSans-56"/>
       <use x="63.623047" xlink:href="#DejaVuSans-48"/>
       <use x="127.246094" xlink:href="#DejaVuSans-48"/>
      </g>
     </g>
    </g>
    <g id="ytick_12">
     <g id="line2d_29">
      <g>
       <use style="stroke:#000000;stroke-width:0.8;" x="180" xlink:href="#md60d0db27b" y="339.445049"/>
      </g>
     </g>
     <g id="text_14">
      <!-- 1000 -->
      <g transform="translate(147.55 343.244268)scale(0.1 -0.1)">
       <use xlink:href="#DejaVuSans-49"/>
       <use x="63.623047" xlink:href="#DejaVuSans-48"/>
       <use x="127.246094" xlink:href="#DejaVuSans-48"/>
       <use x="190.869141" xlink:href="#DejaVuSans-48"/>
      </g>
     </g>
    </g>
    <g id="ytick_13">
     <g id="line2d_30">
      <g>
       <use style="stroke:#000000;stroke-width:0.8;" x="180" xlink:href="#md60d0db27b" y="322.938042"/>
      </g>
     </g>
     <g id="text_15">
      <!-- 1200 -->
      <g transform="translate(147.55 326.737261)scale(0.1 -0.1)">
       <use xlink:href="#DejaVuSans-49"/>
       <use x="63.623047" xlink:href="#DejaVuSans-50"/>
       <use x="127.246094" xlink:href="#DejaVuSans-48"/>
       <use x="190.869141" xlink:href="#DejaVuSans-48"/>
      </g>
     </g>
    </g>
    <g id="text_16">
     <!-- Velocity (m/s) -->
     <defs>
      <path d="M 25.390625 72.90625 
L 33.6875 72.90625 
L 8.296875 -9.28125 
L 0 -9.28125 
z
" id="DejaVuSans-47"/>
      <path d="M 44.28125 53.078125 
L 44.28125 44.578125 
Q 40.484375 46.53125 36.375 47.5 
Q 32.28125 48.484375 27.875 48.484375 
Q 21.1875 48.484375 17.84375 46.4375 
Q 14.5 44.390625 14.5 40.28125 
Q 14.5 37.15625 16.890625 35.375 
Q 19.28125 33.59375 26.515625 31.984375 
L 29.59375 31.296875 
Q 39.15625 29.25 43.1875 25.515625 
Q 47.21875 21.78125 47.21875 15.09375 
Q 47.21875 7.46875 41.1875 3.015625 
Q 35.15625 -1.421875 24.609375 -1.421875 
Q 20.21875 -1.421875 15.453125 -0.5625 
Q 10.6875 0.296875 5.421875 2 
L 5.421875 11.28125 
Q 10.40625 8.6875 15.234375 7.390625 
Q 20.0625 6.109375 24.8125 6.109375 
Q 31.15625 6.109375 34.5625 8.28125 
Q 37.984375 10.453125 37.984375 14.40625 
Q 37.984375 18.0625 35.515625 20.015625 
Q 33.0625 21.96875 24.703125 23.78125 
L 21.578125 24.515625 
Q 13.234375 26.265625 9.515625 29.90625 
Q 5.8125 33.546875 5.8125 39.890625 
Q 5.8125 47.609375 11.28125 51.796875 
Q 16.75 56 26.8125 56 
Q 31.78125 56 36.171875 55.265625 
Q 40.578125 54.546875 44.28125 53.078125 
z
" id="DejaVuSans-115"/>
     </defs>
     <g transform="translate(141.470313 404.068933)rotate(-90)scale(0.1 -0.1)">
      <use xlink:href="#DejaVuSans-86"/>
      <use x="68.298828" xlink:href="#DejaVuSans-101"/>
      <use x="129.822266" xlink:href="#DejaVuSans-108"/>
      <use x="157.605469" xlink:href="#DejaVuSans-111"/>
      <use x="218.787109" xlink:href="#DejaVuSans-99"/>
      <use x="273.767578" xlink:href="#DejaVuSans-105"/>
      <use x="301.550781" xlink:href="#DejaVuSans-116"/>
      <use x="340.759766" xlink:href="#DejaVuSans-121"/>
      <use x="399.939453" xlink:href="#DejaVuSans-32"/>
      <use x="431.726562" xlink:href="#DejaVuSans-40"/>
      <use x="470.740234" xlink:href="#DejaVuSans-109"/>
      <use x="568.152344" xlink:href="#DejaVuSans-47"/>
      <use x="601.84375" xlink:href="#DejaVuSans-115"/>
      <use x="653.943359" xlink:href="#DejaVuSans-41"/>
     </g>
    </g>
   </g>
   <g id="line2d_31">
    <path clip-path="url(#p804e80408e)" d="M 230.727273 421.937585 
L 250.545481 416.081858 
L 267.868063 410.778466 
L 326.882283 392.792882 
L 347.5813 386.484207 
L 362.555057 381.694028 
L 374.886387 377.52363 
L 385.749701 373.620175 
L 395.438602 369.9088 
L 404.393497 366.243349 
L 412.614383 362.642182 
L 420.394865 358.991676 
L 427.734942 355.300819 
L 434.634614 351.58504 
L 441.240683 347.778642 
L 447.699951 343.798815 
L 453.865616 339.742593 
L 460.031281 335.417432 
L 466.050144 330.919742 
L 471.922206 326.254453 
L 477.647466 321.427458 
L 482.932321 316.886513 
L 490.566001 318.731897 
L 499.374094 320.627584 
L 509.943805 322.667356 
L 522.862341 324.923752 
L 539.157312 327.533884 
L 561.030742 330.799051 
L 592.886676 335.312036 
L 645.001223 342.446306 
L 737.779798 354.895022 
L 913.794846 378.267139 
L 1204.168296 416.579787 
L 1245.272727 421.99381 
L 1245.272727 421.99381 
" style="fill:none;stroke:#000000;stroke-linecap:square;stroke-width:1.5;"/>
   </g>
   <g id="patch_8">
    <path d="M 180 427.251064 
L 180 311.591489 
" style="fill:none;stroke:#000000;stroke-linecap:square;stroke-linejoin:miter;stroke-width:0.8;"/>
   </g>
   <g id="patch_9">
    <path d="M 1296 427.251064 
L 1296 311.591489 
" style="fill:none;stroke:#000000;stroke-linecap:square;stroke-linejoin:miter;stroke-width:0.8;"/>
   </g>
   <g id="patch_10">
    <path d="M 180 427.251064 
L 1296 427.251064 
" style="fill:none;stroke:#000000;stroke-linecap:square;stroke-linejoin:miter;stroke-width:0.8;"/>
   </g>
   <g id="patch_11">
    <path d="M 180 311.591489 
L 1296 311.591489 
" style="fill:none;stroke:#000000;stroke-linecap:square;stroke-linejoin:miter;stroke-width:0.8;"/>
   </g>
  </g>
  <g id="axes_3">
   <g id="patch_12">
    <path d="M 180 566.042553 
L 1296 566.042553 
L 1296 450.382979 
L 180 450.382979 
z
" style="fill:#ffffff;"/>
   </g>
   <g id="matplotlib.axis_5">
    <g id="xtick_17">
     <g id="line2d_32">
      <g>
       <use style="stroke:#000000;stroke-width:0.8;" x="230.580471" xlink:href="#ma96d7df57c" y="566.042553"/>
      </g>
     </g>
    </g>
    <g id="xtick_18">
     <g id="line2d_33">
      <g>
       <use style="stroke:#000000;stroke-width:0.8;" x="377.382013" xlink:href="#ma96d7df57c" y="566.042553"/>
      </g>
     </g>
    </g>
    <g id="xtick_19">
     <g id="line2d_34">
      <g>
       <use style="stroke:#000000;stroke-width:0.8;" x="524.183555" xlink:href="#ma96d7df57c" y="566.042553"/>
      </g>
     </g>
    </g>
    <g id="xtick_20">
     <g id="line2d_35">
      <g>
       <use style="stroke:#000000;stroke-width:0.8;" x="670.985096" xlink:href="#ma96d7df57c" y="566.042553"/>
      </g>
     </g>
    </g>
    <g id="xtick_21">
     <g id="line2d_36">
      <g>
       <use style="stroke:#000000;stroke-width:0.8;" x="817.786638" xlink:href="#ma96d7df57c" y="566.042553"/>
      </g>
     </g>
    </g>
    <g id="xtick_22">
     <g id="line2d_37">
      <g>
       <use style="stroke:#000000;stroke-width:0.8;" x="964.58818" xlink:href="#ma96d7df57c" y="566.042553"/>
      </g>
     </g>
    </g>
    <g id="xtick_23">
     <g id="line2d_38">
      <g>
       <use style="stroke:#000000;stroke-width:0.8;" x="1111.389721" xlink:href="#ma96d7df57c" y="566.042553"/>
      </g>
     </g>
    </g>
    <g id="xtick_24">
     <g id="line2d_39">
      <g>
       <use style="stroke:#000000;stroke-width:0.8;" x="1258.191263" xlink:href="#ma96d7df57c" y="566.042553"/>
      </g>
     </g>
    </g>
   </g>
   <g id="matplotlib.axis_6">
    <g id="ytick_14">
     <g id="line2d_40">
      <g>
       <use style="stroke:#000000;stroke-width:0.8;" x="180" xlink:href="#md60d0db27b" y="562.346198"/>
      </g>
     </g>
     <g id="text_17">
      <!-- −2 -->
      <defs>
       <path d="M 10.59375 35.5 
L 73.1875 35.5 
L 73.1875 27.203125 
L 10.59375 27.203125 
z
" id="DejaVuSans-8722"/>
      </defs>
      <g transform="translate(158.257812 566.145417)scale(0.1 -0.1)">
       <use xlink:href="#DejaVuSans-8722"/>
       <use x="83.789062" xlink:href="#DejaVuSans-50"/>
      </g>
     </g>
    </g>
    <g id="ytick_15">
     <g id="line2d_41">
      <g>
       <use style="stroke:#000000;stroke-width:0.8;" x="180" xlink:href="#md60d0db27b" y="549.972602"/>
      </g>
     </g>
     <g id="text_18">
      <!-- −1 -->
      <g transform="translate(158.257812 553.771821)scale(0.1 -0.1)">
       <use xlink:href="#DejaVuSans-8722"/>
       <use x="83.789062" xlink:href="#DejaVuSans-49"/>
      </g>
     </g>
    </g>
    <g id="ytick_16">
     <g id="line2d_42">
      <g>
       <use style="stroke:#000000;stroke-width:0.8;" x="180" xlink:href="#md60d0db27b" y="537.599006"/>
      </g>
     </g>
     <g id="text_19">
      <!-- 0 -->
      <g transform="translate(166.6375 541.398225)scale(0.1 -0.1)">
       <use xlink:href="#DejaVuSans-48"/>
      </g>
     </g>
    </g>
    <g id="ytick_17">
     <g id="line2d_43">
      <g>
       <use style="stroke:#000000;stroke-width:0.8;" x="180" xlink:href="#md60d0db27b" y="525.225411"/>
      </g>
     </g>
     <g id="text_20">
      <!-- 1 -->
      <g transform="translate(166.6375 529.02463)scale(0.1 -0.1)">
       <use xlink:href="#DejaVuSans-49"/>
      </g>
     </g>
    </g>
    <g id="ytick_18">
     <g id="line2d_44">
      <g>
       <use style="stroke:#000000;stroke-width:0.8;" x="180" xlink:href="#md60d0db27b" y="512.851815"/>
      </g>
     </g>
     <g id="text_21">
      <!-- 2 -->
      <g transform="translate(166.6375 516.651034)scale(0.1 -0.1)">
       <use xlink:href="#DejaVuSans-50"/>
      </g>
     </g>
    </g>
    <g id="ytick_19">
     <g id="line2d_45">
      <g>
       <use style="stroke:#000000;stroke-width:0.8;" x="180" xlink:href="#md60d0db27b" y="500.478219"/>
      </g>
     </g>
     <g id="text_22">
      <!-- 3 -->
      <defs>
       <path d="M 40.578125 39.3125 
Q 47.65625 37.796875 51.625 33 
Q 55.609375 28.21875 55.609375 21.1875 
Q 55.609375 10.40625 48.1875 4.484375 
Q 40.765625 -1.421875 27.09375 -1.421875 
Q 22.515625 -1.421875 17.65625 -0.515625 
Q 12.796875 0.390625 7.625 2.203125 
L 7.625 11.71875 
Q 11.71875 9.328125 16.59375 8.109375 
Q 21.484375 6.890625 26.8125 6.890625 
Q 36.078125 6.890625 40.9375 10.546875 
Q 45.796875 14.203125 45.796875 21.1875 
Q 45.796875 27.640625 41.28125 31.265625 
Q 36.765625 34.90625 28.71875 34.90625 
L 20.21875 34.90625 
L 20.21875 43.015625 
L 29.109375 43.015625 
Q 36.375 43.015625 40.234375 45.921875 
Q 44.09375 48.828125 44.09375 54.296875 
Q 44.09375 59.90625 40.109375 62.90625 
Q 36.140625 65.921875 28.71875 65.921875 
Q 24.65625 65.921875 20.015625 65.03125 
Q 15.375 64.15625 9.8125 62.3125 
L 9.8125 71.09375 
Q 15.4375 72.65625 20.34375 73.4375 
Q 25.25 74.21875 29.59375 74.21875 
Q 40.828125 74.21875 47.359375 69.109375 
Q 53.90625 64.015625 53.90625 55.328125 
Q 53.90625 49.265625 50.4375 45.09375 
Q 46.96875 40.921875 40.578125 39.3125 
z
" id="DejaVuSans-51"/>
      </defs>
      <g transform="translate(166.6375 504.277438)scale(0.1 -0.1)">
       <use xlink:href="#DejaVuSans-51"/>
      </g>
     </g>
    </g>
    <g id="ytick_20">
     <g id="line2d_46">
      <g>
       <use style="stroke:#000000;stroke-width:0.8;" x="180" xlink:href="#md60d0db27b" y="488.104624"/>
      </g>
     </g>
     <g id="text_23">
      <!-- 4 -->
      <g transform="translate(166.6375 491.903842)scale(0.1 -0.1)">
       <use xlink:href="#DejaVuSans-52"/>
      </g>
     </g>
    </g>
    <g id="ytick_21">
     <g id="line2d_47">
      <g>
       <use style="stroke:#000000;stroke-width:0.8;" x="180" xlink:href="#md60d0db27b" y="475.731028"/>
      </g>
     </g>
     <g id="text_24">
      <!-- 5 -->
      <defs>
       <path d="M 10.796875 72.90625 
L 49.515625 72.90625 
L 49.515625 64.59375 
L 19.828125 64.59375 
L 19.828125 46.734375 
Q 21.96875 47.46875 24.109375 47.828125 
Q 26.265625 48.1875 28.421875 48.1875 
Q 40.625 48.1875 47.75 41.5 
Q 54.890625 34.8125 54.890625 23.390625 
Q 54.890625 11.625 47.5625 5.09375 
Q 40.234375 -1.421875 26.90625 -1.421875 
Q 22.3125 -1.421875 17.546875 -0.640625 
Q 12.796875 0.140625 7.71875 1.703125 
L 7.71875 11.625 
Q 12.109375 9.234375 16.796875 8.0625 
Q 21.484375 6.890625 26.703125 6.890625 
Q 35.15625 6.890625 40.078125 11.328125 
Q 45.015625 15.765625 45.015625 23.390625 
Q 45.015625 31 40.078125 35.4375 
Q 35.15625 39.890625 26.703125 39.890625 
Q 22.75 39.890625 18.8125 39.015625 
Q 14.890625 38.140625 10.796875 36.28125 
z
" id="DejaVuSans-53"/>
      </defs>
      <g transform="translate(166.6375 479.530247)scale(0.1 -0.1)">
       <use xlink:href="#DejaVuSans-53"/>
      </g>
     </g>
    </g>
    <g id="ytick_22">
     <g id="line2d_48">
      <g>
       <use style="stroke:#000000;stroke-width:0.8;" x="180" xlink:href="#md60d0db27b" y="463.357432"/>
      </g>
     </g>
     <g id="text_25">
      <!-- 6 -->
      <g transform="translate(166.6375 467.156651)scale(0.1 -0.1)">
       <use xlink:href="#DejaVuSans-54"/>
      </g>
     </g>
    </g>
    <g id="ytick_23">
     <g id="line2d_49">
      <g>
       <use style="stroke:#000000;stroke-width:0.8;" x="180" xlink:href="#md60d0db27b" y="450.983837"/>
      </g>
     </g>
     <g id="text_26">
      <!-- 7 -->
      <defs>
       <path d="M 8.203125 72.90625 
L 55.078125 72.90625 
L 55.078125 68.703125 
L 28.609375 0 
L 18.3125 0 
L 43.21875 64.59375 
L 8.203125 64.59375 
z
" id="DejaVuSans-55"/>
      </defs>
      <g transform="translate(166.6375 454.783055)scale(0.1 -0.1)">
       <use xlink:href="#DejaVuSans-55"/>
      </g>
     </g>
    </g>
    <g id="text_27">
     <!-- Acceleration/g_n -->
     <defs>
      <path d="M 54.890625 33.015625 
L 54.890625 0 
L 45.90625 0 
L 45.90625 32.71875 
Q 45.90625 40.484375 42.875 44.328125 
Q 39.84375 48.1875 33.796875 48.1875 
Q 26.515625 48.1875 22.3125 43.546875 
Q 18.109375 38.921875 18.109375 30.90625 
L 18.109375 0 
L 9.078125 0 
L 9.078125 54.6875 
L 18.109375 54.6875 
L 18.109375 46.1875 
Q 21.34375 51.125 25.703125 53.5625 
Q 30.078125 56 35.796875 56 
Q 45.21875 56 50.046875 50.171875 
Q 54.890625 44.34375 54.890625 33.015625 
z
" id="DejaVuSans-110"/>
      <path d="M 45.40625 27.984375 
Q 45.40625 37.75 41.375 43.109375 
Q 37.359375 48.484375 30.078125 48.484375 
Q 22.859375 48.484375 18.828125 43.109375 
Q 14.796875 37.75 14.796875 27.984375 
Q 14.796875 18.265625 18.828125 12.890625 
Q 22.859375 7.515625 30.078125 7.515625 
Q 37.359375 7.515625 41.375 12.890625 
Q 45.40625 18.265625 45.40625 27.984375 
z
M 54.390625 6.78125 
Q 54.390625 -7.171875 48.1875 -13.984375 
Q 42 -20.796875 29.203125 -20.796875 
Q 24.46875 -20.796875 20.265625 -20.09375 
Q 16.0625 -19.390625 12.109375 -17.921875 
L 12.109375 -9.1875 
Q 16.0625 -11.328125 19.921875 -12.34375 
Q 23.78125 -13.375 27.78125 -13.375 
Q 36.625 -13.375 41.015625 -8.765625 
Q 45.40625 -4.15625 45.40625 5.171875 
L 45.40625 9.625 
Q 42.625 4.78125 38.28125 2.390625 
Q 33.9375 0 27.875 0 
Q 17.828125 0 11.671875 7.65625 
Q 5.515625 15.328125 5.515625 27.984375 
Q 5.515625 40.671875 11.671875 48.328125 
Q 17.828125 56 27.875 56 
Q 33.9375 56 38.28125 53.609375 
Q 42.625 51.21875 45.40625 46.390625 
L 45.40625 54.6875 
L 54.390625 54.6875 
z
" id="DejaVuSans-103"/>
      <path d="M 50.984375 -16.609375 
L 50.984375 -23.578125 
L -0.984375 -23.578125 
L -0.984375 -16.609375 
z
" id="DejaVuSans-95"/>
     </defs>
     <g transform="translate(151.9 549.897141)rotate(-90)scale(0.1 -0.1)">
      <use xlink:href="#DejaVuSans-65"/>
      <use x="68.392578" xlink:href="#DejaVuSans-99"/>
      <use x="123.373047" xlink:href="#DejaVuSans-99"/>
      <use x="178.353516" xlink:href="#DejaVuSans-101"/>
      <use x="239.876953" xlink:href="#DejaVuSans-108"/>
      <use x="267.660156" xlink:href="#DejaVuSans-101"/>
      <use x="329.183594" xlink:href="#DejaVuSans-114"/>
      <use x="370.296875" xlink:href="#DejaVuSans-97"/>
      <use x="431.576172" xlink:href="#DejaVuSans-116"/>
      <use x="470.785156" xlink:href="#DejaVuSans-105"/>
      <use x="498.568359" xlink:href="#DejaVuSans-111"/>
      <use x="559.75" xlink:href="#DejaVuSans-110"/>
      <use x="623.128906" xlink:href="#DejaVuSans-47"/>
      <use x="656.820312" xlink:href="#DejaVuSans-103"/>
      <use x="720.296875" xlink:href="#DejaVuSans-95"/>
      <use x="770.296875" xlink:href="#DejaVuSans-110"/>
     </g>
    </g>
   </g>
   <g id="line2d_50">
    <path clip-path="url(#p1567059d94)" d="M 230.727273 511.610975 
L 240.562976 510.786466 
L 243.205404 510.917989 
L 247.315847 511.172759 
L 249.077465 511.023611 
L 251.279489 510.579646 
L 254.068718 510.049747 
L 255.830336 509.945893 
L 257.445153 510.068242 
L 260.96839 510.470825 
L 262.289604 510.247203 
L 264.932032 509.682163 
L 266.106444 509.693323 
L 267.57446 509.965432 
L 269.042475 510.203661 
L 270.070086 510.118859 
L 273.29972 509.557367 
L 274.474132 509.780325 
L 275.942148 510.06342 
L 276.822957 509.992713 
L 279.465385 509.527177 
L 280.492995 509.729293 
L 281.814209 510.004601 
L 282.695018 509.933231 
L 284.897042 509.561714 
L 285.924652 509.773749 
L 287.099065 510.008951 
L 287.979874 509.920903 
L 289.594691 509.634167 
L 290.4755 509.764987 
L 291.943516 510.059914 
L 292.824325 509.949039 
L 294.145539 509.754994 
L 295.026348 509.902402 
L 296.347562 510.147058 
L 297.228371 510.034105 
L 298.402783 509.910049 
L 299.430394 510.116885 
L 300.458005 510.267899 
L 301.632417 510.112906 
L 302.513227 510.111294 
L 304.71525 510.389248 
L 306.036464 510.299126 
L 308.678891 510.537713 
L 309.706502 510.542225 
L 311.614922 510.782574 
L 312.936136 510.754224 
L 315.138159 510.981156 
L 316.606175 511.00209 
L 317.780587 511.036416 
L 319.542205 510.943675 
L 320.863419 510.965944 
L 322.478236 510.889685 
L 323.79945 510.893676 
L 325.267466 510.806916 
L 326.735481 510.775881 
L 328.203496 510.71218 
L 329.52471 510.660354 
L 330.992726 510.601804 
L 332.460741 510.515436 
L 335.543573 510.355047 
L 342.296444 509.981926 
L 363.876271 507.930727 
L 373.858776 506.503288 
L 380.90525 505.278878 
L 388.53893 503.723924 
L 395.438602 502.093309 
L 402.044672 500.309987 
L 408.357138 498.384292 
L 414.669604 496.223566 
L 420.688468 493.927932 
L 426.560529 491.454552 
L 432.432591 488.738096 
L 438.304653 485.770137 
L 444.176714 482.551881 
L 450.342379 478.915211 
L 456.654845 474.93041 
L 463.114113 470.58795 
L 469.573381 465.979876 
L 475.885847 461.203868 
L 481.904711 456.371857 
L 482.78552 455.640232 
L 482.932321 560.7853 
L 486.895963 559.330373 
L 491.153208 558.00847 
L 495.850857 556.780482 
L 500.988911 555.668315 
L 506.860973 554.628598 
L 513.467042 553.695086 
L 520.953921 552.867376 
L 529.762013 552.129997 
L 539.89132 551.510856 
L 552.516252 550.974426 
L 568.077216 550.548935 
L 589.069836 550.208179 
L 619.89816 549.950435 
L 674.948738 549.746699 
L 783.581879 549.618501 
L 1101.994423 549.510504 
L 1245.272727 549.500114 
L 1245.272727 549.500114 
" style="fill:none;stroke:#000000;stroke-linecap:square;stroke-width:1.5;"/>
   </g>
   <g id="patch_13">
    <path d="M 180 566.042553 
L 180 450.382979 
" style="fill:none;stroke:#000000;stroke-linecap:square;stroke-linejoin:miter;stroke-width:0.8;"/>
   </g>
   <g id="patch_14">
    <path d="M 1296 566.042553 
L 1296 450.382979 
" style="fill:none;stroke:#000000;stroke-linecap:square;stroke-linejoin:miter;stroke-width:0.8;"/>
   </g>
   <g id="patch_15">
    <path d="M 180 566.042553 
L 1296 566.042553 
" style="fill:none;stroke:#000000;stroke-linecap:square;stroke-linejoin:miter;stroke-width:0.8;"/>
   </g>
   <g id="patch_16">
    <path d="M 180 450.382979 
L 1296 450.382979 
" style="fill:none;stroke:#000000;stroke-linecap:square;stroke-linejoin:miter;stroke-width:0.8;"/>
   </g>
  </g>
  <g id="axes_4">
   <g id="patch_17">
    <path d="M 180 704.834043 
L 1296 704.834043 
L 1296 589.174468 
L 180 589.174468 
z
" style="fill:#ffffff;"/>
   </g>
   <g id="matplotlib.axis_7">
    <g id="xtick_25">
     <g id="line2d_51">
      <g>
       <use style="stroke:#000000;stroke-width:0.8;" x="230.580471" xlink:href="#ma96d7df57c" y="704.834043"/>
      </g>
     </g>
    </g>
    <g id="xtick_26">
     <g id="line2d_52">
      <g>
       <use style="stroke:#000000;stroke-width:0.8;" x="377.382013" xlink:href="#ma96d7df57c" y="704.834043"/>
      </g>
     </g>
    </g>
    <g id="xtick_27">
     <g id="line2d_53">
      <g>
       <use style="stroke:#000000;stroke-width:0.8;" x="524.183555" xlink:href="#ma96d7df57c" y="704.834043"/>
      </g>
     </g>
    </g>
    <g id="xtick_28">
     <g id="line2d_54">
      <g>
       <use style="stroke:#000000;stroke-width:0.8;" x="670.985096" xlink:href="#ma96d7df57c" y="704.834043"/>
      </g>
     </g>
    </g>
    <g id="xtick_29">
     <g id="line2d_55">
      <g>
       <use style="stroke:#000000;stroke-width:0.8;" x="817.786638" xlink:href="#ma96d7df57c" y="704.834043"/>
      </g>
     </g>
    </g>
    <g id="xtick_30">
     <g id="line2d_56">
      <g>
       <use style="stroke:#000000;stroke-width:0.8;" x="964.58818" xlink:href="#ma96d7df57c" y="704.834043"/>
      </g>
     </g>
    </g>
    <g id="xtick_31">
     <g id="line2d_57">
      <g>
       <use style="stroke:#000000;stroke-width:0.8;" x="1111.389721" xlink:href="#ma96d7df57c" y="704.834043"/>
      </g>
     </g>
    </g>
    <g id="xtick_32">
     <g id="line2d_58">
      <g>
       <use style="stroke:#000000;stroke-width:0.8;" x="1258.191263" xlink:href="#ma96d7df57c" y="704.834043"/>
      </g>
     </g>
    </g>
   </g>
   <g id="matplotlib.axis_8">
    <g id="ytick_24">
     <g id="line2d_59">
      <g>
       <use style="stroke:#000000;stroke-width:0.8;" x="180" xlink:href="#md60d0db27b" y="699.576789"/>
      </g>
     </g>
     <g id="text_28">
      <!-- 0 -->
      <g transform="translate(166.6375 703.376008)scale(0.1 -0.1)">
       <use xlink:href="#DejaVuSans-48"/>
      </g>
     </g>
    </g>
    <g id="ytick_25">
     <g id="line2d_60">
      <g>
       <use style="stroke:#000000;stroke-width:0.8;" x="180" xlink:href="#md60d0db27b" y="681.451308"/>
      </g>
     </g>
     <g id="text_29">
      <!-- 2 -->
      <g transform="translate(166.6375 685.250527)scale(0.1 -0.1)">
       <use xlink:href="#DejaVuSans-50"/>
      </g>
     </g>
    </g>
    <g id="ytick_26">
     <g id="line2d_61">
      <g>
       <use style="stroke:#000000;stroke-width:0.8;" x="180" xlink:href="#md60d0db27b" y="663.325827"/>
      </g>
     </g>
     <g id="text_30">
      <!-- 4 -->
      <g transform="translate(166.6375 667.125046)scale(0.1 -0.1)">
       <use xlink:href="#DejaVuSans-52"/>
      </g>
     </g>
    </g>
    <g id="ytick_27">
     <g id="line2d_62">
      <g>
       <use style="stroke:#000000;stroke-width:0.8;" x="180" xlink:href="#md60d0db27b" y="645.200346"/>
      </g>
     </g>
     <g id="text_31">
      <!-- 6 -->
      <g transform="translate(166.6375 648.999565)scale(0.1 -0.1)">
       <use xlink:href="#DejaVuSans-54"/>
      </g>
     </g>
    </g>
    <g id="ytick_28">
     <g id="line2d_63">
      <g>
       <use style="stroke:#000000;stroke-width:0.8;" x="180" xlink:href="#md60d0db27b" y="627.074865"/>
      </g>
     </g>
     <g id="text_32">
      <!-- 8 -->
      <g transform="translate(166.6375 630.874084)scale(0.1 -0.1)">
       <use xlink:href="#DejaVuSans-56"/>
      </g>
     </g>
    </g>
    <g id="ytick_29">
     <g id="line2d_64">
      <g>
       <use style="stroke:#000000;stroke-width:0.8;" x="180" xlink:href="#md60d0db27b" y="608.949384"/>
      </g>
     </g>
     <g id="text_33">
      <!-- 10 -->
      <g transform="translate(160.275 612.748603)scale(0.1 -0.1)">
       <use xlink:href="#DejaVuSans-49"/>
       <use x="63.623047" xlink:href="#DejaVuSans-48"/>
      </g>
     </g>
    </g>
    <g id="ytick_30">
     <g id="line2d_65">
      <g>
       <use style="stroke:#000000;stroke-width:0.8;" x="180" xlink:href="#md60d0db27b" y="590.823903"/>
      </g>
     </g>
     <g id="text_34">
      <!-- 12 -->
      <g transform="translate(160.275 594.623122)scale(0.1 -0.1)">
       <use xlink:href="#DejaVuSans-49"/>
       <use x="63.623047" xlink:href="#DejaVuSans-50"/>
      </g>
     </g>
    </g>
    <g id="text_35">
     <!-- Thrust (kN) -->
     <defs>
      <path d="M 54.890625 33.015625 
L 54.890625 0 
L 45.90625 0 
L 45.90625 32.71875 
Q 45.90625 40.484375 42.875 44.328125 
Q 39.84375 48.1875 33.796875 48.1875 
Q 26.515625 48.1875 22.3125 43.546875 
Q 18.109375 38.921875 18.109375 30.90625 
L 18.109375 0 
L 9.078125 0 
L 9.078125 75.984375 
L 18.109375 75.984375 
L 18.109375 46.1875 
Q 21.34375 51.125 25.703125 53.5625 
Q 30.078125 56 35.796875 56 
Q 45.21875 56 50.046875 50.171875 
Q 54.890625 44.34375 54.890625 33.015625 
z
" id="DejaVuSans-104"/>
      <path d="M 9.8125 72.90625 
L 23.09375 72.90625 
L 55.421875 11.921875 
L 55.421875 72.90625 
L 64.984375 72.90625 
L 64.984375 0 
L 51.703125 0 
L 19.390625 60.984375 
L 19.390625 0 
L 9.8125 0 
z
" id="DejaVuSans-78"/>
     </defs>
     <g transform="translate(154.195312 675.142537)rotate(-90)scale(0.1 -0.1)">
      <use xlink:href="#DejaVuSans-84"/>
      <use x="61.083984" xlink:href="#DejaVuSans-104"/>
      <use x="124.462891" xlink:href="#DejaVuSans-114"/>
      <use x="165.576172" xlink:href="#DejaVuSans-117"/>
      <use x="228.955078" xlink:href="#DejaVuSans-115"/>
      <use x="281.054688" xlink:href="#DejaVuSans-116"/>
      <use x="320.263672" xlink:href="#DejaVuSans-32"/>
      <use x="352.050781" xlink:href="#DejaVuSans-40"/>
      <use x="391.064453" xlink:href="#DejaVuSans-107"/>
      <use x="448.974609" xlink:href="#DejaVuSans-78"/>
      <use x="523.779297" xlink:href="#DejaVuSans-41"/>
     </g>
    </g>
   </g>
   <g id="line2d_66">
    <path clip-path="url(#p4afc56b7b1)" d="M 230.727273 609.943167 
L 244.526618 609.831294 
L 258.472764 609.494591 
L 272.712514 608.925822 
L 287.686271 608.102748 
L 304.128044 606.972826 
L 323.79945 605.389251 
L 351.985346 602.874759 
L 395.144999 599.033365 
L 415.697215 597.444401 
L 433.166599 596.313602 
L 449.46157 595.481363 
L 466.050144 594.86017 
L 482.78552 594.431721 
L 482.932321 699.576789 
L 1245.272727 699.576789 
L 1245.272727 699.576789 
" style="fill:none;stroke:#000000;stroke-linecap:square;stroke-width:1.5;"/>
   </g>
   <g id="patch_18">
    <path d="M 180 704.834043 
L 180 589.174468 
" style="fill:none;stroke:#000000;stroke-linecap:square;stroke-linejoin:miter;stroke-width:0.8;"/>
   </g>
   <g id="patch_19">
    <path d="M 1296 704.834043 
L 1296 589.174468 
" style="fill:none;stroke:#000000;stroke-linecap:square;stroke-linejoin:miter;stroke-width:0.8;"/>
   </g>
   <g id="patch_20">
    <path d="M 180 704.834043 
L 1296 704.834043 
" style="fill:none;stroke:#000000;stroke-linecap:square;stroke-linejoin:miter;stroke-width:0.8;"/>
   </g>
   <g id="patch_21">
    <path d="M 180 589.174468 
L 1296 589.174468 
" style="fill:none;stroke:#000000;stroke-linecap:square;stroke-linejoin:miter;stroke-width:0.8;"/>
   </g>
  </g>
  <g id="axes_5">
   <g id="patch_22">
    <path d="M 180 843.625532 
L 1296 843.625532 
L 1296 727.965957 
L 180 727.965957 
z
" style="fill:#ffffff;"/>
   </g>
   <g id="matplotlib.axis_9">
    <g id="xtick_33">
     <g id="line2d_67">
      <g>
       <use style="stroke:#000000;stroke-width:0.8;" x="230.580471" xlink:href="#ma96d7df57c" y="843.625532"/>
      </g>
     </g>
    </g>
    <g id="xtick_34">
     <g id="line2d_68">
      <g>
       <use style="stroke:#000000;stroke-width:0.8;" x="377.382013" xlink:href="#ma96d7df57c" y="843.625532"/>
      </g>
     </g>
    </g>
    <g id="xtick_35">
     <g id="line2d_69">
      <g>
       <use style="stroke:#000000;stroke-width:0.8;" x="524.183555" xlink:href="#ma96d7df57c" y="843.625532"/>
      </g>
     </g>
    </g>
    <g id="xtick_36">
     <g id="line2d_70">
      <g>
       <use style="stroke:#000000;stroke-width:0.8;" x="670.985096" xlink:href="#ma96d7df57c" y="843.625532"/>
      </g>
     </g>
    </g>
    <g id="xtick_37">
     <g id="line2d_71">
      <g>
       <use style="stroke:#000000;stroke-width:0.8;" x="817.786638" xlink:href="#ma96d7df57c" y="843.625532"/>
      </g>
     </g>
    </g>
    <g id="xtick_38">
     <g id="line2d_72">
      <g>
       <use style="stroke:#000000;stroke-width:0.8;" x="964.58818" xlink:href="#ma96d7df57c" y="843.625532"/>
      </g>
     </g>
    </g>
    <g id="xtick_39">
     <g id="line2d_73">
      <g>
       <use style="stroke:#000000;stroke-width:0.8;" x="1111.389721" xlink:href="#ma96d7df57c" y="843.625532"/>
      </g>
     </g>
    </g>
    <g id="xtick_40">
     <g id="line2d_74">
      <g>
       <use style="stroke:#000000;stroke-width:0.8;" x="1258.191263" xlink:href="#ma96d7df57c" y="843.625532"/>
      </g>
     </g>
    </g>
   </g>
   <g id="matplotlib.axis_10">
    <g id="ytick_31">
     <g id="line2d_75">
      <g>
       <use style="stroke:#000000;stroke-width:0.8;" x="180" xlink:href="#md60d0db27b" y="838.368335"/>
      </g>
     </g>
     <g id="text_36">
      <!-- 0 -->
      <g transform="translate(166.6375 842.167553)scale(0.1 -0.1)">
       <use xlink:href="#DejaVuSans-48"/>
      </g>
     </g>
    </g>
    <g id="ytick_32">
     <g id="line2d_76">
      <g>
       <use style="stroke:#000000;stroke-width:0.8;" x="180" xlink:href="#md60d0db27b" y="818.269254"/>
      </g>
     </g>
     <g id="text_37">
      <!-- 20 -->
      <g transform="translate(160.275 822.068473)scale(0.1 -0.1)">
       <use xlink:href="#DejaVuSans-50"/>
       <use x="63.623047" xlink:href="#DejaVuSans-48"/>
      </g>
     </g>
    </g>
    <g id="ytick_33">
     <g id="line2d_77">
      <g>
       <use style="stroke:#000000;stroke-width:0.8;" x="180" xlink:href="#md60d0db27b" y="798.170174"/>
      </g>
     </g>
     <g id="text_38">
      <!-- 40 -->
      <g transform="translate(160.275 801.969393)scale(0.1 -0.1)">
       <use xlink:href="#DejaVuSans-52"/>
       <use x="63.623047" xlink:href="#DejaVuSans-48"/>
      </g>
     </g>
    </g>
    <g id="ytick_34">
     <g id="line2d_78">
      <g>
       <use style="stroke:#000000;stroke-width:0.8;" x="180" xlink:href="#md60d0db27b" y="778.071094"/>
      </g>
     </g>
     <g id="text_39">
      <!-- 60 -->
      <g transform="translate(160.275 781.870313)scale(0.1 -0.1)">
       <use xlink:href="#DejaVuSans-54"/>
       <use x="63.623047" xlink:href="#DejaVuSans-48"/>
      </g>
     </g>
    </g>
    <g id="ytick_35">
     <g id="line2d_79">
      <g>
       <use style="stroke:#000000;stroke-width:0.8;" x="180" xlink:href="#md60d0db27b" y="757.972014"/>
      </g>
     </g>
     <g id="text_40">
      <!-- 80 -->
      <g transform="translate(160.275 761.771233)scale(0.1 -0.1)">
       <use xlink:href="#DejaVuSans-56"/>
       <use x="63.623047" xlink:href="#DejaVuSans-48"/>
      </g>
     </g>
    </g>
    <g id="ytick_36">
     <g id="line2d_80">
      <g>
       <use style="stroke:#000000;stroke-width:0.8;" x="180" xlink:href="#md60d0db27b" y="737.872934"/>
      </g>
     </g>
     <g id="text_41">
      <!-- 100 -->
      <g transform="translate(153.9125 741.672152)scale(0.1 -0.1)">
       <use xlink:href="#DejaVuSans-49"/>
       <use x="63.623047" xlink:href="#DejaVuSans-48"/>
       <use x="127.246094" xlink:href="#DejaVuSans-48"/>
      </g>
     </g>
    </g>
    <g id="text_42">
     <!-- Dynamic Pressure (kPa) -->
     <defs>
      <path d="M 19.671875 64.796875 
L 19.671875 8.109375 
L 31.59375 8.109375 
Q 46.6875 8.109375 53.6875 14.9375 
Q 60.6875 21.78125 60.6875 36.53125 
Q 60.6875 51.171875 53.6875 57.984375 
Q 46.6875 64.796875 31.59375 64.796875 
z
M 9.8125 72.90625 
L 30.078125 72.90625 
Q 51.265625 72.90625 61.171875 64.09375 
Q 71.09375 55.28125 71.09375 36.53125 
Q 71.09375 17.671875 61.125 8.828125 
Q 51.171875 0 30.078125 0 
L 9.8125 0 
z
" id="DejaVuSans-68"/>
      <path d="M 19.671875 64.796875 
L 19.671875 37.40625 
L 32.078125 37.40625 
Q 38.96875 37.40625 42.71875 40.96875 
Q 46.484375 44.53125 46.484375 51.125 
Q 46.484375 57.671875 42.71875 61.234375 
Q 38.96875 64.796875 32.078125 64.796875 
z
M 9.8125 72.90625 
L 32.078125 72.90625 
Q 44.34375 72.90625 50.609375 67.359375 
Q 56.890625 61.8125 56.890625 51.125 
Q 56.890625 40.328125 50.609375 34.8125 
Q 44.34375 29.296875 32.078125 29.296875 
L 19.671875 29.296875 
L 19.671875 0 
L 9.8125 0 
z
" id="DejaVuSans-80"/>
     </defs>
     <g transform="translate(147.832812 845.550432)rotate(-90)scale(0.1 -0.1)">
      <use xlink:href="#DejaVuSans-68"/>
      <use x="77.001953" xlink:href="#DejaVuSans-121"/>
      <use x="136.181641" xlink:href="#DejaVuSans-110"/>
      <use x="199.560547" xlink:href="#DejaVuSans-97"/>
      <use x="260.839844" xlink:href="#DejaVuSans-109"/>
      <use x="358.251953" xlink:href="#DejaVuSans-105"/>
      <use x="386.035156" xlink:href="#DejaVuSans-99"/>
      <use x="441.015625" xlink:href="#DejaVuSans-32"/>
      <use x="472.802734" xlink:href="#DejaVuSans-80"/>
      <use x="533.089844" xlink:href="#DejaVuSans-114"/>
      <use x="574.171875" xlink:href="#DejaVuSans-101"/>
      <use x="635.695312" xlink:href="#DejaVuSans-115"/>
      <use x="687.794922" xlink:href="#DejaVuSans-115"/>
      <use x="739.894531" xlink:href="#DejaVuSans-117"/>
      <use x="803.273438" xlink:href="#DejaVuSans-114"/>
      <use x="844.355469" xlink:href="#DejaVuSans-101"/>
      <use x="905.878906" xlink:href="#DejaVuSans-32"/>
      <use x="937.666016" xlink:href="#DejaVuSans-40"/>
      <use x="976.679688" xlink:href="#DejaVuSans-107"/>
      <use x="1034.589844" xlink:href="#DejaVuSans-80"/>
      <use x="1094.830078" xlink:href="#DejaVuSans-97"/>
      <use x="1156.109375" xlink:href="#DejaVuSans-41"/>
     </g>
    </g>
   </g>
   <g id="line2d_81">
    <path clip-path="url(#p89017a1e3e)" d="M 230.727273 838.366758 
L 234.837716 838.252306 
L 238.801358 837.923584 
L 242.764999 837.371077 
L 246.728641 836.592928 
L 250.545481 835.623556 
L 254.509122 834.384163 
L 258.472764 832.912585 
L 262.583207 831.142429 
L 266.69365 829.128659 
L 270.950895 826.79589 
L 275.354941 824.130631 
L 280.052591 821.024456 
L 285.043843 817.453742 
L 290.4755 813.292027 
L 296.787966 808.161746 
L 304.71525 801.409678 
L 344.204864 767.353442 
L 351.838545 761.197635 
L 358.444614 756.14464 
L 364.463477 751.817698 
L 369.895134 748.181384 
L 374.886387 745.098536 
L 379.584036 742.451817 
L 383.988082 740.219219 
L 388.245327 738.311906 
L 392.208969 736.776414 
L 396.025809 735.533116 
L 399.695847 734.570482 
L 403.219084 733.876995 
L 406.59552 733.438948 
L 409.825154 733.239961 
L 413.054787 733.267595 
L 416.13762 733.515219 
L 419.220452 733.987678 
L 422.303285 734.692648 
L 425.386117 735.636678 
L 428.468949 736.824969 
L 431.551782 738.261154 
L 434.634614 739.947087 
L 437.717446 741.881558 
L 441.093882 744.266252 
L 444.76392 747.135263 
L 448.874364 750.636141 
L 453.718815 755.06565 
L 460.031281 761.15905 
L 483.079123 783.939415 
L 485.427948 788.740603 
L 487.923574 793.325971 
L 490.4192 797.441935 
L 492.914826 801.14316 
L 495.557254 804.662345 
L 498.199682 807.81779 
L 500.988911 810.800171 
L 503.77814 813.466624 
L 506.714171 815.972638 
L 509.797003 818.311905 
L 513.026637 820.481432 
L 516.403073 822.481146 
L 519.92631 824.313694 
L 523.74315 826.046089 
L 527.853593 827.659566 
L 532.257639 829.14088 
L 536.955289 830.481324 
L 542.093343 831.709851 
L 547.671801 832.811151 
L 553.837466 833.799408 
L 560.737138 834.678596 
L 568.664422 835.46017 
L 577.912919 836.141631 
L 588.923034 836.722569 
L 602.575578 837.21067 
L 620.485366 837.617055 
L 645.294826 837.943361 
L 681.408006 838.178729 
L 740.86263 838.318587 
L 881.498507 838.365635 
L 1245.272727 838.368279 
L 1245.272727 838.368279 
" style="fill:none;stroke:#000000;stroke-linecap:square;stroke-width:1.5;"/>
   </g>
   <g id="patch_23">
    <path d="M 180 843.625532 
L 180 727.965957 
" style="fill:none;stroke:#000000;stroke-linecap:square;stroke-linejoin:miter;stroke-width:0.8;"/>
   </g>
   <g id="patch_24">
    <path d="M 1296 843.625532 
L 1296 727.965957 
" style="fill:none;stroke:#000000;stroke-linecap:square;stroke-linejoin:miter;stroke-width:0.8;"/>
   </g>
   <g id="patch_25">
    <path d="M 180 843.625532 
L 1296 843.625532 
" style="fill:none;stroke:#000000;stroke-linecap:square;stroke-linejoin:miter;stroke-width:0.8;"/>
   </g>
   <g id="patch_26">
    <path d="M 180 727.965957 
L 1296 727.965957 
" style="fill:none;stroke:#000000;stroke-linecap:square;stroke-linejoin:miter;stroke-width:0.8;"/>
   </g>
  </g>
  <g id="axes_6">
   <g id="patch_27">
    <path d="M 180 982.417021 
L 1296 982.417021 
L 1296 866.757447 
L 180 866.757447 
z
" style="fill:#ffffff;"/>
   </g>
   <g id="matplotlib.axis_11">
    <g id="xtick_41">
     <g id="line2d_82">
      <g>
       <use style="stroke:#000000;stroke-width:0.8;" x="230.580471" xlink:href="#ma96d7df57c" y="982.417021"/>
      </g>
     </g>
    </g>
    <g id="xtick_42">
     <g id="line2d_83">
      <g>
       <use style="stroke:#000000;stroke-width:0.8;" x="377.382013" xlink:href="#ma96d7df57c" y="982.417021"/>
      </g>
     </g>
    </g>
    <g id="xtick_43">
     <g id="line2d_84">
      <g>
       <use style="stroke:#000000;stroke-width:0.8;" x="524.183555" xlink:href="#ma96d7df57c" y="982.417021"/>
      </g>
     </g>
    </g>
    <g id="xtick_44">
     <g id="line2d_85">
      <g>
       <use style="stroke:#000000;stroke-width:0.8;" x="670.985096" xlink:href="#ma96d7df57c" y="982.417021"/>
      </g>
     </g>
    </g>
    <g id="xtick_45">
     <g id="line2d_86">
      <g>
       <use style="stroke:#000000;stroke-width:0.8;" x="817.786638" xlink:href="#ma96d7df57c" y="982.417021"/>
      </g>
     </g>
    </g>
    <g id="xtick_46">
     <g id="line2d_87">
      <g>
       <use style="stroke:#000000;stroke-width:0.8;" x="964.58818" xlink:href="#ma96d7df57c" y="982.417021"/>
      </g>
     </g>
    </g>
    <g id="xtick_47">
     <g id="line2d_88">
      <g>
       <use style="stroke:#000000;stroke-width:0.8;" x="1111.389721" xlink:href="#ma96d7df57c" y="982.417021"/>
      </g>
     </g>
    </g>
    <g id="xtick_48">
     <g id="line2d_89">
      <g>
       <use style="stroke:#000000;stroke-width:0.8;" x="1258.191263" xlink:href="#ma96d7df57c" y="982.417021"/>
      </g>
     </g>
    </g>
    <g id="text_43">
     <!-- t (s) -->
     <g transform="translate(727.944531 994.015459)scale(0.1 -0.1)">
      <use xlink:href="#DejaVuSans-116"/>
      <use x="39.208984" xlink:href="#DejaVuSans-32"/>
      <use x="70.996094" xlink:href="#DejaVuSans-40"/>
      <use x="110.009766" xlink:href="#DejaVuSans-115"/>
      <use x="162.109375" xlink:href="#DejaVuSans-41"/>
     </g>
    </g>
   </g>
   <g id="matplotlib.axis_12">
    <g id="ytick_37">
     <g id="line2d_90">
      <g>
       <use style="stroke:#000000;stroke-width:0.8;" x="180" xlink:href="#md60d0db27b" y="977.268778"/>
      </g>
     </g>
     <g id="text_44">
      <!-- 0 -->
      <g transform="translate(166.6375 981.067997)scale(0.1 -0.1)">
       <use xlink:href="#DejaVuSans-48"/>
      </g>
     </g>
    </g>
    <g id="ytick_38">
     <g id="line2d_91">
      <g>
       <use style="stroke:#000000;stroke-width:0.8;" x="180" xlink:href="#md60d0db27b" y="955.792031"/>
      </g>
     </g>
     <g id="text_45">
      <!-- 1 -->
      <g transform="translate(166.6375 959.59125)scale(0.1 -0.1)">
       <use xlink:href="#DejaVuSans-49"/>
      </g>
     </g>
    </g>
    <g id="ytick_39">
     <g id="line2d_92">
      <g>
       <use style="stroke:#000000;stroke-width:0.8;" x="180" xlink:href="#md60d0db27b" y="934.315283"/>
      </g>
     </g>
     <g id="text_46">
      <!-- 2 -->
      <g transform="translate(166.6375 938.114502)scale(0.1 -0.1)">
       <use xlink:href="#DejaVuSans-50"/>
      </g>
     </g>
    </g>
    <g id="ytick_40">
     <g id="line2d_93">
      <g>
       <use style="stroke:#000000;stroke-width:0.8;" x="180" xlink:href="#md60d0db27b" y="912.838536"/>
      </g>
     </g>
     <g id="text_47">
      <!-- 3 -->
      <g transform="translate(166.6375 916.637755)scale(0.1 -0.1)">
       <use xlink:href="#DejaVuSans-51"/>
      </g>
     </g>
    </g>
    <g id="ytick_41">
     <g id="line2d_94">
      <g>
       <use style="stroke:#000000;stroke-width:0.8;" x="180" xlink:href="#md60d0db27b" y="891.361789"/>
      </g>
     </g>
     <g id="text_48">
      <!-- 4 -->
      <g transform="translate(166.6375 895.161007)scale(0.1 -0.1)">
       <use xlink:href="#DejaVuSans-52"/>
      </g>
     </g>
    </g>
    <g id="ytick_42">
     <g id="line2d_95">
      <g>
       <use style="stroke:#000000;stroke-width:0.8;" x="180" xlink:href="#md60d0db27b" y="869.885041"/>
      </g>
     </g>
     <g id="text_49">
      <!-- 5 -->
      <g transform="translate(166.6375 873.68426)scale(0.1 -0.1)">
       <use xlink:href="#DejaVuSans-53"/>
      </g>
     </g>
    </g>
    <g id="text_50">
     <!-- Mach number -->
     <defs>
      <path d="M 9.8125 72.90625 
L 24.515625 72.90625 
L 43.109375 23.296875 
L 61.8125 72.90625 
L 76.515625 72.90625 
L 76.515625 0 
L 66.890625 0 
L 66.890625 64.015625 
L 48.09375 14.015625 
L 38.1875 14.015625 
L 19.390625 64.015625 
L 19.390625 0 
L 9.8125 0 
z
" id="DejaVuSans-77"/>
      <path d="M 48.6875 27.296875 
Q 48.6875 37.203125 44.609375 42.84375 
Q 40.53125 48.484375 33.40625 48.484375 
Q 26.265625 48.484375 22.1875 42.84375 
Q 18.109375 37.203125 18.109375 27.296875 
Q 18.109375 17.390625 22.1875 11.75 
Q 26.265625 6.109375 33.40625 6.109375 
Q 40.53125 6.109375 44.609375 11.75 
Q 48.6875 17.390625 48.6875 27.296875 
z
M 18.109375 46.390625 
Q 20.953125 51.265625 25.265625 53.625 
Q 29.59375 56 35.59375 56 
Q 45.5625 56 51.78125 48.09375 
Q 58.015625 40.1875 58.015625 27.296875 
Q 58.015625 14.40625 51.78125 6.484375 
Q 45.5625 -1.421875 35.59375 -1.421875 
Q 29.59375 -1.421875 25.265625 0.953125 
Q 20.953125 3.328125 18.109375 8.203125 
L 18.109375 0 
L 9.078125 0 
L 9.078125 75.984375 
L 18.109375 75.984375 
z
" id="DejaVuSans-98"/>
     </defs>
     <g transform="translate(160.557812 958.986453)rotate(-90)scale(0.1 -0.1)">
      <use xlink:href="#DejaVuSans-77"/>
      <use x="86.279297" xlink:href="#DejaVuSans-97"/>
      <use x="147.558594" xlink:href="#DejaVuSans-99"/>
      <use x="202.539062" xlink:href="#DejaVuSans-104"/>
      <use x="265.917969" xlink:href="#DejaVuSans-32"/>
      <use x="297.705078" xlink:href="#DejaVuSans-110"/>
      <use x="361.083984" xlink:href="#DejaVuSans-117"/>
      <use x="424.462891" xlink:href="#DejaVuSans-109"/>
      <use x="521.875" xlink:href="#DejaVuSans-98"/>
      <use x="585.351562" xlink:href="#DejaVuSans-101"/>
      <use x="646.875" xlink:href="#DejaVuSans-114"/>
     </g>
    </g>
   </g>
   <g id="line2d_96">
    <path clip-path="url(#pf899c59755)" d="M 230.727273 977.159768 
L 231.754884 977.007977 
L 238.214151 975.569933 
L 253.628313 971.945138 
L 271.244498 967.571462 
L 291.209508 962.375954 
L 318.07419 955.132114 
L 332.31394 951.112919 
L 344.351666 947.489704 
L 355.068179 944.038734 
L 364.903882 940.641088 
L 374.005577 937.263152 
L 382.520067 933.867336 
L 390.594152 930.40819 
L 398.227832 926.899078 
L 405.71471 923.213173 
L 413.201589 919.276729 
L 420.835269 915.006925 
L 428.909354 910.230059 
L 438.451454 904.314359 
L 448.874364 897.602743 
L 457.535655 891.769475 
L 464.582129 886.761374 
L 470.45419 882.3192 
L 476.326252 877.593525 
L 482.198314 872.576425 
L 482.932321 872.0147 
L 489.978795 873.926102 
L 498.640086 876.034404 
L 510.531011 878.681859 
L 541.946541 885.574178 
L 562.351955 890.103369 
L 573.215269 892.277832 
L 582.463767 893.906536 
L 590.831454 895.159559 
L 598.905539 896.143749 
L 607.713632 896.990006 
L 617.842938 897.73508 
L 630.174268 898.409428 
L 645.001223 898.989873 
L 665.113035 899.536198 
L 704.749451 900.579442 
L 723.833651 901.336208 
L 741.890241 902.276389 
L 759.653227 903.425109 
L 785.196696 905.348415 
L 807.51053 906.864033 
L 836.577235 908.596075 
L 889.132187 911.473041 
L 938.017101 913.971457 
L 992.627274 916.717675 
L 1023.749201 918.550027 
L 1070.872496 921.586096 
L 1114.472554 924.313817 
L 1141.484037 925.78002 
L 1165.265887 926.850197 
L 1187.579721 927.634009 
L 1209.159548 928.171742 
L 1230.445772 928.480279 
L 1245.272727 928.562272 
L 1245.272727 928.562272 
" style="fill:none;stroke:#000000;stroke-linecap:square;stroke-width:1.5;"/>
   </g>
   <g id="patch_28">
    <path d="M 180 982.417021 
L 180 866.757447 
" style="fill:none;stroke:#000000;stroke-linecap:square;stroke-linejoin:miter;stroke-width:0.8;"/>
   </g>
   <g id="patch_29">
    <path d="M 1296 982.417021 
L 1296 866.757447 
" style="fill:none;stroke:#000000;stroke-linecap:square;stroke-linejoin:miter;stroke-width:0.8;"/>
   </g>
   <g id="patch_30">
    <path d="M 180 982.417021 
L 1296 982.417021 
" style="fill:none;stroke:#000000;stroke-linecap:square;stroke-linejoin:miter;stroke-width:0.8;"/>
   </g>
   <g id="patch_31">
    <path d="M 180 866.757447 
L 1296 866.757447 
" style="fill:none;stroke:#000000;stroke-linecap:square;stroke-linejoin:miter;stroke-width:0.8;"/>
   </g>
  </g>
  <g id="axes_7">
   <g id="patch_32">
    <path d="M 180 1121.208511 
L 1296 1121.208511 
L 1296 1005.548936 
L 180 1005.548936 
z
" style="fill:#ffffff;"/>
   </g>
   <g id="matplotlib.axis_13">
    <g id="xtick_49">
     <g id="line2d_97">
      <g>
       <use style="stroke:#000000;stroke-width:0.8;" x="230.580471" xlink:href="#ma96d7df57c" y="1121.208511"/>
      </g>
     </g>
    </g>
    <g id="xtick_50">
     <g id="line2d_98">
      <g>
       <use style="stroke:#000000;stroke-width:0.8;" x="377.382013" xlink:href="#ma96d7df57c" y="1121.208511"/>
      </g>
     </g>
    </g>
    <g id="xtick_51">
     <g id="line2d_99">
      <g>
       <use style="stroke:#000000;stroke-width:0.8;" x="524.183555" xlink:href="#ma96d7df57c" y="1121.208511"/>
      </g>
     </g>
    </g>
    <g id="xtick_52">
     <g id="line2d_100">
      <g>
       <use style="stroke:#000000;stroke-width:0.8;" x="670.985096" xlink:href="#ma96d7df57c" y="1121.208511"/>
      </g>
     </g>
    </g>
    <g id="xtick_53">
     <g id="line2d_101">
      <g>
       <use style="stroke:#000000;stroke-width:0.8;" x="817.786638" xlink:href="#ma96d7df57c" y="1121.208511"/>
      </g>
     </g>
    </g>
    <g id="xtick_54">
     <g id="line2d_102">
      <g>
       <use style="stroke:#000000;stroke-width:0.8;" x="964.58818" xlink:href="#ma96d7df57c" y="1121.208511"/>
      </g>
     </g>
    </g>
    <g id="xtick_55">
     <g id="line2d_103">
      <g>
       <use style="stroke:#000000;stroke-width:0.8;" x="1111.389721" xlink:href="#ma96d7df57c" y="1121.208511"/>
      </g>
     </g>
    </g>
    <g id="xtick_56">
     <g id="line2d_104">
      <g>
       <use style="stroke:#000000;stroke-width:0.8;" x="1258.191263" xlink:href="#ma96d7df57c" y="1121.208511"/>
      </g>
     </g>
    </g>
   </g>
   <g id="matplotlib.axis_14">
    <g id="ytick_43">
     <g id="line2d_105">
      <g>
       <use style="stroke:#000000;stroke-width:0.8;" x="180" xlink:href="#md60d0db27b" y="1115.951333"/>
      </g>
     </g>
     <g id="text_51">
      <!-- 0 -->
      <g transform="translate(166.6375 1119.750552)scale(0.1 -0.1)">
       <use xlink:href="#DejaVuSans-48"/>
      </g>
     </g>
    </g>
    <g id="ytick_44">
     <g id="line2d_106">
      <g>
       <use style="stroke:#000000;stroke-width:0.8;" x="180" xlink:href="#md60d0db27b" y="1098.966076"/>
      </g>
     </g>
     <g id="text_52">
      <!-- 500 -->
      <g transform="translate(153.9125 1102.765295)scale(0.1 -0.1)">
       <use xlink:href="#DejaVuSans-53"/>
       <use x="63.623047" xlink:href="#DejaVuSans-48"/>
       <use x="127.246094" xlink:href="#DejaVuSans-48"/>
      </g>
     </g>
    </g>
    <g id="ytick_45">
     <g id="line2d_107">
      <g>
       <use style="stroke:#000000;stroke-width:0.8;" x="180" xlink:href="#md60d0db27b" y="1081.980819"/>
      </g>
     </g>
     <g id="text_53">
      <!-- 1000 -->
      <g transform="translate(147.55 1085.780038)scale(0.1 -0.1)">
       <use xlink:href="#DejaVuSans-49"/>
       <use x="63.623047" xlink:href="#DejaVuSans-48"/>
       <use x="127.246094" xlink:href="#DejaVuSans-48"/>
       <use x="190.869141" xlink:href="#DejaVuSans-48"/>
      </g>
     </g>
    </g>
    <g id="ytick_46">
     <g id="line2d_108">
      <g>
       <use style="stroke:#000000;stroke-width:0.8;" x="180" xlink:href="#md60d0db27b" y="1064.995562"/>
      </g>
     </g>
     <g id="text_54">
      <!-- 1500 -->
      <g transform="translate(147.55 1068.794781)scale(0.1 -0.1)">
       <use xlink:href="#DejaVuSans-49"/>
       <use x="63.623047" xlink:href="#DejaVuSans-53"/>
       <use x="127.246094" xlink:href="#DejaVuSans-48"/>
       <use x="190.869141" xlink:href="#DejaVuSans-48"/>
      </g>
     </g>
    </g>
    <g id="ytick_47">
     <g id="line2d_109">
      <g>
       <use style="stroke:#000000;stroke-width:0.8;" x="180" xlink:href="#md60d0db27b" y="1048.010306"/>
      </g>
     </g>
     <g id="text_55">
      <!-- 2000 -->
      <g transform="translate(147.55 1051.809524)scale(0.1 -0.1)">
       <use xlink:href="#DejaVuSans-50"/>
       <use x="63.623047" xlink:href="#DejaVuSans-48"/>
       <use x="127.246094" xlink:href="#DejaVuSans-48"/>
       <use x="190.869141" xlink:href="#DejaVuSans-48"/>
      </g>
     </g>
    </g>
    <g id="ytick_48">
     <g id="line2d_110">
      <g>
       <use style="stroke:#000000;stroke-width:0.8;" x="180" xlink:href="#md60d0db27b" y="1031.025049"/>
      </g>
     </g>
     <g id="text_56">
      <!-- 2500 -->
      <g transform="translate(147.55 1034.824267)scale(0.1 -0.1)">
       <use xlink:href="#DejaVuSans-50"/>
       <use x="63.623047" xlink:href="#DejaVuSans-53"/>
       <use x="127.246094" xlink:href="#DejaVuSans-48"/>
       <use x="190.869141" xlink:href="#DejaVuSans-48"/>
      </g>
     </g>
    </g>
    <g id="ytick_49">
     <g id="line2d_111">
      <g>
       <use style="stroke:#000000;stroke-width:0.8;" x="180" xlink:href="#md60d0db27b" y="1014.039792"/>
      </g>
     </g>
     <g id="text_57">
      <!-- 3000 -->
      <g transform="translate(147.55 1017.83901)scale(0.1 -0.1)">
       <use xlink:href="#DejaVuSans-51"/>
       <use x="63.623047" xlink:href="#DejaVuSans-48"/>
       <use x="127.246094" xlink:href="#DejaVuSans-48"/>
       <use x="190.869141" xlink:href="#DejaVuSans-48"/>
      </g>
     </g>
    </g>
    <g id="text_58">
     <!-- Drag (N) -->
     <g transform="translate(141.470313 1084.753723)rotate(-90)scale(0.1 -0.1)">
      <use xlink:href="#DejaVuSans-68"/>
      <use x="77.001953" xlink:href="#DejaVuSans-114"/>
      <use x="118.115234" xlink:href="#DejaVuSans-97"/>
      <use x="179.394531" xlink:href="#DejaVuSans-103"/>
      <use x="242.871094" xlink:href="#DejaVuSans-32"/>
      <use x="274.658203" xlink:href="#DejaVuSans-40"/>
      <use x="313.671875" xlink:href="#DejaVuSans-78"/>
      <use x="388.476562" xlink:href="#DejaVuSans-41"/>
     </g>
    </g>
   </g>
   <g id="line2d_112">
    <path clip-path="url(#p06f08c8c2d)" d="M 230.727273 1115.951257 
L 233.956907 1115.827525 
L 237.626945 1115.48791 
L 241.590587 1114.887389 
L 244.820221 1114.138958 
L 250.398679 1112.566772 
L 252.894306 1111.670181 
L 258.325963 1109.356232 
L 262.730009 1107.078788 
L 265.66604 1105.33788 
L 268.748872 1103.367311 
L 273.152918 1100.233793 
L 276.382552 1097.696972 
L 279.758988 1094.828001 
L 283.135423 1091.731251 
L 286.805462 1088.092844 
L 291.062706 1083.53507 
L 295.319951 1078.596706 
L 299.430394 1073.461909 
L 303.394036 1068.153938 
L 307.210876 1062.671879 
L 315.284961 1050.410539 
L 316.018968 1049.436184 
L 326.588679 1039.869672 
L 332.901146 1034.786626 
L 338.773207 1030.366716 
L 344.204864 1026.556455 
L 348.168506 1024.018216 
L 352.866155 1021.266705 
L 357.417003 1018.861065 
L 361.233843 1017.079107 
L 365.344286 1015.397171 
L 369.307928 1014.008951 
L 373.124768 1012.898169 
L 376.941608 1012.017486 
L 380.611647 1011.394857 
L 384.428487 1010.977915 
L 387.951724 1010.813357 
L 391.474961 1010.867269 
L 394.998198 1011.143557 
L 398.521435 1011.645538 
L 402.044672 1012.37706 
L 405.567909 1013.341707 
L 409.091146 1014.541844 
L 412.614383 1015.978403 
L 416.13762 1017.650686 
L 419.807658 1019.640571 
L 423.624498 1021.972885 
L 427.441339 1024.564529 
L 431.551782 1027.63181 
L 435.809026 1031.090595 
L 440.506676 1035.201002 
L 446.231936 1040.519929 
L 454.893227 1048.912492 
L 466.784152 1060.392557 
L 473.830626 1066.86541 
L 480.436695 1072.639924 
L 483.079123 1075.004534 
L 485.721551 1078.676267 
L 488.363978 1081.975944 
L 491.153208 1085.103203 
L 493.942437 1087.908118 
L 496.878468 1090.55374 
L 499.9613 1093.033433 
L 503.190934 1095.343789 
L 506.56737 1097.484211 
L 510.090607 1099.45651 
L 513.907447 1101.332077 
L 517.871088 1103.031735 
L 522.128333 1104.616161 
L 526.679181 1106.074748 
L 531.670433 1107.438582 
L 537.10209 1108.687454 
L 543.120953 1109.83468 
L 549.727023 1110.861287 
L 557.0671 1111.774959 
L 565.434788 1112.590596 
L 575.270491 1113.318661 
L 586.867813 1113.947201 
L 601.107562 1114.488063 
L 619.457755 1114.951531 
L 643.973613 1115.335667 
L 677.737967 1115.62822 
L 728.237697 1115.824567 
L 819.695058 1115.922749 
L 1170.991147 1115.950908 
L 1245.272727 1115.950949 
L 1245.272727 1115.950949 
" style="fill:none;stroke:#000000;stroke-linecap:square;stroke-width:1.5;"/>
   </g>
   <g id="patch_33">
    <path d="M 180 1121.208511 
L 180 1005.548936 
" style="fill:none;stroke:#000000;stroke-linecap:square;stroke-linejoin:miter;stroke-width:0.8;"/>
   </g>
   <g id="patch_34">
    <path d="M 1296 1121.208511 
L 1296 1005.548936 
" style="fill:none;stroke:#000000;stroke-linecap:square;stroke-linejoin:miter;stroke-width:0.8;"/>
   </g>
   <g id="patch_35">
    <path d="M 180 1121.208511 
L 1296 1121.208511 
" style="fill:none;stroke:#000000;stroke-linecap:square;stroke-linejoin:miter;stroke-width:0.8;"/>
   </g>
   <g id="patch_36">
    <path d="M 180 1005.548936 
L 1296 1005.548936 
" style="fill:none;stroke:#000000;stroke-linecap:square;stroke-linejoin:miter;stroke-width:0.8;"/>
   </g>
  </g>
  <g id="axes_8">
   <g id="patch_37">
    <path d="M 180 1260 
L 1296 1260 
L 1296 1144.340426 
L 180 1144.340426 
z
" style="fill:#ffffff;"/>
   </g>
   <g id="matplotlib.axis_15">
    <g id="xtick_57">
     <g id="line2d_113">
      <g>
       <use style="stroke:#000000;stroke-width:0.8;" x="230.580471" xlink:href="#ma96d7df57c" y="1260"/>
      </g>
     </g>
     <g id="text_59">
      <!-- 0 -->
      <g transform="translate(227.399221 1274.598437)scale(0.1 -0.1)">
       <use xlink:href="#DejaVuSans-48"/>
      </g>
     </g>
    </g>
    <g id="xtick_58">
     <g id="line2d_114">
      <g>
       <use style="stroke:#000000;stroke-width:0.8;" x="377.382013" xlink:href="#ma96d7df57c" y="1260"/>
      </g>
     </g>
     <g id="text_60">
      <!-- 25 -->
      <g transform="translate(371.019513 1274.598437)scale(0.1 -0.1)">
       <use xlink:href="#DejaVuSans-50"/>
       <use x="63.623047" xlink:href="#DejaVuSans-53"/>
      </g>
     </g>
    </g>
    <g id="xtick_59">
     <g id="line2d_115">
      <g>
       <use style="stroke:#000000;stroke-width:0.8;" x="524.183555" xlink:href="#ma96d7df57c" y="1260"/>
      </g>
     </g>
     <g id="text_61">
      <!-- 50 -->
      <g transform="translate(517.821055 1274.598437)scale(0.1 -0.1)">
       <use xlink:href="#DejaVuSans-53"/>
       <use x="63.623047" xlink:href="#DejaVuSans-48"/>
      </g>
     </g>
    </g>
    <g id="xtick_60">
     <g id="line2d_116">
      <g>
       <use style="stroke:#000000;stroke-width:0.8;" x="670.985096" xlink:href="#ma96d7df57c" y="1260"/>
      </g>
     </g>
     <g id="text_62">
      <!-- 75 -->
      <g transform="translate(664.622596 1274.598437)scale(0.1 -0.1)">
       <use xlink:href="#DejaVuSans-55"/>
       <use x="63.623047" xlink:href="#DejaVuSans-53"/>
      </g>
     </g>
    </g>
    <g id="xtick_61">
     <g id="line2d_117">
      <g>
       <use style="stroke:#000000;stroke-width:0.8;" x="817.786638" xlink:href="#ma96d7df57c" y="1260"/>
      </g>
     </g>
     <g id="text_63">
      <!-- 100 -->
      <g transform="translate(808.242888 1274.598437)scale(0.1 -0.1)">
       <use xlink:href="#DejaVuSans-49"/>
       <use x="63.623047" xlink:href="#DejaVuSans-48"/>
       <use x="127.246094" xlink:href="#DejaVuSans-48"/>
      </g>
     </g>
    </g>
    <g id="xtick_62">
     <g id="line2d_118">
      <g>
       <use style="stroke:#000000;stroke-width:0.8;" x="964.58818" xlink:href="#ma96d7df57c" y="1260"/>
      </g>
     </g>
     <g id="text_64">
      <!-- 125 -->
      <g transform="translate(955.04443 1274.598437)scale(0.1 -0.1)">
       <use xlink:href="#DejaVuSans-49"/>
       <use x="63.623047" xlink:href="#DejaVuSans-50"/>
       <use x="127.246094" xlink:href="#DejaVuSans-53"/>
      </g>
     </g>
    </g>
    <g id="xtick_63">
     <g id="line2d_119">
      <g>
       <use style="stroke:#000000;stroke-width:0.8;" x="1111.389721" xlink:href="#ma96d7df57c" y="1260"/>
      </g>
     </g>
     <g id="text_65">
      <!-- 150 -->
      <g transform="translate(1101.845971 1274.598437)scale(0.1 -0.1)">
       <use xlink:href="#DejaVuSans-49"/>
       <use x="63.623047" xlink:href="#DejaVuSans-53"/>
       <use x="127.246094" xlink:href="#DejaVuSans-48"/>
      </g>
     </g>
    </g>
    <g id="xtick_64">
     <g id="line2d_120">
      <g>
       <use style="stroke:#000000;stroke-width:0.8;" x="1258.191263" xlink:href="#ma96d7df57c" y="1260"/>
      </g>
     </g>
     <g id="text_66">
      <!-- 175 -->
      <g transform="translate(1248.647513 1274.598437)scale(0.1 -0.1)">
       <use xlink:href="#DejaVuSans-49"/>
       <use x="63.623047" xlink:href="#DejaVuSans-55"/>
       <use x="127.246094" xlink:href="#DejaVuSans-53"/>
      </g>
     </g>
    </g>
   </g>
   <g id="matplotlib.axis_16">
    <g id="ytick_50">
     <g id="line2d_121">
      <g>
       <use style="stroke:#000000;stroke-width:0.8;" x="180" xlink:href="#md60d0db27b" y="1254.742765"/>
      </g>
     </g>
     <g id="text_67">
      <!-- 0 -->
      <g transform="translate(166.6375 1258.541984)scale(0.1 -0.1)">
       <use xlink:href="#DejaVuSans-48"/>
      </g>
     </g>
    </g>
    <g id="ytick_51">
     <g id="line2d_122">
      <g>
       <use style="stroke:#000000;stroke-width:0.8;" x="180" xlink:href="#md60d0db27b" y="1230.570171"/>
      </g>
     </g>
     <g id="text_68">
      <!-- 20 -->
      <g transform="translate(160.275 1234.36939)scale(0.1 -0.1)">
       <use xlink:href="#DejaVuSans-50"/>
       <use x="63.623047" xlink:href="#DejaVuSans-48"/>
      </g>
     </g>
    </g>
    <g id="ytick_52">
     <g id="line2d_123">
      <g>
       <use style="stroke:#000000;stroke-width:0.8;" x="180" xlink:href="#md60d0db27b" y="1206.397578"/>
      </g>
     </g>
     <g id="text_69">
      <!-- 40 -->
      <g transform="translate(160.275 1210.196796)scale(0.1 -0.1)">
       <use xlink:href="#DejaVuSans-52"/>
       <use x="63.623047" xlink:href="#DejaVuSans-48"/>
      </g>
     </g>
    </g>
    <g id="ytick_53">
     <g id="line2d_124">
      <g>
       <use style="stroke:#000000;stroke-width:0.8;" x="180" xlink:href="#md60d0db27b" y="1182.224984"/>
      </g>
     </g>
     <g id="text_70">
      <!-- 60 -->
      <g transform="translate(160.275 1186.024202)scale(0.1 -0.1)">
       <use xlink:href="#DejaVuSans-54"/>
       <use x="63.623047" xlink:href="#DejaVuSans-48"/>
      </g>
     </g>
    </g>
    <g id="ytick_54">
     <g id="line2d_125">
      <g>
       <use style="stroke:#000000;stroke-width:0.8;" x="180" xlink:href="#md60d0db27b" y="1158.05239"/>
      </g>
     </g>
     <g id="text_71">
      <!-- 80 -->
      <g transform="translate(160.275 1161.851608)scale(0.1 -0.1)">
       <use xlink:href="#DejaVuSans-56"/>
       <use x="63.623047" xlink:href="#DejaVuSans-48"/>
      </g>
     </g>
    </g>
    <g id="text_72">
     <!-- Air Pressure (kPa) -->
     <g transform="translate(154.195312 1246.738963)rotate(-90)scale(0.1 -0.1)">
      <use xlink:href="#DejaVuSans-65"/>
      <use x="68.408203" xlink:href="#DejaVuSans-105"/>
      <use x="96.191406" xlink:href="#DejaVuSans-114"/>
      <use x="137.304688" xlink:href="#DejaVuSans-32"/>
      <use x="169.091797" xlink:href="#DejaVuSans-80"/>
      <use x="229.378906" xlink:href="#DejaVuSans-114"/>
      <use x="270.460938" xlink:href="#DejaVuSans-101"/>
      <use x="331.984375" xlink:href="#DejaVuSans-115"/>
      <use x="384.083984" xlink:href="#DejaVuSans-115"/>
      <use x="436.183594" xlink:href="#DejaVuSans-117"/>
      <use x="499.5625" xlink:href="#DejaVuSans-114"/>
      <use x="540.644531" xlink:href="#DejaVuSans-101"/>
      <use x="602.167969" xlink:href="#DejaVuSans-32"/>
      <use x="633.955078" xlink:href="#DejaVuSans-40"/>
      <use x="672.96875" xlink:href="#DejaVuSans-107"/>
      <use x="730.878906" xlink:href="#DejaVuSans-80"/>
      <use x="791.119141" xlink:href="#DejaVuSans-97"/>
      <use x="852.398438" xlink:href="#DejaVuSans-41"/>
     </g>
    </g>
   </g>
   <g id="line2d_126">
    <path clip-path="url(#p559dcd87e1)" d="M 230.727273 1149.597679 
L 236.15893 1149.711877 
L 241.590587 1150.050655 
L 247.022244 1150.614079 
L 252.453901 1151.397712 
L 257.885558 1152.402689 
L 263.464017 1153.661147 
L 269.189277 1155.184836 
L 275.061338 1156.983168 
L 281.080202 1159.063238 
L 287.245866 1161.42847 
L 293.705134 1164.142732 
L 300.604807 1167.285621 
L 308.091685 1170.947874 
L 316.312572 1175.225366 
L 325.561069 1180.294806 
L 336.424383 1186.512076 
L 351.104537 1195.19158 
L 379.290433 1211.895789 
L 390.44735 1218.21368 
L 399.842649 1223.284935 
L 408.357138 1227.630058 
L 416.13762 1231.353662 
L 423.477697 1234.620944 
L 430.377369 1237.452984 
L 437.13024 1239.983881 
L 443.589508 1242.171135 
L 450.048776 1244.126455 
L 456.654845 1245.890489 
L 463.407716 1247.458771 
L 470.45419 1248.860773 
L 477.794267 1250.091231 
L 485.427948 1251.144861 
L 492.768025 1251.926983 
L 501.429316 1252.618334 
L 511.705424 1253.206744 
L 524.330356 1253.69623 
L 540.331724 1254.083152 
L 562.205154 1254.374999 
L 595.822707 1254.578786 
L 658.360164 1254.701373 
L 826.888333 1254.741489 
L 1245.272727 1254.742747 
L 1245.272727 1254.742747 
" style="fill:none;stroke:#000000;stroke-linecap:square;stroke-width:1.5;"/>
   </g>
   <g id="patch_38">
    <path d="M 180 1260 
L 180 1144.340426 
" style="fill:none;stroke:#000000;stroke-linecap:square;stroke-linejoin:miter;stroke-width:0.8;"/>
   </g>
   <g id="patch_39">
    <path d="M 1296 1260 
L 1296 1144.340426 
" style="fill:none;stroke:#000000;stroke-linecap:square;stroke-linejoin:miter;stroke-width:0.8;"/>
   </g>
   <g id="patch_40">
    <path d="M 180 1260 
L 1296 1260 
" style="fill:none;stroke:#000000;stroke-linecap:square;stroke-linejoin:miter;stroke-width:0.8;"/>
   </g>
   <g id="patch_41">
    <path d="M 180 1144.340426 
L 1296 1144.340426 
" style="fill:none;stroke:#000000;stroke-linecap:square;stroke-linejoin:miter;stroke-width:0.8;"/>
   </g>
  </g>
 </g>
 <defs>
  <clipPath id="pee0f0b0d61">
   <rect height="115.659574" width="1116" x="180" y="172.8"/>
  </clipPath>
  <clipPath id="p804e80408e">
   <rect height="115.659574" width="1116" x="180" y="311.591489"/>
  </clipPath>
  <clipPath id="p1567059d94">
   <rect height="115.659574" width="1116" x="180" y="450.382979"/>
  </clipPath>
  <clipPath id="p4afc56b7b1">
   <rect height="115.659574" width="1116" x="180" y="589.174468"/>
  </clipPath>
  <clipPath id="p89017a1e3e">
   <rect height="115.659574" width="1116" x="180" y="727.965957"/>
  </clipPath>
  <clipPath id="pf899c59755">
   <rect height="115.659574" width="1116" x="180" y="866.757447"/>
  </clipPath>
  <clipPath id="p06f08c8c2d">
   <rect height="115.659574" width="1116" x="180" y="1005.548936"/>
  </clipPath>
  <clipPath id="p559dcd87e1">
   <rect height="115.659574" width="1116" x="180" y="1144.340426"/>
  </clipPath>
 </defs>
</svg>
