<?xml version="1.0" encoding="utf-8" standalone="no"?>
<!DOCTYPE svg PUBLIC "-//W3C//DTD SVG 1.1//EN"
  "http://www.w3.org/Graphics/SVG/1.1/DTD/svg11.dtd">
<!-- Created with matplotlib (https://matplotlib.org/) -->
<svg height="1440pt" version="1.1" viewBox="0 0 1440 1440" width="1440pt" xmlns="http://www.w3.org/2000/svg" xmlns:xlink="http://www.w3.org/1999/xlink">
 <defs>
  <style type="text/css">
*{stroke-linecap:butt;stroke-linejoin:round;}
  </style>
 </defs>
 <g id="figure_1">
  <g id="patch_1">
   <path d="M 0 1440 
L 1440 1440 
L 1440 0 
L 0 0 
z
" style="fill:#ffffff;"/>
  </g>
  <g id="axes_1">
   <g id="patch_2">
    <path d="M 180 288.459574 
L 1296 288.459574 
L 1296 172.8 
L 180 172.8 
z
" style="fill:#ffffff;"/>
   </g>
   <g id="matplotlib.axis_1">
    <g id="xtick_1">
     <g id="line2d_1">
      <defs>
       <path d="M 0 0 
L 0 3.5 
" id="mf79e7d00a6" style="stroke:#000000;stroke-width:0.8;"/>
      </defs>
      <g>
       <use style="stroke:#000000;stroke-width:0.8;" x="230.580152" xlink:href="#mf79e7d00a6" y="288.459574"/>
      </g>
     </g>
    </g>
    <g id="xtick_2">
     <g id="line2d_2">
      <g>
       <use style="stroke:#000000;stroke-width:0.8;" x="377.701012" xlink:href="#mf79e7d00a6" y="288.459574"/>
      </g>
     </g>
    </g>
    <g id="xtick_3">
     <g id="line2d_3">
      <g>
       <use style="stroke:#000000;stroke-width:0.8;" x="524.821873" xlink:href="#mf79e7d00a6" y="288.459574"/>
      </g>
     </g>
    </g>
    <g id="xtick_4">
     <g id="line2d_4">
      <g>
       <use style="stroke:#000000;stroke-width:0.8;" x="671.942734" xlink:href="#mf79e7d00a6" y="288.459574"/>
      </g>
     </g>
    </g>
    <g id="xtick_5">
     <g id="line2d_5">
      <g>
       <use style="stroke:#000000;stroke-width:0.8;" x="819.063594" xlink:href="#mf79e7d00a6" y="288.459574"/>
      </g>
     </g>
    </g>
    <g id="xtick_6">
     <g id="line2d_6">
      <g>
       <use style="stroke:#000000;stroke-width:0.8;" x="966.184455" xlink:href="#mf79e7d00a6" y="288.459574"/>
      </g>
     </g>
    </g>
    <g id="xtick_7">
     <g id="line2d_7">
      <g>
       <use style="stroke:#000000;stroke-width:0.8;" x="1113.305315" xlink:href="#mf79e7d00a6" y="288.459574"/>
      </g>
     </g>
    </g>
    <g id="xtick_8">
     <g id="line2d_8">
      <g>
       <use style="stroke:#000000;stroke-width:0.8;" x="1260.426176" xlink:href="#mf79e7d00a6" y="288.459574"/>
      </g>
     </g>
    </g>
   </g>
   <g id="matplotlib.axis_2">
    <g id="ytick_1">
     <g id="line2d_9">
      <defs>
       <path d="M 0 0 
L -3.5 0 
" id="m2d675d6942" style="stroke:#000000;stroke-width:0.8;"/>
      </defs>
      <g>
       <use style="stroke:#000000;stroke-width:0.8;" x="180" xlink:href="#m2d675d6942" y="283.205099"/>
      </g>
     </g>
     <g id="text_1">
      <!-- 0 -->
      <defs>
       <path d="M 31.78125 66.40625 
Q 24.171875 66.40625 20.328125 58.90625 
Q 16.5 51.421875 16.5 36.375 
Q 16.5 21.390625 20.328125 13.890625 
Q 24.171875 6.390625 31.78125 6.390625 
Q 39.453125 6.390625 43.28125 13.890625 
Q 47.125 21.390625 47.125 36.375 
Q 47.125 51.421875 43.28125 58.90625 
Q 39.453125 66.40625 31.78125 66.40625 
z
M 31.78125 74.21875 
Q 44.046875 74.21875 50.515625 64.515625 
Q 56.984375 54.828125 56.984375 36.375 
Q 56.984375 17.96875 50.515625 8.265625 
Q 44.046875 -1.421875 31.78125 -1.421875 
Q 19.53125 -1.421875 13.0625 8.265625 
Q 6.59375 17.96875 6.59375 36.375 
Q 6.59375 54.828125 13.0625 64.515625 
Q 19.53125 74.21875 31.78125 74.21875 
z
" id="DejaVuSans-48"/>
      </defs>
      <g transform="translate(166.6375 287.004318)scale(0.1 -0.1)">
       <use xlink:href="#DejaVuSans-48"/>
      </g>
     </g>
    </g>
    <g id="ytick_2">
     <g id="line2d_10">
      <g>
       <use style="stroke:#000000;stroke-width:0.8;" x="180" xlink:href="#m2d675d6942" y="261.381108"/>
      </g>
     </g>
     <g id="text_2">
      <!-- 20 -->
      <defs>
       <path d="M 19.1875 8.296875 
L 53.609375 8.296875 
L 53.609375 0 
L 7.328125 0 
L 7.328125 8.296875 
Q 12.9375 14.109375 22.625 23.890625 
Q 32.328125 33.6875 34.8125 36.53125 
Q 39.546875 41.84375 41.421875 45.53125 
Q 43.3125 49.21875 43.3125 52.78125 
Q 43.3125 58.59375 39.234375 62.25 
Q 35.15625 65.921875 28.609375 65.921875 
Q 23.96875 65.921875 18.8125 64.3125 
Q 13.671875 62.703125 7.8125 59.421875 
L 7.8125 69.390625 
Q 13.765625 71.78125 18.9375 73 
Q 24.125 74.21875 28.421875 74.21875 
Q 39.75 74.21875 46.484375 68.546875 
Q 53.21875 62.890625 53.21875 53.421875 
Q 53.21875 48.921875 51.53125 44.890625 
Q 49.859375 40.875 45.40625 35.40625 
Q 44.1875 33.984375 37.640625 27.21875 
Q 31.109375 20.453125 19.1875 8.296875 
z
" id="DejaVuSans-50"/>
      </defs>
      <g transform="translate(160.275 265.180327)scale(0.1 -0.1)">
       <use xlink:href="#DejaVuSans-50"/>
       <use x="63.623047" xlink:href="#DejaVuSans-48"/>
      </g>
     </g>
    </g>
    <g id="ytick_3">
     <g id="line2d_11">
      <g>
       <use style="stroke:#000000;stroke-width:0.8;" x="180" xlink:href="#m2d675d6942" y="239.557118"/>
      </g>
     </g>
     <g id="text_3">
      <!-- 40 -->
      <defs>
       <path d="M 37.796875 64.3125 
L 12.890625 25.390625 
L 37.796875 25.390625 
z
M 35.203125 72.90625 
L 47.609375 72.90625 
L 47.609375 25.390625 
L 58.015625 25.390625 
L 58.015625 17.1875 
L 47.609375 17.1875 
L 47.609375 0 
L 37.796875 0 
L 37.796875 17.1875 
L 4.890625 17.1875 
L 4.890625 26.703125 
z
" id="DejaVuSans-52"/>
      </defs>
      <g transform="translate(160.275 243.356337)scale(0.1 -0.1)">
       <use xlink:href="#DejaVuSans-52"/>
       <use x="63.623047" xlink:href="#DejaVuSans-48"/>
      </g>
     </g>
    </g>
    <g id="ytick_4">
     <g id="line2d_12">
      <g>
       <use style="stroke:#000000;stroke-width:0.8;" x="180" xlink:href="#m2d675d6942" y="217.733128"/>
      </g>
     </g>
     <g id="text_4">
      <!-- 60 -->
      <defs>
       <path d="M 33.015625 40.375 
Q 26.375 40.375 22.484375 35.828125 
Q 18.609375 31.296875 18.609375 23.390625 
Q 18.609375 15.53125 22.484375 10.953125 
Q 26.375 6.390625 33.015625 6.390625 
Q 39.65625 6.390625 43.53125 10.953125 
Q 47.40625 15.53125 47.40625 23.390625 
Q 47.40625 31.296875 43.53125 35.828125 
Q 39.65625 40.375 33.015625 40.375 
z
M 52.59375 71.296875 
L 52.59375 62.3125 
Q 48.875 64.0625 45.09375 64.984375 
Q 41.3125 65.921875 37.59375 65.921875 
Q 27.828125 65.921875 22.671875 59.328125 
Q 17.53125 52.734375 16.796875 39.40625 
Q 19.671875 43.65625 24.015625 45.921875 
Q 28.375 48.1875 33.59375 48.1875 
Q 44.578125 48.1875 50.953125 41.515625 
Q 57.328125 34.859375 57.328125 23.390625 
Q 57.328125 12.15625 50.6875 5.359375 
Q 44.046875 -1.421875 33.015625 -1.421875 
Q 20.359375 -1.421875 13.671875 8.265625 
Q 6.984375 17.96875 6.984375 36.375 
Q 6.984375 53.65625 15.1875 63.9375 
Q 23.390625 74.21875 37.203125 74.21875 
Q 40.921875 74.21875 44.703125 73.484375 
Q 48.484375 72.75 52.59375 71.296875 
z
" id="DejaVuSans-54"/>
      </defs>
      <g transform="translate(160.275 221.532347)scale(0.1 -0.1)">
       <use xlink:href="#DejaVuSans-54"/>
       <use x="63.623047" xlink:href="#DejaVuSans-48"/>
      </g>
     </g>
    </g>
    <g id="ytick_5">
     <g id="line2d_13">
      <g>
       <use style="stroke:#000000;stroke-width:0.8;" x="180" xlink:href="#m2d675d6942" y="195.909138"/>
      </g>
     </g>
     <g id="text_5">
      <!-- 80 -->
      <defs>
       <path d="M 31.78125 34.625 
Q 24.75 34.625 20.71875 30.859375 
Q 16.703125 27.09375 16.703125 20.515625 
Q 16.703125 13.921875 20.71875 10.15625 
Q 24.75 6.390625 31.78125 6.390625 
Q 38.8125 6.390625 42.859375 10.171875 
Q 46.921875 13.96875 46.921875 20.515625 
Q 46.921875 27.09375 42.890625 30.859375 
Q 38.875 34.625 31.78125 34.625 
z
M 21.921875 38.8125 
Q 15.578125 40.375 12.03125 44.71875 
Q 8.5 49.078125 8.5 55.328125 
Q 8.5 64.0625 14.71875 69.140625 
Q 20.953125 74.21875 31.78125 74.21875 
Q 42.671875 74.21875 48.875 69.140625 
Q 55.078125 64.0625 55.078125 55.328125 
Q 55.078125 49.078125 51.53125 44.71875 
Q 48 40.375 41.703125 38.8125 
Q 48.828125 37.15625 52.796875 32.3125 
Q 56.78125 27.484375 56.78125 20.515625 
Q 56.78125 9.90625 50.3125 4.234375 
Q 43.84375 -1.421875 31.78125 -1.421875 
Q 19.734375 -1.421875 13.25 4.234375 
Q 6.78125 9.90625 6.78125 20.515625 
Q 6.78125 27.484375 10.78125 32.3125 
Q 14.796875 37.15625 21.921875 38.8125 
z
M 18.3125 54.390625 
Q 18.3125 48.734375 21.84375 45.5625 
Q 25.390625 42.390625 31.78125 42.390625 
Q 38.140625 42.390625 41.71875 45.5625 
Q 45.3125 48.734375 45.3125 54.390625 
Q 45.3125 60.0625 41.71875 63.234375 
Q 38.140625 66.40625 31.78125 66.40625 
Q 25.390625 66.40625 21.84375 63.234375 
Q 18.3125 60.0625 18.3125 54.390625 
z
" id="DejaVuSans-56"/>
      </defs>
      <g transform="translate(160.275 199.708356)scale(0.1 -0.1)">
       <use xlink:href="#DejaVuSans-56"/>
       <use x="63.623047" xlink:href="#DejaVuSans-48"/>
      </g>
     </g>
    </g>
    <g id="ytick_6">
     <g id="line2d_14">
      <g>
       <use style="stroke:#000000;stroke-width:0.8;" x="180" xlink:href="#m2d675d6942" y="174.085147"/>
      </g>
     </g>
     <g id="text_6">
      <!-- 100 -->
      <defs>
       <path d="M 12.40625 8.296875 
L 28.515625 8.296875 
L 28.515625 63.921875 
L 10.984375 60.40625 
L 10.984375 69.390625 
L 28.421875 72.90625 
L 38.28125 72.90625 
L 38.28125 8.296875 
L 54.390625 8.296875 
L 54.390625 0 
L 12.40625 0 
z
" id="DejaVuSans-49"/>
      </defs>
      <g transform="translate(153.9125 177.884366)scale(0.1 -0.1)">
       <use xlink:href="#DejaVuSans-49"/>
       <use x="63.623047" xlink:href="#DejaVuSans-48"/>
       <use x="127.246094" xlink:href="#DejaVuSans-48"/>
      </g>
     </g>
    </g>
    <g id="text_7">
     <!-- Altitude (km) -->
     <defs>
      <path d="M 34.1875 63.1875 
L 20.796875 26.90625 
L 47.609375 26.90625 
z
M 28.609375 72.90625 
L 39.796875 72.90625 
L 67.578125 0 
L 57.328125 0 
L 50.6875 18.703125 
L 17.828125 18.703125 
L 11.1875 0 
L 0.78125 0 
z
" id="DejaVuSans-65"/>
      <path d="M 9.421875 75.984375 
L 18.40625 75.984375 
L 18.40625 0 
L 9.421875 0 
z
" id="DejaVuSans-108"/>
      <path d="M 18.3125 70.21875 
L 18.3125 54.6875 
L 36.8125 54.6875 
L 36.8125 47.703125 
L 18.3125 47.703125 
L 18.3125 18.015625 
Q 18.3125 11.328125 20.140625 9.421875 
Q 21.96875 7.515625 27.59375 7.515625 
L 36.8125 7.515625 
L 36.8125 0 
L 27.59375 0 
Q 17.1875 0 13.234375 3.875 
Q 9.28125 7.765625 9.28125 18.015625 
L 9.28125 47.703125 
L 2.6875 47.703125 
L 2.6875 54.6875 
L 9.28125 54.6875 
L 9.28125 70.21875 
z
" id="DejaVuSans-116"/>
      <path d="M 9.421875 54.6875 
L 18.40625 54.6875 
L 18.40625 0 
L 9.421875 0 
z
M 9.421875 75.984375 
L 18.40625 75.984375 
L 18.40625 64.59375 
L 9.421875 64.59375 
z
" id="DejaVuSans-105"/>
      <path d="M 8.5 21.578125 
L 8.5 54.6875 
L 17.484375 54.6875 
L 17.484375 21.921875 
Q 17.484375 14.15625 20.5 10.265625 
Q 23.53125 6.390625 29.59375 6.390625 
Q 36.859375 6.390625 41.078125 11.03125 
Q 45.3125 15.671875 45.3125 23.6875 
L 45.3125 54.6875 
L 54.296875 54.6875 
L 54.296875 0 
L 45.3125 0 
L 45.3125 8.40625 
Q 42.046875 3.421875 37.71875 1 
Q 33.40625 -1.421875 27.6875 -1.421875 
Q 18.265625 -1.421875 13.375 4.4375 
Q 8.5 10.296875 8.5 21.578125 
z
M 31.109375 56 
z
" id="DejaVuSans-117"/>
      <path d="M 45.40625 46.390625 
L 45.40625 75.984375 
L 54.390625 75.984375 
L 54.390625 0 
L 45.40625 0 
L 45.40625 8.203125 
Q 42.578125 3.328125 38.25 0.953125 
Q 33.9375 -1.421875 27.875 -1.421875 
Q 17.96875 -1.421875 11.734375 6.484375 
Q 5.515625 14.40625 5.515625 27.296875 
Q 5.515625 40.1875 11.734375 48.09375 
Q 17.96875 56 27.875 56 
Q 33.9375 56 38.25 53.625 
Q 42.578125 51.265625 45.40625 46.390625 
z
M 14.796875 27.296875 
Q 14.796875 17.390625 18.875 11.75 
Q 22.953125 6.109375 30.078125 6.109375 
Q 37.203125 6.109375 41.296875 11.75 
Q 45.40625 17.390625 45.40625 27.296875 
Q 45.40625 37.203125 41.296875 42.84375 
Q 37.203125 48.484375 30.078125 48.484375 
Q 22.953125 48.484375 18.875 42.84375 
Q 14.796875 37.203125 14.796875 27.296875 
z
" id="DejaVuSans-100"/>
      <path d="M 56.203125 29.59375 
L 56.203125 25.203125 
L 14.890625 25.203125 
Q 15.484375 15.921875 20.484375 11.0625 
Q 25.484375 6.203125 34.421875 6.203125 
Q 39.59375 6.203125 44.453125 7.46875 
Q 49.3125 8.734375 54.109375 11.28125 
L 54.109375 2.78125 
Q 49.265625 0.734375 44.1875 -0.34375 
Q 39.109375 -1.421875 33.890625 -1.421875 
Q 20.796875 -1.421875 13.15625 6.1875 
Q 5.515625 13.8125 5.515625 26.8125 
Q 5.515625 40.234375 12.765625 48.109375 
Q 20.015625 56 32.328125 56 
Q 43.359375 56 49.78125 48.890625 
Q 56.203125 41.796875 56.203125 29.59375 
z
M 47.21875 32.234375 
Q 47.125 39.59375 43.09375 43.984375 
Q 39.0625 48.390625 32.421875 48.390625 
Q 24.90625 48.390625 20.390625 44.140625 
Q 15.875 39.890625 15.1875 32.171875 
z
" id="DejaVuSans-101"/>
      <path id="DejaVuSans-32"/>
      <path d="M 31 75.875 
Q 24.46875 64.65625 21.28125 53.65625 
Q 18.109375 42.671875 18.109375 31.390625 
Q 18.109375 20.125 21.3125 9.0625 
Q 24.515625 -2 31 -13.1875 
L 23.1875 -13.1875 
Q 15.875 -1.703125 12.234375 9.375 
Q 8.59375 20.453125 8.59375 31.390625 
Q 8.59375 42.28125 12.203125 53.3125 
Q 15.828125 64.359375 23.1875 75.875 
z
" id="DejaVuSans-40"/>
      <path d="M 9.078125 75.984375 
L 18.109375 75.984375 
L 18.109375 31.109375 
L 44.921875 54.6875 
L 56.390625 54.6875 
L 27.390625 29.109375 
L 57.625 0 
L 45.90625 0 
L 18.109375 26.703125 
L 18.109375 0 
L 9.078125 0 
z
" id="DejaVuSans-107"/>
      <path d="M 52 44.1875 
Q 55.375 50.25 60.0625 53.125 
Q 64.75 56 71.09375 56 
Q 79.640625 56 84.28125 50.015625 
Q 88.921875 44.046875 88.921875 33.015625 
L 88.921875 0 
L 79.890625 0 
L 79.890625 32.71875 
Q 79.890625 40.578125 77.09375 44.375 
Q 74.3125 48.1875 68.609375 48.1875 
Q 61.625 48.1875 57.5625 43.546875 
Q 53.515625 38.921875 53.515625 30.90625 
L 53.515625 0 
L 44.484375 0 
L 44.484375 32.71875 
Q 44.484375 40.625 41.703125 44.40625 
Q 38.921875 48.1875 33.109375 48.1875 
Q 26.21875 48.1875 22.15625 43.53125 
Q 18.109375 38.875 18.109375 30.90625 
L 18.109375 0 
L 9.078125 0 
L 9.078125 54.6875 
L 18.109375 54.6875 
L 18.109375 46.1875 
Q 21.1875 51.21875 25.484375 53.609375 
Q 29.78125 56 35.6875 56 
Q 41.65625 56 45.828125 52.96875 
Q 50 49.953125 52 44.1875 
z
" id="DejaVuSans-109"/>
      <path d="M 8.015625 75.875 
L 15.828125 75.875 
Q 23.140625 64.359375 26.78125 53.3125 
Q 30.421875 42.28125 30.421875 31.390625 
Q 30.421875 20.453125 26.78125 9.375 
Q 23.140625 -1.703125 15.828125 -13.1875 
L 8.015625 -13.1875 
Q 14.5 -2 17.703125 9.0625 
Q 20.90625 20.125 20.90625 31.390625 
Q 20.90625 42.671875 17.703125 53.65625 
Q 14.5 64.65625 8.015625 75.875 
z
" id="DejaVuSans-41"/>
     </defs>
     <g transform="translate(147.832812 263.424318)rotate(-90)scale(0.1 -0.1)">
      <use xlink:href="#DejaVuSans-65"/>
      <use x="68.408203" xlink:href="#DejaVuSans-108"/>
      <use x="96.191406" xlink:href="#DejaVuSans-116"/>
      <use x="135.400391" xlink:href="#DejaVuSans-105"/>
      <use x="163.183594" xlink:href="#DejaVuSans-116"/>
      <use x="202.392578" xlink:href="#DejaVuSans-117"/>
      <use x="265.771484" xlink:href="#DejaVuSans-100"/>
      <use x="329.248047" xlink:href="#DejaVuSans-101"/>
      <use x="390.771484" xlink:href="#DejaVuSans-32"/>
      <use x="422.558594" xlink:href="#DejaVuSans-40"/>
      <use x="461.572266" xlink:href="#DejaVuSans-107"/>
      <use x="519.482422" xlink:href="#DejaVuSans-109"/>
      <use x="616.894531" xlink:href="#DejaVuSans-41"/>
     </g>
    </g>
   </g>
   <g id="line2d_15">
    <path clip-path="url(#p849769afad)" d="M 230.727273 283.202321 
L 249.558743 283.089139 
L 268.243092 282.754519 
L 286.927441 282.19736 
L 305.906032 281.408624 
L 325.473107 280.372235 
L 345.628665 279.082732 
L 365.784223 277.570836 
L 385.498418 275.871276 
L 404.62413 274.001056 
L 422.867117 271.994782 
L 439.933136 269.8976 
L 455.96931 267.706004 
L 470.975638 265.43308 
L 485.099241 263.069787 
L 498.340118 260.630754 
L 510.845391 258.104705 
L 525.851719 254.819012 
L 549.096815 249.842485 
L 574.254482 244.686193 
L 600.441995 239.546119 
L 627.217992 234.516897 
L 654.28823 229.65833 
L 681.50559 224.998783 
L 708.87007 220.539759 
L 736.23455 216.305681 
L 763.59903 212.295663 
L 790.96351 208.5091 
L 818.475111 204.926977 
L 845.986712 201.569876 
L 873.498313 198.437488 
L 901.009914 195.529596 
L 928.521514 192.845979 
L 956.033115 190.386436 
L 983.544716 188.150795 
L 1011.056317 186.138907 
L 1038.567918 184.350639 
L 1066.079519 182.785875 
L 1093.59112 181.444515 
L 1121.102721 180.326473 
L 1148.614322 179.431677 
L 1176.125923 178.760071 
L 1203.637524 178.311612 
L 1231.149125 178.086271 
L 1245.272727 178.057254 
L 1245.272727 178.057254 
" style="fill:none;stroke:#000000;stroke-linecap:square;stroke-width:1.5;"/>
   </g>
   <g id="patch_3">
    <path d="M 180 288.459574 
L 180 172.8 
" style="fill:none;stroke:#000000;stroke-linecap:square;stroke-linejoin:miter;stroke-width:0.8;"/>
   </g>
   <g id="patch_4">
    <path d="M 1296 288.459574 
L 1296 172.8 
" style="fill:none;stroke:#000000;stroke-linecap:square;stroke-linejoin:miter;stroke-width:0.8;"/>
   </g>
   <g id="patch_5">
    <path d="M 180 288.459574 
L 1296 288.459574 
" style="fill:none;stroke:#000000;stroke-linecap:square;stroke-linejoin:miter;stroke-width:0.8;"/>
   </g>
   <g id="patch_6">
    <path d="M 180 172.8 
L 1296 172.8 
" style="fill:none;stroke:#000000;stroke-linecap:square;stroke-linejoin:miter;stroke-width:0.8;"/>
   </g>
   <g id="text_8">
    <!-- LV4 Trajectory -->
    <defs>
     <path d="M 9.8125 72.90625 
L 19.671875 72.90625 
L 19.671875 8.296875 
L 55.171875 8.296875 
L 55.171875 0 
L 9.8125 0 
z
" id="DejaVuSans-76"/>
     <path d="M 28.609375 0 
L 0.78125 72.90625 
L 11.078125 72.90625 
L 34.1875 11.53125 
L 57.328125 72.90625 
L 67.578125 72.90625 
L 39.796875 0 
z
" id="DejaVuSans-86"/>
     <path d="M -0.296875 72.90625 
L 61.375 72.90625 
L 61.375 64.59375 
L 35.5 64.59375 
L 35.5 0 
L 25.59375 0 
L 25.59375 64.59375 
L -0.296875 64.59375 
z
" id="DejaVuSans-84"/>
     <path d="M 41.109375 46.296875 
Q 39.59375 47.171875 37.8125 47.578125 
Q 36.03125 48 33.890625 48 
Q 26.265625 48 22.1875 43.046875 
Q 18.109375 38.09375 18.109375 28.8125 
L 18.109375 0 
L 9.078125 0 
L 9.078125 54.6875 
L 18.109375 54.6875 
L 18.109375 46.1875 
Q 20.953125 51.171875 25.484375 53.578125 
Q 30.03125 56 36.53125 56 
Q 37.453125 56 38.578125 55.875 
Q 39.703125 55.765625 41.0625 55.515625 
z
" id="DejaVuSans-114"/>
     <path d="M 34.28125 27.484375 
Q 23.390625 27.484375 19.1875 25 
Q 14.984375 22.515625 14.984375 16.5 
Q 14.984375 11.71875 18.140625 8.90625 
Q 21.296875 6.109375 26.703125 6.109375 
Q 34.1875 6.109375 38.703125 11.40625 
Q 43.21875 16.703125 43.21875 25.484375 
L 43.21875 27.484375 
z
M 52.203125 31.203125 
L 52.203125 0 
L 43.21875 0 
L 43.21875 8.296875 
Q 40.140625 3.328125 35.546875 0.953125 
Q 30.953125 -1.421875 24.3125 -1.421875 
Q 15.921875 -1.421875 10.953125 3.296875 
Q 6 8.015625 6 15.921875 
Q 6 25.140625 12.171875 29.828125 
Q 18.359375 34.515625 30.609375 34.515625 
L 43.21875 34.515625 
L 43.21875 35.40625 
Q 43.21875 41.609375 39.140625 45 
Q 35.0625 48.390625 27.6875 48.390625 
Q 23 48.390625 18.546875 47.265625 
Q 14.109375 46.140625 10.015625 43.890625 
L 10.015625 52.203125 
Q 14.9375 54.109375 19.578125 55.046875 
Q 24.21875 56 28.609375 56 
Q 40.484375 56 46.34375 49.84375 
Q 52.203125 43.703125 52.203125 31.203125 
z
" id="DejaVuSans-97"/>
     <path d="M 9.421875 54.6875 
L 18.40625 54.6875 
L 18.40625 -0.984375 
Q 18.40625 -11.421875 14.421875 -16.109375 
Q 10.453125 -20.796875 1.609375 -20.796875 
L -1.8125 -20.796875 
L -1.8125 -13.1875 
L 0.59375 -13.1875 
Q 5.71875 -13.1875 7.5625 -10.8125 
Q 9.421875 -8.453125 9.421875 -0.984375 
z
M 9.421875 75.984375 
L 18.40625 75.984375 
L 18.40625 64.59375 
L 9.421875 64.59375 
z
" id="DejaVuSans-106"/>
     <path d="M 48.78125 52.59375 
L 48.78125 44.1875 
Q 44.96875 46.296875 41.140625 47.34375 
Q 37.3125 48.390625 33.40625 48.390625 
Q 24.65625 48.390625 19.8125 42.84375 
Q 14.984375 37.3125 14.984375 27.296875 
Q 14.984375 17.28125 19.8125 11.734375 
Q 24.65625 6.203125 33.40625 6.203125 
Q 37.3125 6.203125 41.140625 7.25 
Q 44.96875 8.296875 48.78125 10.40625 
L 48.78125 2.09375 
Q 45.015625 0.34375 40.984375 -0.53125 
Q 36.96875 -1.421875 32.421875 -1.421875 
Q 20.0625 -1.421875 12.78125 6.34375 
Q 5.515625 14.109375 5.515625 27.296875 
Q 5.515625 40.671875 12.859375 48.328125 
Q 20.21875 56 33.015625 56 
Q 37.15625 56 41.109375 55.140625 
Q 45.0625 54.296875 48.78125 52.59375 
z
" id="DejaVuSans-99"/>
     <path d="M 30.609375 48.390625 
Q 23.390625 48.390625 19.1875 42.75 
Q 14.984375 37.109375 14.984375 27.296875 
Q 14.984375 17.484375 19.15625 11.84375 
Q 23.34375 6.203125 30.609375 6.203125 
Q 37.796875 6.203125 41.984375 11.859375 
Q 46.1875 17.53125 46.1875 27.296875 
Q 46.1875 37.015625 41.984375 42.703125 
Q 37.796875 48.390625 30.609375 48.390625 
z
M 30.609375 56 
Q 42.328125 56 49.015625 48.375 
Q 55.71875 40.765625 55.71875 27.296875 
Q 55.71875 13.875 49.015625 6.21875 
Q 42.328125 -1.421875 30.609375 -1.421875 
Q 18.84375 -1.421875 12.171875 6.21875 
Q 5.515625 13.875 5.515625 27.296875 
Q 5.515625 40.765625 12.171875 48.375 
Q 18.84375 56 30.609375 56 
z
" id="DejaVuSans-111"/>
     <path d="M 32.171875 -5.078125 
Q 28.375 -14.84375 24.75 -17.8125 
Q 21.140625 -20.796875 15.09375 -20.796875 
L 7.90625 -20.796875 
L 7.90625 -13.28125 
L 13.1875 -13.28125 
Q 16.890625 -13.28125 18.9375 -11.515625 
Q 21 -9.765625 23.484375 -3.21875 
L 25.09375 0.875 
L 2.984375 54.6875 
L 12.5 54.6875 
L 29.59375 11.921875 
L 46.6875 54.6875 
L 56.203125 54.6875 
z
" id="DejaVuSans-121"/>
    </defs>
    <g transform="translate(694.344375 166.8)scale(0.12 -0.12)">
     <use xlink:href="#DejaVuSans-76"/>
     <use x="55.541016" xlink:href="#DejaVuSans-86"/>
     <use x="123.949219" xlink:href="#DejaVuSans-52"/>
     <use x="187.572266" xlink:href="#DejaVuSans-32"/>
     <use x="219.359375" xlink:href="#DejaVuSans-84"/>
     <use x="280.224609" xlink:href="#DejaVuSans-114"/>
     <use x="321.337891" xlink:href="#DejaVuSans-97"/>
     <use x="382.617188" xlink:href="#DejaVuSans-106"/>
     <use x="410.400391" xlink:href="#DejaVuSans-101"/>
     <use x="471.923828" xlink:href="#DejaVuSans-99"/>
     <use x="526.904297" xlink:href="#DejaVuSans-116"/>
     <use x="566.113281" xlink:href="#DejaVuSans-111"/>
     <use x="627.294922" xlink:href="#DejaVuSans-114"/>
     <use x="668.408203" xlink:href="#DejaVuSans-121"/>
    </g>
   </g>
  </g>
  <g id="axes_2">
   <g id="patch_7">
    <path d="M 180 427.251064 
L 1296 427.251064 
L 1296 311.591489 
L 180 311.591489 
z
" style="fill:#ffffff;"/>
   </g>
   <g id="matplotlib.axis_3">
    <g id="xtick_9">
     <g id="line2d_16">
      <g>
       <use style="stroke:#000000;stroke-width:0.8;" x="230.580152" xlink:href="#mf79e7d00a6" y="427.251064"/>
      </g>
     </g>
    </g>
    <g id="xtick_10">
     <g id="line2d_17">
      <g>
       <use style="stroke:#000000;stroke-width:0.8;" x="377.701012" xlink:href="#mf79e7d00a6" y="427.251064"/>
      </g>
     </g>
    </g>
    <g id="xtick_11">
     <g id="line2d_18">
      <g>
       <use style="stroke:#000000;stroke-width:0.8;" x="524.821873" xlink:href="#mf79e7d00a6" y="427.251064"/>
      </g>
     </g>
    </g>
    <g id="xtick_12">
     <g id="line2d_19">
      <g>
       <use style="stroke:#000000;stroke-width:0.8;" x="671.942734" xlink:href="#mf79e7d00a6" y="427.251064"/>
      </g>
     </g>
    </g>
    <g id="xtick_13">
     <g id="line2d_20">
      <g>
       <use style="stroke:#000000;stroke-width:0.8;" x="819.063594" xlink:href="#mf79e7d00a6" y="427.251064"/>
      </g>
     </g>
    </g>
    <g id="xtick_14">
     <g id="line2d_21">
      <g>
       <use style="stroke:#000000;stroke-width:0.8;" x="966.184455" xlink:href="#mf79e7d00a6" y="427.251064"/>
      </g>
     </g>
    </g>
    <g id="xtick_15">
     <g id="line2d_22">
      <g>
       <use style="stroke:#000000;stroke-width:0.8;" x="1113.305315" xlink:href="#mf79e7d00a6" y="427.251064"/>
      </g>
     </g>
    </g>
    <g id="xtick_16">
     <g id="line2d_23">
      <g>
       <use style="stroke:#000000;stroke-width:0.8;" x="1260.426176" xlink:href="#mf79e7d00a6" y="427.251064"/>
      </g>
     </g>
    </g>
   </g>
   <g id="matplotlib.axis_4">
    <g id="ytick_7">
     <g id="line2d_24">
      <g>
       <use style="stroke:#000000;stroke-width:0.8;" x="180" xlink:href="#m2d675d6942" y="421.981032"/>
      </g>
     </g>
     <g id="text_9">
      <!-- 0 -->
      <g transform="translate(166.6375 425.780251)scale(0.1 -0.1)">
       <use xlink:href="#DejaVuSans-48"/>
      </g>
     </g>
    </g>
    <g id="ytick_8">
     <g id="line2d_25">
      <g>
       <use style="stroke:#000000;stroke-width:0.8;" x="180" xlink:href="#m2d675d6942" y="404.473952"/>
      </g>
     </g>
     <g id="text_10">
      <!-- 200 -->
      <g transform="translate(153.9125 408.273171)scale(0.1 -0.1)">
       <use xlink:href="#DejaVuSans-50"/>
       <use x="63.623047" xlink:href="#DejaVuSans-48"/>
       <use x="127.246094" xlink:href="#DejaVuSans-48"/>
      </g>
     </g>
    </g>
    <g id="ytick_9">
     <g id="line2d_26">
      <g>
       <use style="stroke:#000000;stroke-width:0.8;" x="180" xlink:href="#m2d675d6942" y="386.966871"/>
      </g>
     </g>
     <g id="text_11">
      <!-- 400 -->
      <g transform="translate(153.9125 390.76609)scale(0.1 -0.1)">
       <use xlink:href="#DejaVuSans-52"/>
       <use x="63.623047" xlink:href="#DejaVuSans-48"/>
       <use x="127.246094" xlink:href="#DejaVuSans-48"/>
      </g>
     </g>
    </g>
    <g id="ytick_10">
     <g id="line2d_27">
      <g>
       <use style="stroke:#000000;stroke-width:0.8;" x="180" xlink:href="#m2d675d6942" y="369.459791"/>
      </g>
     </g>
     <g id="text_12">
      <!-- 600 -->
      <g transform="translate(153.9125 373.25901)scale(0.1 -0.1)">
       <use xlink:href="#DejaVuSans-54"/>
       <use x="63.623047" xlink:href="#DejaVuSans-48"/>
       <use x="127.246094" xlink:href="#DejaVuSans-48"/>
      </g>
     </g>
    </g>
    <g id="ytick_11">
     <g id="line2d_28">
      <g>
       <use style="stroke:#000000;stroke-width:0.8;" x="180" xlink:href="#m2d675d6942" y="351.952711"/>
      </g>
     </g>
     <g id="text_13">
      <!-- 800 -->
      <g transform="translate(153.9125 355.751929)scale(0.1 -0.1)">
       <use xlink:href="#DejaVuSans-56"/>
       <use x="63.623047" xlink:href="#DejaVuSans-48"/>
       <use x="127.246094" xlink:href="#DejaVuSans-48"/>
      </g>
     </g>
    </g>
    <g id="ytick_12">
     <g id="line2d_29">
      <g>
       <use style="stroke:#000000;stroke-width:0.8;" x="180" xlink:href="#m2d675d6942" y="334.44563"/>
      </g>
     </g>
     <g id="text_14">
      <!-- 1000 -->
      <g transform="translate(147.55 338.244849)scale(0.1 -0.1)">
       <use xlink:href="#DejaVuSans-49"/>
       <use x="63.623047" xlink:href="#DejaVuSans-48"/>
       <use x="127.246094" xlink:href="#DejaVuSans-48"/>
       <use x="190.869141" xlink:href="#DejaVuSans-48"/>
      </g>
     </g>
    </g>
    <g id="ytick_13">
     <g id="line2d_30">
      <g>
       <use style="stroke:#000000;stroke-width:0.8;" x="180" xlink:href="#m2d675d6942" y="316.93855"/>
      </g>
     </g>
     <g id="text_15">
      <!-- 1200 -->
      <g transform="translate(147.55 320.737768)scale(0.1 -0.1)">
       <use xlink:href="#DejaVuSans-49"/>
       <use x="63.623047" xlink:href="#DejaVuSans-50"/>
       <use x="127.246094" xlink:href="#DejaVuSans-48"/>
       <use x="190.869141" xlink:href="#DejaVuSans-48"/>
      </g>
     </g>
    </g>
    <g id="text_16">
     <!-- Velocity (m/s) -->
     <defs>
      <path d="M 25.390625 72.90625 
L 33.6875 72.90625 
L 8.296875 -9.28125 
L 0 -9.28125 
z
" id="DejaVuSans-47"/>
      <path d="M 44.28125 53.078125 
L 44.28125 44.578125 
Q 40.484375 46.53125 36.375 47.5 
Q 32.28125 48.484375 27.875 48.484375 
Q 21.1875 48.484375 17.84375 46.4375 
Q 14.5 44.390625 14.5 40.28125 
Q 14.5 37.15625 16.890625 35.375 
Q 19.28125 33.59375 26.515625 31.984375 
L 29.59375 31.296875 
Q 39.15625 29.25 43.1875 25.515625 
Q 47.21875 21.78125 47.21875 15.09375 
Q 47.21875 7.46875 41.1875 3.015625 
Q 35.15625 -1.421875 24.609375 -1.421875 
Q 20.21875 -1.421875 15.453125 -0.5625 
Q 10.6875 0.296875 5.421875 2 
L 5.421875 11.28125 
Q 10.40625 8.6875 15.234375 7.390625 
Q 20.0625 6.109375 24.8125 6.109375 
Q 31.15625 6.109375 34.5625 8.28125 
Q 37.984375 10.453125 37.984375 14.40625 
Q 37.984375 18.0625 35.515625 20.015625 
Q 33.0625 21.96875 24.703125 23.78125 
L 21.578125 24.515625 
Q 13.234375 26.265625 9.515625 29.90625 
Q 5.8125 33.546875 5.8125 39.890625 
Q 5.8125 47.609375 11.28125 51.796875 
Q 16.75 56 26.8125 56 
Q 31.78125 56 36.171875 55.265625 
Q 40.578125 54.546875 44.28125 53.078125 
z
" id="DejaVuSans-115"/>
     </defs>
     <g transform="translate(141.470313 404.068933)rotate(-90)scale(0.1 -0.1)">
      <use xlink:href="#DejaVuSans-86"/>
      <use x="68.298828" xlink:href="#DejaVuSans-101"/>
      <use x="129.822266" xlink:href="#DejaVuSans-108"/>
      <use x="157.605469" xlink:href="#DejaVuSans-111"/>
      <use x="218.787109" xlink:href="#DejaVuSans-99"/>
      <use x="273.767578" xlink:href="#DejaVuSans-105"/>
      <use x="301.550781" xlink:href="#DejaVuSans-116"/>
      <use x="340.759766" xlink:href="#DejaVuSans-121"/>
      <use x="399.939453" xlink:href="#DejaVuSans-32"/>
      <use x="431.726562" xlink:href="#DejaVuSans-40"/>
      <use x="470.740234" xlink:href="#DejaVuSans-109"/>
      <use x="568.152344" xlink:href="#DejaVuSans-47"/>
      <use x="601.84375" xlink:href="#DejaVuSans-115"/>
      <use x="653.943359" xlink:href="#DejaVuSans-41"/>
     </g>
    </g>
   </g>
   <g id="line2d_31">
    <path clip-path="url(#p8905744593)" d="M 230.727273 421.937967 
L 254.11949 414.971881 
L 280.748365 406.953735 
L 305.317549 399.813287 
L 319.588273 395.916954 
L 340.773676 390.433406 
L 371.374815 382.446594 
L 387.852352 377.914805 
L 401.093229 374.048389 
L 412.715777 370.42604 
L 423.161358 366.939189 
L 432.724214 363.514132 
L 441.551466 360.120663 
L 449.937355 356.660734 
L 457.881881 353.144608 
L 465.532166 349.517305 
L 473.03533 345.711116 
L 480.244252 341.807113 
L 487.453174 337.647688 
L 494.514976 333.313591 
L 501.429656 328.809251 
L 508.197216 324.139303 
L 514.964775 319.198222 
L 518.201434 316.883331 
L 527.322928 318.910191 
L 538.06275 321.062125 
L 551.156507 323.450994 
L 567.634043 326.221716 
L 589.555052 329.669663 
L 621.038916 334.379836 
L 671.207129 341.637814 
L 757.272833 353.839796 
L 921.312592 376.847613 
L 1203.196161 416.138725 
L 1245.272727 421.99381 
L 1245.272727 421.99381 
" style="fill:none;stroke:#000000;stroke-linecap:square;stroke-width:1.5;"/>
   </g>
   <g id="patch_8">
    <path d="M 180 427.251064 
L 180 311.591489 
" style="fill:none;stroke:#000000;stroke-linecap:square;stroke-linejoin:miter;stroke-width:0.8;"/>
   </g>
   <g id="patch_9">
    <path d="M 1296 427.251064 
L 1296 311.591489 
" style="fill:none;stroke:#000000;stroke-linecap:square;stroke-linejoin:miter;stroke-width:0.8;"/>
   </g>
   <g id="patch_10">
    <path d="M 180 427.251064 
L 1296 427.251064 
" style="fill:none;stroke:#000000;stroke-linecap:square;stroke-linejoin:miter;stroke-width:0.8;"/>
   </g>
   <g id="patch_11">
    <path d="M 180 311.591489 
L 1296 311.591489 
" style="fill:none;stroke:#000000;stroke-linecap:square;stroke-linejoin:miter;stroke-width:0.8;"/>
   </g>
  </g>
  <g id="axes_3">
   <g id="patch_12">
    <path d="M 180 566.042553 
L 1296 566.042553 
L 1296 450.382979 
L 180 450.382979 
z
" style="fill:#ffffff;"/>
   </g>
   <g id="matplotlib.axis_5">
    <g id="xtick_17">
     <g id="line2d_32">
      <g>
       <use style="stroke:#000000;stroke-width:0.8;" x="230.580152" xlink:href="#mf79e7d00a6" y="566.042553"/>
      </g>
     </g>
    </g>
    <g id="xtick_18">
     <g id="line2d_33">
      <g>
       <use style="stroke:#000000;stroke-width:0.8;" x="377.701012" xlink:href="#mf79e7d00a6" y="566.042553"/>
      </g>
     </g>
    </g>
    <g id="xtick_19">
     <g id="line2d_34">
      <g>
       <use style="stroke:#000000;stroke-width:0.8;" x="524.821873" xlink:href="#mf79e7d00a6" y="566.042553"/>
      </g>
     </g>
    </g>
    <g id="xtick_20">
     <g id="line2d_35">
      <g>
       <use style="stroke:#000000;stroke-width:0.8;" x="671.942734" xlink:href="#mf79e7d00a6" y="566.042553"/>
      </g>
     </g>
    </g>
    <g id="xtick_21">
     <g id="line2d_36">
      <g>
       <use style="stroke:#000000;stroke-width:0.8;" x="819.063594" xlink:href="#mf79e7d00a6" y="566.042553"/>
      </g>
     </g>
    </g>
    <g id="xtick_22">
     <g id="line2d_37">
      <g>
       <use style="stroke:#000000;stroke-width:0.8;" x="966.184455" xlink:href="#mf79e7d00a6" y="566.042553"/>
      </g>
     </g>
    </g>
    <g id="xtick_23">
     <g id="line2d_38">
      <g>
       <use style="stroke:#000000;stroke-width:0.8;" x="1113.305315" xlink:href="#mf79e7d00a6" y="566.042553"/>
      </g>
     </g>
    </g>
    <g id="xtick_24">
     <g id="line2d_39">
      <g>
       <use style="stroke:#000000;stroke-width:0.8;" x="1260.426176" xlink:href="#mf79e7d00a6" y="566.042553"/>
      </g>
     </g>
    </g>
   </g>
   <g id="matplotlib.axis_6">
    <g id="ytick_14">
     <g id="line2d_40">
      <g>
       <use style="stroke:#000000;stroke-width:0.8;" x="180" xlink:href="#m2d675d6942" y="551.305133"/>
      </g>
     </g>
     <g id="text_17">
      <!-- −1 -->
      <defs>
       <path d="M 10.59375 35.5 
L 73.1875 35.5 
L 73.1875 27.203125 
L 10.59375 27.203125 
z
" id="DejaVuSans-8722"/>
      </defs>
      <g transform="translate(158.257812 555.104352)scale(0.1 -0.1)">
       <use xlink:href="#DejaVuSans-8722"/>
       <use x="83.789062" xlink:href="#DejaVuSans-49"/>
      </g>
     </g>
    </g>
    <g id="ytick_15">
     <g id="line2d_41">
      <g>
       <use style="stroke:#000000;stroke-width:0.8;" x="180" xlink:href="#m2d675d6942" y="536.041375"/>
      </g>
     </g>
     <g id="text_18">
      <!-- 0 -->
      <g transform="translate(166.6375 539.840594)scale(0.1 -0.1)">
       <use xlink:href="#DejaVuSans-48"/>
      </g>
     </g>
    </g>
    <g id="ytick_16">
     <g id="line2d_42">
      <g>
       <use style="stroke:#000000;stroke-width:0.8;" x="180" xlink:href="#m2d675d6942" y="520.777616"/>
      </g>
     </g>
     <g id="text_19">
      <!-- 1 -->
      <g transform="translate(166.6375 524.576835)scale(0.1 -0.1)">
       <use xlink:href="#DejaVuSans-49"/>
      </g>
     </g>
    </g>
    <g id="ytick_17">
     <g id="line2d_43">
      <g>
       <use style="stroke:#000000;stroke-width:0.8;" x="180" xlink:href="#m2d675d6942" y="505.513858"/>
      </g>
     </g>
     <g id="text_20">
      <!-- 2 -->
      <g transform="translate(166.6375 509.313077)scale(0.1 -0.1)">
       <use xlink:href="#DejaVuSans-50"/>
      </g>
     </g>
    </g>
    <g id="ytick_18">
     <g id="line2d_44">
      <g>
       <use style="stroke:#000000;stroke-width:0.8;" x="180" xlink:href="#m2d675d6942" y="490.250099"/>
      </g>
     </g>
     <g id="text_21">
      <!-- 3 -->
      <defs>
       <path d="M 40.578125 39.3125 
Q 47.65625 37.796875 51.625 33 
Q 55.609375 28.21875 55.609375 21.1875 
Q 55.609375 10.40625 48.1875 4.484375 
Q 40.765625 -1.421875 27.09375 -1.421875 
Q 22.515625 -1.421875 17.65625 -0.515625 
Q 12.796875 0.390625 7.625 2.203125 
L 7.625 11.71875 
Q 11.71875 9.328125 16.59375 8.109375 
Q 21.484375 6.890625 26.8125 6.890625 
Q 36.078125 6.890625 40.9375 10.546875 
Q 45.796875 14.203125 45.796875 21.1875 
Q 45.796875 27.640625 41.28125 31.265625 
Q 36.765625 34.90625 28.71875 34.90625 
L 20.21875 34.90625 
L 20.21875 43.015625 
L 29.109375 43.015625 
Q 36.375 43.015625 40.234375 45.921875 
Q 44.09375 48.828125 44.09375 54.296875 
Q 44.09375 59.90625 40.109375 62.90625 
Q 36.140625 65.921875 28.71875 65.921875 
Q 24.65625 65.921875 20.015625 65.03125 
Q 15.375 64.15625 9.8125 62.3125 
L 9.8125 71.09375 
Q 15.4375 72.65625 20.34375 73.4375 
Q 25.25 74.21875 29.59375 74.21875 
Q 40.828125 74.21875 47.359375 69.109375 
Q 53.90625 64.015625 53.90625 55.328125 
Q 53.90625 49.265625 50.4375 45.09375 
Q 46.96875 40.921875 40.578125 39.3125 
z
" id="DejaVuSans-51"/>
      </defs>
      <g transform="translate(166.6375 494.049318)scale(0.1 -0.1)">
       <use xlink:href="#DejaVuSans-51"/>
      </g>
     </g>
    </g>
    <g id="ytick_19">
     <g id="line2d_45">
      <g>
       <use style="stroke:#000000;stroke-width:0.8;" x="180" xlink:href="#m2d675d6942" y="474.986341"/>
      </g>
     </g>
     <g id="text_22">
      <!-- 4 -->
      <g transform="translate(166.6375 478.78556)scale(0.1 -0.1)">
       <use xlink:href="#DejaVuSans-52"/>
      </g>
     </g>
    </g>
    <g id="ytick_20">
     <g id="line2d_46">
      <g>
       <use style="stroke:#000000;stroke-width:0.8;" x="180" xlink:href="#m2d675d6942" y="459.722582"/>
      </g>
     </g>
     <g id="text_23">
      <!-- 5 -->
      <defs>
       <path d="M 10.796875 72.90625 
L 49.515625 72.90625 
L 49.515625 64.59375 
L 19.828125 64.59375 
L 19.828125 46.734375 
Q 21.96875 47.46875 24.109375 47.828125 
Q 26.265625 48.1875 28.421875 48.1875 
Q 40.625 48.1875 47.75 41.5 
Q 54.890625 34.8125 54.890625 23.390625 
Q 54.890625 11.625 47.5625 5.09375 
Q 40.234375 -1.421875 26.90625 -1.421875 
Q 22.3125 -1.421875 17.546875 -0.640625 
Q 12.796875 0.140625 7.71875 1.703125 
L 7.71875 11.625 
Q 12.109375 9.234375 16.796875 8.0625 
Q 21.484375 6.890625 26.703125 6.890625 
Q 35.15625 6.890625 40.078125 11.328125 
Q 45.015625 15.765625 45.015625 23.390625 
Q 45.015625 31 40.078125 35.4375 
Q 35.15625 39.890625 26.703125 39.890625 
Q 22.75 39.890625 18.8125 39.015625 
Q 14.890625 38.140625 10.796875 36.28125 
z
" id="DejaVuSans-53"/>
      </defs>
      <g transform="translate(166.6375 463.521801)scale(0.1 -0.1)">
       <use xlink:href="#DejaVuSans-53"/>
      </g>
     </g>
    </g>
    <g id="text_24">
     <!-- Acceleration/g_n -->
     <defs>
      <path d="M 54.890625 33.015625 
L 54.890625 0 
L 45.90625 0 
L 45.90625 32.71875 
Q 45.90625 40.484375 42.875 44.328125 
Q 39.84375 48.1875 33.796875 48.1875 
Q 26.515625 48.1875 22.3125 43.546875 
Q 18.109375 38.921875 18.109375 30.90625 
L 18.109375 0 
L 9.078125 0 
L 9.078125 54.6875 
L 18.109375 54.6875 
L 18.109375 46.1875 
Q 21.34375 51.125 25.703125 53.5625 
Q 30.078125 56 35.796875 56 
Q 45.21875 56 50.046875 50.171875 
Q 54.890625 44.34375 54.890625 33.015625 
z
" id="DejaVuSans-110"/>
      <path d="M 45.40625 27.984375 
Q 45.40625 37.75 41.375 43.109375 
Q 37.359375 48.484375 30.078125 48.484375 
Q 22.859375 48.484375 18.828125 43.109375 
Q 14.796875 37.75 14.796875 27.984375 
Q 14.796875 18.265625 18.828125 12.890625 
Q 22.859375 7.515625 30.078125 7.515625 
Q 37.359375 7.515625 41.375 12.890625 
Q 45.40625 18.265625 45.40625 27.984375 
z
M 54.390625 6.78125 
Q 54.390625 -7.171875 48.1875 -13.984375 
Q 42 -20.796875 29.203125 -20.796875 
Q 24.46875 -20.796875 20.265625 -20.09375 
Q 16.0625 -19.390625 12.109375 -17.921875 
L 12.109375 -9.1875 
Q 16.0625 -11.328125 19.921875 -12.34375 
Q 23.78125 -13.375 27.78125 -13.375 
Q 36.625 -13.375 41.015625 -8.765625 
Q 45.40625 -4.15625 45.40625 5.171875 
L 45.40625 9.625 
Q 42.625 4.78125 38.28125 2.390625 
Q 33.9375 0 27.875 0 
Q 17.828125 0 11.671875 7.65625 
Q 5.515625 15.328125 5.515625 27.984375 
Q 5.515625 40.671875 11.671875 48.328125 
Q 17.828125 56 27.875 56 
Q 33.9375 56 38.28125 53.609375 
Q 42.625 51.21875 45.40625 46.390625 
L 45.40625 54.6875 
L 54.390625 54.6875 
z
" id="DejaVuSans-103"/>
      <path d="M 50.984375 -16.609375 
L 50.984375 -23.578125 
L -0.984375 -23.578125 
L -0.984375 -16.609375 
z
" id="DejaVuSans-95"/>
     </defs>
     <g transform="translate(151.9 549.897141)rotate(-90)scale(0.1 -0.1)">
      <use xlink:href="#DejaVuSans-65"/>
      <use x="68.392578" xlink:href="#DejaVuSans-99"/>
      <use x="123.373047" xlink:href="#DejaVuSans-99"/>
      <use x="178.353516" xlink:href="#DejaVuSans-101"/>
      <use x="239.876953" xlink:href="#DejaVuSans-108"/>
      <use x="267.660156" xlink:href="#DejaVuSans-101"/>
      <use x="329.183594" xlink:href="#DejaVuSans-114"/>
      <use x="370.296875" xlink:href="#DejaVuSans-97"/>
      <use x="431.576172" xlink:href="#DejaVuSans-116"/>
      <use x="470.785156" xlink:href="#DejaVuSans-105"/>
      <use x="498.568359" xlink:href="#DejaVuSans-111"/>
      <use x="559.75" xlink:href="#DejaVuSans-110"/>
      <use x="623.128906" xlink:href="#DejaVuSans-47"/>
      <use x="656.820312" xlink:href="#DejaVuSans-103"/>
      <use x="720.296875" xlink:href="#DejaVuSans-95"/>
      <use x="770.296875" xlink:href="#DejaVuSans-110"/>
     </g>
    </g>
   </g>
   <g id="line2d_47">
    <path clip-path="url(#p341910c0d7)" d="M 230.727273 505.411374 
L 240.290129 504.608086 
L 242.496942 504.757618 
L 247.499051 505.246649 
L 249.11738 505.068606 
L 251.471314 504.526064 
L 253.531006 504.143228 
L 255.149336 504.073115 
L 256.620544 504.237723 
L 260.298566 504.868002 
L 261.475533 504.668202 
L 264.123708 504.084161 
L 265.153554 504.127312 
L 266.330521 504.406562 
L 268.095971 504.850848 
L 268.978696 504.820325 
L 270.302784 504.479873 
L 271.479751 504.237023 
L 272.362476 504.270821 
L 273.392322 504.547741 
L 274.863531 504.9552 
L 275.746256 504.916073 
L 278.394432 504.481447 
L 279.424278 504.769969 
L 280.748365 505.135104 
L 281.48397 505.097528 
L 283.690783 504.740628 
L 284.573508 504.969101 
L 285.897595 505.352485 
L 286.6332 505.320833 
L 288.545771 505.044473 
L 289.428496 505.274618 
L 290.605463 505.607581 
L 291.341067 505.579127 
L 292.959397 505.368578 
L 293.842122 505.583491 
L 295.019089 505.897507 
L 295.901814 505.834494 
L 297.078781 505.715352 
L 297.961506 505.91729 
L 299.138473 506.209128 
L 300.021198 506.144171 
L 301.051044 506.086694 
L 301.933769 506.302117 
L 302.963615 506.537563 
L 303.993461 506.471332 
L 304.876186 506.48331 
L 307.377241 506.859101 
L 308.407087 506.877424 
L 310.761021 507.242654 
L 311.790867 507.286562 
L 313.99768 507.643027 
L 315.174647 507.731512 
L 316.792976 508.022931 
L 318.264185 508.123473 
L 320.029635 508.407843 
L 321.353723 508.545369 
L 322.824931 508.793841 
L 329.151128 508.982366 
L 343.716094 509.097417 
L 349.89517 508.998488 
L 355.485762 508.855015 
L 366.96119 508.311034 
L 375.052837 507.728421 
L 383.732968 506.891302 
L 392.560219 505.806227 
L 400.798988 504.561265 
L 408.743514 503.133516 
L 416.246678 501.560307 
L 423.602721 499.78912 
L 430.664522 497.861834 
L 437.579203 495.747953 
L 444.493883 493.400895 
L 451.261443 490.872241 
L 458.176123 488.052242 
L 465.532166 484.809078 
L 473.329572 481.124103 
L 481.56834 476.981049 
L 490.10135 472.442077 
L 498.487239 467.732769 
L 506.578886 462.931854 
L 514.229171 458.137857 
L 518.054313 455.640232 
L 518.201434 560.7853 
L 522.762181 559.419148 
L 527.617169 558.200061 
L 533.207762 557.03082 
L 539.239717 556.002813 
L 546.154398 555.055954 
L 553.951803 554.220506 
L 562.926176 553.486136 
L 573.518878 552.850533 
L 586.171272 552.317388 
L 602.501687 551.866836 
L 623.834212 551.512152 
L 654.435351 551.239071 
L 707.545982 551.012485 
L 805.822717 550.866997 
L 1056.516663 550.750837 
L 1245.272727 550.728413 
L 1245.272727 550.728413 
" style="fill:none;stroke:#000000;stroke-linecap:square;stroke-width:1.5;"/>
   </g>
   <g id="patch_13">
    <path d="M 180 566.042553 
L 180 450.382979 
" style="fill:none;stroke:#000000;stroke-linecap:square;stroke-linejoin:miter;stroke-width:0.8;"/>
   </g>
   <g id="patch_14">
    <path d="M 1296 566.042553 
L 1296 450.382979 
" style="fill:none;stroke:#000000;stroke-linecap:square;stroke-linejoin:miter;stroke-width:0.8;"/>
   </g>
   <g id="patch_15">
    <path d="M 180 566.042553 
L 1296 566.042553 
" style="fill:none;stroke:#000000;stroke-linecap:square;stroke-linejoin:miter;stroke-width:0.8;"/>
   </g>
   <g id="patch_16">
    <path d="M 180 450.382979 
L 1296 450.382979 
" style="fill:none;stroke:#000000;stroke-linecap:square;stroke-linejoin:miter;stroke-width:0.8;"/>
   </g>
  </g>
  <g id="axes_4">
   <g id="patch_17">
    <path d="M 180 704.834043 
L 1296 704.834043 
L 1296 589.174468 
L 180 589.174468 
z
" style="fill:#ffffff;"/>
   </g>
   <g id="matplotlib.axis_7">
    <g id="xtick_25">
     <g id="line2d_48">
      <g>
       <use style="stroke:#000000;stroke-width:0.8;" x="230.580152" xlink:href="#mf79e7d00a6" y="704.834043"/>
      </g>
     </g>
    </g>
    <g id="xtick_26">
     <g id="line2d_49">
      <g>
       <use style="stroke:#000000;stroke-width:0.8;" x="377.701012" xlink:href="#mf79e7d00a6" y="704.834043"/>
      </g>
     </g>
    </g>
    <g id="xtick_27">
     <g id="line2d_50">
      <g>
       <use style="stroke:#000000;stroke-width:0.8;" x="524.821873" xlink:href="#mf79e7d00a6" y="704.834043"/>
      </g>
     </g>
    </g>
    <g id="xtick_28">
     <g id="line2d_51">
      <g>
       <use style="stroke:#000000;stroke-width:0.8;" x="671.942734" xlink:href="#mf79e7d00a6" y="704.834043"/>
      </g>
     </g>
    </g>
    <g id="xtick_29">
     <g id="line2d_52">
      <g>
       <use style="stroke:#000000;stroke-width:0.8;" x="819.063594" xlink:href="#mf79e7d00a6" y="704.834043"/>
      </g>
     </g>
    </g>
    <g id="xtick_30">
     <g id="line2d_53">
      <g>
       <use style="stroke:#000000;stroke-width:0.8;" x="966.184455" xlink:href="#mf79e7d00a6" y="704.834043"/>
      </g>
     </g>
    </g>
    <g id="xtick_31">
     <g id="line2d_54">
      <g>
       <use style="stroke:#000000;stroke-width:0.8;" x="1113.305315" xlink:href="#mf79e7d00a6" y="704.834043"/>
      </g>
     </g>
    </g>
    <g id="xtick_32">
     <g id="line2d_55">
      <g>
       <use style="stroke:#000000;stroke-width:0.8;" x="1260.426176" xlink:href="#mf79e7d00a6" y="704.834043"/>
      </g>
     </g>
    </g>
   </g>
   <g id="matplotlib.axis_8">
    <g id="ytick_21">
     <g id="line2d_56">
      <g>
       <use style="stroke:#000000;stroke-width:0.8;" x="180" xlink:href="#m2d675d6942" y="699.576789"/>
      </g>
     </g>
     <g id="text_25">
      <!-- 0 -->
      <g transform="translate(166.6375 703.376008)scale(0.1 -0.1)">
       <use xlink:href="#DejaVuSans-48"/>
      </g>
     </g>
    </g>
    <g id="ytick_22">
     <g id="line2d_57">
      <g>
       <use style="stroke:#000000;stroke-width:0.8;" x="180" xlink:href="#m2d675d6942" y="687.657238"/>
      </g>
     </g>
     <g id="text_26">
      <!-- 1 -->
      <g transform="translate(166.6375 691.456457)scale(0.1 -0.1)">
       <use xlink:href="#DejaVuSans-49"/>
      </g>
     </g>
    </g>
    <g id="ytick_23">
     <g id="line2d_58">
      <g>
       <use style="stroke:#000000;stroke-width:0.8;" x="180" xlink:href="#m2d675d6942" y="675.737687"/>
      </g>
     </g>
     <g id="text_27">
      <!-- 2 -->
      <g transform="translate(166.6375 679.536906)scale(0.1 -0.1)">
       <use xlink:href="#DejaVuSans-50"/>
      </g>
     </g>
    </g>
    <g id="ytick_24">
     <g id="line2d_59">
      <g>
       <use style="stroke:#000000;stroke-width:0.8;" x="180" xlink:href="#m2d675d6942" y="663.818136"/>
      </g>
     </g>
     <g id="text_28">
      <!-- 3 -->
      <g transform="translate(166.6375 667.617355)scale(0.1 -0.1)">
       <use xlink:href="#DejaVuSans-51"/>
      </g>
     </g>
    </g>
    <g id="ytick_25">
     <g id="line2d_60">
      <g>
       <use style="stroke:#000000;stroke-width:0.8;" x="180" xlink:href="#m2d675d6942" y="651.898585"/>
      </g>
     </g>
     <g id="text_29">
      <!-- 4 -->
      <g transform="translate(166.6375 655.697804)scale(0.1 -0.1)">
       <use xlink:href="#DejaVuSans-52"/>
      </g>
     </g>
    </g>
    <g id="ytick_26">
     <g id="line2d_61">
      <g>
       <use style="stroke:#000000;stroke-width:0.8;" x="180" xlink:href="#m2d675d6942" y="639.979034"/>
      </g>
     </g>
     <g id="text_30">
      <!-- 5 -->
      <g transform="translate(166.6375 643.778253)scale(0.1 -0.1)">
       <use xlink:href="#DejaVuSans-53"/>
      </g>
     </g>
    </g>
    <g id="ytick_27">
     <g id="line2d_62">
      <g>
       <use style="stroke:#000000;stroke-width:0.8;" x="180" xlink:href="#m2d675d6942" y="628.059483"/>
      </g>
     </g>
     <g id="text_31">
      <!-- 6 -->
      <g transform="translate(166.6375 631.858702)scale(0.1 -0.1)">
       <use xlink:href="#DejaVuSans-54"/>
      </g>
     </g>
    </g>
    <g id="ytick_28">
     <g id="line2d_63">
      <g>
       <use style="stroke:#000000;stroke-width:0.8;" x="180" xlink:href="#m2d675d6942" y="616.139933"/>
      </g>
     </g>
     <g id="text_32">
      <!-- 7 -->
      <defs>
       <path d="M 8.203125 72.90625 
L 55.078125 72.90625 
L 55.078125 68.703125 
L 28.609375 0 
L 18.3125 0 
L 43.21875 64.59375 
L 8.203125 64.59375 
z
" id="DejaVuSans-55"/>
      </defs>
      <g transform="translate(166.6375 619.939151)scale(0.1 -0.1)">
       <use xlink:href="#DejaVuSans-55"/>
      </g>
     </g>
    </g>
    <g id="ytick_29">
     <g id="line2d_64">
      <g>
       <use style="stroke:#000000;stroke-width:0.8;" x="180" xlink:href="#m2d675d6942" y="604.220382"/>
      </g>
     </g>
     <g id="text_33">
      <!-- 8 -->
      <g transform="translate(166.6375 608.0196)scale(0.1 -0.1)">
       <use xlink:href="#DejaVuSans-56"/>
      </g>
     </g>
    </g>
    <g id="ytick_30">
     <g id="line2d_65">
      <g>
       <use style="stroke:#000000;stroke-width:0.8;" x="180" xlink:href="#m2d675d6942" y="592.300831"/>
      </g>
     </g>
     <g id="text_34">
      <!-- 9 -->
      <defs>
       <path d="M 10.984375 1.515625 
L 10.984375 10.5 
Q 14.703125 8.734375 18.5 7.8125 
Q 22.3125 6.890625 25.984375 6.890625 
Q 35.75 6.890625 40.890625 13.453125 
Q 46.046875 20.015625 46.78125 33.40625 
Q 43.953125 29.203125 39.59375 26.953125 
Q 35.25 24.703125 29.984375 24.703125 
Q 19.046875 24.703125 12.671875 31.3125 
Q 6.296875 37.9375 6.296875 49.421875 
Q 6.296875 60.640625 12.9375 67.421875 
Q 19.578125 74.21875 30.609375 74.21875 
Q 43.265625 74.21875 49.921875 64.515625 
Q 56.59375 54.828125 56.59375 36.375 
Q 56.59375 19.140625 48.40625 8.859375 
Q 40.234375 -1.421875 26.421875 -1.421875 
Q 22.703125 -1.421875 18.890625 -0.6875 
Q 15.09375 0.046875 10.984375 1.515625 
z
M 30.609375 32.421875 
Q 37.25 32.421875 41.125 36.953125 
Q 45.015625 41.5 45.015625 49.421875 
Q 45.015625 57.28125 41.125 61.84375 
Q 37.25 66.40625 30.609375 66.40625 
Q 23.96875 66.40625 20.09375 61.84375 
Q 16.21875 57.28125 16.21875 49.421875 
Q 16.21875 41.5 20.09375 36.953125 
Q 23.96875 32.421875 30.609375 32.421875 
z
" id="DejaVuSans-57"/>
      </defs>
      <g transform="translate(166.6375 596.100049)scale(0.1 -0.1)">
       <use xlink:href="#DejaVuSans-57"/>
      </g>
     </g>
    </g>
    <g id="text_35">
     <!-- Thrust (kN) -->
     <defs>
      <path d="M 54.890625 33.015625 
L 54.890625 0 
L 45.90625 0 
L 45.90625 32.71875 
Q 45.90625 40.484375 42.875 44.328125 
Q 39.84375 48.1875 33.796875 48.1875 
Q 26.515625 48.1875 22.3125 43.546875 
Q 18.109375 38.921875 18.109375 30.90625 
L 18.109375 0 
L 9.078125 0 
L 9.078125 75.984375 
L 18.109375 75.984375 
L 18.109375 46.1875 
Q 21.34375 51.125 25.703125 53.5625 
Q 30.078125 56 35.796875 56 
Q 45.21875 56 50.046875 50.171875 
Q 54.890625 44.34375 54.890625 33.015625 
z
" id="DejaVuSans-104"/>
      <path d="M 9.8125 72.90625 
L 23.09375 72.90625 
L 55.421875 11.921875 
L 55.421875 72.90625 
L 64.984375 72.90625 
L 64.984375 0 
L 51.703125 0 
L 19.390625 60.984375 
L 19.390625 0 
L 9.8125 0 
z
" id="DejaVuSans-78"/>
     </defs>
     <g transform="translate(160.557812 675.142537)rotate(-90)scale(0.1 -0.1)">
      <use xlink:href="#DejaVuSans-84"/>
      <use x="61.083984" xlink:href="#DejaVuSans-104"/>
      <use x="124.462891" xlink:href="#DejaVuSans-114"/>
      <use x="165.576172" xlink:href="#DejaVuSans-117"/>
      <use x="228.955078" xlink:href="#DejaVuSans-115"/>
      <use x="281.054688" xlink:href="#DejaVuSans-116"/>
      <use x="320.263672" xlink:href="#DejaVuSans-32"/>
      <use x="352.050781" xlink:href="#DejaVuSans-40"/>
      <use x="391.064453" xlink:href="#DejaVuSans-107"/>
      <use x="448.974609" xlink:href="#DejaVuSans-78"/>
      <use x="523.779297" xlink:href="#DejaVuSans-41"/>
     </g>
    </g>
   </g>
   <g id="line2d_66">
    <path clip-path="url(#p578354c3f2)" d="M 230.727273 603.087289 
L 249.852985 602.975358 
L 269.272938 602.639702 
L 290.1641 602.053209 
L 314.586163 601.136467 
L 350.630774 599.533345 
L 409.626239 596.913449 
L 438.167686 595.886403 
L 463.325353 595.201971 
L 488.630141 594.739885 
L 518.054313 594.431721 
L 518.201434 699.576789 
L 1245.272727 699.576789 
L 1245.272727 699.576789 
" style="fill:none;stroke:#000000;stroke-linecap:square;stroke-width:1.5;"/>
   </g>
   <g id="patch_18">
    <path d="M 180 704.834043 
L 180 589.174468 
" style="fill:none;stroke:#000000;stroke-linecap:square;stroke-linejoin:miter;stroke-width:0.8;"/>
   </g>
   <g id="patch_19">
    <path d="M 1296 704.834043 
L 1296 589.174468 
" style="fill:none;stroke:#000000;stroke-linecap:square;stroke-linejoin:miter;stroke-width:0.8;"/>
   </g>
   <g id="patch_20">
    <path d="M 180 704.834043 
L 1296 704.834043 
" style="fill:none;stroke:#000000;stroke-linecap:square;stroke-linejoin:miter;stroke-width:0.8;"/>
   </g>
   <g id="patch_21">
    <path d="M 180 589.174468 
L 1296 589.174468 
" style="fill:none;stroke:#000000;stroke-linecap:square;stroke-linejoin:miter;stroke-width:0.8;"/>
   </g>
  </g>
  <g id="axes_5">
   <g id="patch_22">
    <path d="M 180 843.625532 
L 1296 843.625532 
L 1296 727.965957 
L 180 727.965957 
z
" style="fill:#ffffff;"/>
   </g>
   <g id="matplotlib.axis_9">
    <g id="xtick_33">
     <g id="line2d_67">
      <g>
       <use style="stroke:#000000;stroke-width:0.8;" x="230.580152" xlink:href="#mf79e7d00a6" y="843.625532"/>
      </g>
     </g>
    </g>
    <g id="xtick_34">
     <g id="line2d_68">
      <g>
       <use style="stroke:#000000;stroke-width:0.8;" x="377.701012" xlink:href="#mf79e7d00a6" y="843.625532"/>
      </g>
     </g>
    </g>
    <g id="xtick_35">
     <g id="line2d_69">
      <g>
       <use style="stroke:#000000;stroke-width:0.8;" x="524.821873" xlink:href="#mf79e7d00a6" y="843.625532"/>
      </g>
     </g>
    </g>
    <g id="xtick_36">
     <g id="line2d_70">
      <g>
       <use style="stroke:#000000;stroke-width:0.8;" x="671.942734" xlink:href="#mf79e7d00a6" y="843.625532"/>
      </g>
     </g>
    </g>
    <g id="xtick_37">
     <g id="line2d_71">
      <g>
       <use style="stroke:#000000;stroke-width:0.8;" x="819.063594" xlink:href="#mf79e7d00a6" y="843.625532"/>
      </g>
     </g>
    </g>
    <g id="xtick_38">
     <g id="line2d_72">
      <g>
       <use style="stroke:#000000;stroke-width:0.8;" x="966.184455" xlink:href="#mf79e7d00a6" y="843.625532"/>
      </g>
     </g>
    </g>
    <g id="xtick_39">
     <g id="line2d_73">
      <g>
       <use style="stroke:#000000;stroke-width:0.8;" x="1113.305315" xlink:href="#mf79e7d00a6" y="843.625532"/>
      </g>
     </g>
    </g>
    <g id="xtick_40">
     <g id="line2d_74">
      <g>
       <use style="stroke:#000000;stroke-width:0.8;" x="1260.426176" xlink:href="#mf79e7d00a6" y="843.625532"/>
      </g>
     </g>
    </g>
   </g>
   <g id="matplotlib.axis_10">
    <g id="ytick_31">
     <g id="line2d_75">
      <g>
       <use style="stroke:#000000;stroke-width:0.8;" x="180" xlink:href="#m2d675d6942" y="838.368537"/>
      </g>
     </g>
     <g id="text_36">
      <!-- 0 -->
      <g transform="translate(166.6375 842.167755)scale(0.1 -0.1)">
       <use xlink:href="#DejaVuSans-48"/>
      </g>
     </g>
    </g>
    <g id="ytick_32">
     <g id="line2d_76">
      <g>
       <use style="stroke:#000000;stroke-width:0.8;" x="180" xlink:href="#m2d675d6942" y="826.283235"/>
      </g>
     </g>
     <g id="text_37">
      <!-- 10 -->
      <g transform="translate(160.275 830.082454)scale(0.1 -0.1)">
       <use xlink:href="#DejaVuSans-49"/>
       <use x="63.623047" xlink:href="#DejaVuSans-48"/>
      </g>
     </g>
    </g>
    <g id="ytick_33">
     <g id="line2d_77">
      <g>
       <use style="stroke:#000000;stroke-width:0.8;" x="180" xlink:href="#m2d675d6942" y="814.197934"/>
      </g>
     </g>
     <g id="text_38">
      <!-- 20 -->
      <g transform="translate(160.275 817.997153)scale(0.1 -0.1)">
       <use xlink:href="#DejaVuSans-50"/>
       <use x="63.623047" xlink:href="#DejaVuSans-48"/>
      </g>
     </g>
    </g>
    <g id="ytick_34">
     <g id="line2d_78">
      <g>
       <use style="stroke:#000000;stroke-width:0.8;" x="180" xlink:href="#m2d675d6942" y="802.112633"/>
      </g>
     </g>
     <g id="text_39">
      <!-- 30 -->
      <g transform="translate(160.275 805.911852)scale(0.1 -0.1)">
       <use xlink:href="#DejaVuSans-51"/>
       <use x="63.623047" xlink:href="#DejaVuSans-48"/>
      </g>
     </g>
    </g>
    <g id="ytick_35">
     <g id="line2d_79">
      <g>
       <use style="stroke:#000000;stroke-width:0.8;" x="180" xlink:href="#m2d675d6942" y="790.027332"/>
      </g>
     </g>
     <g id="text_40">
      <!-- 40 -->
      <g transform="translate(160.275 793.826551)scale(0.1 -0.1)">
       <use xlink:href="#DejaVuSans-52"/>
       <use x="63.623047" xlink:href="#DejaVuSans-48"/>
      </g>
     </g>
    </g>
    <g id="ytick_36">
     <g id="line2d_80">
      <g>
       <use style="stroke:#000000;stroke-width:0.8;" x="180" xlink:href="#m2d675d6942" y="777.942031"/>
      </g>
     </g>
     <g id="text_41">
      <!-- 50 -->
      <g transform="translate(160.275 781.741249)scale(0.1 -0.1)">
       <use xlink:href="#DejaVuSans-53"/>
       <use x="63.623047" xlink:href="#DejaVuSans-48"/>
      </g>
     </g>
    </g>
    <g id="ytick_37">
     <g id="line2d_81">
      <g>
       <use style="stroke:#000000;stroke-width:0.8;" x="180" xlink:href="#m2d675d6942" y="765.856729"/>
      </g>
     </g>
     <g id="text_42">
      <!-- 60 -->
      <g transform="translate(160.275 769.655948)scale(0.1 -0.1)">
       <use xlink:href="#DejaVuSans-54"/>
       <use x="63.623047" xlink:href="#DejaVuSans-48"/>
      </g>
     </g>
    </g>
    <g id="ytick_38">
     <g id="line2d_82">
      <g>
       <use style="stroke:#000000;stroke-width:0.8;" x="180" xlink:href="#m2d675d6942" y="753.771428"/>
      </g>
     </g>
     <g id="text_43">
      <!-- 70 -->
      <g transform="translate(160.275 757.570647)scale(0.1 -0.1)">
       <use xlink:href="#DejaVuSans-55"/>
       <use x="63.623047" xlink:href="#DejaVuSans-48"/>
      </g>
     </g>
    </g>
    <g id="ytick_39">
     <g id="line2d_83">
      <g>
       <use style="stroke:#000000;stroke-width:0.8;" x="180" xlink:href="#m2d675d6942" y="741.686127"/>
      </g>
     </g>
     <g id="text_44">
      <!-- 80 -->
      <g transform="translate(160.275 745.485346)scale(0.1 -0.1)">
       <use xlink:href="#DejaVuSans-56"/>
       <use x="63.623047" xlink:href="#DejaVuSans-48"/>
      </g>
     </g>
    </g>
    <g id="ytick_40">
     <g id="line2d_84">
      <g>
       <use style="stroke:#000000;stroke-width:0.8;" x="180" xlink:href="#m2d675d6942" y="729.600826"/>
      </g>
     </g>
     <g id="text_45">
      <!-- 90 -->
      <g transform="translate(160.275 733.400045)scale(0.1 -0.1)">
       <use xlink:href="#DejaVuSans-57"/>
       <use x="63.623047" xlink:href="#DejaVuSans-48"/>
      </g>
     </g>
    </g>
    <g id="text_46">
     <!-- Dynamic Pressure (kPa) -->
     <defs>
      <path d="M 19.671875 64.796875 
L 19.671875 8.109375 
L 31.59375 8.109375 
Q 46.6875 8.109375 53.6875 14.9375 
Q 60.6875 21.78125 60.6875 36.53125 
Q 60.6875 51.171875 53.6875 57.984375 
Q 46.6875 64.796875 31.59375 64.796875 
z
M 9.8125 72.90625 
L 30.078125 72.90625 
Q 51.265625 72.90625 61.171875 64.09375 
Q 71.09375 55.28125 71.09375 36.53125 
Q 71.09375 17.671875 61.125 8.828125 
Q 51.171875 0 30.078125 0 
L 9.8125 0 
z
" id="DejaVuSans-68"/>
      <path d="M 19.671875 64.796875 
L 19.671875 37.40625 
L 32.078125 37.40625 
Q 38.96875 37.40625 42.71875 40.96875 
Q 46.484375 44.53125 46.484375 51.125 
Q 46.484375 57.671875 42.71875 61.234375 
Q 38.96875 64.796875 32.078125 64.796875 
z
M 9.8125 72.90625 
L 32.078125 72.90625 
Q 44.34375 72.90625 50.609375 67.359375 
Q 56.890625 61.8125 56.890625 51.125 
Q 56.890625 40.328125 50.609375 34.8125 
Q 44.34375 29.296875 32.078125 29.296875 
L 19.671875 29.296875 
L 19.671875 0 
L 9.8125 0 
z
" id="DejaVuSans-80"/>
     </defs>
     <g transform="translate(154.195312 845.550432)rotate(-90)scale(0.1 -0.1)">
      <use xlink:href="#DejaVuSans-68"/>
      <use x="77.001953" xlink:href="#DejaVuSans-121"/>
      <use x="136.181641" xlink:href="#DejaVuSans-110"/>
      <use x="199.560547" xlink:href="#DejaVuSans-97"/>
      <use x="260.839844" xlink:href="#DejaVuSans-109"/>
      <use x="358.251953" xlink:href="#DejaVuSans-105"/>
      <use x="386.035156" xlink:href="#DejaVuSans-99"/>
      <use x="441.015625" xlink:href="#DejaVuSans-32"/>
      <use x="472.802734" xlink:href="#DejaVuSans-80"/>
      <use x="533.089844" xlink:href="#DejaVuSans-114"/>
      <use x="574.171875" xlink:href="#DejaVuSans-101"/>
      <use x="635.695312" xlink:href="#DejaVuSans-115"/>
      <use x="687.794922" xlink:href="#DejaVuSans-115"/>
      <use x="739.894531" xlink:href="#DejaVuSans-117"/>
      <use x="803.273438" xlink:href="#DejaVuSans-114"/>
      <use x="844.355469" xlink:href="#DejaVuSans-101"/>
      <use x="905.878906" xlink:href="#DejaVuSans-32"/>
      <use x="937.666016" xlink:href="#DejaVuSans-40"/>
      <use x="976.679688" xlink:href="#DejaVuSans-107"/>
      <use x="1034.589844" xlink:href="#DejaVuSans-80"/>
      <use x="1094.830078" xlink:href="#DejaVuSans-97"/>
      <use x="1156.109375" xlink:href="#DejaVuSans-41"/>
     </g>
    </g>
   </g>
   <g id="line2d_85">
    <path clip-path="url(#p7c949c59ae)" d="M 230.727273 838.366644 
L 234.699536 838.250129 
L 238.524678 837.917333 
L 242.349821 837.360032 
L 246.174963 836.577756 
L 250.000105 835.56601 
L 253.825248 834.321274 
L 257.797511 832.789682 
L 261.769774 831.017588 
L 265.889158 828.933067 
L 270.155663 826.521892 
L 274.71641 823.677634 
L 279.424278 820.476042 
L 284.573508 816.699539 
L 290.311221 812.204822 
L 296.93166 806.727505 
L 306.200274 798.740374 
L 321.500844 785.542861 
L 330.769458 777.918484 
L 340.038072 770.552693 
L 347.982599 764.515656 
L 355.0444 759.425117 
L 361.517718 755.031145 
L 367.549673 751.201748 
L 373.287387 747.823857 
L 378.730858 744.880683 
L 383.880089 742.350432 
L 388.735077 740.208328 
L 393.442945 738.372635 
L 398.003691 736.835449 
L 402.417317 735.587031 
L 406.683822 734.616113 
L 410.803206 733.910147 
L 414.775469 733.457374 
L 418.600612 733.244619 
L 422.278633 733.256729 
L 425.956655 733.490477 
L 429.487555 733.931224 
L 433.018456 734.590729 
L 436.549357 735.474811 
L 440.080257 736.588193 
L 443.611158 737.934313 
L 447.142059 739.515134 
L 450.82008 741.411712 
L 454.498102 743.559383 
L 458.470365 746.135698 
L 462.883991 749.266438 
L 467.8861 753.091478 
L 474.065176 758.112182 
L 483.628032 766.213914 
L 497.163151 777.627605 
L 507.755853 786.275877 
L 516.877347 793.442418 
L 518.201434 794.51771 
L 520.84961 798.532606 
L 523.497785 802.143238 
L 526.293082 805.566186 
L 529.088378 808.636016 
L 532.030795 811.53026 
L 534.973212 814.118824 
L 538.06275 816.546554 
L 541.299409 818.809045 
L 544.683189 820.90511 
L 548.21409 822.836209 
L 552.039232 824.671966 
L 556.011495 826.334337 
L 560.278 827.880642 
L 564.838747 829.298562 
L 569.840856 830.617041 
L 575.284328 831.81639 
L 581.316283 832.909562 
L 587.936722 833.879053 
L 595.439886 834.748138 
L 603.972896 835.509193 
L 613.977115 836.173826 
L 626.041025 836.745042 
L 641.341595 837.234406 
L 661.497152 837.643052 
L 689.008753 837.964478 
L 729.172748 838.193269 
L 795.965619 838.324696 
L 965.890213 838.366282 
L 1245.272727 838.368279 
L 1245.272727 838.368279 
" style="fill:none;stroke:#000000;stroke-linecap:square;stroke-width:1.5;"/>
   </g>
   <g id="patch_23">
    <path d="M 180 843.625532 
L 180 727.965957 
" style="fill:none;stroke:#000000;stroke-linecap:square;stroke-linejoin:miter;stroke-width:0.8;"/>
   </g>
   <g id="patch_24">
    <path d="M 1296 843.625532 
L 1296 727.965957 
" style="fill:none;stroke:#000000;stroke-linecap:square;stroke-linejoin:miter;stroke-width:0.8;"/>
   </g>
   <g id="patch_25">
    <path d="M 180 843.625532 
L 1296 843.625532 
" style="fill:none;stroke:#000000;stroke-linecap:square;stroke-linejoin:miter;stroke-width:0.8;"/>
   </g>
   <g id="patch_26">
    <path d="M 180 727.965957 
L 1296 727.965957 
" style="fill:none;stroke:#000000;stroke-linecap:square;stroke-linejoin:miter;stroke-width:0.8;"/>
   </g>
  </g>
  <g id="axes_6">
   <g id="patch_27">
    <path d="M 180 982.417021 
L 1296 982.417021 
L 1296 866.757447 
L 180 866.757447 
z
" style="fill:#ffffff;"/>
   </g>
   <g id="matplotlib.axis_11">
    <g id="xtick_41">
     <g id="line2d_86">
      <g>
       <use style="stroke:#000000;stroke-width:0.8;" x="230.580152" xlink:href="#mf79e7d00a6" y="982.417021"/>
      </g>
     </g>
    </g>
    <g id="xtick_42">
     <g id="line2d_87">
      <g>
       <use style="stroke:#000000;stroke-width:0.8;" x="377.701012" xlink:href="#mf79e7d00a6" y="982.417021"/>
      </g>
     </g>
    </g>
    <g id="xtick_43">
     <g id="line2d_88">
      <g>
       <use style="stroke:#000000;stroke-width:0.8;" x="524.821873" xlink:href="#mf79e7d00a6" y="982.417021"/>
      </g>
     </g>
    </g>
    <g id="xtick_44">
     <g id="line2d_89">
      <g>
       <use style="stroke:#000000;stroke-width:0.8;" x="671.942734" xlink:href="#mf79e7d00a6" y="982.417021"/>
      </g>
     </g>
    </g>
    <g id="xtick_45">
     <g id="line2d_90">
      <g>
       <use style="stroke:#000000;stroke-width:0.8;" x="819.063594" xlink:href="#mf79e7d00a6" y="982.417021"/>
      </g>
     </g>
    </g>
    <g id="xtick_46">
     <g id="line2d_91">
      <g>
       <use style="stroke:#000000;stroke-width:0.8;" x="966.184455" xlink:href="#mf79e7d00a6" y="982.417021"/>
      </g>
     </g>
    </g>
    <g id="xtick_47">
     <g id="line2d_92">
      <g>
       <use style="stroke:#000000;stroke-width:0.8;" x="1113.305315" xlink:href="#mf79e7d00a6" y="982.417021"/>
      </g>
     </g>
    </g>
    <g id="xtick_48">
     <g id="line2d_93">
      <g>
       <use style="stroke:#000000;stroke-width:0.8;" x="1260.426176" xlink:href="#mf79e7d00a6" y="982.417021"/>
      </g>
     </g>
    </g>
    <g id="text_47">
     <!-- t (s) -->
     <g transform="translate(727.944531 994.015459)scale(0.1 -0.1)">
      <use xlink:href="#DejaVuSans-116"/>
      <use x="39.208984" xlink:href="#DejaVuSans-32"/>
      <use x="70.996094" xlink:href="#DejaVuSans-40"/>
      <use x="110.009766" xlink:href="#DejaVuSans-115"/>
      <use x="162.109375" xlink:href="#DejaVuSans-41"/>
     </g>
    </g>
   </g>
   <g id="matplotlib.axis_12">
    <g id="ytick_41">
     <g id="line2d_94">
      <g>
       <use style="stroke:#000000;stroke-width:0.8;" x="180" xlink:href="#m2d675d6942" y="977.270571"/>
      </g>
     </g>
     <g id="text_48">
      <!-- 0 -->
      <g transform="translate(166.6375 981.069789)scale(0.1 -0.1)">
       <use xlink:href="#DejaVuSans-48"/>
      </g>
     </g>
    </g>
    <g id="ytick_42">
     <g id="line2d_95">
      <g>
       <use style="stroke:#000000;stroke-width:0.8;" x="180" xlink:href="#m2d675d6942" y="955.419384"/>
      </g>
     </g>
     <g id="text_49">
      <!-- 1 -->
      <g transform="translate(166.6375 959.218603)scale(0.1 -0.1)">
       <use xlink:href="#DejaVuSans-49"/>
      </g>
     </g>
    </g>
    <g id="ytick_43">
     <g id="line2d_96">
      <g>
       <use style="stroke:#000000;stroke-width:0.8;" x="180" xlink:href="#m2d675d6942" y="933.568198"/>
      </g>
     </g>
     <g id="text_50">
      <!-- 2 -->
      <g transform="translate(166.6375 937.367417)scale(0.1 -0.1)">
       <use xlink:href="#DejaVuSans-50"/>
      </g>
     </g>
    </g>
    <g id="ytick_44">
     <g id="line2d_97">
      <g>
       <use style="stroke:#000000;stroke-width:0.8;" x="180" xlink:href="#m2d675d6942" y="911.717012"/>
      </g>
     </g>
     <g id="text_51">
      <!-- 3 -->
      <g transform="translate(166.6375 915.51623)scale(0.1 -0.1)">
       <use xlink:href="#DejaVuSans-51"/>
      </g>
     </g>
    </g>
    <g id="ytick_45">
     <g id="line2d_98">
      <g>
       <use style="stroke:#000000;stroke-width:0.8;" x="180" xlink:href="#m2d675d6942" y="889.865825"/>
      </g>
     </g>
     <g id="text_52">
      <!-- 4 -->
      <g transform="translate(166.6375 893.665044)scale(0.1 -0.1)">
       <use xlink:href="#DejaVuSans-52"/>
      </g>
     </g>
    </g>
    <g id="ytick_46">
     <g id="line2d_99">
      <g>
       <use style="stroke:#000000;stroke-width:0.8;" x="180" xlink:href="#m2d675d6942" y="868.014639"/>
      </g>
     </g>
     <g id="text_53">
      <!-- 5 -->
      <g transform="translate(166.6375 871.813858)scale(0.1 -0.1)">
       <use xlink:href="#DejaVuSans-53"/>
      </g>
     </g>
    </g>
    <g id="text_54">
     <!-- Mach number -->
     <defs>
      <path d="M 9.8125 72.90625 
L 24.515625 72.90625 
L 43.109375 23.296875 
L 61.8125 72.90625 
L 76.515625 72.90625 
L 76.515625 0 
L 66.890625 0 
L 66.890625 64.015625 
L 48.09375 14.015625 
L 38.1875 14.015625 
L 19.390625 64.015625 
L 19.390625 0 
L 9.8125 0 
z
" id="DejaVuSans-77"/>
      <path d="M 48.6875 27.296875 
Q 48.6875 37.203125 44.609375 42.84375 
Q 40.53125 48.484375 33.40625 48.484375 
Q 26.265625 48.484375 22.1875 42.84375 
Q 18.109375 37.203125 18.109375 27.296875 
Q 18.109375 17.390625 22.1875 11.75 
Q 26.265625 6.109375 33.40625 6.109375 
Q 40.53125 6.109375 44.609375 11.75 
Q 48.6875 17.390625 48.6875 27.296875 
z
M 18.109375 46.390625 
Q 20.953125 51.265625 25.265625 53.625 
Q 29.59375 56 35.59375 56 
Q 45.5625 56 51.78125 48.09375 
Q 58.015625 40.1875 58.015625 27.296875 
Q 58.015625 14.40625 51.78125 6.484375 
Q 45.5625 -1.421875 35.59375 -1.421875 
Q 29.59375 -1.421875 25.265625 0.953125 
Q 20.953125 3.328125 18.109375 8.203125 
L 18.109375 0 
L 9.078125 0 
L 9.078125 75.984375 
L 18.109375 75.984375 
z
" id="DejaVuSans-98"/>
     </defs>
     <g transform="translate(160.557812 958.986453)rotate(-90)scale(0.1 -0.1)">
      <use xlink:href="#DejaVuSans-77"/>
      <use x="86.279297" xlink:href="#DejaVuSans-97"/>
      <use x="147.558594" xlink:href="#DejaVuSans-99"/>
      <use x="202.539062" xlink:href="#DejaVuSans-104"/>
      <use x="265.917969" xlink:href="#DejaVuSans-32"/>
      <use x="297.705078" xlink:href="#DejaVuSans-110"/>
      <use x="361.083984" xlink:href="#DejaVuSans-117"/>
      <use x="424.462891" xlink:href="#DejaVuSans-109"/>
      <use x="521.875" xlink:href="#DejaVuSans-98"/>
      <use x="585.351562" xlink:href="#DejaVuSans-101"/>
      <use x="646.875" xlink:href="#DejaVuSans-114"/>
     </g>
    </g>
   </g>
   <g id="line2d_100">
    <path clip-path="url(#pe295aaf19e)" d="M 230.727273 977.159768 
L 231.757119 977.015355 
L 238.083316 975.654974 
L 255.443577 971.724702 
L 277.953069 966.395627 
L 340.920797 951.129112 
L 355.632883 947.319988 
L 368.285277 943.819742 
L 379.613584 940.460125 
L 390.059165 937.133474 
L 399.769142 933.811777 
L 409.037756 930.407476 
L 418.012128 926.873637 
L 426.986501 923.097775 
L 436.107994 919.016117 
L 445.965092 914.356624 
L 458.323244 908.25335 
L 470.240034 902.136498 
L 479.80289 896.988524 
L 487.453174 892.627309 
L 494.367855 888.426232 
L 501.282535 883.963635 
L 508.197216 879.237347 
L 515.259017 874.141756 
L 518.201434 872.0147 
L 527.470049 874.223993 
L 540.710926 877.12871 
L 566.751318 882.80561 
L 588.672327 887.602652 
L 599.853512 889.810527 
L 609.416368 891.476448 
L 618.096499 892.766977 
L 626.335267 893.769153 
L 635.309639 894.630655 
L 645.6081 895.387847 
L 657.966252 896.064683 
L 672.825459 896.65073 
L 691.656929 897.157908 
L 749.475427 898.556491 
L 768.895381 899.341935 
L 788.315334 900.350595 
L 808.17665 901.606064 
L 844.368382 903.973804 
L 871.144379 905.424995 
L 912.043978 907.39512 
L 967.361422 909.836863 
L 1008.408142 911.436531 
L 1079.026155 913.872735 
L 1140.375554 915.855782 
L 1174.066231 916.718681 
L 1203.04904 917.240735 
L 1229.972158 917.504131 
L 1245.272727 917.550554 
L 1245.272727 917.550554 
" style="fill:none;stroke:#000000;stroke-linecap:square;stroke-width:1.5;"/>
   </g>
   <g id="patch_28">
    <path d="M 180 982.417021 
L 180 866.757447 
" style="fill:none;stroke:#000000;stroke-linecap:square;stroke-linejoin:miter;stroke-width:0.8;"/>
   </g>
   <g id="patch_29">
    <path d="M 1296 982.417021 
L 1296 866.757447 
" style="fill:none;stroke:#000000;stroke-linecap:square;stroke-linejoin:miter;stroke-width:0.8;"/>
   </g>
   <g id="patch_30">
    <path d="M 180 982.417021 
L 1296 982.417021 
" style="fill:none;stroke:#000000;stroke-linecap:square;stroke-linejoin:miter;stroke-width:0.8;"/>
   </g>
   <g id="patch_31">
    <path d="M 180 866.757447 
L 1296 866.757447 
" style="fill:none;stroke:#000000;stroke-linecap:square;stroke-linejoin:miter;stroke-width:0.8;"/>
   </g>
  </g>
  <g id="axes_7">
   <g id="patch_32">
    <path d="M 180 1121.208511 
L 1296 1121.208511 
L 1296 1005.548936 
L 180 1005.548936 
z
" style="fill:#ffffff;"/>
   </g>
   <g id="matplotlib.axis_13">
    <g id="xtick_49">
     <g id="line2d_101">
      <g>
       <use style="stroke:#000000;stroke-width:0.8;" x="230.580152" xlink:href="#mf79e7d00a6" y="1121.208511"/>
      </g>
     </g>
    </g>
    <g id="xtick_50">
     <g id="line2d_102">
      <g>
       <use style="stroke:#000000;stroke-width:0.8;" x="377.701012" xlink:href="#mf79e7d00a6" y="1121.208511"/>
      </g>
     </g>
    </g>
    <g id="xtick_51">
     <g id="line2d_103">
      <g>
       <use style="stroke:#000000;stroke-width:0.8;" x="524.821873" xlink:href="#mf79e7d00a6" y="1121.208511"/>
      </g>
     </g>
    </g>
    <g id="xtick_52">
     <g id="line2d_104">
      <g>
       <use style="stroke:#000000;stroke-width:0.8;" x="671.942734" xlink:href="#mf79e7d00a6" y="1121.208511"/>
      </g>
     </g>
    </g>
    <g id="xtick_53">
     <g id="line2d_105">
      <g>
       <use style="stroke:#000000;stroke-width:0.8;" x="819.063594" xlink:href="#mf79e7d00a6" y="1121.208511"/>
      </g>
     </g>
    </g>
    <g id="xtick_54">
     <g id="line2d_106">
      <g>
       <use style="stroke:#000000;stroke-width:0.8;" x="966.184455" xlink:href="#mf79e7d00a6" y="1121.208511"/>
      </g>
     </g>
    </g>
    <g id="xtick_55">
     <g id="line2d_107">
      <g>
       <use style="stroke:#000000;stroke-width:0.8;" x="1113.305315" xlink:href="#mf79e7d00a6" y="1121.208511"/>
      </g>
     </g>
    </g>
    <g id="xtick_56">
     <g id="line2d_108">
      <g>
       <use style="stroke:#000000;stroke-width:0.8;" x="1260.426176" xlink:href="#mf79e7d00a6" y="1121.208511"/>
      </g>
     </g>
    </g>
   </g>
   <g id="matplotlib.axis_14">
    <g id="ytick_47">
     <g id="line2d_109">
      <g>
       <use style="stroke:#000000;stroke-width:0.8;" x="180" xlink:href="#m2d675d6942" y="1115.951331"/>
      </g>
     </g>
     <g id="text_55">
      <!-- 0 -->
      <g transform="translate(166.6375 1119.750549)scale(0.1 -0.1)">
       <use xlink:href="#DejaVuSans-48"/>
      </g>
     </g>
    </g>
    <g id="ytick_48">
     <g id="line2d_110">
      <g>
       <use style="stroke:#000000;stroke-width:0.8;" x="180" xlink:href="#m2d675d6942" y="1096.161425"/>
      </g>
     </g>
     <g id="text_56">
      <!-- 500 -->
      <g transform="translate(153.9125 1099.960643)scale(0.1 -0.1)">
       <use xlink:href="#DejaVuSans-53"/>
       <use x="63.623047" xlink:href="#DejaVuSans-48"/>
       <use x="127.246094" xlink:href="#DejaVuSans-48"/>
      </g>
     </g>
    </g>
    <g id="ytick_49">
     <g id="line2d_111">
      <g>
       <use style="stroke:#000000;stroke-width:0.8;" x="180" xlink:href="#m2d675d6942" y="1076.371519"/>
      </g>
     </g>
     <g id="text_57">
      <!-- 1000 -->
      <g transform="translate(147.55 1080.170737)scale(0.1 -0.1)">
       <use xlink:href="#DejaVuSans-49"/>
       <use x="63.623047" xlink:href="#DejaVuSans-48"/>
       <use x="127.246094" xlink:href="#DejaVuSans-48"/>
       <use x="190.869141" xlink:href="#DejaVuSans-48"/>
      </g>
     </g>
    </g>
    <g id="ytick_50">
     <g id="line2d_112">
      <g>
       <use style="stroke:#000000;stroke-width:0.8;" x="180" xlink:href="#m2d675d6942" y="1056.581613"/>
      </g>
     </g>
     <g id="text_58">
      <!-- 1500 -->
      <g transform="translate(147.55 1060.380832)scale(0.1 -0.1)">
       <use xlink:href="#DejaVuSans-49"/>
       <use x="63.623047" xlink:href="#DejaVuSans-53"/>
       <use x="127.246094" xlink:href="#DejaVuSans-48"/>
       <use x="190.869141" xlink:href="#DejaVuSans-48"/>
      </g>
     </g>
    </g>
    <g id="ytick_51">
     <g id="line2d_113">
      <g>
       <use style="stroke:#000000;stroke-width:0.8;" x="180" xlink:href="#m2d675d6942" y="1036.791707"/>
      </g>
     </g>
     <g id="text_59">
      <!-- 2000 -->
      <g transform="translate(147.55 1040.590926)scale(0.1 -0.1)">
       <use xlink:href="#DejaVuSans-50"/>
       <use x="63.623047" xlink:href="#DejaVuSans-48"/>
       <use x="127.246094" xlink:href="#DejaVuSans-48"/>
       <use x="190.869141" xlink:href="#DejaVuSans-48"/>
      </g>
     </g>
    </g>
    <g id="ytick_52">
     <g id="line2d_114">
      <g>
       <use style="stroke:#000000;stroke-width:0.8;" x="180" xlink:href="#m2d675d6942" y="1017.001801"/>
      </g>
     </g>
     <g id="text_60">
      <!-- 2500 -->
      <g transform="translate(147.55 1020.80102)scale(0.1 -0.1)">
       <use xlink:href="#DejaVuSans-50"/>
       <use x="63.623047" xlink:href="#DejaVuSans-53"/>
       <use x="127.246094" xlink:href="#DejaVuSans-48"/>
       <use x="190.869141" xlink:href="#DejaVuSans-48"/>
      </g>
     </g>
    </g>
    <g id="text_61">
     <!-- Drag (N) -->
     <g transform="translate(141.470313 1084.753723)rotate(-90)scale(0.1 -0.1)">
      <use xlink:href="#DejaVuSans-68"/>
      <use x="77.001953" xlink:href="#DejaVuSans-114"/>
      <use x="118.115234" xlink:href="#DejaVuSans-97"/>
      <use x="179.394531" xlink:href="#DejaVuSans-103"/>
      <use x="242.871094" xlink:href="#DejaVuSans-32"/>
      <use x="274.658203" xlink:href="#DejaVuSans-40"/>
      <use x="313.671875" xlink:href="#DejaVuSans-78"/>
      <use x="388.476562" xlink:href="#DejaVuSans-41"/>
     </g>
    </g>
   </g>
   <g id="line2d_115">
    <path clip-path="url(#p9ff3a204fb)" d="M 230.727273 1115.951257 
L 233.963932 1115.822717 
L 237.641953 1115.473866 
L 241.614216 1114.862189 
L 244.703754 1114.13802 
L 250.441468 1112.511674 
L 252.942523 1111.583451 
L 258.385995 1109.255265 
L 263.535225 1106.562622 
L 268.537334 1103.506148 
L 271.921114 1101.194691 
L 275.746256 1098.343805 
L 279.130036 1095.606006 
L 282.808057 1092.395768 
L 287.515925 1087.949731 
L 292.076672 1083.280467 
L 296.637418 1078.262866 
L 301.345286 1072.727796 
L 305.906032 1067.026024 
L 310.6139 1060.781585 
L 316.940097 1051.94028 
L 322.383569 1044.088824 
L 323.707657 1042.317312 
L 333.858996 1034.210967 
L 339.890951 1030.083796 
L 344.893061 1026.91277 
L 350.189412 1023.812299 
L 355.338642 1021.057478 
L 359.605147 1019.006317 
L 364.313014 1017.022404 
L 368.873761 1015.340675 
L 373.287387 1013.945803 
L 377.112529 1012.957441 
L 381.379034 1012.071007 
L 385.645539 1011.415301 
L 389.764923 1011.005393 
L 393.884307 1010.818418 
L 398.003691 1010.857484 
L 402.123075 1011.120547 
L 406.242459 1011.607422 
L 410.361843 1012.32639 
L 414.334107 1013.241707 
L 418.453491 1014.422982 
L 422.572875 1015.841093 
L 426.692259 1017.495116 
L 430.958764 1019.454083 
L 435.225269 1021.6582 
L 439.638895 1024.188335 
L 444.199641 1027.058159 
L 449.05463 1030.380759 
L 454.20386 1034.179686 
L 460.235815 1038.919507 
L 468.327463 1045.584129 
L 487.747416 1061.683172 
L 495.397701 1067.660561 
L 502.753744 1073.130482 
L 509.815545 1078.105956 
L 516.583105 1082.602002 
L 518.348555 1083.823511 
L 521.290972 1086.773334 
L 524.38051 1089.544827 
L 527.470049 1092.022388 
L 530.706707 1094.340639 
L 534.090487 1096.497739 
L 537.768509 1098.57228 
L 541.593651 1100.470136 
L 545.713035 1102.25834 
L 550.126661 1103.921943 
L 554.834529 1105.451451 
L 559.836638 1106.841435 
L 565.28011 1108.122202 
L 571.312065 1109.30698 
L 577.932504 1110.375404 
L 585.288547 1111.334467 
L 593.674436 1112.198845 
L 603.384413 1112.968682 
L 614.712719 1113.638177 
L 628.54208 1114.223803 
L 646.049462 1114.730589 
L 668.853196 1115.157053 
L 699.454335 1115.494857 
L 743.14923 1115.738484 
L 813.17876 1115.883065 
L 991.783484 1115.943656 
L 1245.272727 1115.949952 
L 1245.272727 1115.949952 
" style="fill:none;stroke:#000000;stroke-linecap:square;stroke-width:1.5;"/>
   </g>
   <g id="patch_33">
    <path d="M 180 1121.208511 
L 180 1005.548936 
" style="fill:none;stroke:#000000;stroke-linecap:square;stroke-linejoin:miter;stroke-width:0.8;"/>
   </g>
   <g id="patch_34">
    <path d="M 1296 1121.208511 
L 1296 1005.548936 
" style="fill:none;stroke:#000000;stroke-linecap:square;stroke-linejoin:miter;stroke-width:0.8;"/>
   </g>
   <g id="patch_35">
    <path d="M 180 1121.208511 
L 1296 1121.208511 
" style="fill:none;stroke:#000000;stroke-linecap:square;stroke-linejoin:miter;stroke-width:0.8;"/>
   </g>
   <g id="patch_36">
    <path d="M 180 1005.548936 
L 1296 1005.548936 
" style="fill:none;stroke:#000000;stroke-linecap:square;stroke-linejoin:miter;stroke-width:0.8;"/>
   </g>
  </g>
  <g id="axes_8">
   <g id="patch_37">
    <path d="M 180 1260 
L 1296 1260 
L 1296 1144.340426 
L 180 1144.340426 
z
" style="fill:#ffffff;"/>
   </g>
   <g id="matplotlib.axis_15">
    <g id="xtick_57">
     <g id="line2d_116">
      <g>
       <use style="stroke:#000000;stroke-width:0.8;" x="230.580152" xlink:href="#mf79e7d00a6" y="1260"/>
      </g>
     </g>
     <g id="text_62">
      <!-- 0 -->
      <g transform="translate(227.398902 1274.598437)scale(0.1 -0.1)">
       <use xlink:href="#DejaVuSans-48"/>
      </g>
     </g>
    </g>
    <g id="xtick_58">
     <g id="line2d_117">
      <g>
       <use style="stroke:#000000;stroke-width:0.8;" x="377.701012" xlink:href="#mf79e7d00a6" y="1260"/>
      </g>
     </g>
     <g id="text_63">
      <!-- 25 -->
      <g transform="translate(371.338512 1274.598437)scale(0.1 -0.1)">
       <use xlink:href="#DejaVuSans-50"/>
       <use x="63.623047" xlink:href="#DejaVuSans-53"/>
      </g>
     </g>
    </g>
    <g id="xtick_59">
     <g id="line2d_118">
      <g>
       <use style="stroke:#000000;stroke-width:0.8;" x="524.821873" xlink:href="#mf79e7d00a6" y="1260"/>
      </g>
     </g>
     <g id="text_64">
      <!-- 50 -->
      <g transform="translate(518.459373 1274.598437)scale(0.1 -0.1)">
       <use xlink:href="#DejaVuSans-53"/>
       <use x="63.623047" xlink:href="#DejaVuSans-48"/>
      </g>
     </g>
    </g>
    <g id="xtick_60">
     <g id="line2d_119">
      <g>
       <use style="stroke:#000000;stroke-width:0.8;" x="671.942734" xlink:href="#mf79e7d00a6" y="1260"/>
      </g>
     </g>
     <g id="text_65">
      <!-- 75 -->
      <g transform="translate(665.580234 1274.598437)scale(0.1 -0.1)">
       <use xlink:href="#DejaVuSans-55"/>
       <use x="63.623047" xlink:href="#DejaVuSans-53"/>
      </g>
     </g>
    </g>
    <g id="xtick_61">
     <g id="line2d_120">
      <g>
       <use style="stroke:#000000;stroke-width:0.8;" x="819.063594" xlink:href="#mf79e7d00a6" y="1260"/>
      </g>
     </g>
     <g id="text_66">
      <!-- 100 -->
      <g transform="translate(809.519844 1274.598437)scale(0.1 -0.1)">
       <use xlink:href="#DejaVuSans-49"/>
       <use x="63.623047" xlink:href="#DejaVuSans-48"/>
       <use x="127.246094" xlink:href="#DejaVuSans-48"/>
      </g>
     </g>
    </g>
    <g id="xtick_62">
     <g id="line2d_121">
      <g>
       <use style="stroke:#000000;stroke-width:0.8;" x="966.184455" xlink:href="#mf79e7d00a6" y="1260"/>
      </g>
     </g>
     <g id="text_67">
      <!-- 125 -->
      <g transform="translate(956.640705 1274.598437)scale(0.1 -0.1)">
       <use xlink:href="#DejaVuSans-49"/>
       <use x="63.623047" xlink:href="#DejaVuSans-50"/>
       <use x="127.246094" xlink:href="#DejaVuSans-53"/>
      </g>
     </g>
    </g>
    <g id="xtick_63">
     <g id="line2d_122">
      <g>
       <use style="stroke:#000000;stroke-width:0.8;" x="1113.305315" xlink:href="#mf79e7d00a6" y="1260"/>
      </g>
     </g>
     <g id="text_68">
      <!-- 150 -->
      <g transform="translate(1103.761565 1274.598437)scale(0.1 -0.1)">
       <use xlink:href="#DejaVuSans-49"/>
       <use x="63.623047" xlink:href="#DejaVuSans-53"/>
       <use x="127.246094" xlink:href="#DejaVuSans-48"/>
      </g>
     </g>
    </g>
    <g id="xtick_64">
     <g id="line2d_123">
      <g>
       <use style="stroke:#000000;stroke-width:0.8;" x="1260.426176" xlink:href="#mf79e7d00a6" y="1260"/>
      </g>
     </g>
     <g id="text_69">
      <!-- 175 -->
      <g transform="translate(1250.882426 1274.598437)scale(0.1 -0.1)">
       <use xlink:href="#DejaVuSans-49"/>
       <use x="63.623047" xlink:href="#DejaVuSans-55"/>
       <use x="127.246094" xlink:href="#DejaVuSans-53"/>
      </g>
     </g>
    </g>
   </g>
   <g id="matplotlib.axis_16">
    <g id="ytick_53">
     <g id="line2d_124">
      <g>
       <use style="stroke:#000000;stroke-width:0.8;" x="180" xlink:href="#m2d675d6942" y="1254.742796"/>
      </g>
     </g>
     <g id="text_70">
      <!-- 0 -->
      <g transform="translate(166.6375 1258.542015)scale(0.1 -0.1)">
       <use xlink:href="#DejaVuSans-48"/>
      </g>
     </g>
    </g>
    <g id="ytick_54">
     <g id="line2d_125">
      <g>
       <use style="stroke:#000000;stroke-width:0.8;" x="180" xlink:href="#m2d675d6942" y="1230.571196"/>
      </g>
     </g>
     <g id="text_71">
      <!-- 20 -->
      <g transform="translate(160.275 1234.370415)scale(0.1 -0.1)">
       <use xlink:href="#DejaVuSans-50"/>
       <use x="63.623047" xlink:href="#DejaVuSans-48"/>
      </g>
     </g>
    </g>
    <g id="ytick_55">
     <g id="line2d_126">
      <g>
       <use style="stroke:#000000;stroke-width:0.8;" x="180" xlink:href="#m2d675d6942" y="1206.399596"/>
      </g>
     </g>
     <g id="text_72">
      <!-- 40 -->
      <g transform="translate(160.275 1210.198815)scale(0.1 -0.1)">
       <use xlink:href="#DejaVuSans-52"/>
       <use x="63.623047" xlink:href="#DejaVuSans-48"/>
      </g>
     </g>
    </g>
    <g id="ytick_56">
     <g id="line2d_127">
      <g>
       <use style="stroke:#000000;stroke-width:0.8;" x="180" xlink:href="#m2d675d6942" y="1182.227996"/>
      </g>
     </g>
     <g id="text_73">
      <!-- 60 -->
      <g transform="translate(160.275 1186.027215)scale(0.1 -0.1)">
       <use xlink:href="#DejaVuSans-54"/>
       <use x="63.623047" xlink:href="#DejaVuSans-48"/>
      </g>
     </g>
    </g>
    <g id="ytick_57">
     <g id="line2d_128">
      <g>
       <use style="stroke:#000000;stroke-width:0.8;" x="180" xlink:href="#m2d675d6942" y="1158.056396"/>
      </g>
     </g>
     <g id="text_74">
      <!-- 80 -->
      <g transform="translate(160.275 1161.855615)scale(0.1 -0.1)">
       <use xlink:href="#DejaVuSans-56"/>
       <use x="63.623047" xlink:href="#DejaVuSans-48"/>
      </g>
     </g>
    </g>
    <g id="text_75">
     <!-- Air Pressure (kPa) -->
     <g transform="translate(154.195312 1246.738963)rotate(-90)scale(0.1 -0.1)">
      <use xlink:href="#DejaVuSans-65"/>
      <use x="68.408203" xlink:href="#DejaVuSans-105"/>
      <use x="96.191406" xlink:href="#DejaVuSans-114"/>
      <use x="137.304688" xlink:href="#DejaVuSans-32"/>
      <use x="169.091797" xlink:href="#DejaVuSans-80"/>
      <use x="229.378906" xlink:href="#DejaVuSans-114"/>
      <use x="270.460938" xlink:href="#DejaVuSans-101"/>
      <use x="331.984375" xlink:href="#DejaVuSans-115"/>
      <use x="384.083984" xlink:href="#DejaVuSans-115"/>
      <use x="436.183594" xlink:href="#DejaVuSans-117"/>
      <use x="499.5625" xlink:href="#DejaVuSans-114"/>
      <use x="540.644531" xlink:href="#DejaVuSans-101"/>
      <use x="602.167969" xlink:href="#DejaVuSans-32"/>
      <use x="633.955078" xlink:href="#DejaVuSans-40"/>
      <use x="672.96875" xlink:href="#DejaVuSans-107"/>
      <use x="730.878906" xlink:href="#DejaVuSans-80"/>
      <use x="791.119141" xlink:href="#DejaVuSans-97"/>
      <use x="852.398438" xlink:href="#DejaVuSans-41"/>
     </g>
    </g>
   </g>
   <g id="line2d_129">
    <path clip-path="url(#p3653edb05b)" d="M 230.727273 1149.597679 
L 236.317865 1149.712592 
L 241.908458 1150.05321 
L 247.499051 1150.618527 
L 253.089644 1151.403515 
L 258.680236 1152.408756 
L 264.41795 1153.662462 
L 270.302784 1155.175389 
L 276.33474 1156.954194 
L 282.660937 1159.054544 
L 289.281375 1161.492691 
L 296.196056 1164.279142 
L 303.552099 1167.484002 
L 311.643746 1171.256787 
L 320.765239 1175.763974 
L 331.505062 1181.3286 
L 345.187302 1188.682376 
L 388.293714 1212.033396 
L 399.622021 1217.807837 
L 409.626239 1222.660728 
L 418.747733 1226.841957 
L 427.280742 1230.512221 
L 435.37239 1233.753312 
L 443.169795 1236.637545 
L 450.672959 1239.177778 
L 458.029002 1241.434988 
L 465.385045 1243.45764 
L 472.741088 1245.249251 
L 480.244252 1246.848803 
L 488.041658 1248.283851 
L 496.280426 1249.571802 
L 504.960557 1250.70257 
L 514.229171 1251.685061 
L 523.792027 1252.477617 
L 533.943366 1253.082693 
L 546.301519 1253.589916 
L 561.89633 1253.998716 
L 582.934613 1254.313202 
L 614.124235 1254.53669 
L 669.294558 1254.678623 
L 798.760915 1254.737943 
L 1245.272727 1254.742747 
L 1245.272727 1254.742747 
" style="fill:none;stroke:#000000;stroke-linecap:square;stroke-width:1.5;"/>
   </g>
   <g id="patch_38">
    <path d="M 180 1260 
L 180 1144.340426 
" style="fill:none;stroke:#000000;stroke-linecap:square;stroke-linejoin:miter;stroke-width:0.8;"/>
   </g>
   <g id="patch_39">
    <path d="M 1296 1260 
L 1296 1144.340426 
" style="fill:none;stroke:#000000;stroke-linecap:square;stroke-linejoin:miter;stroke-width:0.8;"/>
   </g>
   <g id="patch_40">
    <path d="M 180 1260 
L 1296 1260 
" style="fill:none;stroke:#000000;stroke-linecap:square;stroke-linejoin:miter;stroke-width:0.8;"/>
   </g>
   <g id="patch_41">
    <path d="M 180 1144.340426 
L 1296 1144.340426 
" style="fill:none;stroke:#000000;stroke-linecap:square;stroke-linejoin:miter;stroke-width:0.8;"/>
   </g>
  </g>
 </g>
 <defs>
  <clipPath id="p849769afad">
   <rect height="115.659574" width="1116" x="180" y="172.8"/>
  </clipPath>
  <clipPath id="p8905744593">
   <rect height="115.659574" width="1116" x="180" y="311.591489"/>
  </clipPath>
  <clipPath id="p341910c0d7">
   <rect height="115.659574" width="1116" x="180" y="450.382979"/>
  </clipPath>
  <clipPath id="p578354c3f2">
   <rect height="115.659574" width="1116" x="180" y="589.174468"/>
  </clipPath>
  <clipPath id="p7c949c59ae">
   <rect height="115.659574" width="1116" x="180" y="727.965957"/>
  </clipPath>
  <clipPath id="pe295aaf19e">
   <rect height="115.659574" width="1116" x="180" y="866.757447"/>
  </clipPath>
  <clipPath id="p9ff3a204fb">
   <rect height="115.659574" width="1116" x="180" y="1005.548936"/>
  </clipPath>
  <clipPath id="p3653edb05b">
   <rect height="115.659574" width="1116" x="180" y="1144.340426"/>
  </clipPath>
 </defs>
</svg>
